G04 EAGLE Gerber RS-274X export*
G75*
%MOMM*%
%FSLAX34Y34*%
%LPD*%
%INInner Layer 2*%
%IPPOS*%
%AMOC8*
5,1,8,0,0,1.08239X$1,22.5*%
G01*
%ADD10C,1.244600*%
%ADD11C,1.610000*%
%ADD12C,1.400000*%
%ADD13C,3.220000*%
%ADD14C,0.654800*%

G36*
X448969Y3D02*
X448969Y3D01*
X448989Y1D01*
X457505Y373D01*
X457536Y380D01*
X457604Y384D01*
X474376Y3342D01*
X474406Y3352D01*
X474505Y3376D01*
X490509Y9201D01*
X490536Y9216D01*
X490629Y9257D01*
X505378Y17773D01*
X505403Y17792D01*
X505487Y17849D01*
X518534Y28796D01*
X518554Y28820D01*
X518628Y28890D01*
X529575Y41937D01*
X529591Y41964D01*
X529651Y42046D01*
X538167Y56795D01*
X538178Y56824D01*
X538223Y56915D01*
X544048Y72919D01*
X544054Y72950D01*
X544082Y73048D01*
X547040Y89820D01*
X547040Y89852D01*
X547051Y89919D01*
X547423Y98435D01*
X547421Y98448D01*
X547423Y98468D01*
X547423Y248933D01*
X547421Y248946D01*
X547423Y248966D01*
X547050Y257488D01*
X547044Y257519D01*
X547040Y257587D01*
X544080Y274372D01*
X544070Y274402D01*
X544046Y274501D01*
X538216Y290517D01*
X538201Y290544D01*
X538160Y290637D01*
X529638Y305397D01*
X529618Y305422D01*
X529562Y305506D01*
X518606Y318563D01*
X518583Y318583D01*
X518513Y318656D01*
X505456Y329612D01*
X505429Y329628D01*
X505347Y329688D01*
X490587Y338210D01*
X490558Y338221D01*
X490467Y338266D01*
X474451Y344096D01*
X474420Y344101D01*
X474322Y344130D01*
X457537Y347090D01*
X457506Y347090D01*
X457438Y347100D01*
X448916Y347473D01*
X448904Y347471D01*
X448883Y347473D01*
X98776Y347473D01*
X98763Y347471D01*
X98742Y347473D01*
X90200Y347100D01*
X90169Y347093D01*
X90101Y347089D01*
X73276Y344122D01*
X73246Y344112D01*
X73147Y344088D01*
X57093Y338244D01*
X57065Y338229D01*
X56973Y338188D01*
X42177Y329646D01*
X42152Y329626D01*
X42068Y329570D01*
X28980Y318588D01*
X28960Y318564D01*
X28886Y318494D01*
X17904Y305406D01*
X17888Y305379D01*
X17828Y305297D01*
X9286Y290501D01*
X9275Y290472D01*
X9230Y290381D01*
X3386Y274327D01*
X3381Y274296D01*
X3374Y274273D01*
X3366Y274256D01*
X3364Y274239D01*
X3352Y274198D01*
X385Y257373D01*
X385Y257341D01*
X374Y257274D01*
X1Y248732D01*
X3Y248719D01*
X1Y248698D01*
X1Y98693D01*
X3Y98680D01*
X1Y98660D01*
X374Y90125D01*
X381Y90094D01*
X385Y90026D01*
X3349Y73214D01*
X3360Y73185D01*
X3384Y73086D01*
X9222Y57045D01*
X9237Y57018D01*
X9278Y56925D01*
X17813Y42141D01*
X17833Y42117D01*
X17889Y42033D01*
X28862Y28956D01*
X28886Y28936D01*
X28956Y28862D01*
X42033Y17889D01*
X42060Y17873D01*
X42141Y17813D01*
X56925Y9278D01*
X56954Y9267D01*
X57045Y9222D01*
X73086Y3384D01*
X73117Y3378D01*
X73214Y3349D01*
X90026Y385D01*
X90057Y385D01*
X90125Y374D01*
X98660Y1D01*
X98673Y3D01*
X98693Y1D01*
X448956Y1D01*
X448969Y3D01*
G37*
%LPC*%
G36*
X417246Y79579D02*
X417246Y79579D01*
X413820Y80998D01*
X411198Y83620D01*
X409779Y87046D01*
X409779Y90754D01*
X411198Y94180D01*
X413820Y96802D01*
X417246Y98221D01*
X420954Y98221D01*
X424380Y96802D01*
X427002Y94180D01*
X428421Y90754D01*
X428421Y87046D01*
X427002Y83620D01*
X424380Y80998D01*
X420954Y79579D01*
X417246Y79579D01*
G37*
%LPD*%
%LPC*%
G36*
X442646Y79579D02*
X442646Y79579D01*
X439220Y80998D01*
X436598Y83620D01*
X435179Y87046D01*
X435179Y90754D01*
X436598Y94180D01*
X439220Y96802D01*
X442646Y98221D01*
X446354Y98221D01*
X449780Y96802D01*
X452402Y94180D01*
X453821Y90754D01*
X453821Y87046D01*
X452402Y83620D01*
X449780Y80998D01*
X446354Y79579D01*
X442646Y79579D01*
G37*
%LPD*%
%LPC*%
G36*
X48946Y92279D02*
X48946Y92279D01*
X45520Y93698D01*
X42898Y96320D01*
X41479Y99746D01*
X41479Y103454D01*
X42898Y106880D01*
X45520Y109502D01*
X48946Y110921D01*
X52654Y110921D01*
X56080Y109502D01*
X58702Y106880D01*
X60121Y103454D01*
X60121Y99746D01*
X58702Y96320D01*
X56080Y93698D01*
X52654Y92279D01*
X48946Y92279D01*
G37*
%LPD*%
%LPC*%
G36*
X442646Y251029D02*
X442646Y251029D01*
X439220Y252448D01*
X436598Y255070D01*
X435179Y258496D01*
X435179Y262204D01*
X436598Y265630D01*
X439220Y268252D01*
X442646Y269671D01*
X446354Y269671D01*
X449780Y268252D01*
X452402Y265630D01*
X453821Y262204D01*
X453821Y258496D01*
X452402Y255070D01*
X449780Y252448D01*
X446354Y251029D01*
X442646Y251029D01*
G37*
%LPD*%
%LPC*%
G36*
X417246Y251029D02*
X417246Y251029D01*
X413820Y252448D01*
X411198Y255070D01*
X409779Y258496D01*
X409779Y262204D01*
X411198Y265630D01*
X413820Y268252D01*
X417246Y269671D01*
X420954Y269671D01*
X424380Y268252D01*
X427002Y265630D01*
X428421Y262204D01*
X428421Y258496D01*
X427002Y255070D01*
X424380Y252448D01*
X420954Y251029D01*
X417246Y251029D01*
G37*
%LPD*%
%LPC*%
G36*
X23546Y92279D02*
X23546Y92279D01*
X20120Y93698D01*
X17498Y96320D01*
X16079Y99746D01*
X16079Y103454D01*
X17498Y106880D01*
X20120Y109502D01*
X23546Y110921D01*
X27254Y110921D01*
X30680Y109502D01*
X33302Y106880D01*
X34721Y103454D01*
X34721Y99746D01*
X33302Y96320D01*
X30680Y93698D01*
X27254Y92279D01*
X23546Y92279D01*
G37*
%LPD*%
%LPC*%
G36*
X36246Y181179D02*
X36246Y181179D01*
X32820Y182598D01*
X30198Y185220D01*
X28779Y188646D01*
X28779Y192354D01*
X30198Y195780D01*
X32820Y198402D01*
X36246Y199821D01*
X39954Y199821D01*
X43380Y198402D01*
X46002Y195780D01*
X47421Y192354D01*
X47421Y188646D01*
X46002Y185220D01*
X43380Y182598D01*
X39954Y181179D01*
X36246Y181179D01*
G37*
%LPD*%
%LPC*%
G36*
X48946Y238329D02*
X48946Y238329D01*
X45520Y239748D01*
X42898Y242370D01*
X41479Y245796D01*
X41479Y249504D01*
X42898Y252930D01*
X45520Y255552D01*
X48946Y256971D01*
X52654Y256971D01*
X56080Y255552D01*
X58702Y252930D01*
X60121Y249504D01*
X60121Y245796D01*
X58702Y242370D01*
X56080Y239748D01*
X52654Y238329D01*
X48946Y238329D01*
G37*
%LPD*%
%LPC*%
G36*
X23546Y238329D02*
X23546Y238329D01*
X20120Y239748D01*
X17498Y242370D01*
X16079Y245796D01*
X16079Y249504D01*
X17498Y252930D01*
X20120Y255552D01*
X23546Y256971D01*
X27254Y256971D01*
X30680Y255552D01*
X33302Y252930D01*
X34721Y249504D01*
X34721Y245796D01*
X33302Y242370D01*
X30680Y239748D01*
X27254Y238329D01*
X23546Y238329D01*
G37*
%LPD*%
%LPC*%
G36*
X526104Y245023D02*
X526104Y245023D01*
X526104Y262101D01*
X528226Y261822D01*
X530586Y261189D01*
X532843Y260254D01*
X534959Y259032D01*
X536898Y257545D01*
X538626Y255817D01*
X540113Y253878D01*
X541335Y251762D01*
X542270Y249505D01*
X542903Y247145D01*
X543182Y245023D01*
X526104Y245023D01*
G37*
%LPD*%
%LPC*%
G36*
X526104Y113623D02*
X526104Y113623D01*
X526104Y130701D01*
X528226Y130422D01*
X530586Y129789D01*
X532843Y128854D01*
X534959Y127632D01*
X536898Y126145D01*
X538626Y124417D01*
X540113Y122478D01*
X541335Y120362D01*
X542270Y118105D01*
X542903Y115745D01*
X543182Y113623D01*
X526104Y113623D01*
G37*
%LPD*%
%LPC*%
G36*
X526104Y241977D02*
X526104Y241977D01*
X543182Y241977D01*
X542903Y239855D01*
X542270Y237495D01*
X541335Y235238D01*
X540113Y233122D01*
X538626Y231183D01*
X536898Y229455D01*
X534959Y227968D01*
X532843Y226746D01*
X530586Y225811D01*
X528226Y225178D01*
X526104Y224899D01*
X526104Y241977D01*
G37*
%LPD*%
%LPC*%
G36*
X526104Y110577D02*
X526104Y110577D01*
X543182Y110577D01*
X542903Y108455D01*
X542270Y106095D01*
X541335Y103838D01*
X540113Y101722D01*
X538626Y99783D01*
X536898Y98055D01*
X534959Y96568D01*
X532843Y95346D01*
X530586Y94411D01*
X528226Y93778D01*
X526104Y93499D01*
X526104Y110577D01*
G37*
%LPD*%
%LPC*%
G36*
X505980Y245023D02*
X505980Y245023D01*
X506259Y247145D01*
X506892Y249505D01*
X507827Y251762D01*
X509049Y253878D01*
X510536Y255817D01*
X512264Y257545D01*
X514203Y259032D01*
X516319Y260254D01*
X518576Y261189D01*
X520936Y261822D01*
X523058Y262101D01*
X523058Y245023D01*
X505980Y245023D01*
G37*
%LPD*%
%LPC*%
G36*
X505980Y113623D02*
X505980Y113623D01*
X506259Y115745D01*
X506892Y118105D01*
X507827Y120362D01*
X509049Y122478D01*
X510536Y124417D01*
X512264Y126145D01*
X514203Y127632D01*
X516319Y128854D01*
X518576Y129789D01*
X520936Y130422D01*
X523058Y130701D01*
X523058Y113623D01*
X505980Y113623D01*
G37*
%LPD*%
%LPC*%
G36*
X520936Y93778D02*
X520936Y93778D01*
X518576Y94411D01*
X516319Y95346D01*
X514203Y96568D01*
X512264Y98055D01*
X510536Y99783D01*
X509049Y101722D01*
X507827Y103838D01*
X506892Y106095D01*
X506259Y108455D01*
X505980Y110577D01*
X523058Y110577D01*
X523058Y93499D01*
X520936Y93778D01*
G37*
%LPD*%
%LPC*%
G36*
X520936Y225178D02*
X520936Y225178D01*
X518576Y225811D01*
X516319Y226746D01*
X514203Y227968D01*
X512264Y229455D01*
X510536Y231183D01*
X509049Y233122D01*
X507827Y235238D01*
X506892Y237495D01*
X506259Y239855D01*
X505980Y241977D01*
X523058Y241977D01*
X523058Y224899D01*
X520936Y225178D01*
G37*
%LPD*%
%LPC*%
G36*
X495835Y134529D02*
X495835Y134529D01*
X492795Y135788D01*
X490468Y138115D01*
X489209Y141155D01*
X489209Y144445D01*
X490468Y147485D01*
X492795Y149812D01*
X495835Y151071D01*
X499125Y151071D01*
X502165Y149812D01*
X504492Y147485D01*
X505751Y144445D01*
X505751Y141155D01*
X504492Y138115D01*
X502165Y135788D01*
X499125Y134529D01*
X495835Y134529D01*
G37*
%LPD*%
%LPC*%
G36*
X495835Y159529D02*
X495835Y159529D01*
X492795Y160788D01*
X490468Y163115D01*
X489209Y166155D01*
X489209Y169445D01*
X490468Y172485D01*
X492795Y174812D01*
X495835Y176071D01*
X499125Y176071D01*
X502165Y174812D01*
X504492Y172485D01*
X505751Y169445D01*
X505751Y166155D01*
X504492Y163115D01*
X502165Y160788D01*
X499125Y159529D01*
X495835Y159529D01*
G37*
%LPD*%
%LPC*%
G36*
X495835Y179529D02*
X495835Y179529D01*
X492795Y180788D01*
X490468Y183115D01*
X489209Y186155D01*
X489209Y189445D01*
X490468Y192485D01*
X492795Y194812D01*
X495835Y196071D01*
X499125Y196071D01*
X502165Y194812D01*
X504492Y192485D01*
X505751Y189445D01*
X505751Y186155D01*
X504492Y183115D01*
X502165Y180788D01*
X499125Y179529D01*
X495835Y179529D01*
G37*
%LPD*%
%LPC*%
G36*
X387809Y307206D02*
X387809Y307206D01*
X385055Y308347D01*
X382947Y310455D01*
X381806Y313209D01*
X381806Y316191D01*
X382947Y318945D01*
X385055Y321053D01*
X387809Y322194D01*
X390791Y322194D01*
X393545Y321053D01*
X395653Y318945D01*
X396794Y316191D01*
X396794Y313209D01*
X395653Y310455D01*
X393545Y308347D01*
X390791Y307206D01*
X387809Y307206D01*
G37*
%LPD*%
%LPC*%
G36*
X133809Y307206D02*
X133809Y307206D01*
X131055Y308347D01*
X128947Y310455D01*
X127806Y313209D01*
X127806Y316191D01*
X128947Y318945D01*
X131055Y321053D01*
X133809Y322194D01*
X136791Y322194D01*
X139545Y321053D01*
X141653Y318945D01*
X142794Y316191D01*
X142794Y313209D01*
X141653Y310455D01*
X139545Y308347D01*
X136791Y307206D01*
X133809Y307206D01*
G37*
%LPD*%
%LPC*%
G36*
X337009Y307206D02*
X337009Y307206D01*
X334255Y308347D01*
X332147Y310455D01*
X331006Y313209D01*
X331006Y316191D01*
X332147Y318945D01*
X334255Y321053D01*
X337009Y322194D01*
X339991Y322194D01*
X342745Y321053D01*
X344853Y318945D01*
X345994Y316191D01*
X345994Y313209D01*
X344853Y310455D01*
X342745Y308347D01*
X339991Y307206D01*
X337009Y307206D01*
G37*
%LPD*%
%LPC*%
G36*
X83009Y307206D02*
X83009Y307206D01*
X80255Y308347D01*
X78147Y310455D01*
X77006Y313209D01*
X77006Y316191D01*
X78147Y318945D01*
X80255Y321053D01*
X83009Y322194D01*
X85991Y322194D01*
X88745Y321053D01*
X90853Y318945D01*
X91994Y316191D01*
X91994Y313209D01*
X90853Y310455D01*
X88745Y308347D01*
X85991Y307206D01*
X83009Y307206D01*
G37*
%LPD*%
%LPC*%
G36*
X489409Y307206D02*
X489409Y307206D01*
X486655Y308347D01*
X484547Y310455D01*
X483406Y313209D01*
X483406Y316191D01*
X484547Y318945D01*
X486655Y321053D01*
X489409Y322194D01*
X492391Y322194D01*
X495145Y321053D01*
X497253Y318945D01*
X498394Y316191D01*
X498394Y313209D01*
X497253Y310455D01*
X495145Y308347D01*
X492391Y307206D01*
X489409Y307206D01*
G37*
%LPD*%
%LPC*%
G36*
X464009Y307206D02*
X464009Y307206D01*
X461255Y308347D01*
X459147Y310455D01*
X458006Y313209D01*
X458006Y316191D01*
X459147Y318945D01*
X461255Y321053D01*
X464009Y322194D01*
X466991Y322194D01*
X469745Y321053D01*
X471853Y318945D01*
X472994Y316191D01*
X472994Y313209D01*
X471853Y310455D01*
X469745Y308347D01*
X466991Y307206D01*
X464009Y307206D01*
G37*
%LPD*%
%LPC*%
G36*
X438609Y307206D02*
X438609Y307206D01*
X435855Y308347D01*
X433747Y310455D01*
X432606Y313209D01*
X432606Y316191D01*
X433747Y318945D01*
X435855Y321053D01*
X438609Y322194D01*
X441591Y322194D01*
X444345Y321053D01*
X446453Y318945D01*
X447594Y316191D01*
X447594Y313209D01*
X446453Y310455D01*
X444345Y308347D01*
X441591Y307206D01*
X438609Y307206D01*
G37*
%LPD*%
%LPC*%
G36*
X413209Y307206D02*
X413209Y307206D01*
X410455Y308347D01*
X408347Y310455D01*
X407206Y313209D01*
X407206Y316191D01*
X408347Y318945D01*
X410455Y321053D01*
X413209Y322194D01*
X416191Y322194D01*
X418945Y321053D01*
X421053Y318945D01*
X422194Y316191D01*
X422194Y313209D01*
X421053Y310455D01*
X418945Y308347D01*
X416191Y307206D01*
X413209Y307206D01*
G37*
%LPD*%
%LPC*%
G36*
X108409Y307206D02*
X108409Y307206D01*
X105655Y308347D01*
X103547Y310455D01*
X102406Y313209D01*
X102406Y316191D01*
X103547Y318945D01*
X105655Y321053D01*
X108409Y322194D01*
X111391Y322194D01*
X114145Y321053D01*
X116253Y318945D01*
X117394Y316191D01*
X117394Y313209D01*
X116253Y310455D01*
X114145Y308347D01*
X111391Y307206D01*
X108409Y307206D01*
G37*
%LPD*%
%LPC*%
G36*
X362409Y307206D02*
X362409Y307206D01*
X359655Y308347D01*
X357547Y310455D01*
X356406Y313209D01*
X356406Y316191D01*
X357547Y318945D01*
X359655Y321053D01*
X362409Y322194D01*
X365391Y322194D01*
X368145Y321053D01*
X370253Y318945D01*
X371394Y316191D01*
X371394Y313209D01*
X370253Y310455D01*
X368145Y308347D01*
X365391Y307206D01*
X362409Y307206D01*
G37*
%LPD*%
%LPC*%
G36*
X57609Y307206D02*
X57609Y307206D01*
X54855Y308347D01*
X52747Y310455D01*
X51606Y313209D01*
X51606Y316191D01*
X52747Y318945D01*
X54855Y321053D01*
X57609Y322194D01*
X60591Y322194D01*
X63345Y321053D01*
X65453Y318945D01*
X66594Y316191D01*
X66594Y313209D01*
X65453Y310455D01*
X63345Y308347D01*
X60591Y307206D01*
X57609Y307206D01*
G37*
%LPD*%
%LPC*%
G36*
X311609Y307206D02*
X311609Y307206D01*
X308855Y308347D01*
X306747Y310455D01*
X305606Y313209D01*
X305606Y316191D01*
X306747Y318945D01*
X308855Y321053D01*
X311609Y322194D01*
X314591Y322194D01*
X317345Y321053D01*
X319453Y318945D01*
X320594Y316191D01*
X320594Y313209D01*
X319453Y310455D01*
X317345Y308347D01*
X314591Y307206D01*
X311609Y307206D01*
G37*
%LPD*%
%LPC*%
G36*
X286209Y307206D02*
X286209Y307206D01*
X283455Y308347D01*
X281347Y310455D01*
X280206Y313209D01*
X280206Y316191D01*
X281347Y318945D01*
X283455Y321053D01*
X286209Y322194D01*
X289191Y322194D01*
X291945Y321053D01*
X294053Y318945D01*
X295194Y316191D01*
X295194Y313209D01*
X294053Y310455D01*
X291945Y308347D01*
X289191Y307206D01*
X286209Y307206D01*
G37*
%LPD*%
%LPC*%
G36*
X260809Y307206D02*
X260809Y307206D01*
X258055Y308347D01*
X255947Y310455D01*
X254806Y313209D01*
X254806Y316191D01*
X255947Y318945D01*
X258055Y321053D01*
X260809Y322194D01*
X263791Y322194D01*
X266545Y321053D01*
X268653Y318945D01*
X269794Y316191D01*
X269794Y313209D01*
X268653Y310455D01*
X266545Y308347D01*
X263791Y307206D01*
X260809Y307206D01*
G37*
%LPD*%
%LPC*%
G36*
X235409Y307206D02*
X235409Y307206D01*
X232655Y308347D01*
X230547Y310455D01*
X229406Y313209D01*
X229406Y316191D01*
X230547Y318945D01*
X232655Y321053D01*
X235409Y322194D01*
X238391Y322194D01*
X241145Y321053D01*
X243253Y318945D01*
X244394Y316191D01*
X244394Y313209D01*
X243253Y310455D01*
X241145Y308347D01*
X238391Y307206D01*
X235409Y307206D01*
G37*
%LPD*%
%LPC*%
G36*
X210009Y307206D02*
X210009Y307206D01*
X207255Y308347D01*
X205147Y310455D01*
X204006Y313209D01*
X204006Y316191D01*
X205147Y318945D01*
X207255Y321053D01*
X210009Y322194D01*
X212991Y322194D01*
X215745Y321053D01*
X217853Y318945D01*
X218994Y316191D01*
X218994Y313209D01*
X217853Y310455D01*
X215745Y308347D01*
X212991Y307206D01*
X210009Y307206D01*
G37*
%LPD*%
%LPC*%
G36*
X184609Y307206D02*
X184609Y307206D01*
X181855Y308347D01*
X179747Y310455D01*
X178606Y313209D01*
X178606Y316191D01*
X179747Y318945D01*
X181855Y321053D01*
X184609Y322194D01*
X187591Y322194D01*
X190345Y321053D01*
X192453Y318945D01*
X193594Y316191D01*
X193594Y313209D01*
X192453Y310455D01*
X190345Y308347D01*
X187591Y307206D01*
X184609Y307206D01*
G37*
%LPD*%
%LPC*%
G36*
X159209Y307206D02*
X159209Y307206D01*
X156455Y308347D01*
X154347Y310455D01*
X153206Y313209D01*
X153206Y316191D01*
X154347Y318945D01*
X156455Y321053D01*
X159209Y322194D01*
X162191Y322194D01*
X164945Y321053D01*
X167053Y318945D01*
X168194Y316191D01*
X168194Y313209D01*
X167053Y310455D01*
X164945Y308347D01*
X162191Y307206D01*
X159209Y307206D01*
G37*
%LPD*%
%LPC*%
G36*
X133809Y53206D02*
X133809Y53206D01*
X131055Y54347D01*
X128947Y56455D01*
X127806Y59209D01*
X127806Y62191D01*
X128947Y64945D01*
X131055Y67053D01*
X133809Y68194D01*
X136791Y68194D01*
X139545Y67053D01*
X141653Y64945D01*
X142794Y62191D01*
X142794Y59209D01*
X141653Y56455D01*
X139545Y54347D01*
X136791Y53206D01*
X133809Y53206D01*
G37*
%LPD*%
%LPC*%
G36*
X108409Y53206D02*
X108409Y53206D01*
X105655Y54347D01*
X103547Y56455D01*
X102406Y59209D01*
X102406Y62191D01*
X103547Y64945D01*
X105655Y67053D01*
X108409Y68194D01*
X111391Y68194D01*
X114145Y67053D01*
X116253Y64945D01*
X117394Y62191D01*
X117394Y59209D01*
X116253Y56455D01*
X114145Y54347D01*
X111391Y53206D01*
X108409Y53206D01*
G37*
%LPD*%
%LPC*%
G36*
X83009Y53206D02*
X83009Y53206D01*
X80255Y54347D01*
X78147Y56455D01*
X77006Y59209D01*
X77006Y62191D01*
X78147Y64945D01*
X80255Y67053D01*
X83009Y68194D01*
X85991Y68194D01*
X88745Y67053D01*
X90853Y64945D01*
X91994Y62191D01*
X91994Y59209D01*
X90853Y56455D01*
X88745Y54347D01*
X85991Y53206D01*
X83009Y53206D01*
G37*
%LPD*%
%LPC*%
G36*
X489409Y281806D02*
X489409Y281806D01*
X486655Y282947D01*
X484547Y285055D01*
X483406Y287809D01*
X483406Y290791D01*
X484547Y293545D01*
X486655Y295653D01*
X489409Y296794D01*
X492391Y296794D01*
X495145Y295653D01*
X497253Y293545D01*
X498394Y290791D01*
X498394Y287809D01*
X497253Y285055D01*
X495145Y282947D01*
X492391Y281806D01*
X489409Y281806D01*
G37*
%LPD*%
%LPC*%
G36*
X464009Y281806D02*
X464009Y281806D01*
X461255Y282947D01*
X459147Y285055D01*
X458006Y287809D01*
X458006Y290791D01*
X459147Y293545D01*
X461255Y295653D01*
X464009Y296794D01*
X466991Y296794D01*
X469745Y295653D01*
X471853Y293545D01*
X472994Y290791D01*
X472994Y287809D01*
X471853Y285055D01*
X469745Y282947D01*
X466991Y281806D01*
X464009Y281806D01*
G37*
%LPD*%
%LPC*%
G36*
X438609Y281806D02*
X438609Y281806D01*
X435855Y282947D01*
X433747Y285055D01*
X432606Y287809D01*
X432606Y290791D01*
X433747Y293545D01*
X435855Y295653D01*
X438609Y296794D01*
X441591Y296794D01*
X444345Y295653D01*
X446453Y293545D01*
X447594Y290791D01*
X447594Y287809D01*
X446453Y285055D01*
X444345Y282947D01*
X441591Y281806D01*
X438609Y281806D01*
G37*
%LPD*%
%LPC*%
G36*
X413209Y281806D02*
X413209Y281806D01*
X410455Y282947D01*
X408347Y285055D01*
X407206Y287809D01*
X407206Y290791D01*
X408347Y293545D01*
X410455Y295653D01*
X413209Y296794D01*
X416191Y296794D01*
X418945Y295653D01*
X421053Y293545D01*
X422194Y290791D01*
X422194Y287809D01*
X421053Y285055D01*
X418945Y282947D01*
X416191Y281806D01*
X413209Y281806D01*
G37*
%LPD*%
%LPC*%
G36*
X387809Y281806D02*
X387809Y281806D01*
X385055Y282947D01*
X382947Y285055D01*
X381806Y287809D01*
X381806Y290791D01*
X382947Y293545D01*
X385055Y295653D01*
X387809Y296794D01*
X390791Y296794D01*
X393545Y295653D01*
X395653Y293545D01*
X396794Y290791D01*
X396794Y287809D01*
X395653Y285055D01*
X393545Y282947D01*
X390791Y281806D01*
X387809Y281806D01*
G37*
%LPD*%
%LPC*%
G36*
X362409Y281806D02*
X362409Y281806D01*
X359655Y282947D01*
X357547Y285055D01*
X356406Y287809D01*
X356406Y290791D01*
X357547Y293545D01*
X359655Y295653D01*
X362409Y296794D01*
X365391Y296794D01*
X368145Y295653D01*
X370253Y293545D01*
X371394Y290791D01*
X371394Y287809D01*
X370253Y285055D01*
X368145Y282947D01*
X365391Y281806D01*
X362409Y281806D01*
G37*
%LPD*%
%LPC*%
G36*
X337009Y281806D02*
X337009Y281806D01*
X334255Y282947D01*
X332147Y285055D01*
X331006Y287809D01*
X331006Y290791D01*
X332147Y293545D01*
X334255Y295653D01*
X337009Y296794D01*
X339991Y296794D01*
X342745Y295653D01*
X344853Y293545D01*
X345994Y290791D01*
X345994Y287809D01*
X344853Y285055D01*
X342745Y282947D01*
X339991Y281806D01*
X337009Y281806D01*
G37*
%LPD*%
%LPC*%
G36*
X286209Y281806D02*
X286209Y281806D01*
X283455Y282947D01*
X281347Y285055D01*
X280206Y287809D01*
X280206Y290791D01*
X281347Y293545D01*
X283455Y295653D01*
X286209Y296794D01*
X289191Y296794D01*
X291945Y295653D01*
X294053Y293545D01*
X295194Y290791D01*
X295194Y287809D01*
X294053Y285055D01*
X291945Y282947D01*
X289191Y281806D01*
X286209Y281806D01*
G37*
%LPD*%
%LPC*%
G36*
X260809Y281806D02*
X260809Y281806D01*
X258055Y282947D01*
X255947Y285055D01*
X254806Y287809D01*
X254806Y290791D01*
X255947Y293545D01*
X258055Y295653D01*
X260809Y296794D01*
X263791Y296794D01*
X266545Y295653D01*
X268653Y293545D01*
X269794Y290791D01*
X269794Y287809D01*
X268653Y285055D01*
X266545Y282947D01*
X263791Y281806D01*
X260809Y281806D01*
G37*
%LPD*%
%LPC*%
G36*
X210009Y281806D02*
X210009Y281806D01*
X207255Y282947D01*
X205147Y285055D01*
X204006Y287809D01*
X204006Y290791D01*
X205147Y293545D01*
X207255Y295653D01*
X210009Y296794D01*
X212991Y296794D01*
X215745Y295653D01*
X217853Y293545D01*
X218994Y290791D01*
X218994Y287809D01*
X217853Y285055D01*
X215745Y282947D01*
X212991Y281806D01*
X210009Y281806D01*
G37*
%LPD*%
%LPC*%
G36*
X184609Y281806D02*
X184609Y281806D01*
X181855Y282947D01*
X179747Y285055D01*
X178606Y287809D01*
X178606Y290791D01*
X179747Y293545D01*
X181855Y295653D01*
X184609Y296794D01*
X187591Y296794D01*
X190345Y295653D01*
X192453Y293545D01*
X193594Y290791D01*
X193594Y287809D01*
X192453Y285055D01*
X190345Y282947D01*
X187591Y281806D01*
X184609Y281806D01*
G37*
%LPD*%
%LPC*%
G36*
X159209Y281806D02*
X159209Y281806D01*
X156455Y282947D01*
X154347Y285055D01*
X153206Y287809D01*
X153206Y290791D01*
X154347Y293545D01*
X156455Y295653D01*
X159209Y296794D01*
X162191Y296794D01*
X164945Y295653D01*
X167053Y293545D01*
X168194Y290791D01*
X168194Y287809D01*
X167053Y285055D01*
X164945Y282947D01*
X162191Y281806D01*
X159209Y281806D01*
G37*
%LPD*%
%LPC*%
G36*
X133809Y281806D02*
X133809Y281806D01*
X131055Y282947D01*
X128947Y285055D01*
X127806Y287809D01*
X127806Y290791D01*
X128947Y293545D01*
X131055Y295653D01*
X133809Y296794D01*
X136791Y296794D01*
X139545Y295653D01*
X141653Y293545D01*
X142794Y290791D01*
X142794Y287809D01*
X141653Y285055D01*
X139545Y282947D01*
X136791Y281806D01*
X133809Y281806D01*
G37*
%LPD*%
%LPC*%
G36*
X108409Y281806D02*
X108409Y281806D01*
X105655Y282947D01*
X103547Y285055D01*
X102406Y287809D01*
X102406Y290791D01*
X103547Y293545D01*
X105655Y295653D01*
X108409Y296794D01*
X111391Y296794D01*
X114145Y295653D01*
X116253Y293545D01*
X117394Y290791D01*
X117394Y287809D01*
X116253Y285055D01*
X114145Y282947D01*
X111391Y281806D01*
X108409Y281806D01*
G37*
%LPD*%
%LPC*%
G36*
X83009Y281806D02*
X83009Y281806D01*
X80255Y282947D01*
X78147Y285055D01*
X77006Y287809D01*
X77006Y290791D01*
X78147Y293545D01*
X80255Y295653D01*
X83009Y296794D01*
X85991Y296794D01*
X88745Y295653D01*
X90853Y293545D01*
X91994Y290791D01*
X91994Y287809D01*
X90853Y285055D01*
X88745Y282947D01*
X85991Y281806D01*
X83009Y281806D01*
G37*
%LPD*%
%LPC*%
G36*
X57609Y281806D02*
X57609Y281806D01*
X54855Y282947D01*
X52747Y285055D01*
X51606Y287809D01*
X51606Y290791D01*
X52747Y293545D01*
X54855Y295653D01*
X57609Y296794D01*
X60591Y296794D01*
X63345Y295653D01*
X65453Y293545D01*
X66594Y290791D01*
X66594Y287809D01*
X65453Y285055D01*
X63345Y282947D01*
X60591Y281806D01*
X57609Y281806D01*
G37*
%LPD*%
%LPC*%
G36*
X57609Y53206D02*
X57609Y53206D01*
X54855Y54347D01*
X52747Y56455D01*
X51606Y59209D01*
X51606Y62191D01*
X52747Y64945D01*
X54855Y67053D01*
X57609Y68194D01*
X60591Y68194D01*
X63345Y67053D01*
X65453Y64945D01*
X66594Y62191D01*
X66594Y59209D01*
X65453Y56455D01*
X63345Y54347D01*
X60591Y53206D01*
X57609Y53206D01*
G37*
%LPD*%
%LPC*%
G36*
X489409Y53206D02*
X489409Y53206D01*
X486655Y54347D01*
X484547Y56455D01*
X483406Y59209D01*
X483406Y62191D01*
X484547Y64945D01*
X486655Y67053D01*
X489409Y68194D01*
X492391Y68194D01*
X495145Y67053D01*
X497253Y64945D01*
X498394Y62191D01*
X498394Y59209D01*
X497253Y56455D01*
X495145Y54347D01*
X492391Y53206D01*
X489409Y53206D01*
G37*
%LPD*%
%LPC*%
G36*
X464009Y53206D02*
X464009Y53206D01*
X461255Y54347D01*
X459147Y56455D01*
X458006Y59209D01*
X458006Y62191D01*
X459147Y64945D01*
X461255Y67053D01*
X464009Y68194D01*
X466991Y68194D01*
X469745Y67053D01*
X471853Y64945D01*
X472994Y62191D01*
X472994Y59209D01*
X471853Y56455D01*
X469745Y54347D01*
X466991Y53206D01*
X464009Y53206D01*
G37*
%LPD*%
%LPC*%
G36*
X438609Y53206D02*
X438609Y53206D01*
X435855Y54347D01*
X433747Y56455D01*
X432606Y59209D01*
X432606Y62191D01*
X433747Y64945D01*
X435855Y67053D01*
X438609Y68194D01*
X441591Y68194D01*
X444345Y67053D01*
X446453Y64945D01*
X447594Y62191D01*
X447594Y59209D01*
X446453Y56455D01*
X444345Y54347D01*
X441591Y53206D01*
X438609Y53206D01*
G37*
%LPD*%
%LPC*%
G36*
X413209Y53206D02*
X413209Y53206D01*
X410455Y54347D01*
X408347Y56455D01*
X407206Y59209D01*
X407206Y62191D01*
X408347Y64945D01*
X410455Y67053D01*
X413209Y68194D01*
X416191Y68194D01*
X418945Y67053D01*
X421053Y64945D01*
X422194Y62191D01*
X422194Y59209D01*
X421053Y56455D01*
X418945Y54347D01*
X416191Y53206D01*
X413209Y53206D01*
G37*
%LPD*%
%LPC*%
G36*
X387809Y53206D02*
X387809Y53206D01*
X385055Y54347D01*
X382947Y56455D01*
X381806Y59209D01*
X381806Y62191D01*
X382947Y64945D01*
X385055Y67053D01*
X387809Y68194D01*
X390791Y68194D01*
X393545Y67053D01*
X395653Y64945D01*
X396794Y62191D01*
X396794Y59209D01*
X395653Y56455D01*
X393545Y54347D01*
X390791Y53206D01*
X387809Y53206D01*
G37*
%LPD*%
%LPC*%
G36*
X362409Y53206D02*
X362409Y53206D01*
X359655Y54347D01*
X357547Y56455D01*
X356406Y59209D01*
X356406Y62191D01*
X357547Y64945D01*
X359655Y67053D01*
X362409Y68194D01*
X365391Y68194D01*
X368145Y67053D01*
X370253Y64945D01*
X371394Y62191D01*
X371394Y59209D01*
X370253Y56455D01*
X368145Y54347D01*
X365391Y53206D01*
X362409Y53206D01*
G37*
%LPD*%
%LPC*%
G36*
X337009Y53206D02*
X337009Y53206D01*
X334255Y54347D01*
X332147Y56455D01*
X331006Y59209D01*
X331006Y62191D01*
X332147Y64945D01*
X334255Y67053D01*
X337009Y68194D01*
X339991Y68194D01*
X342745Y67053D01*
X344853Y64945D01*
X345994Y62191D01*
X345994Y59209D01*
X344853Y56455D01*
X342745Y54347D01*
X339991Y53206D01*
X337009Y53206D01*
G37*
%LPD*%
%LPC*%
G36*
X286209Y53206D02*
X286209Y53206D01*
X283455Y54347D01*
X281347Y56455D01*
X280206Y59209D01*
X280206Y62191D01*
X281347Y64945D01*
X283455Y67053D01*
X286209Y68194D01*
X289191Y68194D01*
X291945Y67053D01*
X294053Y64945D01*
X295194Y62191D01*
X295194Y59209D01*
X294053Y56455D01*
X291945Y54347D01*
X289191Y53206D01*
X286209Y53206D01*
G37*
%LPD*%
%LPC*%
G36*
X260809Y53206D02*
X260809Y53206D01*
X258055Y54347D01*
X255947Y56455D01*
X254806Y59209D01*
X254806Y62191D01*
X255947Y64945D01*
X258055Y67053D01*
X260809Y68194D01*
X263791Y68194D01*
X266545Y67053D01*
X268653Y64945D01*
X269794Y62191D01*
X269794Y59209D01*
X268653Y56455D01*
X266545Y54347D01*
X263791Y53206D01*
X260809Y53206D01*
G37*
%LPD*%
%LPC*%
G36*
X210009Y53206D02*
X210009Y53206D01*
X207255Y54347D01*
X205147Y56455D01*
X204006Y59209D01*
X204006Y62191D01*
X205147Y64945D01*
X207255Y67053D01*
X210009Y68194D01*
X212991Y68194D01*
X215745Y67053D01*
X217853Y64945D01*
X218994Y62191D01*
X218994Y59209D01*
X217853Y56455D01*
X215745Y54347D01*
X212991Y53206D01*
X210009Y53206D01*
G37*
%LPD*%
%LPC*%
G36*
X184609Y53206D02*
X184609Y53206D01*
X181855Y54347D01*
X179747Y56455D01*
X178606Y59209D01*
X178606Y62191D01*
X179747Y64945D01*
X181855Y67053D01*
X184609Y68194D01*
X187591Y68194D01*
X190345Y67053D01*
X192453Y64945D01*
X193594Y62191D01*
X193594Y59209D01*
X192453Y56455D01*
X190345Y54347D01*
X187591Y53206D01*
X184609Y53206D01*
G37*
%LPD*%
%LPC*%
G36*
X159209Y53206D02*
X159209Y53206D01*
X156455Y54347D01*
X154347Y56455D01*
X153206Y59209D01*
X153206Y62191D01*
X154347Y64945D01*
X156455Y67053D01*
X159209Y68194D01*
X162191Y68194D01*
X164945Y67053D01*
X167053Y64945D01*
X168194Y62191D01*
X168194Y59209D01*
X167053Y56455D01*
X164945Y54347D01*
X162191Y53206D01*
X159209Y53206D01*
G37*
%LPD*%
%LPC*%
G36*
X387809Y27806D02*
X387809Y27806D01*
X385055Y28947D01*
X382947Y31055D01*
X381806Y33809D01*
X381806Y36791D01*
X382947Y39545D01*
X385055Y41653D01*
X387809Y42794D01*
X390791Y42794D01*
X393545Y41653D01*
X395653Y39545D01*
X396794Y36791D01*
X396794Y33809D01*
X395653Y31055D01*
X393545Y28947D01*
X390791Y27806D01*
X387809Y27806D01*
G37*
%LPD*%
%LPC*%
G36*
X362409Y27806D02*
X362409Y27806D01*
X359655Y28947D01*
X357547Y31055D01*
X356406Y33809D01*
X356406Y36791D01*
X357547Y39545D01*
X359655Y41653D01*
X362409Y42794D01*
X365391Y42794D01*
X368145Y41653D01*
X370253Y39545D01*
X371394Y36791D01*
X371394Y33809D01*
X370253Y31055D01*
X368145Y28947D01*
X365391Y27806D01*
X362409Y27806D01*
G37*
%LPD*%
%LPC*%
G36*
X337009Y27806D02*
X337009Y27806D01*
X334255Y28947D01*
X332147Y31055D01*
X331006Y33809D01*
X331006Y36791D01*
X332147Y39545D01*
X334255Y41653D01*
X337009Y42794D01*
X339991Y42794D01*
X342745Y41653D01*
X344853Y39545D01*
X345994Y36791D01*
X345994Y33809D01*
X344853Y31055D01*
X342745Y28947D01*
X339991Y27806D01*
X337009Y27806D01*
G37*
%LPD*%
%LPC*%
G36*
X489409Y27806D02*
X489409Y27806D01*
X486655Y28947D01*
X484547Y31055D01*
X483406Y33809D01*
X483406Y36791D01*
X484547Y39545D01*
X486655Y41653D01*
X489409Y42794D01*
X492391Y42794D01*
X495145Y41653D01*
X497253Y39545D01*
X498394Y36791D01*
X498394Y33809D01*
X497253Y31055D01*
X495145Y28947D01*
X492391Y27806D01*
X489409Y27806D01*
G37*
%LPD*%
%LPC*%
G36*
X464009Y27806D02*
X464009Y27806D01*
X461255Y28947D01*
X459147Y31055D01*
X458006Y33809D01*
X458006Y36791D01*
X459147Y39545D01*
X461255Y41653D01*
X464009Y42794D01*
X466991Y42794D01*
X469745Y41653D01*
X471853Y39545D01*
X472994Y36791D01*
X472994Y33809D01*
X471853Y31055D01*
X469745Y28947D01*
X466991Y27806D01*
X464009Y27806D01*
G37*
%LPD*%
%LPC*%
G36*
X438609Y27806D02*
X438609Y27806D01*
X435855Y28947D01*
X433747Y31055D01*
X432606Y33809D01*
X432606Y36791D01*
X433747Y39545D01*
X435855Y41653D01*
X438609Y42794D01*
X441591Y42794D01*
X444345Y41653D01*
X446453Y39545D01*
X447594Y36791D01*
X447594Y33809D01*
X446453Y31055D01*
X444345Y28947D01*
X441591Y27806D01*
X438609Y27806D01*
G37*
%LPD*%
%LPC*%
G36*
X311609Y27806D02*
X311609Y27806D01*
X308855Y28947D01*
X306747Y31055D01*
X305606Y33809D01*
X305606Y36791D01*
X306747Y39545D01*
X308855Y41653D01*
X311609Y42794D01*
X314591Y42794D01*
X317345Y41653D01*
X319453Y39545D01*
X320594Y36791D01*
X320594Y33809D01*
X319453Y31055D01*
X317345Y28947D01*
X314591Y27806D01*
X311609Y27806D01*
G37*
%LPD*%
%LPC*%
G36*
X286209Y27806D02*
X286209Y27806D01*
X283455Y28947D01*
X281347Y31055D01*
X280206Y33809D01*
X280206Y36791D01*
X281347Y39545D01*
X283455Y41653D01*
X286209Y42794D01*
X289191Y42794D01*
X291945Y41653D01*
X294053Y39545D01*
X295194Y36791D01*
X295194Y33809D01*
X294053Y31055D01*
X291945Y28947D01*
X289191Y27806D01*
X286209Y27806D01*
G37*
%LPD*%
%LPC*%
G36*
X260809Y27806D02*
X260809Y27806D01*
X258055Y28947D01*
X255947Y31055D01*
X254806Y33809D01*
X254806Y36791D01*
X255947Y39545D01*
X258055Y41653D01*
X260809Y42794D01*
X263791Y42794D01*
X266545Y41653D01*
X268653Y39545D01*
X269794Y36791D01*
X269794Y33809D01*
X268653Y31055D01*
X266545Y28947D01*
X263791Y27806D01*
X260809Y27806D01*
G37*
%LPD*%
%LPC*%
G36*
X184609Y27806D02*
X184609Y27806D01*
X181855Y28947D01*
X179747Y31055D01*
X178606Y33809D01*
X178606Y36791D01*
X179747Y39545D01*
X181855Y41653D01*
X184609Y42794D01*
X187591Y42794D01*
X190345Y41653D01*
X192453Y39545D01*
X193594Y36791D01*
X193594Y33809D01*
X192453Y31055D01*
X190345Y28947D01*
X187591Y27806D01*
X184609Y27806D01*
G37*
%LPD*%
%LPC*%
G36*
X159209Y27806D02*
X159209Y27806D01*
X156455Y28947D01*
X154347Y31055D01*
X153206Y33809D01*
X153206Y36791D01*
X154347Y39545D01*
X156455Y41653D01*
X159209Y42794D01*
X162191Y42794D01*
X164945Y41653D01*
X167053Y39545D01*
X168194Y36791D01*
X168194Y33809D01*
X167053Y31055D01*
X164945Y28947D01*
X162191Y27806D01*
X159209Y27806D01*
G37*
%LPD*%
%LPC*%
G36*
X133809Y27806D02*
X133809Y27806D01*
X131055Y28947D01*
X128947Y31055D01*
X127806Y33809D01*
X127806Y36791D01*
X128947Y39545D01*
X131055Y41653D01*
X133809Y42794D01*
X136791Y42794D01*
X139545Y41653D01*
X141653Y39545D01*
X142794Y36791D01*
X142794Y33809D01*
X141653Y31055D01*
X139545Y28947D01*
X136791Y27806D01*
X133809Y27806D01*
G37*
%LPD*%
%LPC*%
G36*
X108409Y27806D02*
X108409Y27806D01*
X105655Y28947D01*
X103547Y31055D01*
X102406Y33809D01*
X102406Y36791D01*
X103547Y39545D01*
X105655Y41653D01*
X108409Y42794D01*
X111391Y42794D01*
X114145Y41653D01*
X116253Y39545D01*
X117394Y36791D01*
X117394Y33809D01*
X116253Y31055D01*
X114145Y28947D01*
X111391Y27806D01*
X108409Y27806D01*
G37*
%LPD*%
%LPC*%
G36*
X83009Y27806D02*
X83009Y27806D01*
X80255Y28947D01*
X78147Y31055D01*
X77006Y33809D01*
X77006Y36791D01*
X78147Y39545D01*
X80255Y41653D01*
X83009Y42794D01*
X85991Y42794D01*
X88745Y41653D01*
X90853Y39545D01*
X91994Y36791D01*
X91994Y33809D01*
X90853Y31055D01*
X88745Y28947D01*
X85991Y27806D01*
X83009Y27806D01*
G37*
%LPD*%
%LPC*%
G36*
X57609Y27806D02*
X57609Y27806D01*
X54855Y28947D01*
X52747Y31055D01*
X51606Y33809D01*
X51606Y36791D01*
X52747Y39545D01*
X54855Y41653D01*
X57609Y42794D01*
X60591Y42794D01*
X63345Y41653D01*
X65453Y39545D01*
X66594Y36791D01*
X66594Y33809D01*
X65453Y31055D01*
X63345Y28947D01*
X60591Y27806D01*
X57609Y27806D01*
G37*
%LPD*%
%LPC*%
G36*
X413209Y27806D02*
X413209Y27806D01*
X410455Y28947D01*
X408347Y31055D01*
X407206Y33809D01*
X407206Y36791D01*
X408347Y39545D01*
X410455Y41653D01*
X413209Y42794D01*
X416191Y42794D01*
X418945Y41653D01*
X421053Y39545D01*
X422194Y36791D01*
X422194Y33809D01*
X421053Y31055D01*
X418945Y28947D01*
X416191Y27806D01*
X413209Y27806D01*
G37*
%LPD*%
%LPC*%
G36*
X233067Y255805D02*
X233067Y255805D01*
X230405Y258467D01*
X230405Y262233D01*
X233067Y264895D01*
X236833Y264895D01*
X238857Y262871D01*
X238873Y262859D01*
X238885Y262843D01*
X238973Y262787D01*
X239056Y262727D01*
X239075Y262721D01*
X239092Y262710D01*
X239193Y262685D01*
X239292Y262655D01*
X239311Y262655D01*
X239331Y262650D01*
X239434Y262658D01*
X239537Y262661D01*
X239556Y262668D01*
X239576Y262669D01*
X239671Y262710D01*
X239768Y262745D01*
X239784Y262758D01*
X239802Y262766D01*
X239933Y262871D01*
X241957Y264895D01*
X245723Y264895D01*
X248385Y262233D01*
X248385Y258467D01*
X245723Y255805D01*
X241957Y255805D01*
X239933Y257829D01*
X239917Y257841D01*
X239905Y257857D01*
X239817Y257913D01*
X239734Y257973D01*
X239715Y257979D01*
X239698Y257990D01*
X239597Y258015D01*
X239498Y258045D01*
X239479Y258045D01*
X239459Y258050D01*
X239356Y258042D01*
X239253Y258039D01*
X239234Y258032D01*
X239214Y258031D01*
X239119Y257990D01*
X239022Y257955D01*
X239006Y257942D01*
X238988Y257934D01*
X238857Y257829D01*
X236833Y255805D01*
X233067Y255805D01*
G37*
%LPD*%
%LPC*%
G36*
X186077Y255805D02*
X186077Y255805D01*
X183415Y258467D01*
X183415Y262233D01*
X186077Y264895D01*
X189843Y264895D01*
X191867Y262871D01*
X191883Y262859D01*
X191895Y262843D01*
X191983Y262787D01*
X192066Y262727D01*
X192085Y262721D01*
X192102Y262710D01*
X192203Y262685D01*
X192302Y262655D01*
X192321Y262655D01*
X192341Y262650D01*
X192444Y262658D01*
X192547Y262661D01*
X192566Y262668D01*
X192586Y262669D01*
X192681Y262710D01*
X192778Y262745D01*
X192794Y262758D01*
X192812Y262766D01*
X192943Y262871D01*
X194967Y264895D01*
X198733Y264895D01*
X201395Y262233D01*
X201395Y258467D01*
X198733Y255805D01*
X194967Y255805D01*
X192943Y257829D01*
X192927Y257841D01*
X192915Y257857D01*
X192827Y257913D01*
X192744Y257973D01*
X192725Y257979D01*
X192708Y257990D01*
X192607Y258015D01*
X192508Y258045D01*
X192489Y258045D01*
X192469Y258050D01*
X192366Y258042D01*
X192263Y258039D01*
X192244Y258032D01*
X192224Y258031D01*
X192129Y257990D01*
X192032Y257955D01*
X192016Y257942D01*
X191998Y257934D01*
X191867Y257829D01*
X189843Y255805D01*
X186077Y255805D01*
G37*
%LPD*%
%LPC*%
G36*
X305457Y183161D02*
X305457Y183161D01*
X302795Y185823D01*
X302795Y189589D01*
X305457Y192251D01*
X309223Y192251D01*
X311885Y189589D01*
X311885Y185823D01*
X309223Y183161D01*
X305457Y183161D01*
G37*
%LPD*%
%LPC*%
G36*
X377847Y192305D02*
X377847Y192305D01*
X375185Y194967D01*
X375185Y198733D01*
X377847Y201395D01*
X381613Y201395D01*
X384275Y198733D01*
X384275Y194967D01*
X381613Y192305D01*
X377847Y192305D01*
G37*
%LPD*%
%LPC*%
G36*
X302917Y165635D02*
X302917Y165635D01*
X300255Y168297D01*
X300255Y172063D01*
X302917Y174725D01*
X306683Y174725D01*
X309345Y172063D01*
X309345Y168297D01*
X306683Y165635D01*
X302917Y165635D01*
G37*
%LPD*%
%LPC*%
G36*
X396897Y183415D02*
X396897Y183415D01*
X394235Y186077D01*
X394235Y189843D01*
X396897Y192505D01*
X400663Y192505D01*
X403325Y189843D01*
X403325Y186077D01*
X400663Y183415D01*
X396897Y183415D01*
G37*
%LPD*%
%LPC*%
G36*
X313077Y152935D02*
X313077Y152935D01*
X310415Y155597D01*
X310415Y159363D01*
X313077Y162025D01*
X316843Y162025D01*
X319505Y159363D01*
X319505Y155597D01*
X316843Y152935D01*
X313077Y152935D01*
G37*
%LPD*%
%LPC*%
G36*
X180997Y165635D02*
X180997Y165635D01*
X178335Y168297D01*
X178335Y172063D01*
X180997Y174725D01*
X184763Y174725D01*
X187425Y172063D01*
X187425Y168297D01*
X184763Y165635D01*
X180997Y165635D01*
G37*
%LPD*%
%LPC*%
G36*
X332127Y192305D02*
X332127Y192305D01*
X329465Y194967D01*
X329465Y198733D01*
X332127Y201395D01*
X335893Y201395D01*
X338555Y198733D01*
X338555Y194967D01*
X335893Y192305D01*
X332127Y192305D01*
G37*
%LPD*%
%LPC*%
G36*
X244497Y155475D02*
X244497Y155475D01*
X241835Y158137D01*
X241835Y161903D01*
X244497Y164565D01*
X248263Y164565D01*
X250925Y161903D01*
X250925Y158137D01*
X248263Y155475D01*
X244497Y155475D01*
G37*
%LPD*%
%LPC*%
G36*
X448967Y155475D02*
X448967Y155475D01*
X446305Y158137D01*
X446305Y161903D01*
X448967Y164565D01*
X452733Y164565D01*
X455395Y161903D01*
X455395Y158137D01*
X452733Y155475D01*
X448967Y155475D01*
G37*
%LPD*%
%LPC*%
G36*
X203857Y158015D02*
X203857Y158015D01*
X201195Y160677D01*
X201195Y164443D01*
X203857Y167105D01*
X207623Y167105D01*
X210285Y164443D01*
X210285Y160677D01*
X207623Y158015D01*
X203857Y158015D01*
G37*
%LPD*%
%LPC*%
G36*
X375307Y158015D02*
X375307Y158015D01*
X372645Y160677D01*
X372645Y164443D01*
X375307Y167105D01*
X379073Y167105D01*
X381735Y164443D01*
X381735Y160677D01*
X379073Y158015D01*
X375307Y158015D01*
G37*
%LPD*%
%LPC*%
G36*
X278787Y239295D02*
X278787Y239295D01*
X276125Y241957D01*
X276125Y245723D01*
X278787Y248385D01*
X282553Y248385D01*
X285215Y245723D01*
X285215Y241957D01*
X282553Y239295D01*
X278787Y239295D01*
G37*
%LPD*%
%LPC*%
G36*
X172107Y171985D02*
X172107Y171985D01*
X169445Y174647D01*
X169445Y178413D01*
X172107Y181075D01*
X175873Y181075D01*
X178535Y178413D01*
X178535Y174647D01*
X175873Y171985D01*
X172107Y171985D01*
G37*
%LPD*%
%LPC*%
G36*
X390547Y198655D02*
X390547Y198655D01*
X387885Y201317D01*
X387885Y205083D01*
X390547Y207745D01*
X394313Y207745D01*
X396975Y205083D01*
X396975Y201317D01*
X394313Y198655D01*
X390547Y198655D01*
G37*
%LPD*%
%LPC*%
G36*
X287677Y198655D02*
X287677Y198655D01*
X285015Y201317D01*
X285015Y205083D01*
X287677Y207745D01*
X291443Y207745D01*
X294105Y205083D01*
X294105Y201317D01*
X291443Y198655D01*
X287677Y198655D01*
G37*
%LPD*%
%LPC*%
G36*
X429917Y229135D02*
X429917Y229135D01*
X427255Y231797D01*
X427255Y235563D01*
X429917Y238225D01*
X433683Y238225D01*
X436345Y235563D01*
X436345Y231797D01*
X433683Y229135D01*
X429917Y229135D01*
G37*
%LPD*%
%LPC*%
G36*
X240687Y183415D02*
X240687Y183415D01*
X238025Y186077D01*
X238025Y189843D01*
X240687Y192505D01*
X244453Y192505D01*
X247115Y189843D01*
X247115Y186077D01*
X244453Y183415D01*
X240687Y183415D01*
G37*
%LPD*%
%LPC*%
G36*
X39623Y217423D02*
X39623Y217423D01*
X39623Y226381D01*
X40580Y226230D01*
X42165Y225715D01*
X43651Y224958D01*
X44999Y223978D01*
X46178Y222799D01*
X47158Y221451D01*
X47915Y219965D01*
X48430Y218380D01*
X48581Y217423D01*
X39623Y217423D01*
G37*
%LPD*%
%LPC*%
G36*
X77723Y103123D02*
X77723Y103123D01*
X77723Y112081D01*
X78680Y111930D01*
X80265Y111415D01*
X81751Y110658D01*
X83099Y109678D01*
X84278Y108499D01*
X85258Y107151D01*
X86015Y105665D01*
X86530Y104080D01*
X86681Y103123D01*
X77723Y103123D01*
G37*
%LPD*%
%LPC*%
G36*
X39623Y166623D02*
X39623Y166623D01*
X39623Y175581D01*
X40580Y175430D01*
X42165Y174915D01*
X43651Y174158D01*
X44999Y173178D01*
X46178Y171999D01*
X47158Y170651D01*
X47915Y169165D01*
X48430Y167580D01*
X48581Y166623D01*
X39623Y166623D01*
G37*
%LPD*%
%LPC*%
G36*
X471423Y261873D02*
X471423Y261873D01*
X471423Y270831D01*
X472380Y270680D01*
X473965Y270165D01*
X475451Y269408D01*
X476799Y268428D01*
X477978Y267249D01*
X478958Y265901D01*
X479715Y264415D01*
X480230Y262830D01*
X480381Y261873D01*
X471423Y261873D01*
G37*
%LPD*%
%LPC*%
G36*
X77723Y249173D02*
X77723Y249173D01*
X77723Y258131D01*
X78680Y257980D01*
X80265Y257465D01*
X81751Y256708D01*
X83099Y255728D01*
X84278Y254549D01*
X85258Y253201D01*
X86015Y251715D01*
X86530Y250130D01*
X86681Y249173D01*
X77723Y249173D01*
G37*
%LPD*%
%LPC*%
G36*
X471423Y90423D02*
X471423Y90423D01*
X471423Y99381D01*
X472380Y99230D01*
X473965Y98715D01*
X475451Y97958D01*
X476799Y96978D01*
X477978Y95799D01*
X478958Y94451D01*
X479715Y92965D01*
X480230Y91380D01*
X480381Y90423D01*
X471423Y90423D01*
G37*
%LPD*%
%LPC*%
G36*
X459419Y261873D02*
X459419Y261873D01*
X459570Y262830D01*
X460085Y264415D01*
X460842Y265901D01*
X461822Y267249D01*
X463001Y268428D01*
X464349Y269408D01*
X465835Y270165D01*
X467420Y270680D01*
X468377Y270831D01*
X468377Y261873D01*
X459419Y261873D01*
G37*
%LPD*%
%LPC*%
G36*
X65719Y249173D02*
X65719Y249173D01*
X65870Y250130D01*
X66385Y251715D01*
X67142Y253201D01*
X68122Y254549D01*
X69301Y255728D01*
X70649Y256708D01*
X72135Y257465D01*
X73720Y257980D01*
X74677Y258131D01*
X74677Y249173D01*
X65719Y249173D01*
G37*
%LPD*%
%LPC*%
G36*
X459419Y90423D02*
X459419Y90423D01*
X459570Y91380D01*
X460085Y92965D01*
X460842Y94451D01*
X461822Y95799D01*
X463001Y96978D01*
X464349Y97958D01*
X465835Y98715D01*
X467420Y99230D01*
X468377Y99381D01*
X468377Y90423D01*
X459419Y90423D01*
G37*
%LPD*%
%LPC*%
G36*
X27619Y217423D02*
X27619Y217423D01*
X27770Y218380D01*
X28285Y219965D01*
X29042Y221451D01*
X30022Y222799D01*
X31201Y223978D01*
X32549Y224958D01*
X34035Y225715D01*
X35620Y226230D01*
X36577Y226381D01*
X36577Y217423D01*
X27619Y217423D01*
G37*
%LPD*%
%LPC*%
G36*
X39623Y214377D02*
X39623Y214377D01*
X48581Y214377D01*
X48430Y213420D01*
X47915Y211835D01*
X47158Y210349D01*
X46178Y209001D01*
X44999Y207822D01*
X43651Y206842D01*
X42165Y206085D01*
X40580Y205570D01*
X39623Y205419D01*
X39623Y214377D01*
G37*
%LPD*%
%LPC*%
G36*
X471423Y87377D02*
X471423Y87377D01*
X480381Y87377D01*
X480230Y86420D01*
X479715Y84835D01*
X478958Y83349D01*
X477978Y82001D01*
X476799Y80822D01*
X475451Y79842D01*
X473965Y79085D01*
X472380Y78570D01*
X471423Y78419D01*
X471423Y87377D01*
G37*
%LPD*%
%LPC*%
G36*
X27619Y166623D02*
X27619Y166623D01*
X27770Y167580D01*
X28285Y169165D01*
X29042Y170651D01*
X30022Y171999D01*
X31201Y173178D01*
X32549Y174158D01*
X34035Y174915D01*
X35620Y175430D01*
X36577Y175581D01*
X36577Y166623D01*
X27619Y166623D01*
G37*
%LPD*%
%LPC*%
G36*
X77723Y246127D02*
X77723Y246127D01*
X86681Y246127D01*
X86530Y245170D01*
X86015Y243585D01*
X85258Y242099D01*
X84278Y240751D01*
X83099Y239572D01*
X81751Y238592D01*
X80265Y237835D01*
X78680Y237320D01*
X77723Y237169D01*
X77723Y246127D01*
G37*
%LPD*%
%LPC*%
G36*
X39623Y163577D02*
X39623Y163577D01*
X48581Y163577D01*
X48430Y162620D01*
X47915Y161035D01*
X47158Y159549D01*
X46178Y158201D01*
X44999Y157022D01*
X43651Y156042D01*
X42165Y155285D01*
X40580Y154770D01*
X39623Y154619D01*
X39623Y163577D01*
G37*
%LPD*%
%LPC*%
G36*
X65719Y103123D02*
X65719Y103123D01*
X65870Y104080D01*
X66385Y105665D01*
X67142Y107151D01*
X68122Y108499D01*
X69301Y109678D01*
X70649Y110658D01*
X72135Y111415D01*
X73720Y111930D01*
X74677Y112081D01*
X74677Y103123D01*
X65719Y103123D01*
G37*
%LPD*%
%LPC*%
G36*
X471423Y258827D02*
X471423Y258827D01*
X480381Y258827D01*
X480230Y257870D01*
X479715Y256285D01*
X478958Y254799D01*
X477978Y253451D01*
X476799Y252272D01*
X475451Y251292D01*
X473965Y250535D01*
X472380Y250020D01*
X471423Y249869D01*
X471423Y258827D01*
G37*
%LPD*%
%LPC*%
G36*
X77723Y100077D02*
X77723Y100077D01*
X86681Y100077D01*
X86530Y99120D01*
X86015Y97535D01*
X85258Y96049D01*
X84278Y94701D01*
X83099Y93522D01*
X81751Y92542D01*
X80265Y91785D01*
X78680Y91270D01*
X77723Y91119D01*
X77723Y100077D01*
G37*
%LPD*%
%LPC*%
G36*
X467420Y78570D02*
X467420Y78570D01*
X465835Y79085D01*
X464349Y79842D01*
X463001Y80822D01*
X461822Y82001D01*
X460842Y83349D01*
X460085Y84835D01*
X459570Y86420D01*
X459419Y87377D01*
X468377Y87377D01*
X468377Y78419D01*
X467420Y78570D01*
G37*
%LPD*%
%LPC*%
G36*
X73720Y237320D02*
X73720Y237320D01*
X72135Y237835D01*
X70649Y238592D01*
X69301Y239572D01*
X68122Y240751D01*
X67142Y242099D01*
X66385Y243585D01*
X65870Y245170D01*
X65719Y246127D01*
X74677Y246127D01*
X74677Y237169D01*
X73720Y237320D01*
G37*
%LPD*%
%LPC*%
G36*
X467420Y250020D02*
X467420Y250020D01*
X465835Y250535D01*
X464349Y251292D01*
X463001Y252272D01*
X461822Y253451D01*
X460842Y254799D01*
X460085Y256285D01*
X459570Y257870D01*
X459419Y258827D01*
X468377Y258827D01*
X468377Y249869D01*
X467420Y250020D01*
G37*
%LPD*%
%LPC*%
G36*
X35620Y154770D02*
X35620Y154770D01*
X34035Y155285D01*
X32549Y156042D01*
X31201Y157022D01*
X30022Y158201D01*
X29042Y159549D01*
X28285Y161035D01*
X27770Y162620D01*
X27619Y163577D01*
X36577Y163577D01*
X36577Y154619D01*
X35620Y154770D01*
G37*
%LPD*%
%LPC*%
G36*
X73720Y91270D02*
X73720Y91270D01*
X72135Y91785D01*
X70649Y92542D01*
X69301Y93522D01*
X68122Y94701D01*
X67142Y96049D01*
X66385Y97535D01*
X65870Y99120D01*
X65719Y100077D01*
X74677Y100077D01*
X74677Y91119D01*
X73720Y91270D01*
G37*
%LPD*%
%LPC*%
G36*
X35620Y205570D02*
X35620Y205570D01*
X34035Y206085D01*
X32549Y206842D01*
X31201Y207822D01*
X30022Y209001D01*
X29042Y210349D01*
X28285Y211835D01*
X27770Y213420D01*
X27619Y214377D01*
X36577Y214377D01*
X36577Y205419D01*
X35620Y205570D01*
G37*
%LPD*%
%LPC*%
G36*
X499003Y214323D02*
X499003Y214323D01*
X499003Y222225D01*
X500263Y221974D01*
X501999Y221255D01*
X503562Y220211D01*
X504891Y218882D01*
X505935Y217319D01*
X506654Y215583D01*
X506905Y214323D01*
X499003Y214323D01*
G37*
%LPD*%
%LPC*%
G36*
X488055Y214323D02*
X488055Y214323D01*
X488306Y215583D01*
X489025Y217319D01*
X490069Y218882D01*
X491398Y220211D01*
X492961Y221255D01*
X494697Y221974D01*
X495957Y222225D01*
X495957Y214323D01*
X488055Y214323D01*
G37*
%LPD*%
%LPC*%
G36*
X499003Y211277D02*
X499003Y211277D01*
X506905Y211277D01*
X506654Y210017D01*
X505935Y208281D01*
X504891Y206718D01*
X503562Y205389D01*
X501999Y204345D01*
X500263Y203626D01*
X499003Y203375D01*
X499003Y211277D01*
G37*
%LPD*%
%LPC*%
G36*
X494697Y203626D02*
X494697Y203626D01*
X492961Y204345D01*
X491398Y205389D01*
X490069Y206718D01*
X489025Y208281D01*
X488306Y210017D01*
X488055Y211277D01*
X495957Y211277D01*
X495957Y203375D01*
X494697Y203626D01*
G37*
%LPD*%
%LPC*%
G36*
X314623Y290823D02*
X314623Y290823D01*
X314623Y297932D01*
X315656Y297727D01*
X317251Y297066D01*
X318687Y296107D01*
X319907Y294887D01*
X320866Y293451D01*
X321527Y291856D01*
X321732Y290823D01*
X314623Y290823D01*
G37*
%LPD*%
%LPC*%
G36*
X238423Y36823D02*
X238423Y36823D01*
X238423Y43932D01*
X239456Y43727D01*
X241051Y43066D01*
X242487Y42107D01*
X243707Y40887D01*
X244666Y39451D01*
X245327Y37856D01*
X245532Y36823D01*
X238423Y36823D01*
G37*
%LPD*%
%LPC*%
G36*
X213023Y36823D02*
X213023Y36823D01*
X213023Y43932D01*
X214056Y43727D01*
X215651Y43066D01*
X217087Y42107D01*
X218307Y40887D01*
X219266Y39451D01*
X219927Y37856D01*
X220132Y36823D01*
X213023Y36823D01*
G37*
%LPD*%
%LPC*%
G36*
X238423Y290823D02*
X238423Y290823D01*
X238423Y297932D01*
X239456Y297727D01*
X241051Y297066D01*
X242487Y296107D01*
X243707Y294887D01*
X244666Y293451D01*
X245327Y291856D01*
X245532Y290823D01*
X238423Y290823D01*
G37*
%LPD*%
%LPC*%
G36*
X238423Y62223D02*
X238423Y62223D01*
X238423Y69332D01*
X239456Y69127D01*
X241051Y68466D01*
X242487Y67507D01*
X243707Y66287D01*
X244666Y64851D01*
X245327Y63256D01*
X245532Y62223D01*
X238423Y62223D01*
G37*
%LPD*%
%LPC*%
G36*
X314623Y62223D02*
X314623Y62223D01*
X314623Y69332D01*
X315656Y69127D01*
X317251Y68466D01*
X318687Y67507D01*
X319907Y66287D01*
X320866Y64851D01*
X321527Y63256D01*
X321732Y62223D01*
X314623Y62223D01*
G37*
%LPD*%
%LPC*%
G36*
X304468Y290823D02*
X304468Y290823D01*
X304673Y291856D01*
X305334Y293451D01*
X306293Y294887D01*
X307513Y296107D01*
X308949Y297066D01*
X310544Y297727D01*
X311577Y297932D01*
X311577Y290823D01*
X304468Y290823D01*
G37*
%LPD*%
%LPC*%
G36*
X228268Y62223D02*
X228268Y62223D01*
X228473Y63256D01*
X229134Y64851D01*
X230093Y66287D01*
X231313Y67507D01*
X232749Y68466D01*
X234344Y69127D01*
X235377Y69332D01*
X235377Y62223D01*
X228268Y62223D01*
G37*
%LPD*%
%LPC*%
G36*
X213023Y33777D02*
X213023Y33777D01*
X220132Y33777D01*
X219927Y32744D01*
X219266Y31149D01*
X218307Y29713D01*
X217087Y28493D01*
X215651Y27534D01*
X214056Y26873D01*
X213023Y26668D01*
X213023Y33777D01*
G37*
%LPD*%
%LPC*%
G36*
X238423Y287777D02*
X238423Y287777D01*
X245532Y287777D01*
X245327Y286744D01*
X244666Y285149D01*
X243707Y283713D01*
X242487Y282493D01*
X241051Y281534D01*
X239456Y280873D01*
X238423Y280668D01*
X238423Y287777D01*
G37*
%LPD*%
%LPC*%
G36*
X238423Y33777D02*
X238423Y33777D01*
X245532Y33777D01*
X245327Y32744D01*
X244666Y31149D01*
X243707Y29713D01*
X242487Y28493D01*
X241051Y27534D01*
X239456Y26873D01*
X238423Y26668D01*
X238423Y33777D01*
G37*
%LPD*%
%LPC*%
G36*
X314623Y287777D02*
X314623Y287777D01*
X321732Y287777D01*
X321527Y286744D01*
X320866Y285149D01*
X319907Y283713D01*
X318687Y282493D01*
X317251Y281534D01*
X315656Y280873D01*
X314623Y280668D01*
X314623Y287777D01*
G37*
%LPD*%
%LPC*%
G36*
X314623Y59177D02*
X314623Y59177D01*
X321732Y59177D01*
X321527Y58144D01*
X320866Y56549D01*
X319907Y55113D01*
X318687Y53893D01*
X317251Y52934D01*
X315656Y52273D01*
X314623Y52068D01*
X314623Y59177D01*
G37*
%LPD*%
%LPC*%
G36*
X238423Y59177D02*
X238423Y59177D01*
X245532Y59177D01*
X245327Y58144D01*
X244666Y56549D01*
X243707Y55113D01*
X242487Y53893D01*
X241051Y52934D01*
X239456Y52273D01*
X238423Y52068D01*
X238423Y59177D01*
G37*
%LPD*%
%LPC*%
G36*
X304468Y62223D02*
X304468Y62223D01*
X304673Y63256D01*
X305334Y64851D01*
X306293Y66287D01*
X307513Y67507D01*
X308949Y68466D01*
X310544Y69127D01*
X311577Y69332D01*
X311577Y62223D01*
X304468Y62223D01*
G37*
%LPD*%
%LPC*%
G36*
X202868Y36823D02*
X202868Y36823D01*
X203073Y37856D01*
X203734Y39451D01*
X204693Y40887D01*
X205913Y42107D01*
X207349Y43066D01*
X208944Y43727D01*
X209977Y43932D01*
X209977Y36823D01*
X202868Y36823D01*
G37*
%LPD*%
%LPC*%
G36*
X228268Y36823D02*
X228268Y36823D01*
X228473Y37856D01*
X229134Y39451D01*
X230093Y40887D01*
X231313Y42107D01*
X232749Y43066D01*
X234344Y43727D01*
X235377Y43932D01*
X235377Y36823D01*
X228268Y36823D01*
G37*
%LPD*%
%LPC*%
G36*
X228268Y290823D02*
X228268Y290823D01*
X228473Y291856D01*
X229134Y293451D01*
X230093Y294887D01*
X231313Y296107D01*
X232749Y297066D01*
X234344Y297727D01*
X235377Y297932D01*
X235377Y290823D01*
X228268Y290823D01*
G37*
%LPD*%
%LPC*%
G36*
X310544Y280873D02*
X310544Y280873D01*
X308949Y281534D01*
X307513Y282493D01*
X306293Y283713D01*
X305334Y285149D01*
X304673Y286744D01*
X304468Y287777D01*
X311577Y287777D01*
X311577Y280668D01*
X310544Y280873D01*
G37*
%LPD*%
%LPC*%
G36*
X234344Y52273D02*
X234344Y52273D01*
X232749Y52934D01*
X231313Y53893D01*
X230093Y55113D01*
X229134Y56549D01*
X228473Y58144D01*
X228268Y59177D01*
X235377Y59177D01*
X235377Y52068D01*
X234344Y52273D01*
G37*
%LPD*%
%LPC*%
G36*
X310544Y52273D02*
X310544Y52273D01*
X308949Y52934D01*
X307513Y53893D01*
X306293Y55113D01*
X305334Y56549D01*
X304673Y58144D01*
X304468Y59177D01*
X311577Y59177D01*
X311577Y52068D01*
X310544Y52273D01*
G37*
%LPD*%
%LPC*%
G36*
X234344Y26873D02*
X234344Y26873D01*
X232749Y27534D01*
X231313Y28493D01*
X230093Y29713D01*
X229134Y31149D01*
X228473Y32744D01*
X228268Y33777D01*
X235377Y33777D01*
X235377Y26668D01*
X234344Y26873D01*
G37*
%LPD*%
%LPC*%
G36*
X234344Y280873D02*
X234344Y280873D01*
X232749Y281534D01*
X231313Y282493D01*
X230093Y283713D01*
X229134Y285149D01*
X228473Y286744D01*
X228268Y287777D01*
X235377Y287777D01*
X235377Y280668D01*
X234344Y280873D01*
G37*
%LPD*%
%LPC*%
G36*
X208944Y26873D02*
X208944Y26873D01*
X207349Y27534D01*
X205913Y28493D01*
X204693Y29713D01*
X203734Y31149D01*
X203073Y32744D01*
X202868Y33777D01*
X209977Y33777D01*
X209977Y26668D01*
X208944Y26873D01*
G37*
%LPD*%
%LPC*%
G36*
X313099Y289299D02*
X313099Y289299D01*
X313099Y289301D01*
X313101Y289301D01*
X313101Y289299D01*
X313099Y289299D01*
G37*
%LPD*%
%LPC*%
G36*
X236899Y289299D02*
X236899Y289299D01*
X236899Y289301D01*
X236901Y289301D01*
X236901Y289299D01*
X236899Y289299D01*
G37*
%LPD*%
%LPC*%
G36*
X38099Y215899D02*
X38099Y215899D01*
X38099Y215901D01*
X38101Y215901D01*
X38101Y215899D01*
X38099Y215899D01*
G37*
%LPD*%
%LPC*%
G36*
X524580Y243499D02*
X524580Y243499D01*
X524580Y243501D01*
X524582Y243501D01*
X524582Y243499D01*
X524580Y243499D01*
G37*
%LPD*%
%LPC*%
G36*
X313099Y60699D02*
X313099Y60699D01*
X313099Y60701D01*
X313101Y60701D01*
X313101Y60699D01*
X313099Y60699D01*
G37*
%LPD*%
%LPC*%
G36*
X38099Y165099D02*
X38099Y165099D01*
X38099Y165101D01*
X38101Y165101D01*
X38101Y165099D01*
X38099Y165099D01*
G37*
%LPD*%
%LPC*%
G36*
X469899Y88899D02*
X469899Y88899D01*
X469899Y88901D01*
X469901Y88901D01*
X469901Y88899D01*
X469899Y88899D01*
G37*
%LPD*%
%LPC*%
G36*
X76199Y247649D02*
X76199Y247649D01*
X76199Y247651D01*
X76201Y247651D01*
X76201Y247649D01*
X76199Y247649D01*
G37*
%LPD*%
%LPC*%
G36*
X469899Y260349D02*
X469899Y260349D01*
X469899Y260351D01*
X469901Y260351D01*
X469901Y260349D01*
X469899Y260349D01*
G37*
%LPD*%
%LPC*%
G36*
X76199Y101599D02*
X76199Y101599D01*
X76199Y101601D01*
X76201Y101601D01*
X76201Y101599D01*
X76199Y101599D01*
G37*
%LPD*%
%LPC*%
G36*
X236899Y35299D02*
X236899Y35299D01*
X236899Y35301D01*
X236901Y35301D01*
X236901Y35299D01*
X236899Y35299D01*
G37*
%LPD*%
%LPC*%
G36*
X211499Y35299D02*
X211499Y35299D01*
X211499Y35301D01*
X211501Y35301D01*
X211501Y35299D01*
X211499Y35299D01*
G37*
%LPD*%
%LPC*%
G36*
X524580Y112099D02*
X524580Y112099D01*
X524580Y112101D01*
X524582Y112101D01*
X524582Y112099D01*
X524580Y112099D01*
G37*
%LPD*%
%LPC*%
G36*
X236899Y60699D02*
X236899Y60699D01*
X236899Y60701D01*
X236901Y60701D01*
X236901Y60699D01*
X236899Y60699D01*
G37*
%LPD*%
%LPC*%
G36*
X497479Y212799D02*
X497479Y212799D01*
X497479Y212801D01*
X497481Y212801D01*
X497481Y212799D01*
X497479Y212799D01*
G37*
%LPD*%
D10*
X59100Y35300D03*
X59100Y60700D03*
X84500Y35300D03*
X84500Y60700D03*
X109900Y35300D03*
X109900Y60700D03*
X135300Y35300D03*
X135300Y60700D03*
X160700Y35300D03*
X160700Y60700D03*
X186100Y35300D03*
X186100Y60700D03*
X211500Y35300D03*
X211500Y60700D03*
X236900Y35300D03*
X236900Y60700D03*
X262300Y35300D03*
X262300Y60700D03*
X287700Y35300D03*
X287700Y60700D03*
X313100Y35300D03*
X313100Y60700D03*
X338500Y35300D03*
X338500Y60700D03*
X363900Y35300D03*
X363900Y60700D03*
X389300Y35300D03*
X389300Y60700D03*
X414700Y35300D03*
X414700Y60700D03*
X440100Y35300D03*
X440100Y60700D03*
X465500Y35300D03*
X465500Y60700D03*
X490900Y35300D03*
X490900Y60700D03*
X59100Y289300D03*
X59100Y314700D03*
X84500Y289300D03*
X84500Y314700D03*
X109900Y289300D03*
X109900Y314700D03*
X135300Y289300D03*
X135300Y314700D03*
X160700Y289300D03*
X160700Y314700D03*
X186100Y289300D03*
X186100Y314700D03*
X211500Y289300D03*
X211500Y314700D03*
X236900Y289300D03*
X236900Y314700D03*
X262300Y289300D03*
X262300Y314700D03*
X287700Y289300D03*
X287700Y314700D03*
X313100Y289300D03*
X313100Y314700D03*
X338500Y289300D03*
X338500Y314700D03*
X363900Y289300D03*
X363900Y314700D03*
X389300Y289300D03*
X389300Y314700D03*
X414700Y289300D03*
X414700Y314700D03*
X440100Y289300D03*
X440100Y314700D03*
X465500Y289300D03*
X465500Y314700D03*
X490900Y289300D03*
X490900Y314700D03*
D11*
X419100Y88900D03*
X444500Y88900D03*
X469900Y88900D03*
X419100Y260350D03*
X444500Y260350D03*
X469900Y260350D03*
X25400Y247650D03*
X50800Y247650D03*
X76200Y247650D03*
X25400Y101600D03*
X50800Y101600D03*
X76200Y101600D03*
D12*
X497480Y142800D03*
X497480Y167800D03*
X497480Y187800D03*
X497480Y212800D03*
D13*
X524581Y112100D03*
X524581Y243500D03*
D11*
X38100Y165100D03*
X38100Y190500D03*
X38100Y215900D03*
D14*
X86360Y152400D03*
X86360Y193040D03*
X441960Y177800D03*
X215900Y121920D03*
X246380Y121920D03*
X213360Y185420D03*
X158750Y194310D03*
X251460Y187960D03*
X335280Y160020D03*
X335280Y172720D03*
X322580Y198120D03*
X323850Y261620D03*
X281940Y261620D03*
X392430Y241300D03*
X187960Y260350D03*
X234950Y260350D03*
X243840Y260350D03*
X334010Y196850D03*
X431800Y233680D03*
X392430Y203200D03*
X398780Y187960D03*
X182880Y170180D03*
X377190Y162560D03*
X379730Y196850D03*
X450850Y160020D03*
X242570Y187960D03*
X280670Y243840D03*
X246380Y160020D03*
X205740Y162560D03*
X304800Y170180D03*
X289560Y203200D03*
X196850Y260350D03*
X173990Y176530D03*
X314960Y157480D03*
X307340Y187706D03*
M02*
