G04 EAGLE Gerber RS-274X export*
G75*
%MOMM*%
%FSLAX34Y34*%
%LPD*%
%INInner Layer 1*%
%IPPOS*%
%AMOC8*
5,1,8,0,0,1.08239X$1,22.5*%
G01*
%ADD10C,0.152400*%
%ADD11C,1.244600*%
%ADD12C,1.610000*%
%ADD13C,1.400000*%
%ADD14C,3.220000*%
%ADD15C,0.654800*%

G36*
X448969Y3D02*
X448969Y3D01*
X448989Y1D01*
X457505Y373D01*
X457536Y380D01*
X457604Y384D01*
X474376Y3342D01*
X474406Y3352D01*
X474505Y3376D01*
X490509Y9201D01*
X490536Y9216D01*
X490629Y9257D01*
X505378Y17773D01*
X505403Y17792D01*
X505487Y17849D01*
X518534Y28796D01*
X518554Y28820D01*
X518628Y28890D01*
X529575Y41937D01*
X529591Y41964D01*
X529651Y42046D01*
X538167Y56795D01*
X538178Y56824D01*
X538223Y56915D01*
X544048Y72919D01*
X544054Y72950D01*
X544082Y73048D01*
X547040Y89820D01*
X547040Y89852D01*
X547051Y89919D01*
X547423Y98435D01*
X547421Y98448D01*
X547423Y98468D01*
X547423Y248933D01*
X547421Y248946D01*
X547423Y248966D01*
X547050Y257488D01*
X547044Y257519D01*
X547040Y257587D01*
X544080Y274372D01*
X544070Y274402D01*
X544046Y274501D01*
X538216Y290517D01*
X538201Y290544D01*
X538160Y290637D01*
X529638Y305397D01*
X529618Y305422D01*
X529562Y305506D01*
X518606Y318563D01*
X518583Y318583D01*
X518513Y318656D01*
X505456Y329612D01*
X505429Y329628D01*
X505347Y329688D01*
X490587Y338210D01*
X490558Y338221D01*
X490467Y338266D01*
X474451Y344096D01*
X474420Y344101D01*
X474322Y344130D01*
X457537Y347090D01*
X457506Y347090D01*
X457438Y347100D01*
X448916Y347473D01*
X448904Y347471D01*
X448883Y347473D01*
X98776Y347473D01*
X98763Y347471D01*
X98742Y347473D01*
X90200Y347100D01*
X90169Y347093D01*
X90101Y347089D01*
X73276Y344122D01*
X73246Y344112D01*
X73147Y344088D01*
X57093Y338244D01*
X57065Y338229D01*
X56973Y338188D01*
X42177Y329646D01*
X42152Y329626D01*
X42068Y329570D01*
X28980Y318588D01*
X28960Y318564D01*
X28886Y318494D01*
X17904Y305406D01*
X17888Y305379D01*
X17828Y305297D01*
X9286Y290501D01*
X9275Y290472D01*
X9230Y290381D01*
X3386Y274327D01*
X3381Y274296D01*
X3374Y274273D01*
X3366Y274256D01*
X3364Y274239D01*
X3352Y274198D01*
X385Y257373D01*
X385Y257341D01*
X374Y257274D01*
X1Y248732D01*
X3Y248719D01*
X1Y248698D01*
X1Y98693D01*
X3Y98680D01*
X1Y98660D01*
X374Y90125D01*
X381Y90094D01*
X385Y90026D01*
X3349Y73214D01*
X3360Y73185D01*
X3384Y73086D01*
X9222Y57045D01*
X9237Y57018D01*
X9278Y56925D01*
X17813Y42141D01*
X17833Y42117D01*
X17889Y42033D01*
X28862Y28956D01*
X28886Y28936D01*
X28956Y28862D01*
X42033Y17889D01*
X42060Y17873D01*
X42141Y17813D01*
X56925Y9278D01*
X56954Y9267D01*
X57045Y9222D01*
X73086Y3384D01*
X73117Y3378D01*
X73214Y3349D01*
X90026Y385D01*
X90057Y385D01*
X90125Y374D01*
X98660Y1D01*
X98673Y3D01*
X98693Y1D01*
X448956Y1D01*
X448969Y3D01*
G37*
%LPC*%
G36*
X247868Y45719D02*
X247868Y45719D01*
X246379Y47208D01*
X246379Y97692D01*
X246365Y97782D01*
X246357Y97873D01*
X246345Y97903D01*
X246340Y97935D01*
X246297Y98016D01*
X246261Y98100D01*
X246235Y98132D01*
X246224Y98152D01*
X246201Y98175D01*
X246156Y98231D01*
X221744Y122643D01*
X221686Y122684D01*
X221634Y122734D01*
X221587Y122756D01*
X221545Y122786D01*
X221476Y122807D01*
X221411Y122837D01*
X221359Y122843D01*
X221309Y122859D01*
X221238Y122857D01*
X221167Y122865D01*
X221116Y122853D01*
X221064Y122852D01*
X220996Y122828D01*
X220926Y122812D01*
X220881Y122786D01*
X220833Y122768D01*
X220777Y122723D01*
X220715Y122686D01*
X220681Y122647D01*
X220641Y122614D01*
X220602Y122554D01*
X220555Y122499D01*
X220536Y122451D01*
X220508Y122407D01*
X220490Y122338D01*
X220463Y122271D01*
X220455Y122200D01*
X220447Y122169D01*
X220449Y122145D01*
X220445Y122104D01*
X220445Y120037D01*
X217783Y117375D01*
X214017Y117375D01*
X211355Y120037D01*
X211355Y123803D01*
X214017Y126465D01*
X216084Y126465D01*
X216155Y126476D01*
X216227Y126478D01*
X216276Y126496D01*
X216327Y126504D01*
X216390Y126538D01*
X216458Y126563D01*
X216498Y126595D01*
X216544Y126620D01*
X216594Y126672D01*
X216650Y126716D01*
X216678Y126760D01*
X216714Y126798D01*
X216744Y126863D01*
X216783Y126923D01*
X216796Y126974D01*
X216817Y127021D01*
X216825Y127092D01*
X216843Y127162D01*
X216839Y127214D01*
X216845Y127265D01*
X216829Y127336D01*
X216824Y127407D01*
X216803Y127455D01*
X216792Y127506D01*
X216755Y127567D01*
X216727Y127633D01*
X216683Y127689D01*
X216666Y127717D01*
X216648Y127732D01*
X216623Y127764D01*
X196849Y147538D01*
X196849Y205522D01*
X241518Y250191D01*
X310932Y250191D01*
X312421Y248702D01*
X312421Y162786D01*
X312424Y162766D01*
X312422Y162747D01*
X312444Y162645D01*
X312460Y162543D01*
X312470Y162526D01*
X312474Y162506D01*
X312527Y162417D01*
X312576Y162326D01*
X312590Y162312D01*
X312600Y162295D01*
X312679Y162228D01*
X312754Y162156D01*
X312772Y162148D01*
X312787Y162135D01*
X312883Y162096D01*
X312977Y162053D01*
X312997Y162051D01*
X313015Y162043D01*
X313182Y162025D01*
X316843Y162025D01*
X319505Y159363D01*
X319505Y155597D01*
X316843Y152935D01*
X313182Y152935D01*
X313162Y152932D01*
X313143Y152934D01*
X313041Y152912D01*
X312939Y152896D01*
X312922Y152886D01*
X312902Y152882D01*
X312813Y152829D01*
X312722Y152780D01*
X312708Y152766D01*
X312691Y152756D01*
X312624Y152677D01*
X312552Y152602D01*
X312544Y152584D01*
X312531Y152569D01*
X312492Y152473D01*
X312449Y152379D01*
X312447Y152359D01*
X312439Y152341D01*
X312421Y152174D01*
X312421Y138648D01*
X277084Y103311D01*
X277034Y103241D01*
X276992Y103198D01*
X276987Y103186D01*
X276971Y103167D01*
X276959Y103137D01*
X276940Y103111D01*
X276917Y103034D01*
X276889Y102974D01*
X276887Y102959D01*
X276879Y102939D01*
X276875Y102898D01*
X276868Y102876D01*
X276869Y102844D01*
X276861Y102772D01*
X276861Y47208D01*
X275372Y45719D01*
X247868Y45719D01*
G37*
%LPD*%
G36*
X274438Y47006D02*
X274438Y47006D01*
X274557Y47013D01*
X274595Y47026D01*
X274636Y47031D01*
X274746Y47074D01*
X274859Y47111D01*
X274894Y47133D01*
X274931Y47148D01*
X275027Y47218D01*
X275128Y47281D01*
X275156Y47311D01*
X275189Y47334D01*
X275265Y47426D01*
X275346Y47513D01*
X275366Y47548D01*
X275391Y47579D01*
X275442Y47687D01*
X275500Y47791D01*
X275510Y47831D01*
X275527Y47867D01*
X275549Y47984D01*
X275579Y48099D01*
X275583Y48160D01*
X275587Y48180D01*
X275585Y48200D01*
X275589Y48260D01*
X275589Y103614D01*
X310778Y138803D01*
X310838Y138881D01*
X310906Y138953D01*
X310935Y139006D01*
X310972Y139054D01*
X311012Y139145D01*
X311060Y139231D01*
X311075Y139290D01*
X311099Y139346D01*
X311114Y139444D01*
X311139Y139539D01*
X311145Y139639D01*
X311149Y139660D01*
X311147Y139672D01*
X311149Y139700D01*
X311149Y154338D01*
X311137Y154436D01*
X311134Y154535D01*
X311117Y154593D01*
X311109Y154653D01*
X311073Y154745D01*
X311045Y154841D01*
X311015Y154893D01*
X310992Y154949D01*
X310934Y155029D01*
X310884Y155114D01*
X310818Y155190D01*
X310806Y155206D01*
X310796Y155214D01*
X310777Y155235D01*
X310415Y155598D01*
X310415Y159362D01*
X310777Y159725D01*
X310838Y159803D01*
X310906Y159875D01*
X310935Y159928D01*
X310972Y159976D01*
X311012Y160067D01*
X311060Y160154D01*
X311075Y160212D01*
X311099Y160268D01*
X311114Y160366D01*
X311139Y160462D01*
X311145Y160562D01*
X311149Y160582D01*
X311147Y160594D01*
X311149Y160622D01*
X311149Y182024D01*
X311132Y182161D01*
X311119Y182300D01*
X311112Y182319D01*
X311109Y182339D01*
X311058Y182468D01*
X311011Y182599D01*
X311000Y182616D01*
X310992Y182635D01*
X310911Y182747D01*
X310833Y182863D01*
X310817Y182876D01*
X310806Y182892D01*
X310698Y182981D01*
X310594Y183073D01*
X310576Y183082D01*
X310561Y183095D01*
X310435Y183154D01*
X310311Y183218D01*
X310291Y183222D01*
X310273Y183231D01*
X310137Y183257D01*
X310001Y183287D01*
X309980Y183287D01*
X309961Y183290D01*
X309822Y183282D01*
X309683Y183278D01*
X309663Y183272D01*
X309643Y183271D01*
X309511Y183228D01*
X309377Y183189D01*
X309360Y183179D01*
X309341Y183173D01*
X309323Y183161D01*
X305458Y183161D01*
X302795Y185824D01*
X302795Y189588D01*
X305458Y192251D01*
X309338Y192251D01*
X309362Y192240D01*
X309487Y192181D01*
X309507Y192178D01*
X309526Y192169D01*
X309664Y192148D01*
X309800Y192122D01*
X309820Y192123D01*
X309840Y192120D01*
X309979Y192133D01*
X310117Y192141D01*
X310136Y192147D01*
X310156Y192149D01*
X310288Y192197D01*
X310419Y192239D01*
X310437Y192250D01*
X310456Y192257D01*
X310571Y192335D01*
X310688Y192409D01*
X310702Y192424D01*
X310719Y192436D01*
X310811Y192540D01*
X310906Y192641D01*
X310916Y192659D01*
X310929Y192674D01*
X310993Y192798D01*
X311060Y192920D01*
X311065Y192939D01*
X311074Y192957D01*
X311104Y193093D01*
X311139Y193228D01*
X311141Y193256D01*
X311144Y193268D01*
X311143Y193288D01*
X311149Y193388D01*
X311149Y247650D01*
X311134Y247768D01*
X311127Y247887D01*
X311114Y247925D01*
X311109Y247966D01*
X311066Y248076D01*
X311029Y248189D01*
X311007Y248224D01*
X310992Y248261D01*
X310923Y248357D01*
X310859Y248458D01*
X310829Y248486D01*
X310806Y248519D01*
X310714Y248595D01*
X310627Y248676D01*
X310592Y248696D01*
X310561Y248721D01*
X310453Y248772D01*
X310349Y248830D01*
X310309Y248840D01*
X310273Y248857D01*
X310156Y248879D01*
X310041Y248909D01*
X309981Y248913D01*
X309961Y248917D01*
X309940Y248915D01*
X309880Y248919D01*
X242570Y248919D01*
X242472Y248907D01*
X242373Y248904D01*
X242315Y248887D01*
X242254Y248879D01*
X242162Y248843D01*
X242067Y248815D01*
X242015Y248785D01*
X241959Y248762D01*
X241879Y248704D01*
X241793Y248654D01*
X241718Y248588D01*
X241701Y248576D01*
X241694Y248566D01*
X241673Y248548D01*
X198493Y205368D01*
X198432Y205289D01*
X198364Y205217D01*
X198335Y205164D01*
X198298Y205116D01*
X198258Y205025D01*
X198210Y204939D01*
X198195Y204880D01*
X198171Y204824D01*
X198156Y204726D01*
X198131Y204631D01*
X198125Y204531D01*
X198121Y204510D01*
X198123Y204498D01*
X198121Y204470D01*
X198121Y148590D01*
X198133Y148492D01*
X198136Y148393D01*
X198153Y148335D01*
X198161Y148274D01*
X198197Y148182D01*
X198225Y148087D01*
X198255Y148035D01*
X198278Y147979D01*
X198336Y147899D01*
X198386Y147813D01*
X198452Y147738D01*
X198464Y147721D01*
X198474Y147714D01*
X198493Y147693D01*
X247651Y98534D01*
X247651Y48260D01*
X247666Y48142D01*
X247673Y48023D01*
X247686Y47985D01*
X247691Y47944D01*
X247734Y47834D01*
X247771Y47721D01*
X247793Y47686D01*
X247808Y47649D01*
X247878Y47553D01*
X247941Y47452D01*
X247971Y47424D01*
X247994Y47391D01*
X248086Y47316D01*
X248173Y47234D01*
X248208Y47214D01*
X248239Y47189D01*
X248347Y47138D01*
X248451Y47080D01*
X248491Y47070D01*
X248527Y47053D01*
X248644Y47031D01*
X248759Y47001D01*
X248820Y46997D01*
X248840Y46993D01*
X248860Y46995D01*
X248920Y46991D01*
X274320Y46991D01*
X274438Y47006D01*
G37*
%LPC*%
G36*
X212255Y96519D02*
X212255Y96519D01*
X211098Y96536D01*
X211097Y96536D01*
X209356Y96561D01*
X206628Y97542D01*
X206179Y97704D01*
X206082Y97722D01*
X205986Y97746D01*
X205961Y97744D01*
X205937Y97749D01*
X205839Y97735D01*
X205740Y97727D01*
X205718Y97718D01*
X205694Y97714D01*
X205605Y97670D01*
X205514Y97631D01*
X205490Y97612D01*
X205474Y97604D01*
X205451Y97580D01*
X205383Y97526D01*
X204376Y96519D01*
X195208Y96519D01*
X193007Y97790D01*
X192642Y98424D01*
X192611Y98461D01*
X192589Y98503D01*
X192534Y98555D01*
X192486Y98614D01*
X192445Y98639D01*
X192410Y98672D01*
X192342Y98704D01*
X192277Y98745D01*
X192231Y98756D01*
X192187Y98776D01*
X192112Y98784D01*
X192038Y98802D01*
X191991Y98798D01*
X191943Y98803D01*
X191869Y98787D01*
X191793Y98780D01*
X191749Y98761D01*
X191703Y98751D01*
X191637Y98712D01*
X191568Y98682D01*
X191533Y98649D01*
X191491Y98625D01*
X191442Y98567D01*
X191386Y98516D01*
X191363Y98474D01*
X191331Y98438D01*
X191303Y98367D01*
X191266Y98301D01*
X191258Y98254D01*
X191240Y98210D01*
X191225Y98081D01*
X191221Y98059D01*
X191222Y98053D01*
X191221Y98043D01*
X191221Y97710D01*
X190030Y96519D01*
X188303Y96519D01*
X188257Y96553D01*
X188238Y96558D01*
X188221Y96569D01*
X188121Y96594D01*
X188022Y96625D01*
X188002Y96624D01*
X187982Y96629D01*
X187879Y96621D01*
X187776Y96619D01*
X187757Y96612D01*
X187737Y96610D01*
X187642Y96570D01*
X187545Y96534D01*
X187529Y96522D01*
X187524Y96519D01*
X185806Y96519D01*
X185747Y96578D01*
X185731Y96590D01*
X185719Y96606D01*
X185632Y96661D01*
X185548Y96722D01*
X185528Y96728D01*
X185512Y96739D01*
X185412Y96764D01*
X185313Y96794D01*
X185293Y96794D01*
X185273Y96799D01*
X185170Y96791D01*
X185067Y96788D01*
X185048Y96781D01*
X185028Y96779D01*
X184933Y96739D01*
X184836Y96703D01*
X184820Y96691D01*
X184802Y96683D01*
X184671Y96578D01*
X184612Y96519D01*
X182884Y96519D01*
X182838Y96553D01*
X182819Y96558D01*
X182802Y96569D01*
X182702Y96594D01*
X182603Y96625D01*
X182583Y96624D01*
X182564Y96629D01*
X182461Y96621D01*
X182357Y96619D01*
X182338Y96612D01*
X182319Y96610D01*
X182223Y96570D01*
X182126Y96534D01*
X182111Y96522D01*
X182105Y96519D01*
X180388Y96519D01*
X180329Y96578D01*
X180312Y96590D01*
X180300Y96606D01*
X180213Y96661D01*
X180129Y96722D01*
X180110Y96728D01*
X180093Y96739D01*
X179993Y96764D01*
X179894Y96794D01*
X179874Y96794D01*
X179855Y96799D01*
X179752Y96791D01*
X179648Y96788D01*
X179629Y96781D01*
X179609Y96779D01*
X179514Y96739D01*
X179417Y96703D01*
X179401Y96691D01*
X179383Y96683D01*
X179252Y96578D01*
X179193Y96519D01*
X177466Y96519D01*
X177420Y96553D01*
X177401Y96558D01*
X177384Y96569D01*
X177283Y96594D01*
X177184Y96625D01*
X177164Y96624D01*
X177145Y96629D01*
X177042Y96621D01*
X176939Y96619D01*
X176920Y96612D01*
X176900Y96610D01*
X176805Y96570D01*
X176708Y96534D01*
X176692Y96522D01*
X176687Y96519D01*
X174969Y96519D01*
X174076Y97412D01*
X174060Y97424D01*
X174048Y97439D01*
X173960Y97495D01*
X173876Y97556D01*
X173857Y97562D01*
X173841Y97572D01*
X173740Y97598D01*
X173641Y97628D01*
X173621Y97628D01*
X173602Y97632D01*
X173499Y97624D01*
X173395Y97622D01*
X173377Y97615D01*
X173357Y97613D01*
X173262Y97573D01*
X173164Y97537D01*
X173149Y97525D01*
X173131Y97517D01*
X173000Y97412D01*
X172107Y96519D01*
X170379Y96519D01*
X170333Y96553D01*
X170314Y96558D01*
X170297Y96569D01*
X170197Y96594D01*
X170098Y96625D01*
X170078Y96624D01*
X170059Y96629D01*
X169956Y96621D01*
X169852Y96619D01*
X169833Y96612D01*
X169814Y96610D01*
X169718Y96570D01*
X169621Y96534D01*
X169606Y96522D01*
X169600Y96519D01*
X167883Y96519D01*
X166692Y97710D01*
X166692Y104789D01*
X166689Y104809D01*
X166691Y104829D01*
X166669Y104930D01*
X166652Y105032D01*
X166643Y105049D01*
X166639Y105069D01*
X166585Y105158D01*
X166537Y105249D01*
X166523Y105263D01*
X166512Y105280D01*
X166434Y105347D01*
X166359Y105419D01*
X166341Y105427D01*
X166326Y105440D01*
X166229Y105479D01*
X166136Y105522D01*
X166116Y105524D01*
X166097Y105532D01*
X165931Y105550D01*
X165497Y105550D01*
X165451Y105584D01*
X165432Y105589D01*
X165415Y105600D01*
X165315Y105626D01*
X165216Y105656D01*
X165196Y105655D01*
X165176Y105660D01*
X165073Y105652D01*
X164970Y105650D01*
X164951Y105643D01*
X164931Y105641D01*
X164836Y105601D01*
X164739Y105565D01*
X164723Y105553D01*
X164718Y105550D01*
X163758Y105550D01*
X163738Y105547D01*
X163718Y105549D01*
X163617Y105527D01*
X163515Y105511D01*
X163497Y105501D01*
X163478Y105497D01*
X163389Y105444D01*
X163297Y105396D01*
X163284Y105381D01*
X163267Y105371D01*
X163199Y105292D01*
X163128Y105217D01*
X163120Y105199D01*
X163107Y105184D01*
X163068Y105088D01*
X163024Y104994D01*
X163022Y104974D01*
X163015Y104956D01*
X162996Y104789D01*
X162996Y97710D01*
X161806Y96519D01*
X160078Y96519D01*
X160032Y96553D01*
X160013Y96558D01*
X159996Y96569D01*
X159896Y96594D01*
X159797Y96625D01*
X159777Y96624D01*
X159758Y96629D01*
X159655Y96621D01*
X159551Y96619D01*
X159532Y96612D01*
X159513Y96610D01*
X159417Y96570D01*
X159320Y96534D01*
X159305Y96522D01*
X159299Y96519D01*
X157582Y96519D01*
X156438Y97663D01*
X156422Y97675D01*
X156409Y97690D01*
X156322Y97746D01*
X156238Y97807D01*
X156219Y97812D01*
X156202Y97823D01*
X156102Y97849D01*
X156003Y97879D01*
X155983Y97878D01*
X155964Y97883D01*
X155861Y97875D01*
X155757Y97873D01*
X155738Y97866D01*
X155719Y97864D01*
X155624Y97824D01*
X155526Y97788D01*
X155510Y97776D01*
X155492Y97768D01*
X155361Y97663D01*
X154218Y96519D01*
X143904Y96519D01*
X141284Y98032D01*
X139772Y100652D01*
X139772Y115248D01*
X141284Y117868D01*
X143904Y119381D01*
X151678Y119381D01*
X152868Y118190D01*
X152868Y117602D01*
X152871Y117582D01*
X152869Y117563D01*
X152891Y117461D01*
X152908Y117359D01*
X152917Y117342D01*
X152922Y117322D01*
X152975Y117233D01*
X153023Y117142D01*
X153037Y117128D01*
X153048Y117111D01*
X153126Y117044D01*
X153201Y116972D01*
X153219Y116964D01*
X153235Y116951D01*
X153331Y116912D01*
X153424Y116869D01*
X153444Y116867D01*
X153463Y116859D01*
X153629Y116841D01*
X154218Y116841D01*
X155408Y115650D01*
X155408Y113966D01*
X154218Y112775D01*
X152896Y112775D01*
X152825Y112764D01*
X152753Y112762D01*
X152704Y112744D01*
X152653Y112736D01*
X152590Y112702D01*
X152522Y112677D01*
X152482Y112645D01*
X152436Y112620D01*
X152386Y112568D01*
X152330Y112524D01*
X152302Y112480D01*
X152266Y112442D01*
X152236Y112377D01*
X152197Y112317D01*
X152185Y112266D01*
X152163Y112219D01*
X152155Y112148D01*
X152137Y112078D01*
X152141Y112026D01*
X152136Y111975D01*
X152151Y111904D01*
X152156Y111833D01*
X152177Y111785D01*
X152188Y111734D01*
X152225Y111673D01*
X152253Y111607D01*
X152298Y111551D01*
X152314Y111523D01*
X152332Y111508D01*
X152358Y111476D01*
X152868Y110965D01*
X152868Y110377D01*
X152871Y110359D01*
X152869Y110343D01*
X152870Y110341D01*
X152869Y110338D01*
X152891Y110236D01*
X152908Y110134D01*
X152917Y110117D01*
X152922Y110097D01*
X152975Y110008D01*
X153023Y109917D01*
X153037Y109903D01*
X153048Y109886D01*
X153126Y109819D01*
X153201Y109748D01*
X153219Y109739D01*
X153235Y109726D01*
X153331Y109687D01*
X153424Y109644D01*
X153444Y109642D01*
X153463Y109634D01*
X153629Y109616D01*
X154218Y109616D01*
X155091Y108742D01*
X155150Y108700D01*
X155202Y108651D01*
X155249Y108629D01*
X155291Y108598D01*
X155360Y108577D01*
X155425Y108547D01*
X155476Y108541D01*
X155526Y108526D01*
X155598Y108528D01*
X155669Y108520D01*
X155720Y108531D01*
X155772Y108532D01*
X155839Y108557D01*
X155909Y108572D01*
X155954Y108599D01*
X156003Y108617D01*
X156059Y108662D01*
X156121Y108698D01*
X156154Y108738D01*
X156195Y108771D01*
X156234Y108831D01*
X156280Y108885D01*
X156300Y108934D01*
X156328Y108977D01*
X156346Y109047D01*
X156372Y109114D01*
X156380Y109185D01*
X156388Y109216D01*
X156386Y109239D01*
X156391Y109280D01*
X156391Y112771D01*
X157582Y113962D01*
X164684Y113962D01*
X164941Y113705D01*
X164999Y113664D01*
X165051Y113614D01*
X165098Y113592D01*
X165141Y113562D01*
X165209Y113541D01*
X165274Y113511D01*
X165326Y113505D01*
X165376Y113490D01*
X165447Y113491D01*
X165519Y113483D01*
X165569Y113495D01*
X165622Y113496D01*
X165689Y113520D01*
X165759Y113536D01*
X165804Y113562D01*
X165853Y113580D01*
X165909Y113625D01*
X165970Y113662D01*
X166004Y113701D01*
X166045Y113734D01*
X166083Y113794D01*
X166130Y113849D01*
X166150Y113897D01*
X166178Y113941D01*
X166195Y114010D01*
X166222Y114077D01*
X166230Y114148D01*
X166238Y114179D01*
X166236Y114203D01*
X166240Y114244D01*
X166240Y118190D01*
X167431Y119381D01*
X170018Y119381D01*
X171209Y118190D01*
X171209Y117602D01*
X171212Y117582D01*
X171210Y117563D01*
X171232Y117461D01*
X171249Y117359D01*
X171258Y117342D01*
X171262Y117322D01*
X171315Y117233D01*
X171364Y117142D01*
X171378Y117128D01*
X171388Y117111D01*
X171467Y117044D01*
X171542Y116972D01*
X171560Y116964D01*
X171575Y116951D01*
X171672Y116912D01*
X171765Y116869D01*
X171785Y116867D01*
X171804Y116859D01*
X171970Y116841D01*
X172558Y116841D01*
X173749Y115650D01*
X173749Y114580D01*
X173761Y114509D01*
X173762Y114437D01*
X173780Y114388D01*
X173789Y114337D01*
X173822Y114274D01*
X173847Y114206D01*
X173879Y114166D01*
X173904Y114120D01*
X173956Y114070D01*
X174001Y114014D01*
X174044Y113986D01*
X174082Y113950D01*
X174147Y113920D01*
X174208Y113881D01*
X174258Y113869D01*
X174305Y113847D01*
X174377Y113839D01*
X174446Y113821D01*
X174498Y113825D01*
X174550Y113820D01*
X174620Y113835D01*
X174691Y113840D01*
X174739Y113861D01*
X174790Y113872D01*
X174852Y113909D01*
X174918Y113937D01*
X174949Y113962D01*
X185210Y113962D01*
X187410Y112691D01*
X188238Y111258D01*
X188310Y111170D01*
X188382Y111078D01*
X188390Y111072D01*
X188394Y111067D01*
X188413Y111056D01*
X188517Y110979D01*
X189950Y110151D01*
X190316Y109518D01*
X190347Y109481D01*
X190369Y109438D01*
X190424Y109386D01*
X190472Y109327D01*
X190513Y109302D01*
X190547Y109269D01*
X190616Y109237D01*
X190680Y109197D01*
X190727Y109185D01*
X190771Y109165D01*
X190846Y109157D01*
X190920Y109139D01*
X190967Y109143D01*
X191015Y109138D01*
X191089Y109154D01*
X191165Y109161D01*
X191208Y109180D01*
X191255Y109190D01*
X191320Y109229D01*
X191390Y109260D01*
X191425Y109292D01*
X191466Y109317D01*
X191516Y109374D01*
X191572Y109425D01*
X191595Y109467D01*
X191626Y109503D01*
X191655Y109574D01*
X191692Y109640D01*
X191700Y109687D01*
X191718Y109732D01*
X191733Y109860D01*
X191737Y109882D01*
X191736Y109888D01*
X191737Y109898D01*
X191737Y110151D01*
X193893Y113119D01*
X197382Y114253D01*
X200871Y113119D01*
X202356Y111074D01*
X202379Y111052D01*
X202395Y111025D01*
X202466Y110966D01*
X202531Y110901D01*
X202560Y110887D01*
X202584Y110867D01*
X202737Y110798D01*
X203411Y110579D01*
X203854Y109970D01*
X203894Y109930D01*
X203926Y109884D01*
X203981Y109844D01*
X204028Y109797D01*
X204079Y109772D01*
X204125Y109738D01*
X204189Y109718D01*
X204249Y109688D01*
X204305Y109681D01*
X204359Y109664D01*
X204426Y109665D01*
X204493Y109656D01*
X204548Y109667D01*
X204605Y109668D01*
X204668Y109691D01*
X204734Y109703D01*
X204784Y109731D01*
X204837Y109750D01*
X204890Y109792D01*
X204948Y109825D01*
X204986Y109867D01*
X205030Y109902D01*
X205067Y109959D01*
X205112Y110009D01*
X205134Y110061D01*
X205165Y110108D01*
X205196Y110207D01*
X205209Y110235D01*
X205210Y110248D01*
X205216Y110268D01*
X205562Y111997D01*
X208022Y113984D01*
X208446Y113978D01*
X209603Y113962D01*
X212150Y113925D01*
X214473Y112880D01*
X215241Y112534D01*
X215767Y111145D01*
X215813Y111066D01*
X215852Y110984D01*
X215874Y110960D01*
X215890Y110932D01*
X215959Y110872D01*
X216022Y110806D01*
X216057Y110785D01*
X216075Y110770D01*
X216105Y110757D01*
X216166Y110721D01*
X217013Y110340D01*
X217781Y109994D01*
X218378Y108419D01*
X217686Y106884D01*
X216623Y106481D01*
X216561Y106445D01*
X216496Y106419D01*
X216456Y106384D01*
X216410Y106358D01*
X216363Y106304D01*
X216309Y106258D01*
X216282Y106213D01*
X216247Y106173D01*
X216220Y106108D01*
X216184Y106047D01*
X216173Y105995D01*
X216152Y105946D01*
X216147Y105876D01*
X216132Y105806D01*
X216138Y105754D01*
X216134Y105701D01*
X216152Y105632D01*
X216160Y105562D01*
X216188Y105494D01*
X216196Y105463D01*
X216208Y105443D01*
X216223Y105406D01*
X216333Y105204D01*
X216368Y105159D01*
X216394Y105109D01*
X216442Y105062D01*
X216484Y105009D01*
X216531Y104978D01*
X216572Y104939D01*
X216662Y104890D01*
X216688Y104873D01*
X216701Y104870D01*
X216720Y104860D01*
X217950Y104367D01*
X219457Y101586D01*
X218836Y98485D01*
X216376Y96497D01*
X214795Y96519D01*
X214155Y96529D01*
X214099Y96520D01*
X214042Y96522D01*
X213978Y96502D01*
X213933Y96495D01*
X212255Y96519D01*
G37*
%LPD*%
%LPC*%
G36*
X521126Y94729D02*
X521126Y94729D01*
X514741Y97374D01*
X509855Y102260D01*
X507210Y108645D01*
X507210Y115555D01*
X509855Y121940D01*
X514741Y126826D01*
X521126Y129471D01*
X528036Y129471D01*
X534421Y126826D01*
X539307Y121940D01*
X541952Y115555D01*
X541952Y108645D01*
X539307Y102260D01*
X534421Y97374D01*
X528036Y94729D01*
X521126Y94729D01*
G37*
%LPD*%
%LPC*%
G36*
X521126Y226129D02*
X521126Y226129D01*
X514741Y228774D01*
X509855Y233660D01*
X507210Y240045D01*
X507210Y246955D01*
X509855Y253340D01*
X514741Y258226D01*
X521126Y260871D01*
X528036Y260871D01*
X534421Y258226D01*
X539307Y253340D01*
X541952Y246955D01*
X541952Y240045D01*
X539307Y233660D01*
X534421Y228774D01*
X528036Y226129D01*
X521126Y226129D01*
G37*
%LPD*%
%LPC*%
G36*
X125298Y96580D02*
X125298Y96580D01*
X125289Y96583D01*
X125281Y96588D01*
X125123Y96642D01*
X124706Y96735D01*
X124614Y96740D01*
X124524Y96753D01*
X124492Y96747D01*
X124460Y96749D01*
X124372Y96725D01*
X124282Y96708D01*
X124245Y96690D01*
X124223Y96684D01*
X124196Y96666D01*
X124132Y96634D01*
X123740Y96385D01*
X123674Y96400D01*
X123552Y96407D01*
X123432Y96414D01*
X123430Y96414D01*
X123428Y96414D01*
X123421Y96412D01*
X123268Y96379D01*
X123203Y96357D01*
X122758Y96580D01*
X122749Y96583D01*
X122741Y96588D01*
X122583Y96642D01*
X122498Y96661D01*
X122096Y96750D01*
X122060Y96808D01*
X121979Y96899D01*
X121899Y96989D01*
X121897Y96990D01*
X121896Y96991D01*
X121890Y96995D01*
X121758Y97080D01*
X121664Y97127D01*
X121625Y97202D01*
X121623Y97204D01*
X121622Y97206D01*
X121535Y97288D01*
X121447Y97372D01*
X121445Y97373D01*
X121443Y97375D01*
X121334Y97425D01*
X121224Y97477D01*
X121222Y97477D01*
X121220Y97478D01*
X121101Y97491D01*
X120980Y97504D01*
X120978Y97504D01*
X120975Y97504D01*
X120855Y97478D01*
X120739Y97453D01*
X120737Y97452D01*
X120735Y97451D01*
X120632Y97389D01*
X120528Y97327D01*
X120526Y97326D01*
X120524Y97324D01*
X120446Y97232D01*
X120367Y97141D01*
X120366Y97139D01*
X120365Y97137D01*
X120357Y97121D01*
X120279Y97082D01*
X120276Y97080D01*
X120179Y97010D01*
X120079Y96939D01*
X120078Y96937D01*
X120076Y96936D01*
X120072Y96930D01*
X119974Y96808D01*
X119937Y96750D01*
X119451Y96642D01*
X119443Y96639D01*
X119433Y96638D01*
X119276Y96580D01*
X118830Y96357D01*
X118766Y96379D01*
X118646Y96398D01*
X118527Y96418D01*
X118524Y96418D01*
X118523Y96418D01*
X118516Y96417D01*
X118360Y96400D01*
X118293Y96385D01*
X117902Y96634D01*
X117818Y96670D01*
X117738Y96713D01*
X117706Y96718D01*
X117676Y96731D01*
X117585Y96738D01*
X117495Y96753D01*
X117454Y96749D01*
X117431Y96751D01*
X117399Y96743D01*
X117328Y96735D01*
X116911Y96642D01*
X116902Y96639D01*
X116893Y96638D01*
X116736Y96580D01*
X116290Y96357D01*
X116226Y96379D01*
X116106Y96398D01*
X115987Y96418D01*
X115984Y96418D01*
X115983Y96418D01*
X115976Y96417D01*
X115820Y96400D01*
X115753Y96385D01*
X115333Y96652D01*
X115325Y96656D01*
X115318Y96662D01*
X115165Y96732D01*
X114693Y96890D01*
X114662Y96951D01*
X114593Y97046D01*
X114521Y97147D01*
X114519Y97149D01*
X114518Y97150D01*
X114512Y97154D01*
X114390Y97253D01*
X114333Y97289D01*
X114225Y97775D01*
X114221Y97784D01*
X114221Y97793D01*
X114162Y97951D01*
X113940Y98396D01*
X113961Y98461D01*
X113980Y98574D01*
X114000Y98700D01*
X114000Y98702D01*
X114000Y98703D01*
X113999Y98711D01*
X113982Y98866D01*
X110355Y115189D01*
X110604Y115580D01*
X110640Y115664D01*
X110683Y115745D01*
X110688Y115777D01*
X110701Y115806D01*
X110708Y115897D01*
X110723Y115987D01*
X110719Y116028D01*
X110721Y116052D01*
X110713Y116083D01*
X110705Y116154D01*
X110355Y117729D01*
X111259Y119150D01*
X112903Y119515D01*
X114324Y118611D01*
X114558Y117558D01*
X114565Y117540D01*
X114567Y117520D01*
X114611Y117426D01*
X114649Y117330D01*
X114662Y117315D01*
X114670Y117296D01*
X114742Y117221D01*
X114809Y117142D01*
X114826Y117132D01*
X114839Y117118D01*
X114931Y117069D01*
X115019Y117016D01*
X115039Y117012D01*
X115056Y117002D01*
X115159Y116985D01*
X115260Y116963D01*
X115279Y116965D01*
X115299Y116962D01*
X115439Y116977D01*
X116864Y116071D01*
X117293Y114139D01*
X117315Y114084D01*
X117327Y114026D01*
X117360Y113971D01*
X117384Y113911D01*
X117423Y113866D01*
X117453Y113815D01*
X117502Y113773D01*
X117544Y113723D01*
X117595Y113693D01*
X117639Y113654D01*
X117699Y113630D01*
X117755Y113597D01*
X117812Y113584D01*
X117867Y113562D01*
X117932Y113558D01*
X117995Y113544D01*
X118054Y113550D01*
X118113Y113547D01*
X118208Y113567D01*
X118240Y113571D01*
X118253Y113577D01*
X118277Y113582D01*
X118916Y113795D01*
X118945Y113810D01*
X119015Y113836D01*
X119604Y114131D01*
X119664Y114127D01*
X119749Y114113D01*
X119786Y114119D01*
X119824Y114117D01*
X119889Y114131D01*
X120478Y113836D01*
X120509Y113827D01*
X120578Y113795D01*
X121202Y113587D01*
X121242Y113542D01*
X121293Y113472D01*
X121323Y113450D01*
X121348Y113422D01*
X121404Y113386D01*
X121613Y112760D01*
X121628Y112732D01*
X121654Y112661D01*
X121995Y111978D01*
X122017Y111948D01*
X122032Y111913D01*
X122089Y111848D01*
X122139Y111779D01*
X122170Y111757D01*
X122195Y111729D01*
X122336Y111638D01*
X122620Y111495D01*
X122727Y111462D01*
X122834Y111426D01*
X122845Y111426D01*
X122855Y111422D01*
X122967Y111425D01*
X123080Y111425D01*
X123090Y111428D01*
X123101Y111428D01*
X123206Y111466D01*
X123313Y111502D01*
X123322Y111508D01*
X123332Y111512D01*
X123420Y111582D01*
X123510Y111650D01*
X123516Y111658D01*
X123524Y111665D01*
X123586Y111760D01*
X123649Y111852D01*
X123653Y111865D01*
X123658Y111872D01*
X123664Y111897D01*
X123703Y112011D01*
X125170Y118611D01*
X126591Y119515D01*
X128235Y119150D01*
X129141Y117726D01*
X129136Y117713D01*
X129136Y117610D01*
X129130Y117506D01*
X129135Y117487D01*
X129135Y117467D01*
X129168Y117369D01*
X129195Y117269D01*
X129206Y117253D01*
X129213Y117234D01*
X129275Y117151D01*
X129333Y117065D01*
X129348Y117053D01*
X129360Y117037D01*
X129446Y116978D01*
X129528Y116916D01*
X129547Y116909D01*
X129563Y116898D01*
X129722Y116844D01*
X130775Y116610D01*
X131679Y115189D01*
X128052Y98866D01*
X128045Y98745D01*
X128037Y98625D01*
X128038Y98622D01*
X128038Y98621D01*
X128040Y98614D01*
X128072Y98461D01*
X128094Y98396D01*
X127871Y97951D01*
X127869Y97942D01*
X127863Y97934D01*
X127809Y97775D01*
X127701Y97289D01*
X127644Y97253D01*
X127552Y97170D01*
X127462Y97092D01*
X127461Y97090D01*
X127460Y97089D01*
X127456Y97082D01*
X127371Y96951D01*
X127341Y96890D01*
X126868Y96732D01*
X126860Y96728D01*
X126851Y96726D01*
X126700Y96652D01*
X126280Y96385D01*
X126214Y96400D01*
X126092Y96407D01*
X125972Y96414D01*
X125970Y96414D01*
X125968Y96414D01*
X125961Y96412D01*
X125808Y96379D01*
X125743Y96357D01*
X125298Y96580D01*
G37*
%LPD*%
%LPC*%
G36*
X48946Y238329D02*
X48946Y238329D01*
X45520Y239748D01*
X42898Y242370D01*
X41479Y245796D01*
X41479Y249504D01*
X42898Y252930D01*
X45520Y255552D01*
X48946Y256971D01*
X52654Y256971D01*
X56080Y255552D01*
X58702Y252930D01*
X60121Y249504D01*
X60121Y245796D01*
X58702Y242370D01*
X56080Y239748D01*
X52654Y238329D01*
X48946Y238329D01*
G37*
%LPD*%
%LPC*%
G36*
X36246Y206579D02*
X36246Y206579D01*
X32820Y207998D01*
X30198Y210620D01*
X28779Y214046D01*
X28779Y217754D01*
X30198Y221180D01*
X32820Y223802D01*
X36246Y225221D01*
X39954Y225221D01*
X43380Y223802D01*
X46002Y221180D01*
X47421Y217754D01*
X47421Y214046D01*
X46002Y210620D01*
X43380Y207998D01*
X39954Y206579D01*
X36246Y206579D01*
G37*
%LPD*%
%LPC*%
G36*
X36246Y181179D02*
X36246Y181179D01*
X32820Y182598D01*
X30198Y185220D01*
X28779Y188646D01*
X28779Y192354D01*
X30198Y195780D01*
X32820Y198402D01*
X36246Y199821D01*
X39954Y199821D01*
X43380Y198402D01*
X46002Y195780D01*
X47421Y192354D01*
X47421Y188646D01*
X46002Y185220D01*
X43380Y182598D01*
X39954Y181179D01*
X36246Y181179D01*
G37*
%LPD*%
%LPC*%
G36*
X36246Y155779D02*
X36246Y155779D01*
X32820Y157198D01*
X30198Y159820D01*
X28779Y163246D01*
X28779Y166954D01*
X30198Y170380D01*
X32820Y173002D01*
X36246Y174421D01*
X39954Y174421D01*
X43380Y173002D01*
X46002Y170380D01*
X47421Y166954D01*
X47421Y163246D01*
X46002Y159820D01*
X43380Y157198D01*
X39954Y155779D01*
X36246Y155779D01*
G37*
%LPD*%
%LPC*%
G36*
X417246Y79579D02*
X417246Y79579D01*
X413820Y80998D01*
X411198Y83620D01*
X409779Y87046D01*
X409779Y90754D01*
X411198Y94180D01*
X413820Y96802D01*
X417246Y98221D01*
X420954Y98221D01*
X424380Y96802D01*
X427002Y94180D01*
X428421Y90754D01*
X428421Y87046D01*
X427002Y83620D01*
X424380Y80998D01*
X420954Y79579D01*
X417246Y79579D01*
G37*
%LPD*%
%LPC*%
G36*
X23546Y92279D02*
X23546Y92279D01*
X20120Y93698D01*
X17498Y96320D01*
X16079Y99746D01*
X16079Y103454D01*
X17498Y106880D01*
X20120Y109502D01*
X23546Y110921D01*
X27254Y110921D01*
X30680Y109502D01*
X33302Y106880D01*
X34721Y103454D01*
X34721Y99746D01*
X33302Y96320D01*
X30680Y93698D01*
X27254Y92279D01*
X23546Y92279D01*
G37*
%LPD*%
%LPC*%
G36*
X442646Y79579D02*
X442646Y79579D01*
X439220Y80998D01*
X436598Y83620D01*
X435179Y87046D01*
X435179Y90754D01*
X436598Y94180D01*
X439220Y96802D01*
X442646Y98221D01*
X446354Y98221D01*
X449780Y96802D01*
X452402Y94180D01*
X453821Y90754D01*
X453821Y87046D01*
X452402Y83620D01*
X449780Y80998D01*
X446354Y79579D01*
X442646Y79579D01*
G37*
%LPD*%
%LPC*%
G36*
X468046Y251029D02*
X468046Y251029D01*
X464620Y252448D01*
X461998Y255070D01*
X460579Y258496D01*
X460579Y262204D01*
X461998Y265630D01*
X464620Y268252D01*
X468046Y269671D01*
X471754Y269671D01*
X475180Y268252D01*
X477802Y265630D01*
X479221Y262204D01*
X479221Y258496D01*
X477802Y255070D01*
X475180Y252448D01*
X471754Y251029D01*
X468046Y251029D01*
G37*
%LPD*%
%LPC*%
G36*
X442646Y251029D02*
X442646Y251029D01*
X439220Y252448D01*
X436598Y255070D01*
X435179Y258496D01*
X435179Y262204D01*
X436598Y265630D01*
X439220Y268252D01*
X442646Y269671D01*
X446354Y269671D01*
X449780Y268252D01*
X452402Y265630D01*
X453821Y262204D01*
X453821Y258496D01*
X452402Y255070D01*
X449780Y252448D01*
X446354Y251029D01*
X442646Y251029D01*
G37*
%LPD*%
%LPC*%
G36*
X417246Y251029D02*
X417246Y251029D01*
X413820Y252448D01*
X411198Y255070D01*
X409779Y258496D01*
X409779Y262204D01*
X411198Y265630D01*
X413820Y268252D01*
X417246Y269671D01*
X420954Y269671D01*
X424380Y268252D01*
X427002Y265630D01*
X428421Y262204D01*
X428421Y258496D01*
X427002Y255070D01*
X424380Y252448D01*
X420954Y251029D01*
X417246Y251029D01*
G37*
%LPD*%
%LPC*%
G36*
X468046Y79579D02*
X468046Y79579D01*
X464620Y80998D01*
X461998Y83620D01*
X460579Y87046D01*
X460579Y90754D01*
X461998Y94180D01*
X464620Y96802D01*
X468046Y98221D01*
X471754Y98221D01*
X475180Y96802D01*
X477802Y94180D01*
X479221Y90754D01*
X479221Y87046D01*
X477802Y83620D01*
X475180Y80998D01*
X471754Y79579D01*
X468046Y79579D01*
G37*
%LPD*%
%LPC*%
G36*
X48946Y92279D02*
X48946Y92279D01*
X45520Y93698D01*
X42898Y96320D01*
X41479Y99746D01*
X41479Y103454D01*
X42898Y106880D01*
X45520Y109502D01*
X48946Y110921D01*
X52654Y110921D01*
X56080Y109502D01*
X58702Y106880D01*
X60121Y103454D01*
X60121Y99746D01*
X58702Y96320D01*
X56080Y93698D01*
X52654Y92279D01*
X48946Y92279D01*
G37*
%LPD*%
%LPC*%
G36*
X74346Y92279D02*
X74346Y92279D01*
X70920Y93698D01*
X68298Y96320D01*
X66879Y99746D01*
X66879Y103454D01*
X68298Y106880D01*
X70920Y109502D01*
X74346Y110921D01*
X78054Y110921D01*
X81480Y109502D01*
X84102Y106880D01*
X85521Y103454D01*
X85521Y99746D01*
X84102Y96320D01*
X81480Y93698D01*
X78054Y92279D01*
X74346Y92279D01*
G37*
%LPD*%
%LPC*%
G36*
X23546Y238329D02*
X23546Y238329D01*
X20120Y239748D01*
X17498Y242370D01*
X16079Y245796D01*
X16079Y249504D01*
X17498Y252930D01*
X20120Y255552D01*
X23546Y256971D01*
X27254Y256971D01*
X30680Y255552D01*
X33302Y252930D01*
X34721Y249504D01*
X34721Y245796D01*
X33302Y242370D01*
X30680Y239748D01*
X27254Y238329D01*
X23546Y238329D01*
G37*
%LPD*%
%LPC*%
G36*
X74346Y238329D02*
X74346Y238329D01*
X70920Y239748D01*
X68298Y242370D01*
X66879Y245796D01*
X66879Y249504D01*
X68298Y252930D01*
X70920Y255552D01*
X74346Y256971D01*
X78054Y256971D01*
X81480Y255552D01*
X84102Y252930D01*
X85521Y249504D01*
X85521Y245796D01*
X84102Y242370D01*
X81480Y239748D01*
X78054Y238329D01*
X74346Y238329D01*
G37*
%LPD*%
%LPC*%
G36*
X495835Y204529D02*
X495835Y204529D01*
X492795Y205788D01*
X490468Y208115D01*
X489209Y211155D01*
X489209Y214445D01*
X490468Y217485D01*
X492795Y219812D01*
X495835Y221071D01*
X499125Y221071D01*
X502165Y219812D01*
X504492Y217485D01*
X505751Y214445D01*
X505751Y211155D01*
X504492Y208115D01*
X502165Y205788D01*
X499125Y204529D01*
X495835Y204529D01*
G37*
%LPD*%
%LPC*%
G36*
X495835Y134529D02*
X495835Y134529D01*
X492795Y135788D01*
X490468Y138115D01*
X489209Y141155D01*
X489209Y144445D01*
X490468Y147485D01*
X492795Y149812D01*
X495835Y151071D01*
X499125Y151071D01*
X502165Y149812D01*
X504492Y147485D01*
X505751Y144445D01*
X505751Y141155D01*
X504492Y138115D01*
X502165Y135788D01*
X499125Y134529D01*
X495835Y134529D01*
G37*
%LPD*%
%LPC*%
G36*
X495835Y179529D02*
X495835Y179529D01*
X492795Y180788D01*
X490468Y183115D01*
X489209Y186155D01*
X489209Y189445D01*
X490468Y192485D01*
X492795Y194812D01*
X495835Y196071D01*
X499125Y196071D01*
X502165Y194812D01*
X504492Y192485D01*
X505751Y189445D01*
X505751Y186155D01*
X504492Y183115D01*
X502165Y180788D01*
X499125Y179529D01*
X495835Y179529D01*
G37*
%LPD*%
%LPC*%
G36*
X495835Y159529D02*
X495835Y159529D01*
X492795Y160788D01*
X490468Y163115D01*
X489209Y166155D01*
X489209Y169445D01*
X490468Y172485D01*
X492795Y174812D01*
X495835Y176071D01*
X499125Y176071D01*
X502165Y174812D01*
X504492Y172485D01*
X505751Y169445D01*
X505751Y166155D01*
X504492Y163115D01*
X502165Y160788D01*
X499125Y159529D01*
X495835Y159529D01*
G37*
%LPD*%
%LPC*%
G36*
X57609Y307206D02*
X57609Y307206D01*
X54855Y308347D01*
X52747Y310455D01*
X51606Y313209D01*
X51606Y316191D01*
X52747Y318945D01*
X54855Y321053D01*
X57609Y322194D01*
X60591Y322194D01*
X63345Y321053D01*
X65453Y318945D01*
X66594Y316191D01*
X66594Y313209D01*
X65453Y310455D01*
X63345Y308347D01*
X60591Y307206D01*
X57609Y307206D01*
G37*
%LPD*%
%LPC*%
G36*
X489409Y307206D02*
X489409Y307206D01*
X486655Y308347D01*
X484547Y310455D01*
X483406Y313209D01*
X483406Y316191D01*
X484547Y318945D01*
X486655Y321053D01*
X489409Y322194D01*
X492391Y322194D01*
X495145Y321053D01*
X497253Y318945D01*
X498394Y316191D01*
X498394Y313209D01*
X497253Y310455D01*
X495145Y308347D01*
X492391Y307206D01*
X489409Y307206D01*
G37*
%LPD*%
%LPC*%
G36*
X464009Y307206D02*
X464009Y307206D01*
X461255Y308347D01*
X459147Y310455D01*
X458006Y313209D01*
X458006Y316191D01*
X459147Y318945D01*
X461255Y321053D01*
X464009Y322194D01*
X466991Y322194D01*
X469745Y321053D01*
X471853Y318945D01*
X472994Y316191D01*
X472994Y313209D01*
X471853Y310455D01*
X469745Y308347D01*
X466991Y307206D01*
X464009Y307206D01*
G37*
%LPD*%
%LPC*%
G36*
X438609Y307206D02*
X438609Y307206D01*
X435855Y308347D01*
X433747Y310455D01*
X432606Y313209D01*
X432606Y316191D01*
X433747Y318945D01*
X435855Y321053D01*
X438609Y322194D01*
X441591Y322194D01*
X444345Y321053D01*
X446453Y318945D01*
X447594Y316191D01*
X447594Y313209D01*
X446453Y310455D01*
X444345Y308347D01*
X441591Y307206D01*
X438609Y307206D01*
G37*
%LPD*%
%LPC*%
G36*
X413209Y307206D02*
X413209Y307206D01*
X410455Y308347D01*
X408347Y310455D01*
X407206Y313209D01*
X407206Y316191D01*
X408347Y318945D01*
X410455Y321053D01*
X413209Y322194D01*
X416191Y322194D01*
X418945Y321053D01*
X421053Y318945D01*
X422194Y316191D01*
X422194Y313209D01*
X421053Y310455D01*
X418945Y308347D01*
X416191Y307206D01*
X413209Y307206D01*
G37*
%LPD*%
%LPC*%
G36*
X235409Y307206D02*
X235409Y307206D01*
X232655Y308347D01*
X230547Y310455D01*
X229406Y313209D01*
X229406Y316191D01*
X230547Y318945D01*
X232655Y321053D01*
X235409Y322194D01*
X238391Y322194D01*
X241145Y321053D01*
X243253Y318945D01*
X244394Y316191D01*
X244394Y313209D01*
X243253Y310455D01*
X241145Y308347D01*
X238391Y307206D01*
X235409Y307206D01*
G37*
%LPD*%
%LPC*%
G36*
X133809Y307206D02*
X133809Y307206D01*
X131055Y308347D01*
X128947Y310455D01*
X127806Y313209D01*
X127806Y316191D01*
X128947Y318945D01*
X131055Y321053D01*
X133809Y322194D01*
X136791Y322194D01*
X139545Y321053D01*
X141653Y318945D01*
X142794Y316191D01*
X142794Y313209D01*
X141653Y310455D01*
X139545Y308347D01*
X136791Y307206D01*
X133809Y307206D01*
G37*
%LPD*%
%LPC*%
G36*
X159209Y307206D02*
X159209Y307206D01*
X156455Y308347D01*
X154347Y310455D01*
X153206Y313209D01*
X153206Y316191D01*
X154347Y318945D01*
X156455Y321053D01*
X159209Y322194D01*
X162191Y322194D01*
X164945Y321053D01*
X167053Y318945D01*
X168194Y316191D01*
X168194Y313209D01*
X167053Y310455D01*
X164945Y308347D01*
X162191Y307206D01*
X159209Y307206D01*
G37*
%LPD*%
%LPC*%
G36*
X184609Y307206D02*
X184609Y307206D01*
X181855Y308347D01*
X179747Y310455D01*
X178606Y313209D01*
X178606Y316191D01*
X179747Y318945D01*
X181855Y321053D01*
X184609Y322194D01*
X187591Y322194D01*
X190345Y321053D01*
X192453Y318945D01*
X193594Y316191D01*
X193594Y313209D01*
X192453Y310455D01*
X190345Y308347D01*
X187591Y307206D01*
X184609Y307206D01*
G37*
%LPD*%
%LPC*%
G36*
X210009Y307206D02*
X210009Y307206D01*
X207255Y308347D01*
X205147Y310455D01*
X204006Y313209D01*
X204006Y316191D01*
X205147Y318945D01*
X207255Y321053D01*
X210009Y322194D01*
X212991Y322194D01*
X215745Y321053D01*
X217853Y318945D01*
X218994Y316191D01*
X218994Y313209D01*
X217853Y310455D01*
X215745Y308347D01*
X212991Y307206D01*
X210009Y307206D01*
G37*
%LPD*%
%LPC*%
G36*
X260809Y307206D02*
X260809Y307206D01*
X258055Y308347D01*
X255947Y310455D01*
X254806Y313209D01*
X254806Y316191D01*
X255947Y318945D01*
X258055Y321053D01*
X260809Y322194D01*
X263791Y322194D01*
X266545Y321053D01*
X268653Y318945D01*
X269794Y316191D01*
X269794Y313209D01*
X268653Y310455D01*
X266545Y308347D01*
X263791Y307206D01*
X260809Y307206D01*
G37*
%LPD*%
%LPC*%
G36*
X286209Y307206D02*
X286209Y307206D01*
X283455Y308347D01*
X281347Y310455D01*
X280206Y313209D01*
X280206Y316191D01*
X281347Y318945D01*
X283455Y321053D01*
X286209Y322194D01*
X289191Y322194D01*
X291945Y321053D01*
X294053Y318945D01*
X295194Y316191D01*
X295194Y313209D01*
X294053Y310455D01*
X291945Y308347D01*
X289191Y307206D01*
X286209Y307206D01*
G37*
%LPD*%
%LPC*%
G36*
X311609Y307206D02*
X311609Y307206D01*
X308855Y308347D01*
X306747Y310455D01*
X305606Y313209D01*
X305606Y316191D01*
X306747Y318945D01*
X308855Y321053D01*
X311609Y322194D01*
X314591Y322194D01*
X317345Y321053D01*
X319453Y318945D01*
X320594Y316191D01*
X320594Y313209D01*
X319453Y310455D01*
X317345Y308347D01*
X314591Y307206D01*
X311609Y307206D01*
G37*
%LPD*%
%LPC*%
G36*
X337009Y307206D02*
X337009Y307206D01*
X334255Y308347D01*
X332147Y310455D01*
X331006Y313209D01*
X331006Y316191D01*
X332147Y318945D01*
X334255Y321053D01*
X337009Y322194D01*
X339991Y322194D01*
X342745Y321053D01*
X344853Y318945D01*
X345994Y316191D01*
X345994Y313209D01*
X344853Y310455D01*
X342745Y308347D01*
X339991Y307206D01*
X337009Y307206D01*
G37*
%LPD*%
%LPC*%
G36*
X108409Y307206D02*
X108409Y307206D01*
X105655Y308347D01*
X103547Y310455D01*
X102406Y313209D01*
X102406Y316191D01*
X103547Y318945D01*
X105655Y321053D01*
X108409Y322194D01*
X111391Y322194D01*
X114145Y321053D01*
X116253Y318945D01*
X117394Y316191D01*
X117394Y313209D01*
X116253Y310455D01*
X114145Y308347D01*
X111391Y307206D01*
X108409Y307206D01*
G37*
%LPD*%
%LPC*%
G36*
X362409Y307206D02*
X362409Y307206D01*
X359655Y308347D01*
X357547Y310455D01*
X356406Y313209D01*
X356406Y316191D01*
X357547Y318945D01*
X359655Y321053D01*
X362409Y322194D01*
X365391Y322194D01*
X368145Y321053D01*
X370253Y318945D01*
X371394Y316191D01*
X371394Y313209D01*
X370253Y310455D01*
X368145Y308347D01*
X365391Y307206D01*
X362409Y307206D01*
G37*
%LPD*%
%LPC*%
G36*
X83009Y307206D02*
X83009Y307206D01*
X80255Y308347D01*
X78147Y310455D01*
X77006Y313209D01*
X77006Y316191D01*
X78147Y318945D01*
X80255Y321053D01*
X83009Y322194D01*
X85991Y322194D01*
X88745Y321053D01*
X90853Y318945D01*
X91994Y316191D01*
X91994Y313209D01*
X90853Y310455D01*
X88745Y308347D01*
X85991Y307206D01*
X83009Y307206D01*
G37*
%LPD*%
%LPC*%
G36*
X133809Y27806D02*
X133809Y27806D01*
X131055Y28947D01*
X128947Y31055D01*
X127806Y33809D01*
X127806Y36791D01*
X128947Y39545D01*
X131055Y41653D01*
X133809Y42794D01*
X136791Y42794D01*
X139545Y41653D01*
X141653Y39545D01*
X142794Y36791D01*
X142794Y33809D01*
X141653Y31055D01*
X139545Y28947D01*
X136791Y27806D01*
X133809Y27806D01*
G37*
%LPD*%
%LPC*%
G36*
X108409Y27806D02*
X108409Y27806D01*
X105655Y28947D01*
X103547Y31055D01*
X102406Y33809D01*
X102406Y36791D01*
X103547Y39545D01*
X105655Y41653D01*
X108409Y42794D01*
X111391Y42794D01*
X114145Y41653D01*
X116253Y39545D01*
X117394Y36791D01*
X117394Y33809D01*
X116253Y31055D01*
X114145Y28947D01*
X111391Y27806D01*
X108409Y27806D01*
G37*
%LPD*%
%LPC*%
G36*
X159209Y281806D02*
X159209Y281806D01*
X156455Y282947D01*
X154347Y285055D01*
X153206Y287809D01*
X153206Y290791D01*
X154347Y293545D01*
X156455Y295653D01*
X159209Y296794D01*
X162191Y296794D01*
X164945Y295653D01*
X167053Y293545D01*
X168194Y290791D01*
X168194Y287809D01*
X167053Y285055D01*
X164945Y282947D01*
X162191Y281806D01*
X159209Y281806D01*
G37*
%LPD*%
%LPC*%
G36*
X133809Y281806D02*
X133809Y281806D01*
X131055Y282947D01*
X128947Y285055D01*
X127806Y287809D01*
X127806Y290791D01*
X128947Y293545D01*
X131055Y295653D01*
X133809Y296794D01*
X136791Y296794D01*
X139545Y295653D01*
X141653Y293545D01*
X142794Y290791D01*
X142794Y287809D01*
X141653Y285055D01*
X139545Y282947D01*
X136791Y281806D01*
X133809Y281806D01*
G37*
%LPD*%
%LPC*%
G36*
X108409Y281806D02*
X108409Y281806D01*
X105655Y282947D01*
X103547Y285055D01*
X102406Y287809D01*
X102406Y290791D01*
X103547Y293545D01*
X105655Y295653D01*
X108409Y296794D01*
X111391Y296794D01*
X114145Y295653D01*
X116253Y293545D01*
X117394Y290791D01*
X117394Y287809D01*
X116253Y285055D01*
X114145Y282947D01*
X111391Y281806D01*
X108409Y281806D01*
G37*
%LPD*%
%LPC*%
G36*
X235409Y281806D02*
X235409Y281806D01*
X232655Y282947D01*
X230547Y285055D01*
X229406Y287809D01*
X229406Y290791D01*
X230547Y293545D01*
X232655Y295653D01*
X235409Y296794D01*
X238391Y296794D01*
X241145Y295653D01*
X243253Y293545D01*
X244394Y290791D01*
X244394Y287809D01*
X243253Y285055D01*
X241145Y282947D01*
X238391Y281806D01*
X235409Y281806D01*
G37*
%LPD*%
%LPC*%
G36*
X210009Y281806D02*
X210009Y281806D01*
X207255Y282947D01*
X205147Y285055D01*
X204006Y287809D01*
X204006Y290791D01*
X205147Y293545D01*
X207255Y295653D01*
X210009Y296794D01*
X212991Y296794D01*
X215745Y295653D01*
X217853Y293545D01*
X218994Y290791D01*
X218994Y287809D01*
X217853Y285055D01*
X215745Y282947D01*
X212991Y281806D01*
X210009Y281806D01*
G37*
%LPD*%
%LPC*%
G36*
X184609Y281806D02*
X184609Y281806D01*
X181855Y282947D01*
X179747Y285055D01*
X178606Y287809D01*
X178606Y290791D01*
X179747Y293545D01*
X181855Y295653D01*
X184609Y296794D01*
X187591Y296794D01*
X190345Y295653D01*
X192453Y293545D01*
X193594Y290791D01*
X193594Y287809D01*
X192453Y285055D01*
X190345Y282947D01*
X187591Y281806D01*
X184609Y281806D01*
G37*
%LPD*%
%LPC*%
G36*
X57609Y281806D02*
X57609Y281806D01*
X54855Y282947D01*
X52747Y285055D01*
X51606Y287809D01*
X51606Y290791D01*
X52747Y293545D01*
X54855Y295653D01*
X57609Y296794D01*
X60591Y296794D01*
X63345Y295653D01*
X65453Y293545D01*
X66594Y290791D01*
X66594Y287809D01*
X65453Y285055D01*
X63345Y282947D01*
X60591Y281806D01*
X57609Y281806D01*
G37*
%LPD*%
%LPC*%
G36*
X83009Y281806D02*
X83009Y281806D01*
X80255Y282947D01*
X78147Y285055D01*
X77006Y287809D01*
X77006Y290791D01*
X78147Y293545D01*
X80255Y295653D01*
X83009Y296794D01*
X85991Y296794D01*
X88745Y295653D01*
X90853Y293545D01*
X91994Y290791D01*
X91994Y287809D01*
X90853Y285055D01*
X88745Y282947D01*
X85991Y281806D01*
X83009Y281806D01*
G37*
%LPD*%
%LPC*%
G36*
X489409Y281806D02*
X489409Y281806D01*
X486655Y282947D01*
X484547Y285055D01*
X483406Y287809D01*
X483406Y290791D01*
X484547Y293545D01*
X486655Y295653D01*
X489409Y296794D01*
X492391Y296794D01*
X495145Y295653D01*
X497253Y293545D01*
X498394Y290791D01*
X498394Y287809D01*
X497253Y285055D01*
X495145Y282947D01*
X492391Y281806D01*
X489409Y281806D01*
G37*
%LPD*%
%LPC*%
G36*
X464009Y281806D02*
X464009Y281806D01*
X461255Y282947D01*
X459147Y285055D01*
X458006Y287809D01*
X458006Y290791D01*
X459147Y293545D01*
X461255Y295653D01*
X464009Y296794D01*
X466991Y296794D01*
X469745Y295653D01*
X471853Y293545D01*
X472994Y290791D01*
X472994Y287809D01*
X471853Y285055D01*
X469745Y282947D01*
X466991Y281806D01*
X464009Y281806D01*
G37*
%LPD*%
%LPC*%
G36*
X438609Y281806D02*
X438609Y281806D01*
X435855Y282947D01*
X433747Y285055D01*
X432606Y287809D01*
X432606Y290791D01*
X433747Y293545D01*
X435855Y295653D01*
X438609Y296794D01*
X441591Y296794D01*
X444345Y295653D01*
X446453Y293545D01*
X447594Y290791D01*
X447594Y287809D01*
X446453Y285055D01*
X444345Y282947D01*
X441591Y281806D01*
X438609Y281806D01*
G37*
%LPD*%
%LPC*%
G36*
X413209Y281806D02*
X413209Y281806D01*
X410455Y282947D01*
X408347Y285055D01*
X407206Y287809D01*
X407206Y290791D01*
X408347Y293545D01*
X410455Y295653D01*
X413209Y296794D01*
X416191Y296794D01*
X418945Y295653D01*
X421053Y293545D01*
X422194Y290791D01*
X422194Y287809D01*
X421053Y285055D01*
X418945Y282947D01*
X416191Y281806D01*
X413209Y281806D01*
G37*
%LPD*%
%LPC*%
G36*
X387809Y281806D02*
X387809Y281806D01*
X385055Y282947D01*
X382947Y285055D01*
X381806Y287809D01*
X381806Y290791D01*
X382947Y293545D01*
X385055Y295653D01*
X387809Y296794D01*
X390791Y296794D01*
X393545Y295653D01*
X395653Y293545D01*
X396794Y290791D01*
X396794Y287809D01*
X395653Y285055D01*
X393545Y282947D01*
X390791Y281806D01*
X387809Y281806D01*
G37*
%LPD*%
%LPC*%
G36*
X362409Y281806D02*
X362409Y281806D01*
X359655Y282947D01*
X357547Y285055D01*
X356406Y287809D01*
X356406Y290791D01*
X357547Y293545D01*
X359655Y295653D01*
X362409Y296794D01*
X365391Y296794D01*
X368145Y295653D01*
X370253Y293545D01*
X371394Y290791D01*
X371394Y287809D01*
X370253Y285055D01*
X368145Y282947D01*
X365391Y281806D01*
X362409Y281806D01*
G37*
%LPD*%
%LPC*%
G36*
X311609Y281806D02*
X311609Y281806D01*
X308855Y282947D01*
X306747Y285055D01*
X305606Y287809D01*
X305606Y290791D01*
X306747Y293545D01*
X308855Y295653D01*
X311609Y296794D01*
X314591Y296794D01*
X317345Y295653D01*
X319453Y293545D01*
X320594Y290791D01*
X320594Y287809D01*
X319453Y285055D01*
X317345Y282947D01*
X314591Y281806D01*
X311609Y281806D01*
G37*
%LPD*%
%LPC*%
G36*
X286209Y281806D02*
X286209Y281806D01*
X283455Y282947D01*
X281347Y285055D01*
X280206Y287809D01*
X280206Y290791D01*
X281347Y293545D01*
X283455Y295653D01*
X286209Y296794D01*
X289191Y296794D01*
X291945Y295653D01*
X294053Y293545D01*
X295194Y290791D01*
X295194Y287809D01*
X294053Y285055D01*
X291945Y282947D01*
X289191Y281806D01*
X286209Y281806D01*
G37*
%LPD*%
%LPC*%
G36*
X260809Y281806D02*
X260809Y281806D01*
X258055Y282947D01*
X255947Y285055D01*
X254806Y287809D01*
X254806Y290791D01*
X255947Y293545D01*
X258055Y295653D01*
X260809Y296794D01*
X263791Y296794D01*
X266545Y295653D01*
X268653Y293545D01*
X269794Y290791D01*
X269794Y287809D01*
X268653Y285055D01*
X266545Y282947D01*
X263791Y281806D01*
X260809Y281806D01*
G37*
%LPD*%
%LPC*%
G36*
X83009Y27806D02*
X83009Y27806D01*
X80255Y28947D01*
X78147Y31055D01*
X77006Y33809D01*
X77006Y36791D01*
X78147Y39545D01*
X80255Y41653D01*
X83009Y42794D01*
X85991Y42794D01*
X88745Y41653D01*
X90853Y39545D01*
X91994Y36791D01*
X91994Y33809D01*
X90853Y31055D01*
X88745Y28947D01*
X85991Y27806D01*
X83009Y27806D01*
G37*
%LPD*%
%LPC*%
G36*
X387809Y307206D02*
X387809Y307206D01*
X385055Y308347D01*
X382947Y310455D01*
X381806Y313209D01*
X381806Y316191D01*
X382947Y318945D01*
X385055Y321053D01*
X387809Y322194D01*
X390791Y322194D01*
X393545Y321053D01*
X395653Y318945D01*
X396794Y316191D01*
X396794Y313209D01*
X395653Y310455D01*
X393545Y308347D01*
X390791Y307206D01*
X387809Y307206D01*
G37*
%LPD*%
%LPC*%
G36*
X159209Y53206D02*
X159209Y53206D01*
X156455Y54347D01*
X154347Y56455D01*
X153206Y59209D01*
X153206Y62191D01*
X154347Y64945D01*
X156455Y67053D01*
X159209Y68194D01*
X162191Y68194D01*
X164945Y67053D01*
X167053Y64945D01*
X168194Y62191D01*
X168194Y59209D01*
X167053Y56455D01*
X164945Y54347D01*
X162191Y53206D01*
X159209Y53206D01*
G37*
%LPD*%
%LPC*%
G36*
X133809Y53206D02*
X133809Y53206D01*
X131055Y54347D01*
X128947Y56455D01*
X127806Y59209D01*
X127806Y62191D01*
X128947Y64945D01*
X131055Y67053D01*
X133809Y68194D01*
X136791Y68194D01*
X139545Y67053D01*
X141653Y64945D01*
X142794Y62191D01*
X142794Y59209D01*
X141653Y56455D01*
X139545Y54347D01*
X136791Y53206D01*
X133809Y53206D01*
G37*
%LPD*%
%LPC*%
G36*
X108409Y53206D02*
X108409Y53206D01*
X105655Y54347D01*
X103547Y56455D01*
X102406Y59209D01*
X102406Y62191D01*
X103547Y64945D01*
X105655Y67053D01*
X108409Y68194D01*
X111391Y68194D01*
X114145Y67053D01*
X116253Y64945D01*
X117394Y62191D01*
X117394Y59209D01*
X116253Y56455D01*
X114145Y54347D01*
X111391Y53206D01*
X108409Y53206D01*
G37*
%LPD*%
%LPC*%
G36*
X83009Y53206D02*
X83009Y53206D01*
X80255Y54347D01*
X78147Y56455D01*
X77006Y59209D01*
X77006Y62191D01*
X78147Y64945D01*
X80255Y67053D01*
X83009Y68194D01*
X85991Y68194D01*
X88745Y67053D01*
X90853Y64945D01*
X91994Y62191D01*
X91994Y59209D01*
X90853Y56455D01*
X88745Y54347D01*
X85991Y53206D01*
X83009Y53206D01*
G37*
%LPD*%
%LPC*%
G36*
X57609Y53206D02*
X57609Y53206D01*
X54855Y54347D01*
X52747Y56455D01*
X51606Y59209D01*
X51606Y62191D01*
X52747Y64945D01*
X54855Y67053D01*
X57609Y68194D01*
X60591Y68194D01*
X63345Y67053D01*
X65453Y64945D01*
X66594Y62191D01*
X66594Y59209D01*
X65453Y56455D01*
X63345Y54347D01*
X60591Y53206D01*
X57609Y53206D01*
G37*
%LPD*%
%LPC*%
G36*
X489409Y53206D02*
X489409Y53206D01*
X486655Y54347D01*
X484547Y56455D01*
X483406Y59209D01*
X483406Y62191D01*
X484547Y64945D01*
X486655Y67053D01*
X489409Y68194D01*
X492391Y68194D01*
X495145Y67053D01*
X497253Y64945D01*
X498394Y62191D01*
X498394Y59209D01*
X497253Y56455D01*
X495145Y54347D01*
X492391Y53206D01*
X489409Y53206D01*
G37*
%LPD*%
%LPC*%
G36*
X464009Y53206D02*
X464009Y53206D01*
X461255Y54347D01*
X459147Y56455D01*
X458006Y59209D01*
X458006Y62191D01*
X459147Y64945D01*
X461255Y67053D01*
X464009Y68194D01*
X466991Y68194D01*
X469745Y67053D01*
X471853Y64945D01*
X472994Y62191D01*
X472994Y59209D01*
X471853Y56455D01*
X469745Y54347D01*
X466991Y53206D01*
X464009Y53206D01*
G37*
%LPD*%
%LPC*%
G36*
X438609Y53206D02*
X438609Y53206D01*
X435855Y54347D01*
X433747Y56455D01*
X432606Y59209D01*
X432606Y62191D01*
X433747Y64945D01*
X435855Y67053D01*
X438609Y68194D01*
X441591Y68194D01*
X444345Y67053D01*
X446453Y64945D01*
X447594Y62191D01*
X447594Y59209D01*
X446453Y56455D01*
X444345Y54347D01*
X441591Y53206D01*
X438609Y53206D01*
G37*
%LPD*%
%LPC*%
G36*
X413209Y53206D02*
X413209Y53206D01*
X410455Y54347D01*
X408347Y56455D01*
X407206Y59209D01*
X407206Y62191D01*
X408347Y64945D01*
X410455Y67053D01*
X413209Y68194D01*
X416191Y68194D01*
X418945Y67053D01*
X421053Y64945D01*
X422194Y62191D01*
X422194Y59209D01*
X421053Y56455D01*
X418945Y54347D01*
X416191Y53206D01*
X413209Y53206D01*
G37*
%LPD*%
%LPC*%
G36*
X387809Y53206D02*
X387809Y53206D01*
X385055Y54347D01*
X382947Y56455D01*
X381806Y59209D01*
X381806Y62191D01*
X382947Y64945D01*
X385055Y67053D01*
X387809Y68194D01*
X390791Y68194D01*
X393545Y67053D01*
X395653Y64945D01*
X396794Y62191D01*
X396794Y59209D01*
X395653Y56455D01*
X393545Y54347D01*
X390791Y53206D01*
X387809Y53206D01*
G37*
%LPD*%
%LPC*%
G36*
X362409Y53206D02*
X362409Y53206D01*
X359655Y54347D01*
X357547Y56455D01*
X356406Y59209D01*
X356406Y62191D01*
X357547Y64945D01*
X359655Y67053D01*
X362409Y68194D01*
X365391Y68194D01*
X368145Y67053D01*
X370253Y64945D01*
X371394Y62191D01*
X371394Y59209D01*
X370253Y56455D01*
X368145Y54347D01*
X365391Y53206D01*
X362409Y53206D01*
G37*
%LPD*%
%LPC*%
G36*
X337009Y53206D02*
X337009Y53206D01*
X334255Y54347D01*
X332147Y56455D01*
X331006Y59209D01*
X331006Y62191D01*
X332147Y64945D01*
X334255Y67053D01*
X337009Y68194D01*
X339991Y68194D01*
X342745Y67053D01*
X344853Y64945D01*
X345994Y62191D01*
X345994Y59209D01*
X344853Y56455D01*
X342745Y54347D01*
X339991Y53206D01*
X337009Y53206D01*
G37*
%LPD*%
%LPC*%
G36*
X311609Y53206D02*
X311609Y53206D01*
X308855Y54347D01*
X306747Y56455D01*
X305606Y59209D01*
X305606Y62191D01*
X306747Y64945D01*
X308855Y67053D01*
X311609Y68194D01*
X314591Y68194D01*
X317345Y67053D01*
X319453Y64945D01*
X320594Y62191D01*
X320594Y59209D01*
X319453Y56455D01*
X317345Y54347D01*
X314591Y53206D01*
X311609Y53206D01*
G37*
%LPD*%
%LPC*%
G36*
X286209Y53206D02*
X286209Y53206D01*
X283455Y54347D01*
X281347Y56455D01*
X280206Y59209D01*
X280206Y62191D01*
X281347Y64945D01*
X283455Y67053D01*
X286209Y68194D01*
X289191Y68194D01*
X291945Y67053D01*
X294053Y64945D01*
X295194Y62191D01*
X295194Y59209D01*
X294053Y56455D01*
X291945Y54347D01*
X289191Y53206D01*
X286209Y53206D01*
G37*
%LPD*%
%LPC*%
G36*
X235409Y53206D02*
X235409Y53206D01*
X232655Y54347D01*
X230547Y56455D01*
X229406Y59209D01*
X229406Y62191D01*
X230547Y64945D01*
X232655Y67053D01*
X235409Y68194D01*
X238391Y68194D01*
X241145Y67053D01*
X243253Y64945D01*
X244394Y62191D01*
X244394Y59209D01*
X243253Y56455D01*
X241145Y54347D01*
X238391Y53206D01*
X235409Y53206D01*
G37*
%LPD*%
%LPC*%
G36*
X184609Y53206D02*
X184609Y53206D01*
X181855Y54347D01*
X179747Y56455D01*
X178606Y59209D01*
X178606Y62191D01*
X179747Y64945D01*
X181855Y67053D01*
X184609Y68194D01*
X187591Y68194D01*
X190345Y67053D01*
X192453Y64945D01*
X193594Y62191D01*
X193594Y59209D01*
X192453Y56455D01*
X190345Y54347D01*
X187591Y53206D01*
X184609Y53206D01*
G37*
%LPD*%
%LPC*%
G36*
X57609Y27806D02*
X57609Y27806D01*
X54855Y28947D01*
X52747Y31055D01*
X51606Y33809D01*
X51606Y36791D01*
X52747Y39545D01*
X54855Y41653D01*
X57609Y42794D01*
X60591Y42794D01*
X63345Y41653D01*
X65453Y39545D01*
X66594Y36791D01*
X66594Y33809D01*
X65453Y31055D01*
X63345Y28947D01*
X60591Y27806D01*
X57609Y27806D01*
G37*
%LPD*%
%LPC*%
G36*
X489409Y27806D02*
X489409Y27806D01*
X486655Y28947D01*
X484547Y31055D01*
X483406Y33809D01*
X483406Y36791D01*
X484547Y39545D01*
X486655Y41653D01*
X489409Y42794D01*
X492391Y42794D01*
X495145Y41653D01*
X497253Y39545D01*
X498394Y36791D01*
X498394Y33809D01*
X497253Y31055D01*
X495145Y28947D01*
X492391Y27806D01*
X489409Y27806D01*
G37*
%LPD*%
%LPC*%
G36*
X464009Y27806D02*
X464009Y27806D01*
X461255Y28947D01*
X459147Y31055D01*
X458006Y33809D01*
X458006Y36791D01*
X459147Y39545D01*
X461255Y41653D01*
X464009Y42794D01*
X466991Y42794D01*
X469745Y41653D01*
X471853Y39545D01*
X472994Y36791D01*
X472994Y33809D01*
X471853Y31055D01*
X469745Y28947D01*
X466991Y27806D01*
X464009Y27806D01*
G37*
%LPD*%
%LPC*%
G36*
X438609Y27806D02*
X438609Y27806D01*
X435855Y28947D01*
X433747Y31055D01*
X432606Y33809D01*
X432606Y36791D01*
X433747Y39545D01*
X435855Y41653D01*
X438609Y42794D01*
X441591Y42794D01*
X444345Y41653D01*
X446453Y39545D01*
X447594Y36791D01*
X447594Y33809D01*
X446453Y31055D01*
X444345Y28947D01*
X441591Y27806D01*
X438609Y27806D01*
G37*
%LPD*%
%LPC*%
G36*
X413209Y27806D02*
X413209Y27806D01*
X410455Y28947D01*
X408347Y31055D01*
X407206Y33809D01*
X407206Y36791D01*
X408347Y39545D01*
X410455Y41653D01*
X413209Y42794D01*
X416191Y42794D01*
X418945Y41653D01*
X421053Y39545D01*
X422194Y36791D01*
X422194Y33809D01*
X421053Y31055D01*
X418945Y28947D01*
X416191Y27806D01*
X413209Y27806D01*
G37*
%LPD*%
%LPC*%
G36*
X387809Y27806D02*
X387809Y27806D01*
X385055Y28947D01*
X382947Y31055D01*
X381806Y33809D01*
X381806Y36791D01*
X382947Y39545D01*
X385055Y41653D01*
X387809Y42794D01*
X390791Y42794D01*
X393545Y41653D01*
X395653Y39545D01*
X396794Y36791D01*
X396794Y33809D01*
X395653Y31055D01*
X393545Y28947D01*
X390791Y27806D01*
X387809Y27806D01*
G37*
%LPD*%
%LPC*%
G36*
X362409Y27806D02*
X362409Y27806D01*
X359655Y28947D01*
X357547Y31055D01*
X356406Y33809D01*
X356406Y36791D01*
X357547Y39545D01*
X359655Y41653D01*
X362409Y42794D01*
X365391Y42794D01*
X368145Y41653D01*
X370253Y39545D01*
X371394Y36791D01*
X371394Y33809D01*
X370253Y31055D01*
X368145Y28947D01*
X365391Y27806D01*
X362409Y27806D01*
G37*
%LPD*%
%LPC*%
G36*
X337009Y27806D02*
X337009Y27806D01*
X334255Y28947D01*
X332147Y31055D01*
X331006Y33809D01*
X331006Y36791D01*
X332147Y39545D01*
X334255Y41653D01*
X337009Y42794D01*
X339991Y42794D01*
X342745Y41653D01*
X344853Y39545D01*
X345994Y36791D01*
X345994Y33809D01*
X344853Y31055D01*
X342745Y28947D01*
X339991Y27806D01*
X337009Y27806D01*
G37*
%LPD*%
%LPC*%
G36*
X311609Y27806D02*
X311609Y27806D01*
X308855Y28947D01*
X306747Y31055D01*
X305606Y33809D01*
X305606Y36791D01*
X306747Y39545D01*
X308855Y41653D01*
X311609Y42794D01*
X314591Y42794D01*
X317345Y41653D01*
X319453Y39545D01*
X320594Y36791D01*
X320594Y33809D01*
X319453Y31055D01*
X317345Y28947D01*
X314591Y27806D01*
X311609Y27806D01*
G37*
%LPD*%
%LPC*%
G36*
X286209Y27806D02*
X286209Y27806D01*
X283455Y28947D01*
X281347Y31055D01*
X280206Y33809D01*
X280206Y36791D01*
X281347Y39545D01*
X283455Y41653D01*
X286209Y42794D01*
X289191Y42794D01*
X291945Y41653D01*
X294053Y39545D01*
X295194Y36791D01*
X295194Y33809D01*
X294053Y31055D01*
X291945Y28947D01*
X289191Y27806D01*
X286209Y27806D01*
G37*
%LPD*%
%LPC*%
G36*
X260809Y27806D02*
X260809Y27806D01*
X258055Y28947D01*
X255947Y31055D01*
X254806Y33809D01*
X254806Y36791D01*
X255947Y39545D01*
X258055Y41653D01*
X260809Y42794D01*
X263791Y42794D01*
X266545Y41653D01*
X268653Y39545D01*
X269794Y36791D01*
X269794Y33809D01*
X268653Y31055D01*
X266545Y28947D01*
X263791Y27806D01*
X260809Y27806D01*
G37*
%LPD*%
%LPC*%
G36*
X235409Y27806D02*
X235409Y27806D01*
X232655Y28947D01*
X230547Y31055D01*
X229406Y33809D01*
X229406Y36791D01*
X230547Y39545D01*
X232655Y41653D01*
X235409Y42794D01*
X238391Y42794D01*
X241145Y41653D01*
X243253Y39545D01*
X244394Y36791D01*
X244394Y33809D01*
X243253Y31055D01*
X241145Y28947D01*
X238391Y27806D01*
X235409Y27806D01*
G37*
%LPD*%
%LPC*%
G36*
X210009Y27806D02*
X210009Y27806D01*
X207255Y28947D01*
X205147Y31055D01*
X204006Y33809D01*
X204006Y36791D01*
X205147Y39545D01*
X207255Y41653D01*
X210009Y42794D01*
X212991Y42794D01*
X215745Y41653D01*
X217853Y39545D01*
X218994Y36791D01*
X218994Y33809D01*
X217853Y31055D01*
X215745Y28947D01*
X212991Y27806D01*
X210009Y27806D01*
G37*
%LPD*%
%LPC*%
G36*
X184609Y27806D02*
X184609Y27806D01*
X181855Y28947D01*
X179747Y31055D01*
X178606Y33809D01*
X178606Y36791D01*
X179747Y39545D01*
X181855Y41653D01*
X184609Y42794D01*
X187591Y42794D01*
X190345Y41653D01*
X192453Y39545D01*
X193594Y36791D01*
X193594Y33809D01*
X192453Y31055D01*
X190345Y28947D01*
X187591Y27806D01*
X184609Y27806D01*
G37*
%LPD*%
%LPC*%
G36*
X159209Y27806D02*
X159209Y27806D01*
X156455Y28947D01*
X154347Y31055D01*
X153206Y33809D01*
X153206Y36791D01*
X154347Y39545D01*
X156455Y41653D01*
X159209Y42794D01*
X162191Y42794D01*
X164945Y41653D01*
X167053Y39545D01*
X168194Y36791D01*
X168194Y33809D01*
X167053Y31055D01*
X164945Y28947D01*
X162191Y27806D01*
X159209Y27806D01*
G37*
%LPD*%
%LPC*%
G36*
X377847Y192305D02*
X377847Y192305D01*
X375185Y194967D01*
X375185Y198733D01*
X377847Y201395D01*
X381613Y201395D01*
X384275Y198733D01*
X384275Y194967D01*
X381613Y192305D01*
X377847Y192305D01*
G37*
%LPD*%
%LPC*%
G36*
X320697Y193575D02*
X320697Y193575D01*
X318035Y196237D01*
X318035Y200003D01*
X320697Y202665D01*
X324463Y202665D01*
X327125Y200003D01*
X327125Y196237D01*
X324463Y193575D01*
X320697Y193575D01*
G37*
%LPD*%
%LPC*%
G36*
X390547Y236755D02*
X390547Y236755D01*
X387885Y239417D01*
X387885Y243183D01*
X390547Y245845D01*
X394313Y245845D01*
X396975Y243183D01*
X396975Y239417D01*
X394313Y236755D01*
X390547Y236755D01*
G37*
%LPD*%
%LPC*%
G36*
X194967Y255805D02*
X194967Y255805D01*
X192305Y258467D01*
X192305Y262233D01*
X194967Y264895D01*
X198733Y264895D01*
X201395Y262233D01*
X201395Y258467D01*
X198733Y255805D01*
X194967Y255805D01*
G37*
%LPD*%
%LPC*%
G36*
X321967Y257075D02*
X321967Y257075D01*
X319305Y259737D01*
X319305Y263503D01*
X321967Y266165D01*
X325733Y266165D01*
X328395Y263503D01*
X328395Y259737D01*
X325733Y257075D01*
X321967Y257075D01*
G37*
%LPD*%
%LPC*%
G36*
X280057Y257075D02*
X280057Y257075D01*
X277395Y259737D01*
X277395Y263503D01*
X280057Y266165D01*
X283823Y266165D01*
X286485Y263503D01*
X286485Y259737D01*
X283823Y257075D01*
X280057Y257075D01*
G37*
%LPD*%
%LPC*%
G36*
X440077Y173255D02*
X440077Y173255D01*
X437415Y175917D01*
X437415Y179683D01*
X440077Y182345D01*
X443843Y182345D01*
X446505Y179683D01*
X446505Y175917D01*
X443843Y173255D01*
X440077Y173255D01*
G37*
%LPD*%
%LPC*%
G36*
X172107Y171985D02*
X172107Y171985D01*
X169445Y174647D01*
X169445Y178413D01*
X172107Y181075D01*
X175873Y181075D01*
X178535Y178413D01*
X178535Y174647D01*
X175873Y171985D01*
X172107Y171985D01*
G37*
%LPD*%
%LPC*%
G36*
X333397Y168175D02*
X333397Y168175D01*
X330735Y170837D01*
X330735Y174603D01*
X333397Y177265D01*
X337163Y177265D01*
X339825Y174603D01*
X339825Y170837D01*
X337163Y168175D01*
X333397Y168175D01*
G37*
%LPD*%
%LPC*%
G36*
X84477Y188495D02*
X84477Y188495D01*
X81815Y191157D01*
X81815Y194923D01*
X84477Y197585D01*
X88243Y197585D01*
X90905Y194923D01*
X90905Y191157D01*
X88243Y188495D01*
X84477Y188495D01*
G37*
%LPD*%
%LPC*%
G36*
X375307Y158015D02*
X375307Y158015D01*
X372645Y160677D01*
X372645Y164443D01*
X375307Y167105D01*
X379073Y167105D01*
X381735Y164443D01*
X381735Y160677D01*
X379073Y158015D01*
X375307Y158015D01*
G37*
%LPD*%
%LPC*%
G36*
X448967Y155475D02*
X448967Y155475D01*
X446305Y158137D01*
X446305Y161903D01*
X448967Y164565D01*
X452733Y164565D01*
X455395Y161903D01*
X455395Y158137D01*
X452733Y155475D01*
X448967Y155475D01*
G37*
%LPD*%
%LPC*%
G36*
X333397Y155475D02*
X333397Y155475D01*
X330735Y158137D01*
X330735Y161903D01*
X333397Y164565D01*
X337163Y164565D01*
X339825Y161903D01*
X339825Y158137D01*
X337163Y155475D01*
X333397Y155475D01*
G37*
%LPD*%
%LPC*%
G36*
X84477Y147855D02*
X84477Y147855D01*
X81815Y150517D01*
X81815Y154283D01*
X84477Y156945D01*
X88243Y156945D01*
X90905Y154283D01*
X90905Y150517D01*
X88243Y147855D01*
X84477Y147855D01*
G37*
%LPD*%
%LPC*%
G36*
X156867Y189765D02*
X156867Y189765D01*
X154205Y192427D01*
X154205Y196193D01*
X156867Y198855D01*
X160633Y198855D01*
X163295Y196193D01*
X163295Y192427D01*
X160633Y189765D01*
X156867Y189765D01*
G37*
%LPD*%
%LPC*%
G36*
X244498Y117375D02*
X244498Y117375D01*
X241835Y120038D01*
X241835Y123802D01*
X244498Y126465D01*
X248262Y126465D01*
X250925Y123802D01*
X250925Y120038D01*
X248262Y117375D01*
X244498Y117375D01*
G37*
%LPD*%
%LPC*%
G36*
X211478Y180875D02*
X211478Y180875D01*
X208815Y183538D01*
X208815Y187302D01*
X211478Y189965D01*
X215242Y189965D01*
X217905Y187302D01*
X217905Y183538D01*
X215242Y180875D01*
X211478Y180875D01*
G37*
%LPD*%
%LPC*%
G36*
X249578Y183415D02*
X249578Y183415D01*
X246915Y186078D01*
X246915Y189842D01*
X249578Y192505D01*
X253342Y192505D01*
X256005Y189842D01*
X256005Y186078D01*
X253342Y183415D01*
X249578Y183415D01*
G37*
%LPD*%
%LPC*%
G36*
X340023Y290823D02*
X340023Y290823D01*
X340023Y297932D01*
X341056Y297727D01*
X342651Y297066D01*
X344087Y296107D01*
X345307Y294887D01*
X346266Y293451D01*
X346927Y291856D01*
X347132Y290823D01*
X340023Y290823D01*
G37*
%LPD*%
%LPC*%
G36*
X213023Y62223D02*
X213023Y62223D01*
X213023Y69332D01*
X214056Y69127D01*
X215651Y68466D01*
X217087Y67507D01*
X218307Y66287D01*
X219266Y64851D01*
X219927Y63256D01*
X220132Y62223D01*
X213023Y62223D01*
G37*
%LPD*%
%LPC*%
G36*
X329868Y290823D02*
X329868Y290823D01*
X330073Y291856D01*
X330734Y293451D01*
X331693Y294887D01*
X332913Y296107D01*
X334349Y297066D01*
X335944Y297727D01*
X336977Y297932D01*
X336977Y290823D01*
X329868Y290823D01*
G37*
%LPD*%
%LPC*%
G36*
X213023Y59177D02*
X213023Y59177D01*
X220132Y59177D01*
X219927Y58144D01*
X219266Y56549D01*
X218307Y55113D01*
X217087Y53893D01*
X215651Y52934D01*
X214056Y52273D01*
X213023Y52068D01*
X213023Y59177D01*
G37*
%LPD*%
%LPC*%
G36*
X340023Y287777D02*
X340023Y287777D01*
X347132Y287777D01*
X346927Y286744D01*
X346266Y285149D01*
X345307Y283713D01*
X344087Y282493D01*
X342651Y281534D01*
X341056Y280873D01*
X340023Y280668D01*
X340023Y287777D01*
G37*
%LPD*%
%LPC*%
G36*
X202868Y62223D02*
X202868Y62223D01*
X203073Y63256D01*
X203734Y64851D01*
X204693Y66287D01*
X205913Y67507D01*
X207349Y68466D01*
X208944Y69127D01*
X209977Y69332D01*
X209977Y62223D01*
X202868Y62223D01*
G37*
%LPD*%
%LPC*%
G36*
X208944Y52273D02*
X208944Y52273D01*
X207349Y52934D01*
X205913Y53893D01*
X204693Y55113D01*
X203734Y56549D01*
X203073Y58144D01*
X202868Y59177D01*
X209977Y59177D01*
X209977Y52068D01*
X208944Y52273D01*
G37*
%LPD*%
%LPC*%
G36*
X335944Y280873D02*
X335944Y280873D01*
X334349Y281534D01*
X332913Y282493D01*
X331693Y283713D01*
X330734Y285149D01*
X330073Y286744D01*
X329868Y287777D01*
X336977Y287777D01*
X336977Y280668D01*
X335944Y280873D01*
G37*
%LPD*%
%LPC*%
G36*
X264522Y62922D02*
X264522Y62922D01*
X264522Y69193D01*
X264856Y69127D01*
X266451Y68466D01*
X267887Y67507D01*
X269107Y66287D01*
X270066Y64851D01*
X270727Y63256D01*
X270793Y62922D01*
X264522Y62922D01*
G37*
%LPD*%
%LPC*%
G36*
X264522Y58478D02*
X264522Y58478D01*
X270793Y58478D01*
X270727Y58144D01*
X270066Y56549D01*
X269107Y55113D01*
X267887Y53893D01*
X266451Y52934D01*
X264856Y52273D01*
X264522Y52207D01*
X264522Y58478D01*
G37*
%LPD*%
%LPC*%
G36*
X253807Y62922D02*
X253807Y62922D01*
X253873Y63256D01*
X254534Y64851D01*
X255493Y66287D01*
X256713Y67507D01*
X258149Y68466D01*
X259744Y69127D01*
X260078Y69193D01*
X260078Y62922D01*
X253807Y62922D01*
G37*
%LPD*%
%LPC*%
G36*
X259744Y52273D02*
X259744Y52273D01*
X258149Y52934D01*
X256713Y53893D01*
X255493Y55113D01*
X254534Y56549D01*
X253873Y58144D01*
X253807Y58478D01*
X260078Y58478D01*
X260078Y52207D01*
X259744Y52273D01*
G37*
%LPD*%
%LPC*%
G36*
X338499Y289299D02*
X338499Y289299D01*
X338499Y289301D01*
X338501Y289301D01*
X338501Y289299D01*
X338499Y289299D01*
G37*
%LPD*%
%LPC*%
G36*
X211499Y60699D02*
X211499Y60699D01*
X211499Y60701D01*
X211501Y60701D01*
X211501Y60699D01*
X211499Y60699D01*
G37*
%LPD*%
D10*
X112522Y114808D02*
X116134Y98552D01*
X119747Y109389D01*
X123359Y98552D01*
X126972Y114808D01*
X148126Y107583D02*
X150836Y107583D01*
X150836Y98552D01*
X145417Y98552D01*
X145299Y98554D01*
X145181Y98560D01*
X145063Y98569D01*
X144946Y98583D01*
X144829Y98600D01*
X144712Y98621D01*
X144597Y98646D01*
X144482Y98675D01*
X144368Y98708D01*
X144256Y98744D01*
X144145Y98784D01*
X144035Y98827D01*
X143926Y98874D01*
X143819Y98924D01*
X143714Y98979D01*
X143611Y99036D01*
X143510Y99097D01*
X143410Y99161D01*
X143313Y99228D01*
X143218Y99298D01*
X143126Y99372D01*
X143035Y99448D01*
X142948Y99528D01*
X142863Y99610D01*
X142781Y99695D01*
X142701Y99782D01*
X142625Y99873D01*
X142551Y99965D01*
X142481Y100060D01*
X142414Y100157D01*
X142350Y100257D01*
X142289Y100358D01*
X142232Y100461D01*
X142177Y100566D01*
X142127Y100673D01*
X142080Y100782D01*
X142037Y100892D01*
X141997Y101003D01*
X141961Y101115D01*
X141928Y101229D01*
X141899Y101344D01*
X141874Y101459D01*
X141853Y101576D01*
X141836Y101693D01*
X141822Y101810D01*
X141813Y101928D01*
X141807Y102046D01*
X141805Y102164D01*
X141804Y102164D02*
X141804Y111196D01*
X141805Y111196D02*
X141807Y111314D01*
X141813Y111432D01*
X141822Y111550D01*
X141836Y111667D01*
X141853Y111784D01*
X141874Y111901D01*
X141899Y112016D01*
X141928Y112131D01*
X141961Y112245D01*
X141997Y112357D01*
X142037Y112468D01*
X142080Y112578D01*
X142127Y112687D01*
X142177Y112794D01*
X142231Y112899D01*
X142289Y113002D01*
X142350Y113103D01*
X142414Y113203D01*
X142481Y113300D01*
X142551Y113395D01*
X142625Y113487D01*
X142701Y113578D01*
X142781Y113665D01*
X142863Y113750D01*
X142948Y113832D01*
X143035Y113912D01*
X143126Y113988D01*
X143218Y114062D01*
X143313Y114132D01*
X143410Y114199D01*
X143510Y114263D01*
X143611Y114324D01*
X143714Y114381D01*
X143819Y114435D01*
X143926Y114486D01*
X144035Y114533D01*
X144145Y114576D01*
X144256Y114616D01*
X144368Y114652D01*
X144482Y114685D01*
X144597Y114714D01*
X144712Y114739D01*
X144829Y114760D01*
X144946Y114777D01*
X145063Y114791D01*
X145181Y114800D01*
X145299Y114806D01*
X145417Y114808D01*
X150836Y114808D01*
X158424Y109389D02*
X158424Y98552D01*
X158424Y109389D02*
X163842Y109389D01*
X163842Y107583D01*
X168725Y109389D02*
X168725Y98552D01*
X168273Y113905D02*
X168273Y114808D01*
X169176Y114808D01*
X169176Y113905D01*
X168273Y113905D01*
X175811Y109389D02*
X175811Y98552D01*
X175811Y109389D02*
X183939Y109389D01*
X184040Y109387D01*
X184141Y109381D01*
X184242Y109372D01*
X184343Y109359D01*
X184443Y109342D01*
X184542Y109321D01*
X184640Y109297D01*
X184737Y109269D01*
X184834Y109237D01*
X184929Y109202D01*
X185022Y109163D01*
X185114Y109121D01*
X185205Y109075D01*
X185294Y109026D01*
X185380Y108974D01*
X185465Y108918D01*
X185548Y108860D01*
X185628Y108798D01*
X185706Y108733D01*
X185782Y108666D01*
X185855Y108596D01*
X185925Y108523D01*
X185992Y108447D01*
X186057Y108369D01*
X186119Y108289D01*
X186177Y108206D01*
X186233Y108121D01*
X186285Y108035D01*
X186334Y107946D01*
X186380Y107855D01*
X186422Y107763D01*
X186461Y107670D01*
X186496Y107575D01*
X186528Y107478D01*
X186556Y107381D01*
X186580Y107283D01*
X186601Y107184D01*
X186618Y107084D01*
X186631Y106983D01*
X186640Y106882D01*
X186646Y106781D01*
X186648Y106680D01*
X186648Y98552D01*
X181230Y98552D02*
X181230Y109389D01*
X196479Y98552D02*
X200994Y98552D01*
X196479Y98552D02*
X196378Y98554D01*
X196277Y98560D01*
X196176Y98569D01*
X196075Y98582D01*
X195975Y98599D01*
X195876Y98620D01*
X195778Y98644D01*
X195681Y98672D01*
X195584Y98704D01*
X195489Y98739D01*
X195396Y98778D01*
X195304Y98820D01*
X195213Y98866D01*
X195125Y98915D01*
X195038Y98967D01*
X194953Y99023D01*
X194870Y99081D01*
X194790Y99143D01*
X194712Y99208D01*
X194636Y99275D01*
X194563Y99345D01*
X194493Y99418D01*
X194426Y99494D01*
X194361Y99572D01*
X194299Y99652D01*
X194241Y99735D01*
X194185Y99820D01*
X194133Y99907D01*
X194084Y99995D01*
X194038Y100086D01*
X193996Y100178D01*
X193957Y100271D01*
X193922Y100366D01*
X193890Y100463D01*
X193862Y100560D01*
X193838Y100658D01*
X193817Y100757D01*
X193800Y100857D01*
X193787Y100958D01*
X193778Y101059D01*
X193772Y101160D01*
X193770Y101261D01*
X193770Y105777D01*
X193772Y105896D01*
X193778Y106016D01*
X193788Y106135D01*
X193802Y106253D01*
X193819Y106372D01*
X193841Y106489D01*
X193866Y106606D01*
X193896Y106721D01*
X193929Y106836D01*
X193966Y106950D01*
X194006Y107062D01*
X194051Y107173D01*
X194099Y107282D01*
X194150Y107390D01*
X194205Y107496D01*
X194264Y107600D01*
X194326Y107702D01*
X194391Y107802D01*
X194460Y107900D01*
X194532Y107996D01*
X194607Y108089D01*
X194684Y108179D01*
X194765Y108267D01*
X194849Y108352D01*
X194936Y108434D01*
X195025Y108514D01*
X195117Y108590D01*
X195211Y108664D01*
X195308Y108734D01*
X195406Y108801D01*
X195507Y108865D01*
X195611Y108925D01*
X195716Y108982D01*
X195823Y109035D01*
X195931Y109085D01*
X196041Y109131D01*
X196153Y109173D01*
X196266Y109212D01*
X196380Y109247D01*
X196495Y109278D01*
X196612Y109306D01*
X196729Y109329D01*
X196846Y109349D01*
X196965Y109365D01*
X197084Y109377D01*
X197203Y109385D01*
X197322Y109389D01*
X197442Y109389D01*
X197561Y109385D01*
X197680Y109377D01*
X197799Y109365D01*
X197918Y109349D01*
X198035Y109329D01*
X198152Y109306D01*
X198269Y109278D01*
X198384Y109247D01*
X198498Y109212D01*
X198611Y109173D01*
X198723Y109131D01*
X198833Y109085D01*
X198941Y109035D01*
X199048Y108982D01*
X199153Y108925D01*
X199257Y108865D01*
X199358Y108801D01*
X199456Y108734D01*
X199553Y108664D01*
X199647Y108590D01*
X199739Y108514D01*
X199828Y108434D01*
X199915Y108352D01*
X199999Y108267D01*
X200080Y108179D01*
X200157Y108089D01*
X200232Y107996D01*
X200304Y107900D01*
X200373Y107802D01*
X200438Y107702D01*
X200500Y107600D01*
X200559Y107496D01*
X200614Y107390D01*
X200665Y107282D01*
X200713Y107173D01*
X200758Y107062D01*
X200798Y106950D01*
X200835Y106836D01*
X200868Y106721D01*
X200898Y106606D01*
X200923Y106489D01*
X200945Y106372D01*
X200962Y106253D01*
X200976Y106135D01*
X200986Y106016D01*
X200992Y105896D01*
X200994Y105777D01*
X200994Y103971D01*
X193770Y103971D01*
X208671Y104874D02*
X213187Y103068D01*
X208671Y104874D02*
X208583Y104911D01*
X208497Y104952D01*
X208412Y104996D01*
X208329Y105044D01*
X208249Y105095D01*
X208170Y105149D01*
X208094Y105207D01*
X208020Y105267D01*
X207948Y105331D01*
X207880Y105397D01*
X207814Y105467D01*
X207751Y105538D01*
X207690Y105613D01*
X207633Y105689D01*
X207580Y105768D01*
X207529Y105849D01*
X207482Y105932D01*
X207438Y106017D01*
X207398Y106104D01*
X207361Y106192D01*
X207328Y106282D01*
X207298Y106373D01*
X207273Y106465D01*
X207251Y106558D01*
X207233Y106652D01*
X207218Y106746D01*
X207208Y106841D01*
X207202Y106937D01*
X207199Y107032D01*
X207200Y107128D01*
X207206Y107223D01*
X207215Y107319D01*
X207228Y107413D01*
X207244Y107507D01*
X207265Y107601D01*
X207290Y107693D01*
X207318Y107784D01*
X207350Y107874D01*
X207385Y107963D01*
X207424Y108050D01*
X207467Y108136D01*
X207513Y108220D01*
X207563Y108301D01*
X207615Y108381D01*
X207671Y108459D01*
X207731Y108534D01*
X207793Y108606D01*
X207858Y108676D01*
X207926Y108744D01*
X207996Y108808D01*
X208069Y108870D01*
X208145Y108928D01*
X208223Y108984D01*
X208303Y109036D01*
X208385Y109085D01*
X208469Y109130D01*
X208555Y109172D01*
X208642Y109211D01*
X208731Y109246D01*
X208822Y109277D01*
X208913Y109304D01*
X209006Y109328D01*
X209099Y109348D01*
X209193Y109364D01*
X209288Y109376D01*
X209383Y109385D01*
X209479Y109389D01*
X209574Y109390D01*
X209821Y109383D01*
X210067Y109371D01*
X210313Y109353D01*
X210559Y109328D01*
X210803Y109298D01*
X211047Y109262D01*
X211290Y109221D01*
X211532Y109173D01*
X211773Y109119D01*
X212012Y109060D01*
X212250Y108995D01*
X212486Y108924D01*
X212721Y108848D01*
X212954Y108766D01*
X213184Y108678D01*
X213412Y108585D01*
X213639Y108487D01*
X213187Y103067D02*
X213275Y103030D01*
X213361Y102989D01*
X213446Y102945D01*
X213529Y102897D01*
X213609Y102846D01*
X213688Y102792D01*
X213764Y102734D01*
X213838Y102674D01*
X213910Y102610D01*
X213978Y102544D01*
X214044Y102474D01*
X214107Y102403D01*
X214168Y102328D01*
X214225Y102252D01*
X214278Y102173D01*
X214329Y102092D01*
X214376Y102009D01*
X214420Y101924D01*
X214460Y101837D01*
X214497Y101749D01*
X214530Y101659D01*
X214560Y101568D01*
X214585Y101476D01*
X214607Y101383D01*
X214625Y101289D01*
X214640Y101195D01*
X214650Y101100D01*
X214656Y101004D01*
X214659Y100909D01*
X214658Y100813D01*
X214652Y100718D01*
X214643Y100622D01*
X214630Y100528D01*
X214614Y100434D01*
X214593Y100340D01*
X214568Y100248D01*
X214540Y100157D01*
X214508Y100067D01*
X214473Y99978D01*
X214434Y99891D01*
X214391Y99805D01*
X214345Y99721D01*
X214295Y99640D01*
X214243Y99560D01*
X214187Y99482D01*
X214127Y99407D01*
X214065Y99335D01*
X214000Y99265D01*
X213932Y99197D01*
X213862Y99133D01*
X213789Y99071D01*
X213713Y99013D01*
X213635Y98957D01*
X213555Y98905D01*
X213473Y98856D01*
X213389Y98811D01*
X213303Y98769D01*
X213216Y98730D01*
X213127Y98695D01*
X213036Y98664D01*
X212945Y98637D01*
X212852Y98613D01*
X212759Y98593D01*
X212665Y98577D01*
X212570Y98565D01*
X212475Y98556D01*
X212379Y98552D01*
X212284Y98551D01*
X212283Y98552D02*
X211921Y98561D01*
X211559Y98579D01*
X211198Y98606D01*
X210838Y98641D01*
X210478Y98684D01*
X210119Y98736D01*
X209762Y98797D01*
X209407Y98866D01*
X209053Y98943D01*
X208701Y99029D01*
X208351Y99123D01*
X208003Y99226D01*
X207658Y99336D01*
X207316Y99455D01*
X116134Y101092D02*
X112522Y117348D01*
X119747Y111929D02*
X116134Y101092D01*
X123359Y101092D02*
X119747Y111929D01*
X126972Y117348D02*
X123359Y101092D01*
X148126Y110123D02*
X150836Y110123D01*
X150836Y101092D01*
X145417Y101092D01*
X145299Y101094D01*
X145181Y101100D01*
X145063Y101109D01*
X144946Y101123D01*
X144829Y101140D01*
X144712Y101161D01*
X144597Y101186D01*
X144482Y101215D01*
X144368Y101248D01*
X144256Y101284D01*
X144145Y101324D01*
X144035Y101367D01*
X143926Y101414D01*
X143819Y101464D01*
X143714Y101519D01*
X143611Y101576D01*
X143510Y101637D01*
X143410Y101701D01*
X143313Y101768D01*
X143218Y101838D01*
X143126Y101912D01*
X143035Y101988D01*
X142948Y102068D01*
X142863Y102150D01*
X142781Y102235D01*
X142701Y102322D01*
X142625Y102413D01*
X142551Y102505D01*
X142481Y102600D01*
X142414Y102697D01*
X142350Y102797D01*
X142289Y102898D01*
X142232Y103001D01*
X142177Y103106D01*
X142127Y103213D01*
X142080Y103322D01*
X142037Y103432D01*
X141997Y103543D01*
X141961Y103655D01*
X141928Y103769D01*
X141899Y103884D01*
X141874Y103999D01*
X141853Y104116D01*
X141836Y104233D01*
X141822Y104350D01*
X141813Y104468D01*
X141807Y104586D01*
X141805Y104704D01*
X141804Y104704D02*
X141804Y113736D01*
X141805Y113736D02*
X141807Y113854D01*
X141813Y113972D01*
X141822Y114090D01*
X141836Y114207D01*
X141853Y114324D01*
X141874Y114441D01*
X141899Y114556D01*
X141928Y114671D01*
X141961Y114785D01*
X141997Y114897D01*
X142037Y115008D01*
X142080Y115118D01*
X142127Y115227D01*
X142177Y115334D01*
X142231Y115439D01*
X142289Y115542D01*
X142350Y115643D01*
X142414Y115743D01*
X142481Y115840D01*
X142551Y115935D01*
X142625Y116027D01*
X142701Y116118D01*
X142781Y116205D01*
X142863Y116290D01*
X142948Y116372D01*
X143035Y116452D01*
X143126Y116528D01*
X143218Y116602D01*
X143313Y116672D01*
X143410Y116739D01*
X143510Y116803D01*
X143611Y116864D01*
X143714Y116921D01*
X143819Y116975D01*
X143926Y117026D01*
X144035Y117073D01*
X144145Y117116D01*
X144256Y117156D01*
X144368Y117192D01*
X144482Y117225D01*
X144597Y117254D01*
X144712Y117279D01*
X144829Y117300D01*
X144946Y117317D01*
X145063Y117331D01*
X145181Y117340D01*
X145299Y117346D01*
X145417Y117348D01*
X150836Y117348D01*
X158424Y111929D02*
X158424Y101092D01*
X158424Y111929D02*
X163842Y111929D01*
X163842Y110123D01*
X168725Y111929D02*
X168725Y101092D01*
X168273Y116445D02*
X168273Y117348D01*
X169176Y117348D01*
X169176Y116445D01*
X168273Y116445D01*
X175811Y111929D02*
X175811Y101092D01*
X175811Y111929D02*
X183939Y111929D01*
X184040Y111927D01*
X184141Y111921D01*
X184242Y111912D01*
X184343Y111899D01*
X184443Y111882D01*
X184542Y111861D01*
X184640Y111837D01*
X184737Y111809D01*
X184834Y111777D01*
X184929Y111742D01*
X185022Y111703D01*
X185114Y111661D01*
X185205Y111615D01*
X185294Y111566D01*
X185380Y111514D01*
X185465Y111458D01*
X185548Y111400D01*
X185628Y111338D01*
X185706Y111273D01*
X185782Y111206D01*
X185855Y111136D01*
X185925Y111063D01*
X185992Y110987D01*
X186057Y110909D01*
X186119Y110829D01*
X186177Y110746D01*
X186233Y110661D01*
X186285Y110575D01*
X186334Y110486D01*
X186380Y110395D01*
X186422Y110303D01*
X186461Y110210D01*
X186496Y110115D01*
X186528Y110018D01*
X186556Y109921D01*
X186580Y109823D01*
X186601Y109724D01*
X186618Y109624D01*
X186631Y109523D01*
X186640Y109422D01*
X186646Y109321D01*
X186648Y109220D01*
X186648Y101092D01*
X181230Y101092D02*
X181230Y111929D01*
X196479Y101092D02*
X200994Y101092D01*
X196479Y101092D02*
X196378Y101094D01*
X196277Y101100D01*
X196176Y101109D01*
X196075Y101122D01*
X195975Y101139D01*
X195876Y101160D01*
X195778Y101184D01*
X195681Y101212D01*
X195584Y101244D01*
X195489Y101279D01*
X195396Y101318D01*
X195304Y101360D01*
X195213Y101406D01*
X195125Y101455D01*
X195038Y101507D01*
X194953Y101563D01*
X194870Y101621D01*
X194790Y101683D01*
X194712Y101748D01*
X194636Y101815D01*
X194563Y101885D01*
X194493Y101958D01*
X194426Y102034D01*
X194361Y102112D01*
X194299Y102192D01*
X194241Y102275D01*
X194185Y102360D01*
X194133Y102447D01*
X194084Y102535D01*
X194038Y102626D01*
X193996Y102718D01*
X193957Y102811D01*
X193922Y102906D01*
X193890Y103003D01*
X193862Y103100D01*
X193838Y103198D01*
X193817Y103297D01*
X193800Y103397D01*
X193787Y103498D01*
X193778Y103599D01*
X193772Y103700D01*
X193770Y103801D01*
X193770Y108317D01*
X193772Y108436D01*
X193778Y108556D01*
X193788Y108675D01*
X193802Y108793D01*
X193819Y108912D01*
X193841Y109029D01*
X193866Y109146D01*
X193896Y109261D01*
X193929Y109376D01*
X193966Y109490D01*
X194006Y109602D01*
X194051Y109713D01*
X194099Y109822D01*
X194150Y109930D01*
X194205Y110036D01*
X194264Y110140D01*
X194326Y110242D01*
X194391Y110342D01*
X194460Y110440D01*
X194532Y110536D01*
X194607Y110629D01*
X194684Y110719D01*
X194765Y110807D01*
X194849Y110892D01*
X194936Y110974D01*
X195025Y111054D01*
X195117Y111130D01*
X195211Y111204D01*
X195308Y111274D01*
X195406Y111341D01*
X195507Y111405D01*
X195611Y111465D01*
X195716Y111522D01*
X195823Y111575D01*
X195931Y111625D01*
X196041Y111671D01*
X196153Y111713D01*
X196266Y111752D01*
X196380Y111787D01*
X196495Y111818D01*
X196612Y111846D01*
X196729Y111869D01*
X196846Y111889D01*
X196965Y111905D01*
X197084Y111917D01*
X197203Y111925D01*
X197322Y111929D01*
X197442Y111929D01*
X197561Y111925D01*
X197680Y111917D01*
X197799Y111905D01*
X197918Y111889D01*
X198035Y111869D01*
X198152Y111846D01*
X198269Y111818D01*
X198384Y111787D01*
X198498Y111752D01*
X198611Y111713D01*
X198723Y111671D01*
X198833Y111625D01*
X198941Y111575D01*
X199048Y111522D01*
X199153Y111465D01*
X199257Y111405D01*
X199358Y111341D01*
X199456Y111274D01*
X199553Y111204D01*
X199647Y111130D01*
X199739Y111054D01*
X199828Y110974D01*
X199915Y110892D01*
X199999Y110807D01*
X200080Y110719D01*
X200157Y110629D01*
X200232Y110536D01*
X200304Y110440D01*
X200373Y110342D01*
X200438Y110242D01*
X200500Y110140D01*
X200559Y110036D01*
X200614Y109930D01*
X200665Y109822D01*
X200713Y109713D01*
X200758Y109602D01*
X200798Y109490D01*
X200835Y109376D01*
X200868Y109261D01*
X200898Y109146D01*
X200923Y109029D01*
X200945Y108912D01*
X200962Y108793D01*
X200976Y108675D01*
X200986Y108556D01*
X200992Y108436D01*
X200994Y108317D01*
X200994Y106511D01*
X193770Y106511D01*
X208671Y107414D02*
X213187Y105608D01*
X208671Y107414D02*
X208583Y107451D01*
X208497Y107492D01*
X208412Y107536D01*
X208329Y107584D01*
X208249Y107635D01*
X208170Y107689D01*
X208094Y107747D01*
X208020Y107807D01*
X207948Y107871D01*
X207880Y107937D01*
X207814Y108007D01*
X207751Y108078D01*
X207690Y108153D01*
X207633Y108229D01*
X207580Y108308D01*
X207529Y108389D01*
X207482Y108472D01*
X207438Y108557D01*
X207398Y108644D01*
X207361Y108732D01*
X207328Y108822D01*
X207298Y108913D01*
X207273Y109005D01*
X207251Y109098D01*
X207233Y109192D01*
X207218Y109286D01*
X207208Y109381D01*
X207202Y109477D01*
X207199Y109572D01*
X207200Y109668D01*
X207206Y109763D01*
X207215Y109859D01*
X207228Y109953D01*
X207244Y110047D01*
X207265Y110141D01*
X207290Y110233D01*
X207318Y110324D01*
X207350Y110414D01*
X207385Y110503D01*
X207424Y110590D01*
X207467Y110676D01*
X207513Y110760D01*
X207563Y110841D01*
X207615Y110921D01*
X207671Y110999D01*
X207731Y111074D01*
X207793Y111146D01*
X207858Y111216D01*
X207926Y111284D01*
X207996Y111348D01*
X208069Y111410D01*
X208145Y111468D01*
X208223Y111524D01*
X208303Y111576D01*
X208385Y111625D01*
X208469Y111670D01*
X208555Y111712D01*
X208642Y111751D01*
X208731Y111786D01*
X208822Y111817D01*
X208913Y111844D01*
X209006Y111868D01*
X209099Y111888D01*
X209193Y111904D01*
X209288Y111916D01*
X209383Y111925D01*
X209479Y111929D01*
X209574Y111930D01*
X209821Y111923D01*
X210067Y111911D01*
X210313Y111893D01*
X210559Y111868D01*
X210803Y111838D01*
X211047Y111802D01*
X211290Y111761D01*
X211532Y111713D01*
X211773Y111659D01*
X212012Y111600D01*
X212250Y111535D01*
X212486Y111464D01*
X212721Y111388D01*
X212954Y111306D01*
X213184Y111218D01*
X213412Y111125D01*
X213639Y111027D01*
X213187Y105607D02*
X213275Y105570D01*
X213361Y105529D01*
X213446Y105485D01*
X213529Y105437D01*
X213609Y105386D01*
X213688Y105332D01*
X213764Y105274D01*
X213838Y105214D01*
X213910Y105150D01*
X213978Y105084D01*
X214044Y105014D01*
X214107Y104943D01*
X214168Y104868D01*
X214225Y104792D01*
X214278Y104713D01*
X214329Y104632D01*
X214376Y104549D01*
X214420Y104464D01*
X214460Y104377D01*
X214497Y104289D01*
X214530Y104199D01*
X214560Y104108D01*
X214585Y104016D01*
X214607Y103923D01*
X214625Y103829D01*
X214640Y103735D01*
X214650Y103640D01*
X214656Y103544D01*
X214659Y103449D01*
X214658Y103353D01*
X214652Y103258D01*
X214643Y103162D01*
X214630Y103068D01*
X214614Y102974D01*
X214593Y102880D01*
X214568Y102788D01*
X214540Y102697D01*
X214508Y102607D01*
X214473Y102518D01*
X214434Y102431D01*
X214391Y102345D01*
X214345Y102261D01*
X214295Y102180D01*
X214243Y102100D01*
X214187Y102022D01*
X214127Y101947D01*
X214065Y101875D01*
X214000Y101805D01*
X213932Y101737D01*
X213862Y101673D01*
X213789Y101611D01*
X213713Y101553D01*
X213635Y101497D01*
X213555Y101445D01*
X213473Y101396D01*
X213389Y101351D01*
X213303Y101309D01*
X213216Y101270D01*
X213127Y101235D01*
X213036Y101204D01*
X212945Y101177D01*
X212852Y101153D01*
X212759Y101133D01*
X212665Y101117D01*
X212570Y101105D01*
X212475Y101096D01*
X212379Y101092D01*
X212284Y101091D01*
X212283Y101092D02*
X211921Y101101D01*
X211559Y101119D01*
X211198Y101146D01*
X210838Y101181D01*
X210478Y101224D01*
X210119Y101276D01*
X209762Y101337D01*
X209407Y101406D01*
X209053Y101483D01*
X208701Y101569D01*
X208351Y101663D01*
X208003Y101766D01*
X207658Y101876D01*
X207316Y101995D01*
X118674Y98552D02*
X115062Y114808D01*
X122287Y109389D02*
X118674Y98552D01*
X125899Y98552D02*
X122287Y109389D01*
X129512Y114808D02*
X125899Y98552D01*
X150666Y107583D02*
X153376Y107583D01*
X153376Y98552D01*
X147957Y98552D01*
X147839Y98554D01*
X147721Y98560D01*
X147603Y98569D01*
X147486Y98583D01*
X147369Y98600D01*
X147252Y98621D01*
X147137Y98646D01*
X147022Y98675D01*
X146908Y98708D01*
X146796Y98744D01*
X146685Y98784D01*
X146575Y98827D01*
X146466Y98874D01*
X146359Y98924D01*
X146254Y98979D01*
X146151Y99036D01*
X146050Y99097D01*
X145950Y99161D01*
X145853Y99228D01*
X145758Y99298D01*
X145666Y99372D01*
X145575Y99448D01*
X145488Y99528D01*
X145403Y99610D01*
X145321Y99695D01*
X145241Y99782D01*
X145165Y99873D01*
X145091Y99965D01*
X145021Y100060D01*
X144954Y100157D01*
X144890Y100257D01*
X144829Y100358D01*
X144772Y100461D01*
X144717Y100566D01*
X144667Y100673D01*
X144620Y100782D01*
X144577Y100892D01*
X144537Y101003D01*
X144501Y101115D01*
X144468Y101229D01*
X144439Y101344D01*
X144414Y101459D01*
X144393Y101576D01*
X144376Y101693D01*
X144362Y101810D01*
X144353Y101928D01*
X144347Y102046D01*
X144345Y102164D01*
X144344Y102164D02*
X144344Y111196D01*
X144345Y111196D02*
X144347Y111314D01*
X144353Y111432D01*
X144362Y111550D01*
X144376Y111667D01*
X144393Y111784D01*
X144414Y111901D01*
X144439Y112016D01*
X144468Y112131D01*
X144501Y112245D01*
X144537Y112357D01*
X144577Y112468D01*
X144620Y112578D01*
X144667Y112687D01*
X144717Y112794D01*
X144771Y112899D01*
X144829Y113002D01*
X144890Y113103D01*
X144954Y113203D01*
X145021Y113300D01*
X145091Y113395D01*
X145165Y113487D01*
X145241Y113578D01*
X145321Y113665D01*
X145403Y113750D01*
X145488Y113832D01*
X145575Y113912D01*
X145666Y113988D01*
X145758Y114062D01*
X145853Y114132D01*
X145950Y114199D01*
X146050Y114263D01*
X146151Y114324D01*
X146254Y114381D01*
X146359Y114435D01*
X146466Y114486D01*
X146575Y114533D01*
X146685Y114576D01*
X146796Y114616D01*
X146908Y114652D01*
X147022Y114685D01*
X147137Y114714D01*
X147252Y114739D01*
X147369Y114760D01*
X147486Y114777D01*
X147603Y114791D01*
X147721Y114800D01*
X147839Y114806D01*
X147957Y114808D01*
X153376Y114808D01*
X160964Y109389D02*
X160964Y98552D01*
X160964Y109389D02*
X166382Y109389D01*
X166382Y107583D01*
X171265Y109389D02*
X171265Y98552D01*
X170813Y113905D02*
X170813Y114808D01*
X171716Y114808D01*
X171716Y113905D01*
X170813Y113905D01*
X178351Y109389D02*
X178351Y98552D01*
X178351Y109389D02*
X186479Y109389D01*
X186580Y109387D01*
X186681Y109381D01*
X186782Y109372D01*
X186883Y109359D01*
X186983Y109342D01*
X187082Y109321D01*
X187180Y109297D01*
X187277Y109269D01*
X187374Y109237D01*
X187469Y109202D01*
X187562Y109163D01*
X187654Y109121D01*
X187745Y109075D01*
X187834Y109026D01*
X187920Y108974D01*
X188005Y108918D01*
X188088Y108860D01*
X188168Y108798D01*
X188246Y108733D01*
X188322Y108666D01*
X188395Y108596D01*
X188465Y108523D01*
X188532Y108447D01*
X188597Y108369D01*
X188659Y108289D01*
X188717Y108206D01*
X188773Y108121D01*
X188825Y108035D01*
X188874Y107946D01*
X188920Y107855D01*
X188962Y107763D01*
X189001Y107670D01*
X189036Y107575D01*
X189068Y107478D01*
X189096Y107381D01*
X189120Y107283D01*
X189141Y107184D01*
X189158Y107084D01*
X189171Y106983D01*
X189180Y106882D01*
X189186Y106781D01*
X189188Y106680D01*
X189188Y98552D01*
X183770Y98552D02*
X183770Y109389D01*
X199019Y98552D02*
X203534Y98552D01*
X199019Y98552D02*
X198918Y98554D01*
X198817Y98560D01*
X198716Y98569D01*
X198615Y98582D01*
X198515Y98599D01*
X198416Y98620D01*
X198318Y98644D01*
X198221Y98672D01*
X198124Y98704D01*
X198029Y98739D01*
X197936Y98778D01*
X197844Y98820D01*
X197753Y98866D01*
X197665Y98915D01*
X197578Y98967D01*
X197493Y99023D01*
X197410Y99081D01*
X197330Y99143D01*
X197252Y99208D01*
X197176Y99275D01*
X197103Y99345D01*
X197033Y99418D01*
X196966Y99494D01*
X196901Y99572D01*
X196839Y99652D01*
X196781Y99735D01*
X196725Y99820D01*
X196673Y99907D01*
X196624Y99995D01*
X196578Y100086D01*
X196536Y100178D01*
X196497Y100271D01*
X196462Y100366D01*
X196430Y100463D01*
X196402Y100560D01*
X196378Y100658D01*
X196357Y100757D01*
X196340Y100857D01*
X196327Y100958D01*
X196318Y101059D01*
X196312Y101160D01*
X196310Y101261D01*
X196310Y105777D01*
X196312Y105896D01*
X196318Y106016D01*
X196328Y106135D01*
X196342Y106253D01*
X196359Y106372D01*
X196381Y106489D01*
X196406Y106606D01*
X196436Y106721D01*
X196469Y106836D01*
X196506Y106950D01*
X196546Y107062D01*
X196591Y107173D01*
X196639Y107282D01*
X196690Y107390D01*
X196745Y107496D01*
X196804Y107600D01*
X196866Y107702D01*
X196931Y107802D01*
X197000Y107900D01*
X197072Y107996D01*
X197147Y108089D01*
X197224Y108179D01*
X197305Y108267D01*
X197389Y108352D01*
X197476Y108434D01*
X197565Y108514D01*
X197657Y108590D01*
X197751Y108664D01*
X197848Y108734D01*
X197946Y108801D01*
X198047Y108865D01*
X198151Y108925D01*
X198256Y108982D01*
X198363Y109035D01*
X198471Y109085D01*
X198581Y109131D01*
X198693Y109173D01*
X198806Y109212D01*
X198920Y109247D01*
X199035Y109278D01*
X199152Y109306D01*
X199269Y109329D01*
X199386Y109349D01*
X199505Y109365D01*
X199624Y109377D01*
X199743Y109385D01*
X199862Y109389D01*
X199982Y109389D01*
X200101Y109385D01*
X200220Y109377D01*
X200339Y109365D01*
X200458Y109349D01*
X200575Y109329D01*
X200692Y109306D01*
X200809Y109278D01*
X200924Y109247D01*
X201038Y109212D01*
X201151Y109173D01*
X201263Y109131D01*
X201373Y109085D01*
X201481Y109035D01*
X201588Y108982D01*
X201693Y108925D01*
X201797Y108865D01*
X201898Y108801D01*
X201996Y108734D01*
X202093Y108664D01*
X202187Y108590D01*
X202279Y108514D01*
X202368Y108434D01*
X202455Y108352D01*
X202539Y108267D01*
X202620Y108179D01*
X202697Y108089D01*
X202772Y107996D01*
X202844Y107900D01*
X202913Y107802D01*
X202978Y107702D01*
X203040Y107600D01*
X203099Y107496D01*
X203154Y107390D01*
X203205Y107282D01*
X203253Y107173D01*
X203298Y107062D01*
X203338Y106950D01*
X203375Y106836D01*
X203408Y106721D01*
X203438Y106606D01*
X203463Y106489D01*
X203485Y106372D01*
X203502Y106253D01*
X203516Y106135D01*
X203526Y106016D01*
X203532Y105896D01*
X203534Y105777D01*
X203534Y103971D01*
X196310Y103971D01*
X211211Y104874D02*
X215727Y103068D01*
X211211Y104874D02*
X211123Y104911D01*
X211037Y104952D01*
X210952Y104996D01*
X210869Y105044D01*
X210789Y105095D01*
X210710Y105149D01*
X210634Y105207D01*
X210560Y105267D01*
X210488Y105331D01*
X210420Y105397D01*
X210354Y105467D01*
X210291Y105538D01*
X210230Y105613D01*
X210173Y105689D01*
X210120Y105768D01*
X210069Y105849D01*
X210022Y105932D01*
X209978Y106017D01*
X209938Y106104D01*
X209901Y106192D01*
X209868Y106282D01*
X209838Y106373D01*
X209813Y106465D01*
X209791Y106558D01*
X209773Y106652D01*
X209758Y106746D01*
X209748Y106841D01*
X209742Y106937D01*
X209739Y107032D01*
X209740Y107128D01*
X209746Y107223D01*
X209755Y107319D01*
X209768Y107413D01*
X209784Y107507D01*
X209805Y107601D01*
X209830Y107693D01*
X209858Y107784D01*
X209890Y107874D01*
X209925Y107963D01*
X209964Y108050D01*
X210007Y108136D01*
X210053Y108220D01*
X210103Y108301D01*
X210155Y108381D01*
X210211Y108459D01*
X210271Y108534D01*
X210333Y108606D01*
X210398Y108676D01*
X210466Y108744D01*
X210536Y108808D01*
X210609Y108870D01*
X210685Y108928D01*
X210763Y108984D01*
X210843Y109036D01*
X210925Y109085D01*
X211009Y109130D01*
X211095Y109172D01*
X211182Y109211D01*
X211271Y109246D01*
X211362Y109277D01*
X211453Y109304D01*
X211546Y109328D01*
X211639Y109348D01*
X211733Y109364D01*
X211828Y109376D01*
X211923Y109385D01*
X212019Y109389D01*
X212114Y109390D01*
X212361Y109383D01*
X212607Y109371D01*
X212853Y109353D01*
X213099Y109328D01*
X213343Y109298D01*
X213587Y109262D01*
X213830Y109221D01*
X214072Y109173D01*
X214313Y109119D01*
X214552Y109060D01*
X214790Y108995D01*
X215026Y108924D01*
X215261Y108848D01*
X215494Y108766D01*
X215724Y108678D01*
X215952Y108585D01*
X216179Y108487D01*
X215727Y103067D02*
X215815Y103030D01*
X215901Y102989D01*
X215986Y102945D01*
X216069Y102897D01*
X216149Y102846D01*
X216228Y102792D01*
X216304Y102734D01*
X216378Y102674D01*
X216450Y102610D01*
X216518Y102544D01*
X216584Y102474D01*
X216647Y102403D01*
X216708Y102328D01*
X216765Y102252D01*
X216818Y102173D01*
X216869Y102092D01*
X216916Y102009D01*
X216960Y101924D01*
X217000Y101837D01*
X217037Y101749D01*
X217070Y101659D01*
X217100Y101568D01*
X217125Y101476D01*
X217147Y101383D01*
X217165Y101289D01*
X217180Y101195D01*
X217190Y101100D01*
X217196Y101004D01*
X217199Y100909D01*
X217198Y100813D01*
X217192Y100718D01*
X217183Y100622D01*
X217170Y100528D01*
X217154Y100434D01*
X217133Y100340D01*
X217108Y100248D01*
X217080Y100157D01*
X217048Y100067D01*
X217013Y99978D01*
X216974Y99891D01*
X216931Y99805D01*
X216885Y99721D01*
X216835Y99640D01*
X216783Y99560D01*
X216727Y99482D01*
X216667Y99407D01*
X216605Y99335D01*
X216540Y99265D01*
X216472Y99197D01*
X216402Y99133D01*
X216329Y99071D01*
X216253Y99013D01*
X216175Y98957D01*
X216095Y98905D01*
X216013Y98856D01*
X215929Y98811D01*
X215843Y98769D01*
X215756Y98730D01*
X215667Y98695D01*
X215576Y98664D01*
X215485Y98637D01*
X215392Y98613D01*
X215299Y98593D01*
X215205Y98577D01*
X215110Y98565D01*
X215015Y98556D01*
X214919Y98552D01*
X214824Y98551D01*
X214823Y98552D02*
X214461Y98561D01*
X214099Y98579D01*
X213738Y98606D01*
X213378Y98641D01*
X213018Y98684D01*
X212659Y98736D01*
X212302Y98797D01*
X211947Y98866D01*
X211593Y98943D01*
X211241Y99029D01*
X210891Y99123D01*
X210543Y99226D01*
X210198Y99336D01*
X209856Y99455D01*
D11*
X59100Y35300D03*
X59100Y60700D03*
X84500Y35300D03*
X84500Y60700D03*
X109900Y35300D03*
X109900Y60700D03*
X135300Y35300D03*
X135300Y60700D03*
X160700Y35300D03*
X160700Y60700D03*
X186100Y35300D03*
X186100Y60700D03*
X211500Y35300D03*
X211500Y60700D03*
X236900Y35300D03*
X236900Y60700D03*
X262300Y35300D03*
X262300Y60700D03*
X287700Y35300D03*
X287700Y60700D03*
X313100Y35300D03*
X313100Y60700D03*
X338500Y35300D03*
X338500Y60700D03*
X363900Y35300D03*
X363900Y60700D03*
X389300Y35300D03*
X389300Y60700D03*
X414700Y35300D03*
X414700Y60700D03*
X440100Y35300D03*
X440100Y60700D03*
X465500Y35300D03*
X465500Y60700D03*
X490900Y35300D03*
X490900Y60700D03*
X59100Y289300D03*
X59100Y314700D03*
X84500Y289300D03*
X84500Y314700D03*
X109900Y289300D03*
X109900Y314700D03*
X135300Y289300D03*
X135300Y314700D03*
X160700Y289300D03*
X160700Y314700D03*
X186100Y289300D03*
X186100Y314700D03*
X211500Y289300D03*
X211500Y314700D03*
X236900Y289300D03*
X236900Y314700D03*
X262300Y289300D03*
X262300Y314700D03*
X287700Y289300D03*
X287700Y314700D03*
X313100Y289300D03*
X313100Y314700D03*
X338500Y289300D03*
X338500Y314700D03*
X363900Y289300D03*
X363900Y314700D03*
X389300Y289300D03*
X389300Y314700D03*
X414700Y289300D03*
X414700Y314700D03*
X440100Y289300D03*
X440100Y314700D03*
X465500Y289300D03*
X465500Y314700D03*
X490900Y289300D03*
X490900Y314700D03*
D12*
X419100Y88900D03*
X444500Y88900D03*
X469900Y88900D03*
X419100Y260350D03*
X444500Y260350D03*
X469900Y260350D03*
X25400Y247650D03*
X50800Y247650D03*
X76200Y247650D03*
X25400Y101600D03*
X50800Y101600D03*
X76200Y101600D03*
D13*
X497480Y142800D03*
X497480Y167800D03*
X497480Y187800D03*
X497480Y212800D03*
D14*
X524581Y112100D03*
X524581Y243500D03*
D12*
X38100Y165100D03*
X38100Y190500D03*
X38100Y215900D03*
D15*
X86360Y152400D03*
X86360Y193040D03*
X441960Y177800D03*
X215900Y121920D03*
X246380Y121920D03*
X213360Y185420D03*
X158750Y194310D03*
X251460Y187960D03*
X335280Y160020D03*
X335280Y172720D03*
X322580Y198120D03*
X323850Y261620D03*
X281940Y261620D03*
X392430Y241300D03*
X187960Y260350D03*
X234950Y260350D03*
X243840Y260350D03*
X334010Y196850D03*
X431800Y233680D03*
X392430Y203200D03*
X398780Y187960D03*
X182880Y170180D03*
X377190Y162560D03*
X379730Y196850D03*
X450850Y160020D03*
X242570Y187960D03*
X280670Y243840D03*
X246380Y160020D03*
X205740Y162560D03*
X304800Y170180D03*
X289560Y203200D03*
X196850Y260350D03*
X173990Y176530D03*
X314960Y157480D03*
X307340Y187706D03*
M02*
