G04 EAGLE Gerber RS-274X export*
G75*
%MOMM*%
%FSLAX34Y34*%
%LPD*%
%INTop Soldermask*%
%IPPOS*%
%AMOC8*
5,1,8,0,0,1.08239X$1,22.5*%
G01*
%ADD10R,1.702400X0.752400*%
%ADD11R,1.952400X1.352400*%
%ADD12C,0.208544*%
%ADD13R,1.676400X1.676400*%
%ADD14P,1.814519X8X22.500000*%
%ADD15C,0.200866*%
%ADD16R,1.052400X0.652400*%
%ADD17R,1.762400X1.762400*%
%ADD18C,1.762400*%
%ADD19R,1.152400X1.252400*%
%ADD20R,1.183641X1.102359*%
%ADD21R,1.252400X1.152400*%
%ADD22R,0.672400X0.452400*%
%ADD23R,0.642400X0.452400*%
%ADD24R,0.752400X0.652400*%
%ADD25C,1.552400*%
%ADD26C,3.372400*%
%ADD27R,1.102359X1.183641*%
%ADD28C,0.609600*%
%ADD29C,1.168400*%


D10*
X101600Y153200D03*
X101600Y163200D03*
X101600Y173200D03*
X101600Y183200D03*
X101600Y193200D03*
X101600Y203200D03*
D11*
X79350Y216200D03*
X79350Y140200D03*
D12*
X270220Y159430D02*
X270220Y165270D01*
X270220Y159430D02*
X268580Y159430D01*
X268580Y165270D01*
X270220Y165270D01*
X270220Y161411D02*
X268580Y161411D01*
X268580Y163392D02*
X270220Y163392D01*
X274220Y165270D02*
X274220Y159430D01*
X272580Y159430D01*
X272580Y165270D01*
X274220Y165270D01*
X274220Y161411D02*
X272580Y161411D01*
X272580Y163392D02*
X274220Y163392D01*
X278220Y165270D02*
X278220Y159430D01*
X276580Y159430D01*
X276580Y165270D01*
X278220Y165270D01*
X278220Y161411D02*
X276580Y161411D01*
X276580Y163392D02*
X278220Y163392D01*
X282220Y165270D02*
X282220Y159430D01*
X280580Y159430D01*
X280580Y165270D01*
X282220Y165270D01*
X282220Y161411D02*
X280580Y161411D01*
X280580Y163392D02*
X282220Y163392D01*
X286220Y165270D02*
X286220Y159430D01*
X284580Y159430D01*
X284580Y165270D01*
X286220Y165270D01*
X286220Y161411D02*
X284580Y161411D01*
X284580Y163392D02*
X286220Y163392D01*
X290220Y165270D02*
X290220Y159430D01*
X288580Y159430D01*
X288580Y165270D01*
X290220Y165270D01*
X290220Y161411D02*
X288580Y161411D01*
X288580Y163392D02*
X290220Y163392D01*
X291930Y168620D02*
X297770Y168620D01*
X297770Y166980D01*
X291930Y166980D01*
X291930Y168620D01*
X291930Y172620D02*
X297770Y172620D01*
X297770Y170980D01*
X291930Y170980D01*
X291930Y172620D01*
X291930Y176620D02*
X297770Y176620D01*
X297770Y174980D01*
X291930Y174980D01*
X291930Y176620D01*
X291930Y180620D02*
X297770Y180620D01*
X297770Y178980D01*
X291930Y178980D01*
X291930Y180620D01*
X291930Y184620D02*
X297770Y184620D01*
X297770Y182980D01*
X291930Y182980D01*
X291930Y184620D01*
X291930Y188620D02*
X297770Y188620D01*
X297770Y186980D01*
X291930Y186980D01*
X291930Y188620D01*
X288580Y190330D02*
X288580Y196170D01*
X290220Y196170D01*
X290220Y190330D01*
X288580Y190330D01*
X288580Y192311D02*
X290220Y192311D01*
X290220Y194292D02*
X288580Y194292D01*
X284580Y196170D02*
X284580Y190330D01*
X284580Y196170D02*
X286220Y196170D01*
X286220Y190330D01*
X284580Y190330D01*
X284580Y192311D02*
X286220Y192311D01*
X286220Y194292D02*
X284580Y194292D01*
X280580Y196170D02*
X280580Y190330D01*
X280580Y196170D02*
X282220Y196170D01*
X282220Y190330D01*
X280580Y190330D01*
X280580Y192311D02*
X282220Y192311D01*
X282220Y194292D02*
X280580Y194292D01*
X276580Y196170D02*
X276580Y190330D01*
X276580Y196170D02*
X278220Y196170D01*
X278220Y190330D01*
X276580Y190330D01*
X276580Y192311D02*
X278220Y192311D01*
X278220Y194292D02*
X276580Y194292D01*
X272580Y196170D02*
X272580Y190330D01*
X272580Y196170D02*
X274220Y196170D01*
X274220Y190330D01*
X272580Y190330D01*
X272580Y192311D02*
X274220Y192311D01*
X274220Y194292D02*
X272580Y194292D01*
X268580Y196170D02*
X268580Y190330D01*
X268580Y196170D02*
X270220Y196170D01*
X270220Y190330D01*
X268580Y190330D01*
X268580Y192311D02*
X270220Y192311D01*
X270220Y194292D02*
X268580Y194292D01*
X266870Y186980D02*
X261030Y186980D01*
X261030Y188620D01*
X266870Y188620D01*
X266870Y186980D01*
X266870Y182980D02*
X261030Y182980D01*
X261030Y184620D01*
X266870Y184620D01*
X266870Y182980D01*
X266870Y178980D02*
X261030Y178980D01*
X261030Y180620D01*
X266870Y180620D01*
X266870Y178980D01*
X266870Y174980D02*
X261030Y174980D01*
X261030Y176620D01*
X266870Y176620D01*
X266870Y174980D01*
X266870Y170980D02*
X261030Y170980D01*
X261030Y172620D01*
X266870Y172620D01*
X266870Y170980D01*
X266870Y166980D02*
X261030Y166980D01*
X261030Y168620D01*
X266870Y168620D01*
X266870Y166980D01*
D13*
X59100Y35300D03*
D14*
X59100Y60700D03*
X84500Y35300D03*
X84500Y60700D03*
X109900Y35300D03*
X109900Y60700D03*
X135300Y35300D03*
X135300Y60700D03*
X160700Y35300D03*
X160700Y60700D03*
X186100Y35300D03*
X186100Y60700D03*
X211500Y35300D03*
X211500Y60700D03*
X236900Y35300D03*
X236900Y60700D03*
X262300Y35300D03*
X262300Y60700D03*
X287700Y35300D03*
X287700Y60700D03*
X313100Y35300D03*
X313100Y60700D03*
X338500Y35300D03*
X338500Y60700D03*
X363900Y35300D03*
X363900Y60700D03*
X389300Y35300D03*
X389300Y60700D03*
X414700Y35300D03*
X414700Y60700D03*
X440100Y35300D03*
X440100Y60700D03*
X465500Y35300D03*
X465500Y60700D03*
X490900Y35300D03*
X490900Y60700D03*
D13*
X59100Y289300D03*
D14*
X59100Y314700D03*
X84500Y289300D03*
X84500Y314700D03*
X109900Y289300D03*
X109900Y314700D03*
X135300Y289300D03*
X135300Y314700D03*
X160700Y289300D03*
X160700Y314700D03*
X186100Y289300D03*
X186100Y314700D03*
X211500Y289300D03*
X211500Y314700D03*
X236900Y289300D03*
X236900Y314700D03*
X262300Y289300D03*
X262300Y314700D03*
X287700Y289300D03*
X287700Y314700D03*
X313100Y289300D03*
X313100Y314700D03*
X338500Y289300D03*
X338500Y314700D03*
X363900Y289300D03*
X363900Y314700D03*
X389300Y289300D03*
X389300Y314700D03*
X414700Y289300D03*
X414700Y314700D03*
X440100Y289300D03*
X440100Y314700D03*
X465500Y289300D03*
X465500Y314700D03*
X490900Y289300D03*
X490900Y314700D03*
D15*
X202608Y173308D02*
X197792Y173308D01*
X202608Y173308D02*
X202608Y171792D01*
X197792Y171792D01*
X197792Y173308D01*
X197792Y176808D02*
X202608Y176808D01*
X202608Y175292D01*
X197792Y175292D01*
X197792Y176808D01*
X197792Y180308D02*
X202608Y180308D01*
X202608Y178792D01*
X197792Y178792D01*
X197792Y180308D01*
X197792Y183808D02*
X202608Y183808D01*
X202608Y182292D01*
X197792Y182292D01*
X197792Y183808D01*
X195908Y183808D02*
X191092Y183808D01*
X195908Y183808D02*
X195908Y182292D01*
X191092Y182292D01*
X191092Y183808D01*
X191092Y180308D02*
X195908Y180308D01*
X195908Y178792D01*
X191092Y178792D01*
X191092Y180308D01*
X191092Y176808D02*
X195908Y176808D01*
X195908Y175292D01*
X191092Y175292D01*
X191092Y176808D01*
X191092Y173308D02*
X195908Y173308D01*
X195908Y171792D01*
X191092Y171792D01*
X191092Y173308D01*
D16*
X345100Y196550D03*
X345100Y184050D03*
X366100Y184050D03*
X345100Y171550D03*
X366100Y171550D03*
X345100Y159050D03*
X366100Y159050D03*
X366100Y196550D03*
D17*
X419100Y88900D03*
D18*
X444500Y88900D03*
X469900Y88900D03*
D17*
X419100Y260350D03*
D18*
X444500Y260350D03*
X469900Y260350D03*
D17*
X25400Y247650D03*
D18*
X50800Y247650D03*
X76200Y247650D03*
D17*
X25400Y101600D03*
D18*
X50800Y101600D03*
X76200Y101600D03*
D19*
X392430Y213750D03*
X392430Y230750D03*
D20*
X398780Y162179D03*
X398780Y178181D03*
X431800Y207899D03*
X431800Y223901D03*
D21*
X271390Y260350D03*
X254390Y260350D03*
D19*
X246380Y132470D03*
X246380Y149470D03*
D21*
X313300Y260350D03*
X296300Y260350D03*
D19*
X322580Y186300D03*
X322580Y169300D03*
X215900Y133740D03*
X215900Y150740D03*
D22*
X467350Y160100D03*
D23*
X467300Y165100D03*
X467300Y170100D03*
X459800Y170100D03*
X459800Y165100D03*
X459800Y160100D03*
D24*
X441960Y160100D03*
X441960Y170100D03*
D25*
X497480Y142800D03*
X497480Y167800D03*
X497480Y187800D03*
X497480Y212800D03*
D26*
X524581Y112100D03*
X524581Y243500D03*
D27*
X184531Y194310D03*
X168529Y194310D03*
X162179Y260350D03*
X178181Y260350D03*
X206629Y260350D03*
X222631Y260350D03*
D17*
X38100Y165100D03*
D18*
X38100Y190500D03*
X38100Y215900D03*
D28*
X26670Y45720D02*
X26672Y45907D01*
X26679Y46094D01*
X26691Y46281D01*
X26707Y46467D01*
X26727Y46653D01*
X26752Y46838D01*
X26782Y47023D01*
X26816Y47207D01*
X26855Y47390D01*
X26898Y47572D01*
X26946Y47752D01*
X26998Y47932D01*
X27055Y48110D01*
X27115Y48287D01*
X27181Y48462D01*
X27250Y48636D01*
X27324Y48808D01*
X27402Y48978D01*
X27484Y49146D01*
X27570Y49312D01*
X27660Y49476D01*
X27754Y49637D01*
X27852Y49797D01*
X27954Y49953D01*
X28060Y50108D01*
X28170Y50259D01*
X28283Y50408D01*
X28400Y50554D01*
X28520Y50697D01*
X28644Y50837D01*
X28771Y50974D01*
X28902Y51108D01*
X29036Y51239D01*
X29173Y51366D01*
X29313Y51490D01*
X29456Y51610D01*
X29602Y51727D01*
X29751Y51840D01*
X29902Y51950D01*
X30057Y52056D01*
X30213Y52158D01*
X30373Y52256D01*
X30534Y52350D01*
X30698Y52440D01*
X30864Y52526D01*
X31032Y52608D01*
X31202Y52686D01*
X31374Y52760D01*
X31548Y52829D01*
X31723Y52895D01*
X31900Y52955D01*
X32078Y53012D01*
X32258Y53064D01*
X32438Y53112D01*
X32620Y53155D01*
X32803Y53194D01*
X32987Y53228D01*
X33172Y53258D01*
X33357Y53283D01*
X33543Y53303D01*
X33729Y53319D01*
X33916Y53331D01*
X34103Y53338D01*
X34290Y53340D01*
X34477Y53338D01*
X34664Y53331D01*
X34851Y53319D01*
X35037Y53303D01*
X35223Y53283D01*
X35408Y53258D01*
X35593Y53228D01*
X35777Y53194D01*
X35960Y53155D01*
X36142Y53112D01*
X36322Y53064D01*
X36502Y53012D01*
X36680Y52955D01*
X36857Y52895D01*
X37032Y52829D01*
X37206Y52760D01*
X37378Y52686D01*
X37548Y52608D01*
X37716Y52526D01*
X37882Y52440D01*
X38046Y52350D01*
X38207Y52256D01*
X38367Y52158D01*
X38523Y52056D01*
X38678Y51950D01*
X38829Y51840D01*
X38978Y51727D01*
X39124Y51610D01*
X39267Y51490D01*
X39407Y51366D01*
X39544Y51239D01*
X39678Y51108D01*
X39809Y50974D01*
X39936Y50837D01*
X40060Y50697D01*
X40180Y50554D01*
X40297Y50408D01*
X40410Y50259D01*
X40520Y50108D01*
X40626Y49953D01*
X40728Y49797D01*
X40826Y49637D01*
X40920Y49476D01*
X41010Y49312D01*
X41096Y49146D01*
X41178Y48978D01*
X41256Y48808D01*
X41330Y48636D01*
X41399Y48462D01*
X41465Y48287D01*
X41525Y48110D01*
X41582Y47932D01*
X41634Y47752D01*
X41682Y47572D01*
X41725Y47390D01*
X41764Y47207D01*
X41798Y47023D01*
X41828Y46838D01*
X41853Y46653D01*
X41873Y46467D01*
X41889Y46281D01*
X41901Y46094D01*
X41908Y45907D01*
X41910Y45720D01*
X41908Y45533D01*
X41901Y45346D01*
X41889Y45159D01*
X41873Y44973D01*
X41853Y44787D01*
X41828Y44602D01*
X41798Y44417D01*
X41764Y44233D01*
X41725Y44050D01*
X41682Y43868D01*
X41634Y43688D01*
X41582Y43508D01*
X41525Y43330D01*
X41465Y43153D01*
X41399Y42978D01*
X41330Y42804D01*
X41256Y42632D01*
X41178Y42462D01*
X41096Y42294D01*
X41010Y42128D01*
X40920Y41964D01*
X40826Y41803D01*
X40728Y41643D01*
X40626Y41487D01*
X40520Y41332D01*
X40410Y41181D01*
X40297Y41032D01*
X40180Y40886D01*
X40060Y40743D01*
X39936Y40603D01*
X39809Y40466D01*
X39678Y40332D01*
X39544Y40201D01*
X39407Y40074D01*
X39267Y39950D01*
X39124Y39830D01*
X38978Y39713D01*
X38829Y39600D01*
X38678Y39490D01*
X38523Y39384D01*
X38367Y39282D01*
X38207Y39184D01*
X38046Y39090D01*
X37882Y39000D01*
X37716Y38914D01*
X37548Y38832D01*
X37378Y38754D01*
X37206Y38680D01*
X37032Y38611D01*
X36857Y38545D01*
X36680Y38485D01*
X36502Y38428D01*
X36322Y38376D01*
X36142Y38328D01*
X35960Y38285D01*
X35777Y38246D01*
X35593Y38212D01*
X35408Y38182D01*
X35223Y38157D01*
X35037Y38137D01*
X34851Y38121D01*
X34664Y38109D01*
X34477Y38102D01*
X34290Y38100D01*
X34103Y38102D01*
X33916Y38109D01*
X33729Y38121D01*
X33543Y38137D01*
X33357Y38157D01*
X33172Y38182D01*
X32987Y38212D01*
X32803Y38246D01*
X32620Y38285D01*
X32438Y38328D01*
X32258Y38376D01*
X32078Y38428D01*
X31900Y38485D01*
X31723Y38545D01*
X31548Y38611D01*
X31374Y38680D01*
X31202Y38754D01*
X31032Y38832D01*
X30864Y38914D01*
X30698Y39000D01*
X30534Y39090D01*
X30373Y39184D01*
X30213Y39282D01*
X30057Y39384D01*
X29902Y39490D01*
X29751Y39600D01*
X29602Y39713D01*
X29456Y39830D01*
X29313Y39950D01*
X29173Y40074D01*
X29036Y40201D01*
X28902Y40332D01*
X28771Y40466D01*
X28644Y40603D01*
X28520Y40743D01*
X28400Y40886D01*
X28283Y41032D01*
X28170Y41181D01*
X28060Y41332D01*
X27954Y41487D01*
X27852Y41643D01*
X27754Y41803D01*
X27660Y41964D01*
X27570Y42128D01*
X27484Y42294D01*
X27402Y42462D01*
X27324Y42632D01*
X27250Y42804D01*
X27181Y42978D01*
X27115Y43153D01*
X27055Y43330D01*
X26998Y43508D01*
X26946Y43688D01*
X26898Y43868D01*
X26855Y44050D01*
X26816Y44233D01*
X26782Y44417D01*
X26752Y44602D01*
X26727Y44787D01*
X26707Y44973D01*
X26691Y45159D01*
X26679Y45346D01*
X26672Y45533D01*
X26670Y45720D01*
D29*
X34290Y45720D03*
D28*
X27940Y304800D02*
X27942Y304987D01*
X27949Y305174D01*
X27961Y305361D01*
X27977Y305547D01*
X27997Y305733D01*
X28022Y305918D01*
X28052Y306103D01*
X28086Y306287D01*
X28125Y306470D01*
X28168Y306652D01*
X28216Y306832D01*
X28268Y307012D01*
X28325Y307190D01*
X28385Y307367D01*
X28451Y307542D01*
X28520Y307716D01*
X28594Y307888D01*
X28672Y308058D01*
X28754Y308226D01*
X28840Y308392D01*
X28930Y308556D01*
X29024Y308717D01*
X29122Y308877D01*
X29224Y309033D01*
X29330Y309188D01*
X29440Y309339D01*
X29553Y309488D01*
X29670Y309634D01*
X29790Y309777D01*
X29914Y309917D01*
X30041Y310054D01*
X30172Y310188D01*
X30306Y310319D01*
X30443Y310446D01*
X30583Y310570D01*
X30726Y310690D01*
X30872Y310807D01*
X31021Y310920D01*
X31172Y311030D01*
X31327Y311136D01*
X31483Y311238D01*
X31643Y311336D01*
X31804Y311430D01*
X31968Y311520D01*
X32134Y311606D01*
X32302Y311688D01*
X32472Y311766D01*
X32644Y311840D01*
X32818Y311909D01*
X32993Y311975D01*
X33170Y312035D01*
X33348Y312092D01*
X33528Y312144D01*
X33708Y312192D01*
X33890Y312235D01*
X34073Y312274D01*
X34257Y312308D01*
X34442Y312338D01*
X34627Y312363D01*
X34813Y312383D01*
X34999Y312399D01*
X35186Y312411D01*
X35373Y312418D01*
X35560Y312420D01*
X35747Y312418D01*
X35934Y312411D01*
X36121Y312399D01*
X36307Y312383D01*
X36493Y312363D01*
X36678Y312338D01*
X36863Y312308D01*
X37047Y312274D01*
X37230Y312235D01*
X37412Y312192D01*
X37592Y312144D01*
X37772Y312092D01*
X37950Y312035D01*
X38127Y311975D01*
X38302Y311909D01*
X38476Y311840D01*
X38648Y311766D01*
X38818Y311688D01*
X38986Y311606D01*
X39152Y311520D01*
X39316Y311430D01*
X39477Y311336D01*
X39637Y311238D01*
X39793Y311136D01*
X39948Y311030D01*
X40099Y310920D01*
X40248Y310807D01*
X40394Y310690D01*
X40537Y310570D01*
X40677Y310446D01*
X40814Y310319D01*
X40948Y310188D01*
X41079Y310054D01*
X41206Y309917D01*
X41330Y309777D01*
X41450Y309634D01*
X41567Y309488D01*
X41680Y309339D01*
X41790Y309188D01*
X41896Y309033D01*
X41998Y308877D01*
X42096Y308717D01*
X42190Y308556D01*
X42280Y308392D01*
X42366Y308226D01*
X42448Y308058D01*
X42526Y307888D01*
X42600Y307716D01*
X42669Y307542D01*
X42735Y307367D01*
X42795Y307190D01*
X42852Y307012D01*
X42904Y306832D01*
X42952Y306652D01*
X42995Y306470D01*
X43034Y306287D01*
X43068Y306103D01*
X43098Y305918D01*
X43123Y305733D01*
X43143Y305547D01*
X43159Y305361D01*
X43171Y305174D01*
X43178Y304987D01*
X43180Y304800D01*
X43178Y304613D01*
X43171Y304426D01*
X43159Y304239D01*
X43143Y304053D01*
X43123Y303867D01*
X43098Y303682D01*
X43068Y303497D01*
X43034Y303313D01*
X42995Y303130D01*
X42952Y302948D01*
X42904Y302768D01*
X42852Y302588D01*
X42795Y302410D01*
X42735Y302233D01*
X42669Y302058D01*
X42600Y301884D01*
X42526Y301712D01*
X42448Y301542D01*
X42366Y301374D01*
X42280Y301208D01*
X42190Y301044D01*
X42096Y300883D01*
X41998Y300723D01*
X41896Y300567D01*
X41790Y300412D01*
X41680Y300261D01*
X41567Y300112D01*
X41450Y299966D01*
X41330Y299823D01*
X41206Y299683D01*
X41079Y299546D01*
X40948Y299412D01*
X40814Y299281D01*
X40677Y299154D01*
X40537Y299030D01*
X40394Y298910D01*
X40248Y298793D01*
X40099Y298680D01*
X39948Y298570D01*
X39793Y298464D01*
X39637Y298362D01*
X39477Y298264D01*
X39316Y298170D01*
X39152Y298080D01*
X38986Y297994D01*
X38818Y297912D01*
X38648Y297834D01*
X38476Y297760D01*
X38302Y297691D01*
X38127Y297625D01*
X37950Y297565D01*
X37772Y297508D01*
X37592Y297456D01*
X37412Y297408D01*
X37230Y297365D01*
X37047Y297326D01*
X36863Y297292D01*
X36678Y297262D01*
X36493Y297237D01*
X36307Y297217D01*
X36121Y297201D01*
X35934Y297189D01*
X35747Y297182D01*
X35560Y297180D01*
X35373Y297182D01*
X35186Y297189D01*
X34999Y297201D01*
X34813Y297217D01*
X34627Y297237D01*
X34442Y297262D01*
X34257Y297292D01*
X34073Y297326D01*
X33890Y297365D01*
X33708Y297408D01*
X33528Y297456D01*
X33348Y297508D01*
X33170Y297565D01*
X32993Y297625D01*
X32818Y297691D01*
X32644Y297760D01*
X32472Y297834D01*
X32302Y297912D01*
X32134Y297994D01*
X31968Y298080D01*
X31804Y298170D01*
X31643Y298264D01*
X31483Y298362D01*
X31327Y298464D01*
X31172Y298570D01*
X31021Y298680D01*
X30872Y298793D01*
X30726Y298910D01*
X30583Y299030D01*
X30443Y299154D01*
X30306Y299281D01*
X30172Y299412D01*
X30041Y299546D01*
X29914Y299683D01*
X29790Y299823D01*
X29670Y299966D01*
X29553Y300112D01*
X29440Y300261D01*
X29330Y300412D01*
X29224Y300567D01*
X29122Y300723D01*
X29024Y300883D01*
X28930Y301044D01*
X28840Y301208D01*
X28754Y301374D01*
X28672Y301542D01*
X28594Y301712D01*
X28520Y301884D01*
X28451Y302058D01*
X28385Y302233D01*
X28325Y302410D01*
X28268Y302588D01*
X28216Y302768D01*
X28168Y302948D01*
X28125Y303130D01*
X28086Y303313D01*
X28052Y303497D01*
X28022Y303682D01*
X27997Y303867D01*
X27977Y304053D01*
X27961Y304239D01*
X27949Y304426D01*
X27942Y304613D01*
X27940Y304800D01*
D29*
X35560Y304800D03*
D28*
X505460Y304800D02*
X505462Y304987D01*
X505469Y305174D01*
X505481Y305361D01*
X505497Y305547D01*
X505517Y305733D01*
X505542Y305918D01*
X505572Y306103D01*
X505606Y306287D01*
X505645Y306470D01*
X505688Y306652D01*
X505736Y306832D01*
X505788Y307012D01*
X505845Y307190D01*
X505905Y307367D01*
X505971Y307542D01*
X506040Y307716D01*
X506114Y307888D01*
X506192Y308058D01*
X506274Y308226D01*
X506360Y308392D01*
X506450Y308556D01*
X506544Y308717D01*
X506642Y308877D01*
X506744Y309033D01*
X506850Y309188D01*
X506960Y309339D01*
X507073Y309488D01*
X507190Y309634D01*
X507310Y309777D01*
X507434Y309917D01*
X507561Y310054D01*
X507692Y310188D01*
X507826Y310319D01*
X507963Y310446D01*
X508103Y310570D01*
X508246Y310690D01*
X508392Y310807D01*
X508541Y310920D01*
X508692Y311030D01*
X508847Y311136D01*
X509003Y311238D01*
X509163Y311336D01*
X509324Y311430D01*
X509488Y311520D01*
X509654Y311606D01*
X509822Y311688D01*
X509992Y311766D01*
X510164Y311840D01*
X510338Y311909D01*
X510513Y311975D01*
X510690Y312035D01*
X510868Y312092D01*
X511048Y312144D01*
X511228Y312192D01*
X511410Y312235D01*
X511593Y312274D01*
X511777Y312308D01*
X511962Y312338D01*
X512147Y312363D01*
X512333Y312383D01*
X512519Y312399D01*
X512706Y312411D01*
X512893Y312418D01*
X513080Y312420D01*
X513267Y312418D01*
X513454Y312411D01*
X513641Y312399D01*
X513827Y312383D01*
X514013Y312363D01*
X514198Y312338D01*
X514383Y312308D01*
X514567Y312274D01*
X514750Y312235D01*
X514932Y312192D01*
X515112Y312144D01*
X515292Y312092D01*
X515470Y312035D01*
X515647Y311975D01*
X515822Y311909D01*
X515996Y311840D01*
X516168Y311766D01*
X516338Y311688D01*
X516506Y311606D01*
X516672Y311520D01*
X516836Y311430D01*
X516997Y311336D01*
X517157Y311238D01*
X517313Y311136D01*
X517468Y311030D01*
X517619Y310920D01*
X517768Y310807D01*
X517914Y310690D01*
X518057Y310570D01*
X518197Y310446D01*
X518334Y310319D01*
X518468Y310188D01*
X518599Y310054D01*
X518726Y309917D01*
X518850Y309777D01*
X518970Y309634D01*
X519087Y309488D01*
X519200Y309339D01*
X519310Y309188D01*
X519416Y309033D01*
X519518Y308877D01*
X519616Y308717D01*
X519710Y308556D01*
X519800Y308392D01*
X519886Y308226D01*
X519968Y308058D01*
X520046Y307888D01*
X520120Y307716D01*
X520189Y307542D01*
X520255Y307367D01*
X520315Y307190D01*
X520372Y307012D01*
X520424Y306832D01*
X520472Y306652D01*
X520515Y306470D01*
X520554Y306287D01*
X520588Y306103D01*
X520618Y305918D01*
X520643Y305733D01*
X520663Y305547D01*
X520679Y305361D01*
X520691Y305174D01*
X520698Y304987D01*
X520700Y304800D01*
X520698Y304613D01*
X520691Y304426D01*
X520679Y304239D01*
X520663Y304053D01*
X520643Y303867D01*
X520618Y303682D01*
X520588Y303497D01*
X520554Y303313D01*
X520515Y303130D01*
X520472Y302948D01*
X520424Y302768D01*
X520372Y302588D01*
X520315Y302410D01*
X520255Y302233D01*
X520189Y302058D01*
X520120Y301884D01*
X520046Y301712D01*
X519968Y301542D01*
X519886Y301374D01*
X519800Y301208D01*
X519710Y301044D01*
X519616Y300883D01*
X519518Y300723D01*
X519416Y300567D01*
X519310Y300412D01*
X519200Y300261D01*
X519087Y300112D01*
X518970Y299966D01*
X518850Y299823D01*
X518726Y299683D01*
X518599Y299546D01*
X518468Y299412D01*
X518334Y299281D01*
X518197Y299154D01*
X518057Y299030D01*
X517914Y298910D01*
X517768Y298793D01*
X517619Y298680D01*
X517468Y298570D01*
X517313Y298464D01*
X517157Y298362D01*
X516997Y298264D01*
X516836Y298170D01*
X516672Y298080D01*
X516506Y297994D01*
X516338Y297912D01*
X516168Y297834D01*
X515996Y297760D01*
X515822Y297691D01*
X515647Y297625D01*
X515470Y297565D01*
X515292Y297508D01*
X515112Y297456D01*
X514932Y297408D01*
X514750Y297365D01*
X514567Y297326D01*
X514383Y297292D01*
X514198Y297262D01*
X514013Y297237D01*
X513827Y297217D01*
X513641Y297201D01*
X513454Y297189D01*
X513267Y297182D01*
X513080Y297180D01*
X512893Y297182D01*
X512706Y297189D01*
X512519Y297201D01*
X512333Y297217D01*
X512147Y297237D01*
X511962Y297262D01*
X511777Y297292D01*
X511593Y297326D01*
X511410Y297365D01*
X511228Y297408D01*
X511048Y297456D01*
X510868Y297508D01*
X510690Y297565D01*
X510513Y297625D01*
X510338Y297691D01*
X510164Y297760D01*
X509992Y297834D01*
X509822Y297912D01*
X509654Y297994D01*
X509488Y298080D01*
X509324Y298170D01*
X509163Y298264D01*
X509003Y298362D01*
X508847Y298464D01*
X508692Y298570D01*
X508541Y298680D01*
X508392Y298793D01*
X508246Y298910D01*
X508103Y299030D01*
X507963Y299154D01*
X507826Y299281D01*
X507692Y299412D01*
X507561Y299546D01*
X507434Y299683D01*
X507310Y299823D01*
X507190Y299966D01*
X507073Y300112D01*
X506960Y300261D01*
X506850Y300412D01*
X506744Y300567D01*
X506642Y300723D01*
X506544Y300883D01*
X506450Y301044D01*
X506360Y301208D01*
X506274Y301374D01*
X506192Y301542D01*
X506114Y301712D01*
X506040Y301884D01*
X505971Y302058D01*
X505905Y302233D01*
X505845Y302410D01*
X505788Y302588D01*
X505736Y302768D01*
X505688Y302948D01*
X505645Y303130D01*
X505606Y303313D01*
X505572Y303497D01*
X505542Y303682D01*
X505517Y303867D01*
X505497Y304053D01*
X505481Y304239D01*
X505469Y304426D01*
X505462Y304613D01*
X505460Y304800D01*
D29*
X513080Y304800D03*
M02*
