G04 EAGLE Gerber RS-274X export*
G75*
%MOMM*%
%FSLAX34Y34*%
%LPD*%
%INTop Copper*%
%IPPOS*%
%AMOC8*
5,1,8,0,0,1.08239X$1,22.5*%
G01*
%ADD10R,1.550000X0.600000*%
%ADD11R,1.800000X1.200000*%
%ADD12C,0.055000*%
%ADD13R,1.524000X1.524000*%
%ADD14P,1.649562X8X22.500000*%
%ADD15C,0.050000*%
%ADD16R,0.900000X0.500000*%
%ADD17R,1.610000X1.610000*%
%ADD18C,1.610000*%
%ADD19R,1.000000X1.100000*%
%ADD20R,1.031241X0.949959*%
%ADD21R,1.100000X1.000000*%
%ADD22R,0.520000X0.300000*%
%ADD23R,0.490000X0.300000*%
%ADD24R,0.600000X0.500000*%
%ADD25C,1.400000*%
%ADD26C,3.220000*%
%ADD27R,0.949959X1.031241*%
%ADD28C,1.016000*%
%ADD29C,0.254000*%
%ADD30C,0.127000*%
%ADD31C,0.654800*%


D10*
X101600Y153200D03*
X101600Y163200D03*
X101600Y173200D03*
X101600Y183200D03*
X101600Y193200D03*
X101600Y203200D03*
D11*
X79350Y216200D03*
X79350Y140200D03*
D12*
X270225Y159425D02*
X270225Y165275D01*
X270225Y159425D02*
X268575Y159425D01*
X268575Y165275D01*
X270225Y165275D01*
X270225Y159947D02*
X268575Y159947D01*
X268575Y160469D02*
X270225Y160469D01*
X270225Y160991D02*
X268575Y160991D01*
X268575Y161513D02*
X270225Y161513D01*
X270225Y162035D02*
X268575Y162035D01*
X268575Y162557D02*
X270225Y162557D01*
X270225Y163079D02*
X268575Y163079D01*
X268575Y163601D02*
X270225Y163601D01*
X270225Y164123D02*
X268575Y164123D01*
X268575Y164645D02*
X270225Y164645D01*
X270225Y165167D02*
X268575Y165167D01*
X274225Y165275D02*
X274225Y159425D01*
X272575Y159425D01*
X272575Y165275D01*
X274225Y165275D01*
X274225Y159947D02*
X272575Y159947D01*
X272575Y160469D02*
X274225Y160469D01*
X274225Y160991D02*
X272575Y160991D01*
X272575Y161513D02*
X274225Y161513D01*
X274225Y162035D02*
X272575Y162035D01*
X272575Y162557D02*
X274225Y162557D01*
X274225Y163079D02*
X272575Y163079D01*
X272575Y163601D02*
X274225Y163601D01*
X274225Y164123D02*
X272575Y164123D01*
X272575Y164645D02*
X274225Y164645D01*
X274225Y165167D02*
X272575Y165167D01*
X278225Y165275D02*
X278225Y159425D01*
X276575Y159425D01*
X276575Y165275D01*
X278225Y165275D01*
X278225Y159947D02*
X276575Y159947D01*
X276575Y160469D02*
X278225Y160469D01*
X278225Y160991D02*
X276575Y160991D01*
X276575Y161513D02*
X278225Y161513D01*
X278225Y162035D02*
X276575Y162035D01*
X276575Y162557D02*
X278225Y162557D01*
X278225Y163079D02*
X276575Y163079D01*
X276575Y163601D02*
X278225Y163601D01*
X278225Y164123D02*
X276575Y164123D01*
X276575Y164645D02*
X278225Y164645D01*
X278225Y165167D02*
X276575Y165167D01*
X282225Y165275D02*
X282225Y159425D01*
X280575Y159425D01*
X280575Y165275D01*
X282225Y165275D01*
X282225Y159947D02*
X280575Y159947D01*
X280575Y160469D02*
X282225Y160469D01*
X282225Y160991D02*
X280575Y160991D01*
X280575Y161513D02*
X282225Y161513D01*
X282225Y162035D02*
X280575Y162035D01*
X280575Y162557D02*
X282225Y162557D01*
X282225Y163079D02*
X280575Y163079D01*
X280575Y163601D02*
X282225Y163601D01*
X282225Y164123D02*
X280575Y164123D01*
X280575Y164645D02*
X282225Y164645D01*
X282225Y165167D02*
X280575Y165167D01*
X286225Y165275D02*
X286225Y159425D01*
X284575Y159425D01*
X284575Y165275D01*
X286225Y165275D01*
X286225Y159947D02*
X284575Y159947D01*
X284575Y160469D02*
X286225Y160469D01*
X286225Y160991D02*
X284575Y160991D01*
X284575Y161513D02*
X286225Y161513D01*
X286225Y162035D02*
X284575Y162035D01*
X284575Y162557D02*
X286225Y162557D01*
X286225Y163079D02*
X284575Y163079D01*
X284575Y163601D02*
X286225Y163601D01*
X286225Y164123D02*
X284575Y164123D01*
X284575Y164645D02*
X286225Y164645D01*
X286225Y165167D02*
X284575Y165167D01*
X290225Y165275D02*
X290225Y159425D01*
X288575Y159425D01*
X288575Y165275D01*
X290225Y165275D01*
X290225Y159947D02*
X288575Y159947D01*
X288575Y160469D02*
X290225Y160469D01*
X290225Y160991D02*
X288575Y160991D01*
X288575Y161513D02*
X290225Y161513D01*
X290225Y162035D02*
X288575Y162035D01*
X288575Y162557D02*
X290225Y162557D01*
X290225Y163079D02*
X288575Y163079D01*
X288575Y163601D02*
X290225Y163601D01*
X290225Y164123D02*
X288575Y164123D01*
X288575Y164645D02*
X290225Y164645D01*
X290225Y165167D02*
X288575Y165167D01*
X291925Y168625D02*
X297775Y168625D01*
X297775Y166975D01*
X291925Y166975D01*
X291925Y168625D01*
X291925Y167497D02*
X297775Y167497D01*
X297775Y168019D02*
X291925Y168019D01*
X291925Y168541D02*
X297775Y168541D01*
X297775Y172625D02*
X291925Y172625D01*
X297775Y172625D02*
X297775Y170975D01*
X291925Y170975D01*
X291925Y172625D01*
X291925Y171497D02*
X297775Y171497D01*
X297775Y172019D02*
X291925Y172019D01*
X291925Y172541D02*
X297775Y172541D01*
X297775Y176625D02*
X291925Y176625D01*
X297775Y176625D02*
X297775Y174975D01*
X291925Y174975D01*
X291925Y176625D01*
X291925Y175497D02*
X297775Y175497D01*
X297775Y176019D02*
X291925Y176019D01*
X291925Y176541D02*
X297775Y176541D01*
X297775Y180625D02*
X291925Y180625D01*
X297775Y180625D02*
X297775Y178975D01*
X291925Y178975D01*
X291925Y180625D01*
X291925Y179497D02*
X297775Y179497D01*
X297775Y180019D02*
X291925Y180019D01*
X291925Y180541D02*
X297775Y180541D01*
X297775Y184625D02*
X291925Y184625D01*
X297775Y184625D02*
X297775Y182975D01*
X291925Y182975D01*
X291925Y184625D01*
X291925Y183497D02*
X297775Y183497D01*
X297775Y184019D02*
X291925Y184019D01*
X291925Y184541D02*
X297775Y184541D01*
X297775Y188625D02*
X291925Y188625D01*
X297775Y188625D02*
X297775Y186975D01*
X291925Y186975D01*
X291925Y188625D01*
X291925Y187497D02*
X297775Y187497D01*
X297775Y188019D02*
X291925Y188019D01*
X291925Y188541D02*
X297775Y188541D01*
X288575Y190325D02*
X288575Y196175D01*
X290225Y196175D01*
X290225Y190325D01*
X288575Y190325D01*
X288575Y190847D02*
X290225Y190847D01*
X290225Y191369D02*
X288575Y191369D01*
X288575Y191891D02*
X290225Y191891D01*
X290225Y192413D02*
X288575Y192413D01*
X288575Y192935D02*
X290225Y192935D01*
X290225Y193457D02*
X288575Y193457D01*
X288575Y193979D02*
X290225Y193979D01*
X290225Y194501D02*
X288575Y194501D01*
X288575Y195023D02*
X290225Y195023D01*
X290225Y195545D02*
X288575Y195545D01*
X288575Y196067D02*
X290225Y196067D01*
X284575Y196175D02*
X284575Y190325D01*
X284575Y196175D02*
X286225Y196175D01*
X286225Y190325D01*
X284575Y190325D01*
X284575Y190847D02*
X286225Y190847D01*
X286225Y191369D02*
X284575Y191369D01*
X284575Y191891D02*
X286225Y191891D01*
X286225Y192413D02*
X284575Y192413D01*
X284575Y192935D02*
X286225Y192935D01*
X286225Y193457D02*
X284575Y193457D01*
X284575Y193979D02*
X286225Y193979D01*
X286225Y194501D02*
X284575Y194501D01*
X284575Y195023D02*
X286225Y195023D01*
X286225Y195545D02*
X284575Y195545D01*
X284575Y196067D02*
X286225Y196067D01*
X280575Y196175D02*
X280575Y190325D01*
X280575Y196175D02*
X282225Y196175D01*
X282225Y190325D01*
X280575Y190325D01*
X280575Y190847D02*
X282225Y190847D01*
X282225Y191369D02*
X280575Y191369D01*
X280575Y191891D02*
X282225Y191891D01*
X282225Y192413D02*
X280575Y192413D01*
X280575Y192935D02*
X282225Y192935D01*
X282225Y193457D02*
X280575Y193457D01*
X280575Y193979D02*
X282225Y193979D01*
X282225Y194501D02*
X280575Y194501D01*
X280575Y195023D02*
X282225Y195023D01*
X282225Y195545D02*
X280575Y195545D01*
X280575Y196067D02*
X282225Y196067D01*
X276575Y196175D02*
X276575Y190325D01*
X276575Y196175D02*
X278225Y196175D01*
X278225Y190325D01*
X276575Y190325D01*
X276575Y190847D02*
X278225Y190847D01*
X278225Y191369D02*
X276575Y191369D01*
X276575Y191891D02*
X278225Y191891D01*
X278225Y192413D02*
X276575Y192413D01*
X276575Y192935D02*
X278225Y192935D01*
X278225Y193457D02*
X276575Y193457D01*
X276575Y193979D02*
X278225Y193979D01*
X278225Y194501D02*
X276575Y194501D01*
X276575Y195023D02*
X278225Y195023D01*
X278225Y195545D02*
X276575Y195545D01*
X276575Y196067D02*
X278225Y196067D01*
X272575Y196175D02*
X272575Y190325D01*
X272575Y196175D02*
X274225Y196175D01*
X274225Y190325D01*
X272575Y190325D01*
X272575Y190847D02*
X274225Y190847D01*
X274225Y191369D02*
X272575Y191369D01*
X272575Y191891D02*
X274225Y191891D01*
X274225Y192413D02*
X272575Y192413D01*
X272575Y192935D02*
X274225Y192935D01*
X274225Y193457D02*
X272575Y193457D01*
X272575Y193979D02*
X274225Y193979D01*
X274225Y194501D02*
X272575Y194501D01*
X272575Y195023D02*
X274225Y195023D01*
X274225Y195545D02*
X272575Y195545D01*
X272575Y196067D02*
X274225Y196067D01*
X268575Y196175D02*
X268575Y190325D01*
X268575Y196175D02*
X270225Y196175D01*
X270225Y190325D01*
X268575Y190325D01*
X268575Y190847D02*
X270225Y190847D01*
X270225Y191369D02*
X268575Y191369D01*
X268575Y191891D02*
X270225Y191891D01*
X270225Y192413D02*
X268575Y192413D01*
X268575Y192935D02*
X270225Y192935D01*
X270225Y193457D02*
X268575Y193457D01*
X268575Y193979D02*
X270225Y193979D01*
X270225Y194501D02*
X268575Y194501D01*
X268575Y195023D02*
X270225Y195023D01*
X270225Y195545D02*
X268575Y195545D01*
X268575Y196067D02*
X270225Y196067D01*
X266875Y186975D02*
X261025Y186975D01*
X261025Y188625D01*
X266875Y188625D01*
X266875Y186975D01*
X266875Y187497D02*
X261025Y187497D01*
X261025Y188019D02*
X266875Y188019D01*
X266875Y188541D02*
X261025Y188541D01*
X261025Y182975D02*
X266875Y182975D01*
X261025Y182975D02*
X261025Y184625D01*
X266875Y184625D01*
X266875Y182975D01*
X266875Y183497D02*
X261025Y183497D01*
X261025Y184019D02*
X266875Y184019D01*
X266875Y184541D02*
X261025Y184541D01*
X261025Y178975D02*
X266875Y178975D01*
X261025Y178975D02*
X261025Y180625D01*
X266875Y180625D01*
X266875Y178975D01*
X266875Y179497D02*
X261025Y179497D01*
X261025Y180019D02*
X266875Y180019D01*
X266875Y180541D02*
X261025Y180541D01*
X261025Y174975D02*
X266875Y174975D01*
X261025Y174975D02*
X261025Y176625D01*
X266875Y176625D01*
X266875Y174975D01*
X266875Y175497D02*
X261025Y175497D01*
X261025Y176019D02*
X266875Y176019D01*
X266875Y176541D02*
X261025Y176541D01*
X261025Y170975D02*
X266875Y170975D01*
X261025Y170975D02*
X261025Y172625D01*
X266875Y172625D01*
X266875Y170975D01*
X266875Y171497D02*
X261025Y171497D01*
X261025Y172019D02*
X266875Y172019D01*
X266875Y172541D02*
X261025Y172541D01*
X261025Y166975D02*
X266875Y166975D01*
X261025Y166975D02*
X261025Y168625D01*
X266875Y168625D01*
X266875Y166975D01*
X266875Y167497D02*
X261025Y167497D01*
X261025Y168019D02*
X266875Y168019D01*
X266875Y168541D02*
X261025Y168541D01*
D13*
X59100Y35300D03*
D14*
X59100Y60700D03*
X84500Y35300D03*
X84500Y60700D03*
X109900Y35300D03*
X109900Y60700D03*
X135300Y35300D03*
X135300Y60700D03*
X160700Y35300D03*
X160700Y60700D03*
X186100Y35300D03*
X186100Y60700D03*
X211500Y35300D03*
X211500Y60700D03*
X236900Y35300D03*
X236900Y60700D03*
X262300Y35300D03*
X262300Y60700D03*
X287700Y35300D03*
X287700Y60700D03*
X313100Y35300D03*
X313100Y60700D03*
X338500Y35300D03*
X338500Y60700D03*
X363900Y35300D03*
X363900Y60700D03*
X389300Y35300D03*
X389300Y60700D03*
X414700Y35300D03*
X414700Y60700D03*
X440100Y35300D03*
X440100Y60700D03*
X465500Y35300D03*
X465500Y60700D03*
X490900Y35300D03*
X490900Y60700D03*
D13*
X59100Y289300D03*
D14*
X59100Y314700D03*
X84500Y289300D03*
X84500Y314700D03*
X109900Y289300D03*
X109900Y314700D03*
X135300Y289300D03*
X135300Y314700D03*
X160700Y289300D03*
X160700Y314700D03*
X186100Y289300D03*
X186100Y314700D03*
X211500Y289300D03*
X211500Y314700D03*
X236900Y289300D03*
X236900Y314700D03*
X262300Y289300D03*
X262300Y314700D03*
X287700Y289300D03*
X287700Y314700D03*
X313100Y289300D03*
X313100Y314700D03*
X338500Y289300D03*
X338500Y314700D03*
X363900Y289300D03*
X363900Y314700D03*
X389300Y289300D03*
X389300Y314700D03*
X414700Y289300D03*
X414700Y314700D03*
X440100Y289300D03*
X440100Y314700D03*
X465500Y289300D03*
X465500Y314700D03*
X490900Y289300D03*
X490900Y314700D03*
D15*
X202600Y173300D02*
X197800Y173300D01*
X202600Y173300D02*
X202600Y171800D01*
X197800Y171800D01*
X197800Y173300D01*
X197800Y172275D02*
X202600Y172275D01*
X202600Y172750D02*
X197800Y172750D01*
X197800Y173225D02*
X202600Y173225D01*
X202600Y176800D02*
X197800Y176800D01*
X202600Y176800D02*
X202600Y175300D01*
X197800Y175300D01*
X197800Y176800D01*
X197800Y175775D02*
X202600Y175775D01*
X202600Y176250D02*
X197800Y176250D01*
X197800Y176725D02*
X202600Y176725D01*
X202600Y180300D02*
X197800Y180300D01*
X202600Y180300D02*
X202600Y178800D01*
X197800Y178800D01*
X197800Y180300D01*
X197800Y179275D02*
X202600Y179275D01*
X202600Y179750D02*
X197800Y179750D01*
X197800Y180225D02*
X202600Y180225D01*
X202600Y183800D02*
X197800Y183800D01*
X202600Y183800D02*
X202600Y182300D01*
X197800Y182300D01*
X197800Y183800D01*
X197800Y182775D02*
X202600Y182775D01*
X202600Y183250D02*
X197800Y183250D01*
X197800Y183725D02*
X202600Y183725D01*
X195900Y183800D02*
X191100Y183800D01*
X195900Y183800D02*
X195900Y182300D01*
X191100Y182300D01*
X191100Y183800D01*
X191100Y182775D02*
X195900Y182775D01*
X195900Y183250D02*
X191100Y183250D01*
X191100Y183725D02*
X195900Y183725D01*
X195900Y180300D02*
X191100Y180300D01*
X195900Y180300D02*
X195900Y178800D01*
X191100Y178800D01*
X191100Y180300D01*
X191100Y179275D02*
X195900Y179275D01*
X195900Y179750D02*
X191100Y179750D01*
X191100Y180225D02*
X195900Y180225D01*
X195900Y176800D02*
X191100Y176800D01*
X195900Y176800D02*
X195900Y175300D01*
X191100Y175300D01*
X191100Y176800D01*
X191100Y175775D02*
X195900Y175775D01*
X195900Y176250D02*
X191100Y176250D01*
X191100Y176725D02*
X195900Y176725D01*
X195900Y173300D02*
X191100Y173300D01*
X195900Y173300D02*
X195900Y171800D01*
X191100Y171800D01*
X191100Y173300D01*
X191100Y172275D02*
X195900Y172275D01*
X195900Y172750D02*
X191100Y172750D01*
X191100Y173225D02*
X195900Y173225D01*
D16*
X345100Y196550D03*
X345100Y184050D03*
X366100Y184050D03*
X345100Y171550D03*
X366100Y171550D03*
X345100Y159050D03*
X366100Y159050D03*
X366100Y196550D03*
D17*
X419100Y88900D03*
D18*
X444500Y88900D03*
X469900Y88900D03*
D17*
X419100Y260350D03*
D18*
X444500Y260350D03*
X469900Y260350D03*
D17*
X25400Y247650D03*
D18*
X50800Y247650D03*
X76200Y247650D03*
D17*
X25400Y101600D03*
D18*
X50800Y101600D03*
X76200Y101600D03*
D19*
X392430Y213750D03*
X392430Y230750D03*
D20*
X398780Y162179D03*
X398780Y178181D03*
X431800Y207899D03*
X431800Y223901D03*
D21*
X271390Y260350D03*
X254390Y260350D03*
D19*
X246380Y132470D03*
X246380Y149470D03*
D21*
X313300Y260350D03*
X296300Y260350D03*
D19*
X322580Y186300D03*
X322580Y169300D03*
X215900Y133740D03*
X215900Y150740D03*
D22*
X467350Y160100D03*
D23*
X467300Y165100D03*
X467300Y170100D03*
X459800Y170100D03*
X459800Y165100D03*
X459800Y160100D03*
D24*
X441960Y160100D03*
X441960Y170100D03*
D25*
X497480Y142800D03*
X497480Y167800D03*
X497480Y187800D03*
X497480Y212800D03*
D26*
X524581Y112100D03*
X524581Y243500D03*
D27*
X184531Y194310D03*
X168529Y194310D03*
X162179Y260350D03*
X178181Y260350D03*
X206629Y260350D03*
X222631Y260350D03*
D17*
X38100Y165100D03*
D18*
X38100Y190500D03*
X38100Y215900D03*
D28*
X34290Y45720D03*
X35560Y304800D03*
X513080Y304800D03*
D29*
X101600Y153670D02*
X101600Y153200D01*
X101600Y193040D02*
X101600Y193200D01*
D30*
X263950Y183800D02*
X269400Y183800D01*
X269400Y187960D01*
X269400Y193250D01*
X269400Y187960D02*
X289560Y187960D01*
X289560Y183896D01*
X289560Y175800D02*
X294850Y175800D01*
D29*
X322580Y183800D02*
X322580Y186300D01*
X324240Y186300D01*
X313300Y260350D02*
X313300Y261620D01*
X345100Y159050D02*
X366100Y159050D01*
X345440Y171210D02*
X345100Y171550D01*
D30*
X210990Y183050D02*
X200200Y183050D01*
D29*
X255060Y183800D02*
X263950Y183800D01*
D31*
X86360Y152400D03*
D29*
X100800Y152400D02*
X101600Y153200D01*
X100800Y152400D02*
X86360Y152400D01*
X100980Y152580D02*
X101600Y153200D01*
D31*
X86360Y193040D03*
D29*
X101600Y193040D01*
D31*
X441960Y177800D03*
D29*
X441960Y170100D01*
X459771Y170071D02*
X459800Y170100D01*
X457280Y170100D01*
X449580Y177800D02*
X441960Y177800D01*
X449580Y177800D02*
X457280Y170100D01*
D31*
X215900Y121920D03*
D29*
X215900Y133740D01*
D31*
X246380Y121920D03*
D29*
X246380Y132470D01*
D31*
X213360Y185420D03*
D30*
X210990Y183050D01*
D31*
X158750Y194310D03*
X251460Y187960D03*
D29*
X251460Y187400D01*
X255060Y183800D01*
D31*
X335280Y160020D03*
D29*
X344130Y160020D01*
X345100Y159050D01*
D31*
X335280Y172720D03*
D29*
X343930Y172720D01*
X345100Y171550D01*
D31*
X322580Y198120D03*
D29*
X322580Y187960D01*
X324240Y186300D01*
D31*
X323850Y261620D03*
D29*
X313300Y261620D01*
D31*
X281940Y261620D03*
D29*
X272660Y261620D01*
X271390Y260350D01*
X294754Y183896D02*
X294850Y183800D01*
D30*
X294754Y183896D02*
X289560Y183896D01*
X289560Y175800D01*
D29*
X168529Y194310D02*
X158750Y194310D01*
D31*
X392430Y241300D03*
D29*
X392430Y230750D01*
X435610Y187960D02*
X435610Y148590D01*
X435610Y187960D02*
X441960Y194310D01*
X441960Y237490D01*
X419100Y260350D01*
X435610Y148590D02*
X490220Y93980D01*
X490220Y61380D01*
X490900Y60700D01*
X91440Y282360D02*
X84500Y289300D01*
X80010Y232410D02*
X31750Y232410D01*
X80010Y232410D02*
X91440Y243840D01*
X91440Y282360D01*
X31750Y232410D02*
X24130Y224790D01*
X24130Y102870D01*
X25400Y101600D01*
X25400Y278130D02*
X36830Y289560D01*
X25400Y278130D02*
X25400Y247650D01*
X36830Y289560D02*
X58840Y289560D01*
X59100Y289300D01*
X427990Y80010D02*
X427990Y29210D01*
X434340Y22860D01*
X453060Y22860D01*
X465500Y35300D01*
X427990Y80010D02*
X419100Y88900D01*
X118110Y173990D02*
X101600Y173990D01*
X118110Y173990D02*
X134620Y190500D01*
X101600Y173990D02*
X101600Y173200D01*
X134620Y190500D02*
X134620Y288620D01*
X135300Y289300D01*
X111760Y184150D02*
X101600Y184150D01*
X111760Y184150D02*
X114300Y186690D01*
X114300Y284480D01*
X109900Y288880D01*
X101600Y184150D02*
X101600Y183200D01*
X109900Y288880D02*
X109900Y289300D01*
X431800Y223901D02*
X431800Y223520D01*
D30*
X193500Y172550D02*
X190960Y172550D01*
D29*
X345100Y184050D02*
X345100Y196550D01*
D31*
X187960Y260350D03*
X234950Y260350D03*
X243840Y260350D03*
D29*
X254390Y260350D01*
X234950Y260350D02*
X222631Y260350D01*
D31*
X334010Y196850D03*
D29*
X344800Y196850D01*
X345100Y196550D01*
D31*
X431800Y233680D03*
D29*
X431800Y223901D01*
D31*
X392430Y203200D03*
D29*
X392430Y213750D01*
D31*
X398780Y187960D03*
D29*
X398780Y178181D01*
D31*
X182880Y170180D03*
D30*
X185250Y172550D02*
X193500Y172550D01*
X185250Y172550D02*
X182880Y170180D01*
D29*
X178181Y260350D02*
X187960Y260350D01*
X114940Y163200D02*
X101600Y163200D01*
X114940Y163200D02*
X147492Y195752D01*
X147492Y292272D01*
X198540Y302260D02*
X211500Y289300D01*
X157480Y302260D02*
X147492Y292272D01*
X157480Y302260D02*
X198540Y302260D01*
X366100Y184050D02*
X368400Y184050D01*
X390271Y162179D02*
X398780Y162179D01*
X390271Y162179D02*
X368400Y184050D01*
X398780Y135890D02*
X364490Y101600D01*
X398780Y135890D02*
X398780Y162179D01*
X364490Y61290D02*
X363900Y60700D01*
X364490Y61290D02*
X364490Y101600D01*
X431800Y207010D02*
X431800Y207899D01*
X368300Y48260D02*
X359410Y48260D01*
X351790Y55880D01*
X351790Y118110D01*
X380740Y60700D02*
X389300Y60700D01*
X380740Y60700D02*
X368300Y48260D01*
D31*
X377190Y162560D03*
X379730Y196850D03*
D29*
X377190Y162560D02*
X377190Y143510D01*
X351790Y118110D01*
X379430Y196550D02*
X379730Y196850D01*
X379430Y196550D02*
X366100Y196550D01*
X379730Y196850D02*
X421640Y196850D01*
X431800Y207010D01*
X492400Y172880D02*
X497480Y167800D01*
X492400Y172880D02*
X488590Y172880D01*
X475810Y160100D01*
X467350Y160100D01*
X467300Y165100D02*
X474780Y165100D01*
X497480Y187800D01*
D31*
X450850Y160020D03*
D29*
X459720Y160020D01*
X459800Y160100D01*
X450850Y160020D02*
X442040Y160020D01*
X441960Y160100D01*
D30*
X205280Y170010D02*
X202740Y172550D01*
X200200Y172550D01*
D29*
X292490Y260350D02*
X296300Y260350D01*
X292490Y260350D02*
X281060Y248920D01*
X281060Y244230D01*
X263950Y175800D02*
X255060Y175800D01*
X242900Y187960D01*
X242570Y187960D01*
D31*
X242570Y187960D03*
X280670Y243840D03*
D29*
X281060Y244230D01*
X289400Y197570D02*
X289400Y193250D01*
D31*
X246380Y160020D03*
D29*
X246380Y149470D01*
D31*
X205740Y162560D03*
D30*
X205740Y169550D01*
X205280Y170010D01*
D29*
X215900Y152400D02*
X215900Y150740D01*
X215900Y152400D02*
X205740Y162560D01*
D31*
X304800Y170180D03*
D29*
X303180Y171800D02*
X294850Y171800D01*
X303180Y171800D02*
X304800Y170180D01*
D31*
X289560Y203200D03*
D29*
X289560Y197730D01*
X289400Y197570D01*
X161462Y288538D02*
X160700Y289300D01*
X161462Y288538D02*
X161462Y260350D01*
X162179Y260350D01*
D30*
X184610Y179550D02*
X193500Y179550D01*
X184610Y179550D02*
X180800Y183360D01*
D29*
X162179Y205961D02*
X162179Y260350D01*
X162179Y205961D02*
X152936Y196718D01*
X152936Y191902D01*
X161478Y183360D01*
X180800Y183360D01*
X206629Y260350D02*
X186100Y280879D01*
X186100Y289300D01*
D31*
X196850Y260350D03*
X173990Y176530D03*
D29*
X196850Y260350D02*
X206629Y260350D01*
D30*
X175240Y176530D02*
X173990Y176530D01*
X175720Y176050D02*
X193500Y176050D01*
X175720Y176050D02*
X175240Y176530D01*
D31*
X314960Y157480D03*
D29*
X287700Y101010D02*
X287700Y60700D01*
D31*
X307340Y187706D03*
D29*
X307246Y187800D02*
X294850Y187800D01*
X307246Y187800D02*
X307340Y187706D01*
X314960Y157480D02*
X314960Y128270D01*
X287700Y101010D01*
X294850Y179800D02*
X304460Y179800D01*
X314960Y169300D01*
X322580Y169300D01*
D30*
X193500Y183050D02*
X190330Y183050D01*
X184531Y188849D01*
X184531Y194310D01*
D29*
X50800Y52070D02*
X59100Y43770D01*
X50800Y177800D02*
X38100Y190500D01*
X59100Y43770D02*
X59100Y35300D01*
X50800Y52070D02*
X50800Y52836D01*
X50800Y118373D02*
X50800Y177800D01*
X50800Y118373D02*
X38940Y106513D01*
X38940Y64696D02*
X50800Y52836D01*
X38940Y64696D02*
X38940Y106513D01*
D30*
X247440Y171800D02*
X263950Y171800D01*
X247440Y171800D02*
X239690Y179550D01*
X200200Y179550D01*
X200200Y176050D02*
X237920Y176050D01*
X246170Y167800D02*
X263950Y167800D01*
X246170Y167800D02*
X237920Y176050D01*
M02*
