G04 EAGLE Gerber RS-274X export*
G75*
%MOMM*%
%FSLAX34Y34*%
%LPD*%
%INTop Silkscreen*%
%IPPOS*%
%AMOC8*
5,1,8,0,0,1.08239X$1,22.5*%
G01*
%ADD10C,0.101600*%
%ADD11C,0.406400*%
%ADD12C,0.254000*%
%ADD13C,0.076200*%
%ADD14C,0.127000*%
%ADD15C,0.200000*%
%ADD16C,0.050800*%
%ADD17C,0.203200*%
%ADD18C,0.152400*%

G36*
X346055Y199767D02*
X346055Y199767D01*
X346121Y199769D01*
X346164Y199787D01*
X346211Y199795D01*
X346268Y199829D01*
X346328Y199854D01*
X346363Y199885D01*
X346404Y199910D01*
X346446Y199961D01*
X346494Y200005D01*
X346516Y200047D01*
X346545Y200084D01*
X346566Y200146D01*
X346597Y200205D01*
X346605Y200259D01*
X346617Y200296D01*
X346616Y200336D01*
X346624Y200390D01*
X346624Y201160D01*
X346613Y201225D01*
X346611Y201291D01*
X346593Y201334D01*
X346585Y201381D01*
X346551Y201438D01*
X346526Y201498D01*
X346495Y201533D01*
X346470Y201574D01*
X346419Y201616D01*
X346375Y201664D01*
X346333Y201686D01*
X346296Y201715D01*
X346234Y201736D01*
X346175Y201767D01*
X346121Y201775D01*
X346084Y201787D01*
X346044Y201786D01*
X345990Y201794D01*
X344030Y201794D01*
X343965Y201783D01*
X343899Y201781D01*
X343856Y201763D01*
X343809Y201755D01*
X343752Y201721D01*
X343692Y201696D01*
X343657Y201665D01*
X343616Y201640D01*
X343575Y201589D01*
X343526Y201545D01*
X343504Y201503D01*
X343475Y201466D01*
X343454Y201404D01*
X343423Y201345D01*
X343415Y201291D01*
X343403Y201254D01*
X343404Y201214D01*
X343396Y201160D01*
X343396Y200390D01*
X343407Y200325D01*
X343409Y200259D01*
X343427Y200216D01*
X343435Y200169D01*
X343469Y200112D01*
X343494Y200052D01*
X343525Y200017D01*
X343550Y199976D01*
X343601Y199935D01*
X343645Y199886D01*
X343687Y199864D01*
X343724Y199835D01*
X343786Y199814D01*
X343845Y199783D01*
X343899Y199775D01*
X343936Y199763D01*
X343976Y199764D01*
X344030Y199756D01*
X345990Y199756D01*
X346055Y199767D01*
G37*
D10*
X121158Y109982D02*
X123754Y98298D01*
X126351Y106087D01*
X128947Y98298D01*
X131544Y109982D01*
X147080Y104789D02*
X149027Y104789D01*
X149027Y98298D01*
X145133Y98298D01*
X145034Y98300D01*
X144934Y98306D01*
X144835Y98315D01*
X144737Y98328D01*
X144639Y98345D01*
X144541Y98366D01*
X144445Y98391D01*
X144350Y98419D01*
X144256Y98451D01*
X144163Y98486D01*
X144071Y98525D01*
X143981Y98568D01*
X143893Y98613D01*
X143806Y98663D01*
X143722Y98715D01*
X143639Y98771D01*
X143559Y98829D01*
X143481Y98891D01*
X143406Y98956D01*
X143333Y99024D01*
X143263Y99094D01*
X143195Y99167D01*
X143130Y99242D01*
X143068Y99320D01*
X143010Y99400D01*
X142954Y99483D01*
X142902Y99567D01*
X142852Y99654D01*
X142807Y99742D01*
X142764Y99832D01*
X142725Y99924D01*
X142690Y100017D01*
X142658Y100111D01*
X142630Y100206D01*
X142605Y100302D01*
X142584Y100400D01*
X142567Y100498D01*
X142554Y100596D01*
X142545Y100695D01*
X142539Y100795D01*
X142537Y100894D01*
X142536Y100894D02*
X142536Y107386D01*
X142537Y107386D02*
X142539Y107485D01*
X142545Y107585D01*
X142554Y107684D01*
X142567Y107782D01*
X142584Y107880D01*
X142605Y107978D01*
X142630Y108074D01*
X142658Y108169D01*
X142690Y108263D01*
X142725Y108356D01*
X142764Y108448D01*
X142807Y108538D01*
X142852Y108626D01*
X142902Y108713D01*
X142954Y108797D01*
X143010Y108880D01*
X143068Y108960D01*
X143130Y109038D01*
X143195Y109113D01*
X143263Y109186D01*
X143333Y109256D01*
X143406Y109324D01*
X143481Y109389D01*
X143559Y109451D01*
X143639Y109509D01*
X143722Y109565D01*
X143806Y109617D01*
X143893Y109667D01*
X143981Y109712D01*
X144071Y109755D01*
X144163Y109794D01*
X144255Y109829D01*
X144350Y109861D01*
X144445Y109889D01*
X144541Y109914D01*
X144639Y109935D01*
X144737Y109952D01*
X144835Y109965D01*
X144934Y109974D01*
X145034Y109980D01*
X145133Y109982D01*
X149027Y109982D01*
X154682Y106087D02*
X154682Y98298D01*
X154682Y106087D02*
X158576Y106087D01*
X158576Y104789D01*
X162165Y106087D02*
X162165Y98298D01*
X161840Y109333D02*
X161840Y109982D01*
X162489Y109982D01*
X162489Y109333D01*
X161840Y109333D01*
X167414Y106087D02*
X167414Y98298D01*
X167414Y106087D02*
X173256Y106087D01*
X173343Y106085D01*
X173431Y106079D01*
X173517Y106069D01*
X173604Y106056D01*
X173689Y106038D01*
X173774Y106017D01*
X173858Y105992D01*
X173940Y105963D01*
X174021Y105930D01*
X174101Y105894D01*
X174179Y105855D01*
X174255Y105811D01*
X174329Y105765D01*
X174400Y105715D01*
X174470Y105662D01*
X174537Y105606D01*
X174601Y105547D01*
X174663Y105485D01*
X174722Y105421D01*
X174778Y105354D01*
X174831Y105284D01*
X174881Y105213D01*
X174927Y105139D01*
X174971Y105063D01*
X175010Y104985D01*
X175046Y104905D01*
X175079Y104824D01*
X175108Y104742D01*
X175133Y104658D01*
X175154Y104573D01*
X175172Y104488D01*
X175185Y104401D01*
X175195Y104315D01*
X175201Y104227D01*
X175203Y104140D01*
X175203Y98298D01*
X171309Y98298D02*
X171309Y106087D01*
X182471Y98298D02*
X185716Y98298D01*
X182471Y98298D02*
X182384Y98300D01*
X182296Y98306D01*
X182210Y98316D01*
X182123Y98329D01*
X182038Y98347D01*
X181953Y98368D01*
X181869Y98393D01*
X181787Y98422D01*
X181706Y98455D01*
X181626Y98491D01*
X181548Y98530D01*
X181472Y98574D01*
X181398Y98620D01*
X181327Y98670D01*
X181257Y98723D01*
X181190Y98779D01*
X181126Y98838D01*
X181064Y98900D01*
X181005Y98964D01*
X180949Y99031D01*
X180896Y99101D01*
X180846Y99172D01*
X180800Y99246D01*
X180756Y99322D01*
X180717Y99400D01*
X180681Y99480D01*
X180648Y99561D01*
X180619Y99643D01*
X180594Y99727D01*
X180573Y99812D01*
X180555Y99897D01*
X180542Y99984D01*
X180532Y100070D01*
X180526Y100158D01*
X180524Y100245D01*
X180523Y100245D02*
X180523Y103491D01*
X180524Y103491D02*
X180526Y103592D01*
X180532Y103692D01*
X180542Y103792D01*
X180555Y103892D01*
X180573Y103991D01*
X180594Y104090D01*
X180619Y104187D01*
X180648Y104284D01*
X180681Y104379D01*
X180717Y104473D01*
X180757Y104565D01*
X180800Y104656D01*
X180847Y104745D01*
X180897Y104832D01*
X180951Y104918D01*
X181008Y105001D01*
X181068Y105081D01*
X181131Y105160D01*
X181198Y105236D01*
X181267Y105309D01*
X181339Y105379D01*
X181413Y105447D01*
X181490Y105512D01*
X181570Y105573D01*
X181652Y105632D01*
X181736Y105687D01*
X181822Y105739D01*
X181910Y105788D01*
X182000Y105833D01*
X182092Y105875D01*
X182185Y105913D01*
X182280Y105947D01*
X182375Y105978D01*
X182472Y106005D01*
X182570Y106028D01*
X182669Y106048D01*
X182769Y106063D01*
X182869Y106075D01*
X182969Y106083D01*
X183070Y106087D01*
X183170Y106087D01*
X183271Y106083D01*
X183371Y106075D01*
X183471Y106063D01*
X183571Y106048D01*
X183670Y106028D01*
X183768Y106005D01*
X183865Y105978D01*
X183960Y105947D01*
X184055Y105913D01*
X184148Y105875D01*
X184240Y105833D01*
X184330Y105788D01*
X184418Y105739D01*
X184504Y105687D01*
X184588Y105632D01*
X184670Y105573D01*
X184750Y105512D01*
X184827Y105447D01*
X184901Y105379D01*
X184973Y105309D01*
X185042Y105236D01*
X185109Y105160D01*
X185172Y105081D01*
X185232Y105001D01*
X185289Y104918D01*
X185343Y104832D01*
X185393Y104745D01*
X185440Y104656D01*
X185483Y104565D01*
X185523Y104473D01*
X185559Y104379D01*
X185592Y104284D01*
X185621Y104187D01*
X185646Y104090D01*
X185667Y103991D01*
X185685Y103892D01*
X185698Y103792D01*
X185708Y103692D01*
X185714Y103592D01*
X185716Y103491D01*
X185716Y102193D01*
X180523Y102193D01*
X191403Y102842D02*
X194649Y101544D01*
X191403Y102841D02*
X191328Y102874D01*
X191254Y102910D01*
X191182Y102949D01*
X191112Y102992D01*
X191045Y103038D01*
X190979Y103088D01*
X190917Y103140D01*
X190856Y103196D01*
X190799Y103254D01*
X190744Y103315D01*
X190693Y103379D01*
X190645Y103445D01*
X190600Y103514D01*
X190558Y103584D01*
X190520Y103657D01*
X190485Y103731D01*
X190454Y103807D01*
X190427Y103884D01*
X190404Y103963D01*
X190384Y104042D01*
X190369Y104123D01*
X190357Y104204D01*
X190349Y104286D01*
X190345Y104367D01*
X190346Y104449D01*
X190350Y104531D01*
X190358Y104613D01*
X190370Y104694D01*
X190386Y104774D01*
X190406Y104854D01*
X190430Y104932D01*
X190458Y105009D01*
X190489Y105085D01*
X190524Y105159D01*
X190562Y105231D01*
X190604Y105302D01*
X190650Y105370D01*
X190698Y105436D01*
X190750Y105499D01*
X190805Y105560D01*
X190863Y105618D01*
X190923Y105674D01*
X190986Y105726D01*
X191052Y105775D01*
X191120Y105821D01*
X191190Y105863D01*
X191262Y105903D01*
X191336Y105938D01*
X191411Y105970D01*
X191488Y105998D01*
X191566Y106022D01*
X191646Y106043D01*
X191726Y106060D01*
X191807Y106072D01*
X191888Y106081D01*
X191970Y106086D01*
X192052Y106087D01*
X192229Y106083D01*
X192406Y106074D01*
X192583Y106060D01*
X192760Y106043D01*
X192935Y106021D01*
X193111Y105996D01*
X193285Y105965D01*
X193459Y105931D01*
X193632Y105893D01*
X193804Y105850D01*
X193975Y105803D01*
X194145Y105753D01*
X194314Y105698D01*
X194481Y105639D01*
X194646Y105576D01*
X194811Y105509D01*
X194973Y105438D01*
X194649Y101544D02*
X194724Y101511D01*
X194798Y101475D01*
X194870Y101436D01*
X194940Y101393D01*
X195007Y101347D01*
X195073Y101297D01*
X195135Y101245D01*
X195196Y101189D01*
X195253Y101131D01*
X195308Y101070D01*
X195359Y101006D01*
X195407Y100940D01*
X195452Y100871D01*
X195494Y100801D01*
X195532Y100728D01*
X195567Y100654D01*
X195598Y100578D01*
X195625Y100501D01*
X195648Y100422D01*
X195668Y100343D01*
X195683Y100262D01*
X195695Y100181D01*
X195703Y100099D01*
X195707Y100018D01*
X195706Y99936D01*
X195702Y99854D01*
X195694Y99772D01*
X195682Y99691D01*
X195666Y99611D01*
X195646Y99531D01*
X195622Y99453D01*
X195594Y99376D01*
X195563Y99300D01*
X195528Y99226D01*
X195490Y99154D01*
X195448Y99083D01*
X195402Y99015D01*
X195354Y98949D01*
X195302Y98886D01*
X195247Y98825D01*
X195189Y98767D01*
X195129Y98711D01*
X195066Y98659D01*
X195000Y98610D01*
X194932Y98564D01*
X194862Y98522D01*
X194790Y98482D01*
X194716Y98447D01*
X194641Y98415D01*
X194564Y98387D01*
X194486Y98363D01*
X194406Y98342D01*
X194326Y98325D01*
X194245Y98313D01*
X194164Y98304D01*
X194082Y98299D01*
X194000Y98298D01*
X193740Y98305D01*
X193480Y98318D01*
X193220Y98337D01*
X192961Y98362D01*
X192702Y98394D01*
X192445Y98431D01*
X192188Y98475D01*
X191932Y98524D01*
X191678Y98580D01*
X191425Y98641D01*
X191174Y98709D01*
X190924Y98783D01*
X190676Y98862D01*
X190430Y98947D01*
X121158Y86416D02*
X121158Y81224D01*
X121158Y86416D02*
X121160Y86529D01*
X121166Y86642D01*
X121176Y86755D01*
X121190Y86868D01*
X121207Y86980D01*
X121229Y87091D01*
X121254Y87201D01*
X121284Y87311D01*
X121317Y87419D01*
X121354Y87526D01*
X121394Y87632D01*
X121439Y87736D01*
X121487Y87839D01*
X121538Y87940D01*
X121593Y88039D01*
X121651Y88136D01*
X121713Y88231D01*
X121778Y88324D01*
X121846Y88414D01*
X121917Y88502D01*
X121992Y88588D01*
X122069Y88671D01*
X122149Y88751D01*
X122232Y88828D01*
X122318Y88903D01*
X122406Y88974D01*
X122496Y89042D01*
X122589Y89107D01*
X122684Y89169D01*
X122781Y89227D01*
X122880Y89282D01*
X122981Y89333D01*
X123084Y89381D01*
X123188Y89426D01*
X123294Y89466D01*
X123401Y89503D01*
X123509Y89536D01*
X123619Y89566D01*
X123729Y89591D01*
X123840Y89613D01*
X123952Y89630D01*
X124065Y89644D01*
X124178Y89654D01*
X124291Y89660D01*
X124404Y89662D01*
X124517Y89660D01*
X124630Y89654D01*
X124743Y89644D01*
X124856Y89630D01*
X124968Y89613D01*
X125079Y89591D01*
X125189Y89566D01*
X125299Y89536D01*
X125407Y89503D01*
X125514Y89466D01*
X125620Y89426D01*
X125724Y89381D01*
X125827Y89333D01*
X125928Y89282D01*
X126027Y89227D01*
X126124Y89169D01*
X126219Y89107D01*
X126312Y89042D01*
X126402Y88974D01*
X126490Y88903D01*
X126576Y88828D01*
X126659Y88751D01*
X126739Y88671D01*
X126816Y88588D01*
X126891Y88502D01*
X126962Y88414D01*
X127030Y88324D01*
X127095Y88231D01*
X127157Y88136D01*
X127215Y88039D01*
X127270Y87940D01*
X127321Y87839D01*
X127369Y87736D01*
X127414Y87632D01*
X127454Y87526D01*
X127491Y87419D01*
X127524Y87311D01*
X127554Y87201D01*
X127579Y87091D01*
X127601Y86980D01*
X127618Y86868D01*
X127632Y86755D01*
X127642Y86642D01*
X127648Y86529D01*
X127650Y86416D01*
X127649Y86416D02*
X127649Y81224D01*
X127650Y81224D02*
X127648Y81111D01*
X127642Y80998D01*
X127632Y80885D01*
X127618Y80772D01*
X127601Y80660D01*
X127579Y80549D01*
X127554Y80439D01*
X127524Y80329D01*
X127491Y80221D01*
X127454Y80114D01*
X127414Y80008D01*
X127369Y79904D01*
X127321Y79801D01*
X127270Y79700D01*
X127215Y79601D01*
X127157Y79504D01*
X127095Y79409D01*
X127030Y79316D01*
X126962Y79226D01*
X126891Y79138D01*
X126816Y79052D01*
X126739Y78969D01*
X126659Y78889D01*
X126576Y78812D01*
X126490Y78737D01*
X126402Y78666D01*
X126312Y78598D01*
X126219Y78533D01*
X126124Y78471D01*
X126027Y78413D01*
X125928Y78358D01*
X125827Y78307D01*
X125724Y78259D01*
X125620Y78214D01*
X125514Y78174D01*
X125407Y78137D01*
X125299Y78104D01*
X125189Y78074D01*
X125079Y78049D01*
X124968Y78027D01*
X124856Y78010D01*
X124743Y77996D01*
X124630Y77986D01*
X124517Y77980D01*
X124404Y77978D01*
X124291Y77980D01*
X124178Y77986D01*
X124065Y77996D01*
X123952Y78010D01*
X123840Y78027D01*
X123729Y78049D01*
X123619Y78074D01*
X123509Y78104D01*
X123401Y78137D01*
X123294Y78174D01*
X123188Y78214D01*
X123084Y78259D01*
X122981Y78307D01*
X122880Y78358D01*
X122781Y78413D01*
X122684Y78471D01*
X122589Y78533D01*
X122496Y78598D01*
X122406Y78666D01*
X122318Y78737D01*
X122232Y78812D01*
X122149Y78889D01*
X122069Y78969D01*
X121992Y79052D01*
X121917Y79138D01*
X121846Y79226D01*
X121778Y79316D01*
X121713Y79409D01*
X121651Y79504D01*
X121593Y79601D01*
X121538Y79700D01*
X121487Y79801D01*
X121439Y79904D01*
X121394Y80008D01*
X121354Y80114D01*
X121317Y80221D01*
X121284Y80329D01*
X121254Y80439D01*
X121229Y80549D01*
X121207Y80660D01*
X121190Y80772D01*
X121176Y80885D01*
X121166Y80998D01*
X121160Y81111D01*
X121158Y81224D01*
X126351Y80574D02*
X128947Y77978D01*
X132570Y79925D02*
X132570Y85767D01*
X132570Y79925D02*
X132572Y79838D01*
X132578Y79750D01*
X132588Y79664D01*
X132601Y79577D01*
X132619Y79492D01*
X132640Y79407D01*
X132665Y79323D01*
X132694Y79241D01*
X132727Y79160D01*
X132763Y79080D01*
X132802Y79002D01*
X132846Y78926D01*
X132892Y78852D01*
X132942Y78781D01*
X132995Y78711D01*
X133051Y78644D01*
X133110Y78580D01*
X133172Y78518D01*
X133236Y78459D01*
X133303Y78403D01*
X133373Y78350D01*
X133444Y78300D01*
X133518Y78254D01*
X133594Y78210D01*
X133672Y78171D01*
X133752Y78135D01*
X133833Y78102D01*
X133915Y78073D01*
X133999Y78048D01*
X134084Y78027D01*
X134169Y78009D01*
X134256Y77996D01*
X134342Y77986D01*
X134430Y77980D01*
X134517Y77978D01*
X137763Y77978D01*
X137763Y85767D01*
X145070Y82522D02*
X147991Y82522D01*
X145070Y82522D02*
X144976Y82520D01*
X144882Y82514D01*
X144789Y82505D01*
X144696Y82491D01*
X144604Y82474D01*
X144512Y82452D01*
X144422Y82428D01*
X144332Y82399D01*
X144244Y82367D01*
X144157Y82331D01*
X144072Y82291D01*
X143989Y82248D01*
X143907Y82202D01*
X143827Y82152D01*
X143750Y82099D01*
X143675Y82043D01*
X143602Y81984D01*
X143531Y81922D01*
X143463Y81857D01*
X143398Y81789D01*
X143336Y81718D01*
X143277Y81645D01*
X143221Y81570D01*
X143168Y81493D01*
X143118Y81413D01*
X143072Y81331D01*
X143029Y81248D01*
X142989Y81163D01*
X142953Y81076D01*
X142921Y80988D01*
X142892Y80898D01*
X142868Y80808D01*
X142846Y80716D01*
X142829Y80624D01*
X142815Y80531D01*
X142806Y80438D01*
X142800Y80344D01*
X142798Y80250D01*
X142800Y80156D01*
X142806Y80062D01*
X142815Y79969D01*
X142829Y79876D01*
X142846Y79784D01*
X142868Y79692D01*
X142892Y79602D01*
X142921Y79512D01*
X142953Y79424D01*
X142989Y79337D01*
X143029Y79252D01*
X143072Y79169D01*
X143118Y79087D01*
X143168Y79007D01*
X143221Y78930D01*
X143277Y78855D01*
X143336Y78782D01*
X143398Y78711D01*
X143463Y78643D01*
X143531Y78578D01*
X143602Y78516D01*
X143675Y78457D01*
X143750Y78401D01*
X143827Y78348D01*
X143907Y78298D01*
X143989Y78252D01*
X144072Y78209D01*
X144157Y78169D01*
X144244Y78133D01*
X144332Y78101D01*
X144422Y78072D01*
X144512Y78048D01*
X144604Y78026D01*
X144696Y78009D01*
X144789Y77995D01*
X144882Y77986D01*
X144976Y77980D01*
X145070Y77978D01*
X147991Y77978D01*
X147991Y83820D01*
X147989Y83907D01*
X147983Y83995D01*
X147973Y84081D01*
X147960Y84168D01*
X147942Y84253D01*
X147921Y84338D01*
X147896Y84422D01*
X147867Y84504D01*
X147834Y84585D01*
X147798Y84665D01*
X147759Y84743D01*
X147715Y84819D01*
X147669Y84893D01*
X147619Y84964D01*
X147566Y85034D01*
X147510Y85101D01*
X147451Y85165D01*
X147389Y85227D01*
X147325Y85286D01*
X147258Y85342D01*
X147188Y85395D01*
X147117Y85445D01*
X147043Y85491D01*
X146967Y85535D01*
X146889Y85574D01*
X146809Y85610D01*
X146728Y85643D01*
X146646Y85672D01*
X146562Y85697D01*
X146477Y85718D01*
X146392Y85736D01*
X146305Y85749D01*
X146219Y85759D01*
X146131Y85765D01*
X146044Y85767D01*
X143447Y85767D01*
X158278Y89662D02*
X158278Y77978D01*
X155032Y77978D01*
X154945Y77980D01*
X154857Y77986D01*
X154771Y77996D01*
X154684Y78009D01*
X154599Y78027D01*
X154514Y78048D01*
X154430Y78073D01*
X154348Y78102D01*
X154267Y78135D01*
X154187Y78171D01*
X154109Y78210D01*
X154033Y78254D01*
X153959Y78300D01*
X153888Y78350D01*
X153818Y78403D01*
X153751Y78459D01*
X153687Y78518D01*
X153625Y78580D01*
X153566Y78644D01*
X153510Y78711D01*
X153457Y78781D01*
X153407Y78852D01*
X153361Y78926D01*
X153317Y79002D01*
X153278Y79080D01*
X153242Y79160D01*
X153209Y79241D01*
X153180Y79323D01*
X153155Y79407D01*
X153134Y79492D01*
X153116Y79577D01*
X153103Y79664D01*
X153093Y79750D01*
X153087Y79838D01*
X153085Y79925D01*
X153085Y83820D01*
X153087Y83907D01*
X153093Y83995D01*
X153103Y84081D01*
X153116Y84168D01*
X153134Y84253D01*
X153155Y84338D01*
X153180Y84422D01*
X153209Y84504D01*
X153242Y84585D01*
X153278Y84665D01*
X153317Y84743D01*
X153361Y84819D01*
X153407Y84893D01*
X153457Y84964D01*
X153510Y85034D01*
X153566Y85101D01*
X153625Y85165D01*
X153687Y85227D01*
X153751Y85286D01*
X153818Y85342D01*
X153888Y85395D01*
X153959Y85445D01*
X154033Y85491D01*
X154109Y85535D01*
X154187Y85574D01*
X154267Y85610D01*
X154348Y85643D01*
X154430Y85672D01*
X154514Y85697D01*
X154599Y85718D01*
X154684Y85736D01*
X154771Y85749D01*
X154857Y85759D01*
X154945Y85765D01*
X155032Y85767D01*
X158278Y85767D01*
X172203Y77978D02*
X174800Y77978D01*
X172203Y77978D02*
X172104Y77980D01*
X172004Y77986D01*
X171905Y77995D01*
X171807Y78008D01*
X171709Y78025D01*
X171611Y78046D01*
X171515Y78071D01*
X171420Y78099D01*
X171326Y78131D01*
X171233Y78166D01*
X171141Y78205D01*
X171051Y78248D01*
X170963Y78293D01*
X170876Y78343D01*
X170792Y78395D01*
X170709Y78451D01*
X170629Y78509D01*
X170551Y78571D01*
X170476Y78636D01*
X170403Y78704D01*
X170333Y78774D01*
X170265Y78847D01*
X170200Y78922D01*
X170138Y79000D01*
X170080Y79080D01*
X170024Y79163D01*
X169972Y79247D01*
X169922Y79334D01*
X169877Y79422D01*
X169834Y79512D01*
X169795Y79604D01*
X169760Y79697D01*
X169728Y79791D01*
X169700Y79886D01*
X169675Y79982D01*
X169654Y80080D01*
X169637Y80178D01*
X169624Y80276D01*
X169615Y80375D01*
X169609Y80475D01*
X169607Y80574D01*
X169607Y87066D01*
X169609Y87165D01*
X169615Y87265D01*
X169624Y87364D01*
X169637Y87462D01*
X169654Y87560D01*
X169675Y87658D01*
X169700Y87754D01*
X169728Y87849D01*
X169760Y87943D01*
X169795Y88036D01*
X169834Y88128D01*
X169877Y88218D01*
X169922Y88306D01*
X169972Y88393D01*
X170024Y88477D01*
X170080Y88560D01*
X170138Y88640D01*
X170200Y88718D01*
X170265Y88793D01*
X170333Y88866D01*
X170403Y88936D01*
X170476Y89004D01*
X170551Y89069D01*
X170629Y89131D01*
X170709Y89189D01*
X170792Y89245D01*
X170876Y89297D01*
X170963Y89347D01*
X171051Y89392D01*
X171141Y89435D01*
X171233Y89474D01*
X171325Y89509D01*
X171420Y89541D01*
X171515Y89569D01*
X171611Y89594D01*
X171709Y89615D01*
X171807Y89632D01*
X171905Y89645D01*
X172004Y89654D01*
X172104Y89660D01*
X172203Y89662D01*
X174800Y89662D01*
X181265Y82522D02*
X184186Y82522D01*
X181265Y82522D02*
X181171Y82520D01*
X181077Y82514D01*
X180984Y82505D01*
X180891Y82491D01*
X180799Y82474D01*
X180707Y82452D01*
X180617Y82428D01*
X180527Y82399D01*
X180439Y82367D01*
X180352Y82331D01*
X180267Y82291D01*
X180184Y82248D01*
X180102Y82202D01*
X180022Y82152D01*
X179945Y82099D01*
X179870Y82043D01*
X179797Y81984D01*
X179726Y81922D01*
X179658Y81857D01*
X179593Y81789D01*
X179531Y81718D01*
X179472Y81645D01*
X179416Y81570D01*
X179363Y81493D01*
X179313Y81413D01*
X179267Y81331D01*
X179224Y81248D01*
X179184Y81163D01*
X179148Y81076D01*
X179116Y80988D01*
X179087Y80898D01*
X179063Y80808D01*
X179041Y80716D01*
X179024Y80624D01*
X179010Y80531D01*
X179001Y80438D01*
X178995Y80344D01*
X178993Y80250D01*
X178995Y80156D01*
X179001Y80062D01*
X179010Y79969D01*
X179024Y79876D01*
X179041Y79784D01*
X179063Y79692D01*
X179087Y79602D01*
X179116Y79512D01*
X179148Y79424D01*
X179184Y79337D01*
X179224Y79252D01*
X179267Y79169D01*
X179313Y79087D01*
X179363Y79007D01*
X179416Y78930D01*
X179472Y78855D01*
X179531Y78782D01*
X179593Y78711D01*
X179658Y78643D01*
X179726Y78578D01*
X179797Y78516D01*
X179870Y78457D01*
X179945Y78401D01*
X180022Y78348D01*
X180102Y78298D01*
X180184Y78252D01*
X180267Y78209D01*
X180352Y78169D01*
X180439Y78133D01*
X180527Y78101D01*
X180617Y78072D01*
X180707Y78048D01*
X180799Y78026D01*
X180891Y78009D01*
X180984Y77995D01*
X181077Y77986D01*
X181171Y77980D01*
X181265Y77978D01*
X184186Y77978D01*
X184186Y83820D01*
X184184Y83907D01*
X184178Y83995D01*
X184168Y84081D01*
X184155Y84168D01*
X184137Y84253D01*
X184116Y84338D01*
X184091Y84422D01*
X184062Y84504D01*
X184029Y84585D01*
X183993Y84665D01*
X183954Y84743D01*
X183910Y84819D01*
X183864Y84893D01*
X183814Y84964D01*
X183761Y85034D01*
X183705Y85101D01*
X183646Y85165D01*
X183584Y85227D01*
X183520Y85286D01*
X183453Y85342D01*
X183383Y85395D01*
X183312Y85445D01*
X183238Y85491D01*
X183162Y85535D01*
X183084Y85574D01*
X183004Y85610D01*
X182923Y85643D01*
X182841Y85672D01*
X182757Y85697D01*
X182672Y85718D01*
X182587Y85736D01*
X182500Y85749D01*
X182414Y85759D01*
X182326Y85765D01*
X182239Y85767D01*
X179642Y85767D01*
X189779Y85767D02*
X189779Y74083D01*
X189779Y85767D02*
X193024Y85767D01*
X193111Y85765D01*
X193199Y85759D01*
X193285Y85749D01*
X193372Y85736D01*
X193457Y85718D01*
X193542Y85697D01*
X193626Y85672D01*
X193708Y85643D01*
X193789Y85610D01*
X193869Y85574D01*
X193947Y85535D01*
X194023Y85491D01*
X194097Y85445D01*
X194168Y85395D01*
X194238Y85342D01*
X194305Y85286D01*
X194369Y85227D01*
X194431Y85166D01*
X194490Y85101D01*
X194546Y85034D01*
X194599Y84964D01*
X194649Y84893D01*
X194695Y84819D01*
X194739Y84743D01*
X194778Y84665D01*
X194814Y84585D01*
X194847Y84504D01*
X194876Y84422D01*
X194901Y84338D01*
X194922Y84253D01*
X194940Y84168D01*
X194953Y84081D01*
X194963Y83995D01*
X194969Y83907D01*
X194971Y83820D01*
X194972Y83820D02*
X194972Y79925D01*
X194971Y79925D02*
X194969Y79838D01*
X194963Y79750D01*
X194953Y79664D01*
X194940Y79577D01*
X194922Y79492D01*
X194901Y79407D01*
X194876Y79323D01*
X194847Y79241D01*
X194814Y79160D01*
X194778Y79080D01*
X194739Y79002D01*
X194695Y78926D01*
X194649Y78852D01*
X194599Y78781D01*
X194546Y78711D01*
X194490Y78644D01*
X194431Y78580D01*
X194369Y78518D01*
X194305Y78459D01*
X194238Y78403D01*
X194168Y78350D01*
X194097Y78300D01*
X194023Y78254D01*
X193947Y78210D01*
X193869Y78171D01*
X193789Y78135D01*
X193708Y78102D01*
X193626Y78073D01*
X193542Y78048D01*
X193457Y78027D01*
X193372Y78009D01*
X193285Y77996D01*
X193199Y77986D01*
X193111Y77980D01*
X193024Y77978D01*
X189779Y77978D01*
X201573Y77978D02*
X204819Y77978D01*
X201573Y77978D02*
X201486Y77980D01*
X201398Y77986D01*
X201312Y77996D01*
X201225Y78009D01*
X201140Y78027D01*
X201055Y78048D01*
X200971Y78073D01*
X200889Y78102D01*
X200808Y78135D01*
X200728Y78171D01*
X200650Y78210D01*
X200574Y78254D01*
X200500Y78300D01*
X200429Y78350D01*
X200359Y78403D01*
X200292Y78459D01*
X200228Y78518D01*
X200166Y78580D01*
X200107Y78644D01*
X200051Y78711D01*
X199998Y78781D01*
X199948Y78852D01*
X199902Y78926D01*
X199858Y79002D01*
X199819Y79080D01*
X199783Y79160D01*
X199750Y79241D01*
X199721Y79323D01*
X199696Y79407D01*
X199675Y79492D01*
X199657Y79577D01*
X199644Y79664D01*
X199634Y79750D01*
X199628Y79838D01*
X199626Y79925D01*
X199626Y83171D01*
X199628Y83272D01*
X199634Y83372D01*
X199644Y83472D01*
X199657Y83572D01*
X199675Y83671D01*
X199696Y83770D01*
X199721Y83867D01*
X199750Y83964D01*
X199783Y84059D01*
X199819Y84153D01*
X199859Y84245D01*
X199902Y84336D01*
X199949Y84425D01*
X199999Y84512D01*
X200053Y84598D01*
X200110Y84681D01*
X200170Y84761D01*
X200233Y84840D01*
X200300Y84916D01*
X200369Y84989D01*
X200441Y85059D01*
X200515Y85127D01*
X200592Y85192D01*
X200672Y85253D01*
X200754Y85312D01*
X200838Y85367D01*
X200924Y85419D01*
X201012Y85468D01*
X201102Y85513D01*
X201194Y85555D01*
X201287Y85593D01*
X201382Y85627D01*
X201477Y85658D01*
X201574Y85685D01*
X201672Y85708D01*
X201771Y85728D01*
X201871Y85743D01*
X201971Y85755D01*
X202071Y85763D01*
X202172Y85767D01*
X202272Y85767D01*
X202373Y85763D01*
X202473Y85755D01*
X202573Y85743D01*
X202673Y85728D01*
X202772Y85708D01*
X202870Y85685D01*
X202967Y85658D01*
X203062Y85627D01*
X203157Y85593D01*
X203250Y85555D01*
X203342Y85513D01*
X203432Y85468D01*
X203520Y85419D01*
X203606Y85367D01*
X203690Y85312D01*
X203772Y85253D01*
X203852Y85192D01*
X203929Y85127D01*
X204003Y85059D01*
X204075Y84989D01*
X204144Y84916D01*
X204211Y84840D01*
X204274Y84761D01*
X204334Y84681D01*
X204391Y84598D01*
X204445Y84512D01*
X204495Y84425D01*
X204542Y84336D01*
X204585Y84245D01*
X204625Y84153D01*
X204661Y84059D01*
X204694Y83964D01*
X204723Y83867D01*
X204748Y83770D01*
X204769Y83671D01*
X204787Y83572D01*
X204800Y83472D01*
X204810Y83372D01*
X204816Y83272D01*
X204818Y83171D01*
X204819Y83171D02*
X204819Y81873D01*
X199626Y81873D01*
X215092Y89662D02*
X218986Y77978D01*
X222881Y89662D01*
X227171Y87066D02*
X230416Y89662D01*
X230416Y77978D01*
X227171Y77978D02*
X233662Y77978D01*
D11*
X104363Y144780D02*
X104365Y144844D01*
X104371Y144909D01*
X104381Y144972D01*
X104395Y145035D01*
X104412Y145097D01*
X104434Y145158D01*
X104459Y145218D01*
X104488Y145275D01*
X104520Y145331D01*
X104555Y145385D01*
X104594Y145436D01*
X104636Y145485D01*
X104681Y145532D01*
X104729Y145575D01*
X104779Y145616D01*
X104832Y145653D01*
X104886Y145687D01*
X104943Y145717D01*
X105002Y145744D01*
X105062Y145767D01*
X105123Y145787D01*
X105186Y145803D01*
X105249Y145815D01*
X105313Y145823D01*
X105378Y145827D01*
X105442Y145827D01*
X105507Y145823D01*
X105571Y145815D01*
X105634Y145803D01*
X105697Y145787D01*
X105758Y145767D01*
X105818Y145744D01*
X105877Y145717D01*
X105933Y145687D01*
X105988Y145653D01*
X106041Y145616D01*
X106091Y145575D01*
X106139Y145532D01*
X106184Y145485D01*
X106226Y145436D01*
X106265Y145385D01*
X106300Y145331D01*
X106332Y145275D01*
X106361Y145218D01*
X106386Y145158D01*
X106408Y145097D01*
X106425Y145035D01*
X106439Y144972D01*
X106449Y144909D01*
X106455Y144844D01*
X106457Y144780D01*
X106455Y144716D01*
X106449Y144651D01*
X106439Y144588D01*
X106425Y144525D01*
X106408Y144463D01*
X106386Y144402D01*
X106361Y144342D01*
X106332Y144285D01*
X106300Y144229D01*
X106265Y144175D01*
X106226Y144124D01*
X106184Y144075D01*
X106139Y144028D01*
X106091Y143985D01*
X106041Y143944D01*
X105988Y143907D01*
X105934Y143873D01*
X105877Y143843D01*
X105818Y143816D01*
X105758Y143793D01*
X105697Y143773D01*
X105634Y143757D01*
X105571Y143745D01*
X105507Y143737D01*
X105442Y143733D01*
X105378Y143733D01*
X105313Y143737D01*
X105249Y143745D01*
X105186Y143757D01*
X105123Y143773D01*
X105062Y143793D01*
X105002Y143816D01*
X104943Y143843D01*
X104886Y143873D01*
X104832Y143907D01*
X104779Y143944D01*
X104729Y143985D01*
X104681Y144028D01*
X104636Y144075D01*
X104594Y144124D01*
X104555Y144175D01*
X104520Y144229D01*
X104488Y144285D01*
X104459Y144342D01*
X104434Y144402D01*
X104412Y144463D01*
X104395Y144525D01*
X104381Y144588D01*
X104371Y144651D01*
X104365Y144716D01*
X104363Y144780D01*
D12*
X72390Y152400D02*
X72390Y203200D01*
D13*
X101981Y221502D02*
X105114Y221502D01*
X105203Y221500D01*
X105291Y221494D01*
X105379Y221485D01*
X105467Y221472D01*
X105554Y221455D01*
X105640Y221435D01*
X105725Y221410D01*
X105810Y221383D01*
X105893Y221351D01*
X105974Y221317D01*
X106054Y221278D01*
X106132Y221237D01*
X106209Y221192D01*
X106283Y221144D01*
X106356Y221093D01*
X106426Y221039D01*
X106493Y220981D01*
X106559Y220921D01*
X106621Y220859D01*
X106681Y220793D01*
X106739Y220726D01*
X106793Y220656D01*
X106844Y220583D01*
X106892Y220509D01*
X106937Y220432D01*
X106978Y220354D01*
X107017Y220274D01*
X107051Y220193D01*
X107083Y220110D01*
X107110Y220025D01*
X107135Y219940D01*
X107155Y219854D01*
X107172Y219767D01*
X107185Y219679D01*
X107194Y219591D01*
X107200Y219503D01*
X107202Y219414D01*
X107202Y218892D01*
X107203Y218892D02*
X107201Y218791D01*
X107195Y218690D01*
X107185Y218589D01*
X107172Y218489D01*
X107154Y218389D01*
X107133Y218290D01*
X107107Y218192D01*
X107078Y218095D01*
X107046Y217999D01*
X107009Y217905D01*
X106969Y217812D01*
X106925Y217720D01*
X106878Y217631D01*
X106827Y217543D01*
X106773Y217457D01*
X106716Y217374D01*
X106656Y217292D01*
X106592Y217214D01*
X106526Y217137D01*
X106456Y217064D01*
X106384Y216993D01*
X106309Y216925D01*
X106231Y216860D01*
X106151Y216798D01*
X106069Y216739D01*
X105984Y216683D01*
X105897Y216631D01*
X105809Y216582D01*
X105718Y216536D01*
X105626Y216495D01*
X105532Y216456D01*
X105437Y216422D01*
X105341Y216391D01*
X105243Y216364D01*
X105145Y216340D01*
X105045Y216321D01*
X104945Y216305D01*
X104845Y216293D01*
X104744Y216285D01*
X104643Y216281D01*
X104541Y216281D01*
X104440Y216285D01*
X104339Y216293D01*
X104239Y216305D01*
X104139Y216321D01*
X104039Y216340D01*
X103941Y216364D01*
X103843Y216391D01*
X103747Y216422D01*
X103652Y216456D01*
X103558Y216495D01*
X103466Y216536D01*
X103375Y216582D01*
X103287Y216631D01*
X103200Y216683D01*
X103115Y216739D01*
X103033Y216798D01*
X102953Y216860D01*
X102875Y216925D01*
X102800Y216993D01*
X102728Y217064D01*
X102658Y217137D01*
X102592Y217214D01*
X102528Y217292D01*
X102468Y217374D01*
X102411Y217457D01*
X102357Y217543D01*
X102306Y217631D01*
X102259Y217720D01*
X102215Y217812D01*
X102175Y217905D01*
X102138Y217999D01*
X102106Y218095D01*
X102077Y218192D01*
X102051Y218290D01*
X102030Y218389D01*
X102012Y218489D01*
X101999Y218589D01*
X101989Y218690D01*
X101983Y218791D01*
X101981Y218892D01*
X101981Y221502D01*
X101983Y221631D01*
X101989Y221759D01*
X101999Y221887D01*
X102013Y222015D01*
X102030Y222143D01*
X102052Y222270D01*
X102078Y222396D01*
X102107Y222521D01*
X102140Y222645D01*
X102178Y222768D01*
X102218Y222890D01*
X102263Y223011D01*
X102311Y223130D01*
X102363Y223248D01*
X102419Y223364D01*
X102478Y223478D01*
X102541Y223590D01*
X102607Y223701D01*
X102676Y223809D01*
X102749Y223915D01*
X102825Y224019D01*
X102904Y224121D01*
X102986Y224220D01*
X103071Y224316D01*
X103159Y224410D01*
X103250Y224501D01*
X103344Y224589D01*
X103440Y224674D01*
X103539Y224756D01*
X103641Y224835D01*
X103745Y224911D01*
X103851Y224984D01*
X103959Y225053D01*
X104069Y225119D01*
X104182Y225182D01*
X104296Y225241D01*
X104412Y225297D01*
X104530Y225349D01*
X104649Y225397D01*
X104770Y225442D01*
X104892Y225482D01*
X105015Y225520D01*
X105139Y225553D01*
X105264Y225582D01*
X105390Y225608D01*
X105517Y225630D01*
X105645Y225647D01*
X105773Y225661D01*
X105901Y225671D01*
X106029Y225677D01*
X106158Y225679D01*
X111561Y225679D02*
X111561Y216281D01*
X111561Y225679D02*
X114172Y225679D01*
X114273Y225677D01*
X114374Y225671D01*
X114475Y225661D01*
X114575Y225648D01*
X114675Y225630D01*
X114774Y225609D01*
X114872Y225583D01*
X114969Y225554D01*
X115065Y225522D01*
X115159Y225485D01*
X115252Y225445D01*
X115344Y225401D01*
X115433Y225354D01*
X115521Y225303D01*
X115607Y225249D01*
X115690Y225192D01*
X115772Y225132D01*
X115850Y225068D01*
X115927Y225002D01*
X116000Y224932D01*
X116071Y224860D01*
X116139Y224785D01*
X116204Y224707D01*
X116266Y224627D01*
X116325Y224545D01*
X116381Y224460D01*
X116433Y224373D01*
X116482Y224285D01*
X116528Y224194D01*
X116569Y224102D01*
X116608Y224008D01*
X116642Y223913D01*
X116673Y223817D01*
X116700Y223719D01*
X116724Y223621D01*
X116743Y223521D01*
X116759Y223421D01*
X116771Y223321D01*
X116779Y223220D01*
X116783Y223119D01*
X116783Y223017D01*
X116779Y222916D01*
X116771Y222815D01*
X116759Y222715D01*
X116743Y222615D01*
X116724Y222515D01*
X116700Y222417D01*
X116673Y222319D01*
X116642Y222223D01*
X116608Y222128D01*
X116569Y222034D01*
X116528Y221942D01*
X116482Y221851D01*
X116433Y221762D01*
X116381Y221676D01*
X116325Y221591D01*
X116266Y221509D01*
X116204Y221429D01*
X116139Y221351D01*
X116071Y221276D01*
X116000Y221204D01*
X115927Y221134D01*
X115850Y221068D01*
X115772Y221004D01*
X115690Y220944D01*
X115607Y220887D01*
X115521Y220833D01*
X115433Y220782D01*
X115344Y220735D01*
X115252Y220691D01*
X115159Y220651D01*
X115065Y220614D01*
X114969Y220582D01*
X114872Y220553D01*
X114774Y220527D01*
X114675Y220506D01*
X114575Y220488D01*
X114475Y220475D01*
X114374Y220465D01*
X114273Y220459D01*
X114172Y220457D01*
X114172Y220458D02*
X111561Y220458D01*
X121051Y216281D02*
X121051Y225679D01*
X120006Y216281D02*
X122095Y216281D01*
X122095Y225679D02*
X120006Y225679D01*
X126060Y225679D02*
X126060Y216281D01*
X131281Y216281D02*
X126060Y225679D01*
X131281Y225679D02*
X131281Y216281D01*
X135509Y223591D02*
X138119Y225679D01*
X138119Y216281D01*
X135509Y216281D02*
X140730Y216281D01*
D14*
X263900Y164800D02*
X263900Y162300D01*
X266400Y162300D01*
X263900Y190800D02*
X263900Y193300D01*
X266400Y193300D01*
X292400Y193300D02*
X294900Y193300D01*
X294900Y190800D01*
X294900Y162300D02*
X292400Y162300D01*
X294900Y162300D02*
X294900Y164800D01*
D15*
X268400Y153800D02*
X268402Y153863D01*
X268408Y153925D01*
X268418Y153987D01*
X268431Y154049D01*
X268449Y154109D01*
X268470Y154168D01*
X268495Y154226D01*
X268524Y154282D01*
X268556Y154336D01*
X268591Y154388D01*
X268629Y154437D01*
X268671Y154485D01*
X268715Y154529D01*
X268763Y154571D01*
X268812Y154609D01*
X268864Y154644D01*
X268918Y154676D01*
X268974Y154705D01*
X269032Y154730D01*
X269091Y154751D01*
X269151Y154769D01*
X269213Y154782D01*
X269275Y154792D01*
X269337Y154798D01*
X269400Y154800D01*
X269463Y154798D01*
X269525Y154792D01*
X269587Y154782D01*
X269649Y154769D01*
X269709Y154751D01*
X269768Y154730D01*
X269826Y154705D01*
X269882Y154676D01*
X269936Y154644D01*
X269988Y154609D01*
X270037Y154571D01*
X270085Y154529D01*
X270129Y154485D01*
X270171Y154437D01*
X270209Y154388D01*
X270244Y154336D01*
X270276Y154282D01*
X270305Y154226D01*
X270330Y154168D01*
X270351Y154109D01*
X270369Y154049D01*
X270382Y153987D01*
X270392Y153925D01*
X270398Y153863D01*
X270400Y153800D01*
X270398Y153737D01*
X270392Y153675D01*
X270382Y153613D01*
X270369Y153551D01*
X270351Y153491D01*
X270330Y153432D01*
X270305Y153374D01*
X270276Y153318D01*
X270244Y153264D01*
X270209Y153212D01*
X270171Y153163D01*
X270129Y153115D01*
X270085Y153071D01*
X270037Y153029D01*
X269988Y152991D01*
X269936Y152956D01*
X269882Y152924D01*
X269826Y152895D01*
X269768Y152870D01*
X269709Y152849D01*
X269649Y152831D01*
X269587Y152818D01*
X269525Y152808D01*
X269463Y152802D01*
X269400Y152800D01*
X269337Y152802D01*
X269275Y152808D01*
X269213Y152818D01*
X269151Y152831D01*
X269091Y152849D01*
X269032Y152870D01*
X268974Y152895D01*
X268918Y152924D01*
X268864Y152956D01*
X268812Y152991D01*
X268763Y153029D01*
X268715Y153071D01*
X268671Y153115D01*
X268629Y153163D01*
X268591Y153212D01*
X268556Y153264D01*
X268524Y153318D01*
X268495Y153374D01*
X268470Y153432D01*
X268449Y153491D01*
X268431Y153551D01*
X268418Y153613D01*
X268408Y153675D01*
X268402Y153737D01*
X268400Y153800D01*
D10*
X264409Y204368D02*
X264409Y212818D01*
X264409Y204368D02*
X264411Y204256D01*
X264417Y204144D01*
X264426Y204032D01*
X264440Y203921D01*
X264457Y203810D01*
X264478Y203700D01*
X264503Y203590D01*
X264532Y203482D01*
X264565Y203374D01*
X264601Y203268D01*
X264641Y203163D01*
X264684Y203060D01*
X264731Y202958D01*
X264781Y202858D01*
X264835Y202759D01*
X264892Y202663D01*
X264953Y202568D01*
X265017Y202476D01*
X265083Y202386D01*
X265153Y202298D01*
X265226Y202213D01*
X265302Y202130D01*
X265381Y202050D01*
X265462Y201973D01*
X265546Y201899D01*
X265633Y201827D01*
X265722Y201759D01*
X265813Y201693D01*
X265906Y201631D01*
X266002Y201572D01*
X266099Y201517D01*
X266199Y201465D01*
X266300Y201416D01*
X266402Y201371D01*
X266507Y201329D01*
X266612Y201291D01*
X266719Y201257D01*
X266827Y201226D01*
X266936Y201199D01*
X267046Y201176D01*
X267156Y201157D01*
X267267Y201142D01*
X267379Y201130D01*
X267491Y201122D01*
X267603Y201118D01*
X267715Y201118D01*
X267827Y201122D01*
X267939Y201130D01*
X268051Y201142D01*
X268162Y201157D01*
X268272Y201176D01*
X268382Y201199D01*
X268491Y201226D01*
X268599Y201257D01*
X268706Y201291D01*
X268811Y201329D01*
X268916Y201371D01*
X269018Y201416D01*
X269119Y201465D01*
X269219Y201517D01*
X269316Y201572D01*
X269412Y201631D01*
X269505Y201693D01*
X269596Y201759D01*
X269685Y201827D01*
X269772Y201899D01*
X269856Y201973D01*
X269937Y202050D01*
X270016Y202130D01*
X270092Y202213D01*
X270165Y202298D01*
X270235Y202386D01*
X270301Y202476D01*
X270365Y202568D01*
X270426Y202663D01*
X270483Y202759D01*
X270537Y202858D01*
X270587Y202958D01*
X270634Y203060D01*
X270677Y203163D01*
X270717Y203268D01*
X270753Y203374D01*
X270786Y203482D01*
X270815Y203590D01*
X270840Y203700D01*
X270861Y203810D01*
X270878Y203921D01*
X270892Y204032D01*
X270901Y204144D01*
X270907Y204256D01*
X270909Y204368D01*
X270909Y212818D01*
X276235Y201118D02*
X279485Y201118D01*
X279597Y201120D01*
X279709Y201126D01*
X279821Y201135D01*
X279932Y201149D01*
X280043Y201166D01*
X280153Y201187D01*
X280263Y201212D01*
X280371Y201241D01*
X280479Y201274D01*
X280585Y201310D01*
X280690Y201350D01*
X280793Y201393D01*
X280895Y201440D01*
X280995Y201490D01*
X281094Y201544D01*
X281190Y201601D01*
X281285Y201662D01*
X281377Y201726D01*
X281467Y201792D01*
X281555Y201862D01*
X281640Y201935D01*
X281723Y202011D01*
X281803Y202090D01*
X281880Y202171D01*
X281954Y202255D01*
X282026Y202342D01*
X282094Y202431D01*
X282160Y202522D01*
X282222Y202615D01*
X282281Y202711D01*
X282336Y202808D01*
X282388Y202908D01*
X282437Y203009D01*
X282482Y203111D01*
X282524Y203216D01*
X282562Y203321D01*
X282596Y203428D01*
X282627Y203536D01*
X282654Y203645D01*
X282677Y203755D01*
X282696Y203865D01*
X282711Y203976D01*
X282723Y204088D01*
X282731Y204200D01*
X282735Y204312D01*
X282735Y204424D01*
X282731Y204536D01*
X282723Y204648D01*
X282711Y204760D01*
X282696Y204871D01*
X282677Y204981D01*
X282654Y205091D01*
X282627Y205200D01*
X282596Y205308D01*
X282562Y205415D01*
X282524Y205520D01*
X282482Y205625D01*
X282437Y205727D01*
X282388Y205828D01*
X282336Y205928D01*
X282281Y206025D01*
X282222Y206121D01*
X282160Y206214D01*
X282094Y206305D01*
X282026Y206394D01*
X281954Y206481D01*
X281880Y206565D01*
X281803Y206646D01*
X281723Y206725D01*
X281640Y206801D01*
X281555Y206874D01*
X281467Y206944D01*
X281377Y207010D01*
X281285Y207074D01*
X281190Y207135D01*
X281094Y207192D01*
X280995Y207246D01*
X280895Y207296D01*
X280793Y207343D01*
X280690Y207386D01*
X280585Y207426D01*
X280479Y207462D01*
X280371Y207495D01*
X280263Y207524D01*
X280153Y207549D01*
X280043Y207570D01*
X279932Y207587D01*
X279821Y207601D01*
X279709Y207610D01*
X279597Y207616D01*
X279485Y207618D01*
X280135Y212818D02*
X276235Y212818D01*
X280135Y212818D02*
X280236Y212816D01*
X280336Y212810D01*
X280437Y212800D01*
X280537Y212787D01*
X280636Y212769D01*
X280735Y212748D01*
X280832Y212723D01*
X280929Y212694D01*
X281024Y212661D01*
X281118Y212625D01*
X281211Y212585D01*
X281302Y212541D01*
X281391Y212494D01*
X281478Y212444D01*
X281564Y212390D01*
X281647Y212333D01*
X281728Y212273D01*
X281806Y212210D01*
X281882Y212143D01*
X281956Y212074D01*
X282026Y212002D01*
X282094Y211928D01*
X282159Y211850D01*
X282221Y211771D01*
X282279Y211689D01*
X282335Y211604D01*
X282387Y211518D01*
X282435Y211430D01*
X282481Y211340D01*
X282522Y211248D01*
X282560Y211154D01*
X282595Y211060D01*
X282626Y210964D01*
X282653Y210867D01*
X282676Y210768D01*
X282696Y210669D01*
X282711Y210570D01*
X282723Y210470D01*
X282731Y210369D01*
X282735Y210268D01*
X282735Y210168D01*
X282731Y210067D01*
X282723Y209966D01*
X282711Y209866D01*
X282696Y209767D01*
X282676Y209668D01*
X282653Y209569D01*
X282626Y209472D01*
X282595Y209376D01*
X282560Y209282D01*
X282522Y209188D01*
X282481Y209096D01*
X282435Y209006D01*
X282387Y208918D01*
X282335Y208832D01*
X282279Y208747D01*
X282221Y208665D01*
X282159Y208586D01*
X282094Y208508D01*
X282026Y208434D01*
X281956Y208362D01*
X281882Y208293D01*
X281806Y208226D01*
X281728Y208163D01*
X281647Y208103D01*
X281564Y208046D01*
X281478Y207992D01*
X281391Y207942D01*
X281302Y207895D01*
X281211Y207851D01*
X281118Y207811D01*
X281024Y207775D01*
X280929Y207742D01*
X280832Y207713D01*
X280735Y207688D01*
X280636Y207667D01*
X280537Y207649D01*
X280437Y207636D01*
X280336Y207626D01*
X280236Y207620D01*
X280135Y207618D01*
X277535Y207618D01*
D15*
X207850Y169800D02*
X207852Y169863D01*
X207858Y169925D01*
X207868Y169987D01*
X207881Y170049D01*
X207899Y170109D01*
X207920Y170168D01*
X207945Y170226D01*
X207974Y170282D01*
X208006Y170336D01*
X208041Y170388D01*
X208079Y170437D01*
X208121Y170485D01*
X208165Y170529D01*
X208213Y170571D01*
X208262Y170609D01*
X208314Y170644D01*
X208368Y170676D01*
X208424Y170705D01*
X208482Y170730D01*
X208541Y170751D01*
X208601Y170769D01*
X208663Y170782D01*
X208725Y170792D01*
X208787Y170798D01*
X208850Y170800D01*
X208913Y170798D01*
X208975Y170792D01*
X209037Y170782D01*
X209099Y170769D01*
X209159Y170751D01*
X209218Y170730D01*
X209276Y170705D01*
X209332Y170676D01*
X209386Y170644D01*
X209438Y170609D01*
X209487Y170571D01*
X209535Y170529D01*
X209579Y170485D01*
X209621Y170437D01*
X209659Y170388D01*
X209694Y170336D01*
X209726Y170282D01*
X209755Y170226D01*
X209780Y170168D01*
X209801Y170109D01*
X209819Y170049D01*
X209832Y169987D01*
X209842Y169925D01*
X209848Y169863D01*
X209850Y169800D01*
X209848Y169737D01*
X209842Y169675D01*
X209832Y169613D01*
X209819Y169551D01*
X209801Y169491D01*
X209780Y169432D01*
X209755Y169374D01*
X209726Y169318D01*
X209694Y169264D01*
X209659Y169212D01*
X209621Y169163D01*
X209579Y169115D01*
X209535Y169071D01*
X209487Y169029D01*
X209438Y168991D01*
X209386Y168956D01*
X209332Y168924D01*
X209276Y168895D01*
X209218Y168870D01*
X209159Y168849D01*
X209099Y168831D01*
X209037Y168818D01*
X208975Y168808D01*
X208913Y168802D01*
X208850Y168800D01*
X208787Y168802D01*
X208725Y168808D01*
X208663Y168818D01*
X208601Y168831D01*
X208541Y168849D01*
X208482Y168870D01*
X208424Y168895D01*
X208368Y168924D01*
X208314Y168956D01*
X208262Y168991D01*
X208213Y169029D01*
X208165Y169071D01*
X208121Y169115D01*
X208079Y169163D01*
X208041Y169212D01*
X208006Y169264D01*
X207974Y169318D01*
X207945Y169374D01*
X207920Y169432D01*
X207899Y169491D01*
X207881Y169551D01*
X207868Y169613D01*
X207858Y169675D01*
X207852Y169737D01*
X207850Y169800D01*
D14*
X201850Y169800D02*
X191850Y169800D01*
X191850Y185800D02*
X201850Y185800D01*
D16*
X208144Y179779D02*
X212195Y179779D01*
X212195Y179780D02*
X212273Y179782D01*
X212350Y179788D01*
X212427Y179797D01*
X212504Y179811D01*
X212579Y179828D01*
X212654Y179849D01*
X212728Y179874D01*
X212800Y179902D01*
X212871Y179934D01*
X212940Y179970D01*
X213007Y180009D01*
X213073Y180051D01*
X213136Y180096D01*
X213196Y180145D01*
X213255Y180196D01*
X213310Y180250D01*
X213363Y180307D01*
X213413Y180367D01*
X213460Y180429D01*
X213504Y180493D01*
X213544Y180559D01*
X213581Y180627D01*
X213615Y180697D01*
X213645Y180769D01*
X213672Y180842D01*
X213695Y180916D01*
X213714Y180991D01*
X213729Y181067D01*
X213741Y181144D01*
X213749Y181222D01*
X213753Y181299D01*
X213753Y181377D01*
X213749Y181454D01*
X213741Y181532D01*
X213729Y181609D01*
X213714Y181685D01*
X213695Y181760D01*
X213672Y181834D01*
X213645Y181907D01*
X213615Y181979D01*
X213581Y182049D01*
X213544Y182117D01*
X213504Y182183D01*
X213460Y182247D01*
X213413Y182309D01*
X213363Y182369D01*
X213310Y182426D01*
X213255Y182480D01*
X213196Y182531D01*
X213136Y182580D01*
X213073Y182625D01*
X213007Y182667D01*
X212940Y182706D01*
X212871Y182742D01*
X212800Y182774D01*
X212728Y182802D01*
X212654Y182827D01*
X212579Y182848D01*
X212504Y182865D01*
X212427Y182879D01*
X212350Y182888D01*
X212273Y182894D01*
X212195Y182896D01*
X208144Y182896D01*
X208144Y186716D02*
X212507Y185469D01*
X212507Y188586D01*
X213753Y187651D02*
X211260Y187651D01*
D14*
X340600Y202800D02*
X370600Y202800D01*
X370600Y152800D02*
X340600Y152800D01*
D10*
X343140Y145542D02*
X343140Y137104D01*
X343139Y137104D02*
X343141Y136991D01*
X343147Y136878D01*
X343157Y136765D01*
X343171Y136652D01*
X343188Y136540D01*
X343210Y136429D01*
X343235Y136319D01*
X343265Y136209D01*
X343298Y136101D01*
X343335Y135994D01*
X343375Y135888D01*
X343420Y135784D01*
X343468Y135681D01*
X343519Y135580D01*
X343574Y135481D01*
X343632Y135384D01*
X343694Y135289D01*
X343759Y135196D01*
X343827Y135106D01*
X343898Y135018D01*
X343973Y134932D01*
X344050Y134849D01*
X344130Y134769D01*
X344213Y134692D01*
X344299Y134617D01*
X344387Y134546D01*
X344477Y134478D01*
X344570Y134413D01*
X344665Y134351D01*
X344762Y134293D01*
X344861Y134238D01*
X344962Y134187D01*
X345065Y134139D01*
X345169Y134094D01*
X345275Y134054D01*
X345382Y134017D01*
X345490Y133984D01*
X345600Y133954D01*
X345710Y133929D01*
X345821Y133907D01*
X345933Y133890D01*
X346046Y133876D01*
X346159Y133866D01*
X346272Y133860D01*
X346385Y133858D01*
X346498Y133860D01*
X346611Y133866D01*
X346724Y133876D01*
X346837Y133890D01*
X346949Y133907D01*
X347060Y133929D01*
X347170Y133954D01*
X347280Y133984D01*
X347388Y134017D01*
X347495Y134054D01*
X347601Y134094D01*
X347705Y134139D01*
X347808Y134187D01*
X347909Y134238D01*
X348008Y134293D01*
X348105Y134351D01*
X348200Y134413D01*
X348293Y134478D01*
X348383Y134546D01*
X348471Y134617D01*
X348557Y134692D01*
X348640Y134769D01*
X348720Y134849D01*
X348797Y134932D01*
X348872Y135018D01*
X348943Y135106D01*
X349011Y135196D01*
X349076Y135289D01*
X349138Y135384D01*
X349196Y135481D01*
X349251Y135580D01*
X349302Y135681D01*
X349350Y135784D01*
X349395Y135888D01*
X349435Y135994D01*
X349472Y136101D01*
X349505Y136209D01*
X349535Y136319D01*
X349560Y136429D01*
X349582Y136540D01*
X349599Y136652D01*
X349613Y136765D01*
X349623Y136878D01*
X349629Y136991D01*
X349631Y137104D01*
X349631Y145542D01*
X358521Y145542D02*
X358628Y145540D01*
X358734Y145534D01*
X358840Y145524D01*
X358946Y145511D01*
X359052Y145493D01*
X359156Y145472D01*
X359260Y145447D01*
X359363Y145418D01*
X359464Y145386D01*
X359564Y145349D01*
X359663Y145309D01*
X359761Y145266D01*
X359857Y145219D01*
X359951Y145168D01*
X360043Y145114D01*
X360133Y145057D01*
X360221Y144997D01*
X360306Y144933D01*
X360389Y144866D01*
X360470Y144796D01*
X360548Y144724D01*
X360624Y144648D01*
X360696Y144570D01*
X360766Y144489D01*
X360833Y144406D01*
X360897Y144321D01*
X360957Y144233D01*
X361014Y144143D01*
X361068Y144051D01*
X361119Y143957D01*
X361166Y143861D01*
X361209Y143763D01*
X361249Y143664D01*
X361286Y143564D01*
X361318Y143463D01*
X361347Y143360D01*
X361372Y143256D01*
X361393Y143152D01*
X361411Y143046D01*
X361424Y142940D01*
X361434Y142834D01*
X361440Y142728D01*
X361442Y142621D01*
X358521Y145542D02*
X358400Y145540D01*
X358279Y145534D01*
X358159Y145524D01*
X358038Y145511D01*
X357919Y145493D01*
X357799Y145472D01*
X357681Y145447D01*
X357564Y145418D01*
X357447Y145385D01*
X357332Y145349D01*
X357218Y145308D01*
X357105Y145265D01*
X356993Y145217D01*
X356884Y145166D01*
X356776Y145111D01*
X356669Y145053D01*
X356565Y144992D01*
X356463Y144927D01*
X356363Y144859D01*
X356265Y144788D01*
X356169Y144714D01*
X356076Y144637D01*
X355986Y144556D01*
X355898Y144473D01*
X355813Y144387D01*
X355730Y144298D01*
X355651Y144207D01*
X355574Y144113D01*
X355501Y144017D01*
X355431Y143919D01*
X355364Y143818D01*
X355300Y143715D01*
X355240Y143610D01*
X355183Y143503D01*
X355129Y143395D01*
X355079Y143285D01*
X355033Y143173D01*
X354990Y143060D01*
X354951Y142945D01*
X360469Y140349D02*
X360548Y140426D01*
X360624Y140507D01*
X360697Y140590D01*
X360767Y140675D01*
X360834Y140763D01*
X360898Y140853D01*
X360958Y140945D01*
X361015Y141040D01*
X361069Y141136D01*
X361120Y141234D01*
X361167Y141334D01*
X361211Y141436D01*
X361251Y141539D01*
X361287Y141643D01*
X361319Y141749D01*
X361348Y141855D01*
X361373Y141963D01*
X361395Y142071D01*
X361412Y142181D01*
X361426Y142290D01*
X361435Y142400D01*
X361441Y142511D01*
X361443Y142621D01*
X360468Y140349D02*
X354951Y133858D01*
X361442Y133858D01*
D14*
X397510Y99060D02*
X397510Y81280D01*
X491490Y81280D02*
X491490Y99060D01*
D10*
X410718Y103378D02*
X410718Y115062D01*
X410718Y109869D02*
X417209Y109869D01*
X417209Y115062D02*
X417209Y103378D01*
X426099Y115062D02*
X426206Y115060D01*
X426312Y115054D01*
X426418Y115044D01*
X426524Y115031D01*
X426630Y115013D01*
X426734Y114992D01*
X426838Y114967D01*
X426941Y114938D01*
X427042Y114906D01*
X427142Y114869D01*
X427241Y114829D01*
X427339Y114786D01*
X427435Y114739D01*
X427529Y114688D01*
X427621Y114634D01*
X427711Y114577D01*
X427799Y114517D01*
X427884Y114453D01*
X427967Y114386D01*
X428048Y114316D01*
X428126Y114244D01*
X428202Y114168D01*
X428274Y114090D01*
X428344Y114009D01*
X428411Y113926D01*
X428475Y113841D01*
X428535Y113753D01*
X428592Y113663D01*
X428646Y113571D01*
X428697Y113477D01*
X428744Y113381D01*
X428787Y113283D01*
X428827Y113184D01*
X428864Y113084D01*
X428896Y112983D01*
X428925Y112880D01*
X428950Y112776D01*
X428971Y112672D01*
X428989Y112566D01*
X429002Y112460D01*
X429012Y112354D01*
X429018Y112248D01*
X429020Y112141D01*
X426099Y115062D02*
X425978Y115060D01*
X425857Y115054D01*
X425737Y115044D01*
X425616Y115031D01*
X425497Y115013D01*
X425377Y114992D01*
X425259Y114967D01*
X425142Y114938D01*
X425025Y114905D01*
X424910Y114869D01*
X424796Y114828D01*
X424683Y114785D01*
X424571Y114737D01*
X424462Y114686D01*
X424354Y114631D01*
X424247Y114573D01*
X424143Y114512D01*
X424041Y114447D01*
X423941Y114379D01*
X423843Y114308D01*
X423747Y114234D01*
X423654Y114157D01*
X423564Y114076D01*
X423476Y113993D01*
X423391Y113907D01*
X423308Y113818D01*
X423229Y113727D01*
X423152Y113633D01*
X423079Y113537D01*
X423009Y113439D01*
X422942Y113338D01*
X422878Y113235D01*
X422818Y113130D01*
X422761Y113023D01*
X422707Y112915D01*
X422657Y112805D01*
X422611Y112693D01*
X422568Y112580D01*
X422529Y112465D01*
X428047Y109869D02*
X428126Y109946D01*
X428202Y110027D01*
X428275Y110110D01*
X428345Y110195D01*
X428412Y110283D01*
X428476Y110373D01*
X428536Y110465D01*
X428593Y110560D01*
X428647Y110656D01*
X428698Y110754D01*
X428745Y110854D01*
X428789Y110956D01*
X428829Y111059D01*
X428865Y111163D01*
X428897Y111269D01*
X428926Y111375D01*
X428951Y111483D01*
X428973Y111591D01*
X428990Y111701D01*
X429004Y111810D01*
X429013Y111920D01*
X429019Y112031D01*
X429021Y112141D01*
X428046Y109869D02*
X422529Y103378D01*
X429020Y103378D01*
D14*
X397510Y252730D02*
X397510Y270510D01*
X491490Y270510D02*
X491490Y252730D01*
D10*
X410718Y248412D02*
X410718Y236728D01*
X410718Y243219D02*
X417209Y243219D01*
X417209Y248412D02*
X417209Y236728D01*
X422529Y236728D02*
X425775Y236728D01*
X425888Y236730D01*
X426001Y236736D01*
X426114Y236746D01*
X426227Y236760D01*
X426339Y236777D01*
X426450Y236799D01*
X426560Y236824D01*
X426670Y236854D01*
X426778Y236887D01*
X426885Y236924D01*
X426991Y236964D01*
X427095Y237009D01*
X427198Y237057D01*
X427299Y237108D01*
X427398Y237163D01*
X427495Y237221D01*
X427590Y237283D01*
X427683Y237348D01*
X427773Y237416D01*
X427861Y237487D01*
X427947Y237562D01*
X428030Y237639D01*
X428110Y237719D01*
X428187Y237802D01*
X428262Y237888D01*
X428333Y237976D01*
X428401Y238066D01*
X428466Y238159D01*
X428528Y238254D01*
X428586Y238351D01*
X428641Y238450D01*
X428692Y238551D01*
X428740Y238654D01*
X428785Y238758D01*
X428825Y238864D01*
X428862Y238971D01*
X428895Y239079D01*
X428925Y239189D01*
X428950Y239299D01*
X428972Y239410D01*
X428989Y239522D01*
X429003Y239635D01*
X429013Y239748D01*
X429019Y239861D01*
X429021Y239974D01*
X429019Y240087D01*
X429013Y240200D01*
X429003Y240313D01*
X428989Y240426D01*
X428972Y240538D01*
X428950Y240649D01*
X428925Y240759D01*
X428895Y240869D01*
X428862Y240977D01*
X428825Y241084D01*
X428785Y241190D01*
X428740Y241294D01*
X428692Y241397D01*
X428641Y241498D01*
X428586Y241597D01*
X428528Y241694D01*
X428466Y241789D01*
X428401Y241882D01*
X428333Y241972D01*
X428262Y242060D01*
X428187Y242146D01*
X428110Y242229D01*
X428030Y242309D01*
X427947Y242386D01*
X427861Y242461D01*
X427773Y242532D01*
X427683Y242600D01*
X427590Y242665D01*
X427495Y242727D01*
X427398Y242785D01*
X427299Y242840D01*
X427198Y242891D01*
X427095Y242939D01*
X426991Y242984D01*
X426885Y243024D01*
X426778Y243061D01*
X426670Y243094D01*
X426560Y243124D01*
X426450Y243149D01*
X426339Y243171D01*
X426227Y243188D01*
X426114Y243202D01*
X426001Y243212D01*
X425888Y243218D01*
X425775Y243220D01*
X426424Y248412D02*
X422529Y248412D01*
X426424Y248412D02*
X426525Y248410D01*
X426625Y248404D01*
X426725Y248394D01*
X426825Y248381D01*
X426924Y248363D01*
X427023Y248342D01*
X427120Y248317D01*
X427217Y248288D01*
X427312Y248255D01*
X427406Y248219D01*
X427498Y248179D01*
X427589Y248136D01*
X427678Y248089D01*
X427765Y248039D01*
X427851Y247985D01*
X427934Y247928D01*
X428014Y247868D01*
X428093Y247805D01*
X428169Y247738D01*
X428242Y247669D01*
X428312Y247597D01*
X428380Y247523D01*
X428445Y247446D01*
X428506Y247366D01*
X428565Y247284D01*
X428620Y247200D01*
X428672Y247114D01*
X428721Y247026D01*
X428766Y246936D01*
X428808Y246844D01*
X428846Y246751D01*
X428880Y246656D01*
X428911Y246561D01*
X428938Y246464D01*
X428961Y246366D01*
X428981Y246267D01*
X428996Y246167D01*
X429008Y246067D01*
X429016Y245967D01*
X429020Y245866D01*
X429020Y245766D01*
X429016Y245665D01*
X429008Y245565D01*
X428996Y245465D01*
X428981Y245365D01*
X428961Y245266D01*
X428938Y245168D01*
X428911Y245071D01*
X428880Y244976D01*
X428846Y244881D01*
X428808Y244788D01*
X428766Y244696D01*
X428721Y244606D01*
X428672Y244518D01*
X428620Y244432D01*
X428565Y244348D01*
X428506Y244266D01*
X428445Y244186D01*
X428380Y244109D01*
X428312Y244035D01*
X428242Y243963D01*
X428169Y243894D01*
X428093Y243827D01*
X428014Y243764D01*
X427934Y243704D01*
X427851Y243647D01*
X427765Y243593D01*
X427678Y243543D01*
X427589Y243496D01*
X427498Y243453D01*
X427406Y243413D01*
X427312Y243377D01*
X427217Y243344D01*
X427120Y243315D01*
X427023Y243290D01*
X426924Y243269D01*
X426825Y243251D01*
X426725Y243238D01*
X426625Y243228D01*
X426525Y243222D01*
X426424Y243220D01*
X426424Y243219D02*
X423827Y243219D01*
D14*
X3810Y240030D02*
X3810Y257810D01*
X97790Y257810D02*
X97790Y240030D01*
D10*
X42150Y258318D02*
X42150Y270002D01*
X42150Y264809D02*
X48641Y264809D01*
X48641Y270002D02*
X48641Y258318D01*
X53961Y260914D02*
X56557Y270002D01*
X53961Y260914D02*
X60452Y260914D01*
X58505Y263511D02*
X58505Y258318D01*
D14*
X3810Y111760D02*
X3810Y93980D01*
X97790Y93980D02*
X97790Y111760D01*
D10*
X42418Y89662D02*
X42418Y77978D01*
X42418Y84469D02*
X48909Y84469D01*
X48909Y89662D02*
X48909Y77978D01*
X54229Y77978D02*
X58124Y77978D01*
X58223Y77980D01*
X58323Y77986D01*
X58422Y77995D01*
X58520Y78008D01*
X58618Y78025D01*
X58716Y78046D01*
X58812Y78071D01*
X58907Y78099D01*
X59001Y78131D01*
X59094Y78166D01*
X59186Y78205D01*
X59276Y78248D01*
X59364Y78293D01*
X59451Y78343D01*
X59535Y78395D01*
X59618Y78451D01*
X59698Y78509D01*
X59776Y78571D01*
X59851Y78636D01*
X59924Y78704D01*
X59994Y78774D01*
X60062Y78847D01*
X60127Y78922D01*
X60189Y79000D01*
X60247Y79080D01*
X60303Y79163D01*
X60355Y79247D01*
X60405Y79334D01*
X60450Y79422D01*
X60493Y79512D01*
X60532Y79604D01*
X60567Y79697D01*
X60599Y79791D01*
X60627Y79886D01*
X60652Y79982D01*
X60673Y80080D01*
X60690Y80178D01*
X60703Y80276D01*
X60712Y80375D01*
X60718Y80475D01*
X60720Y80574D01*
X60720Y81873D01*
X60718Y81972D01*
X60712Y82072D01*
X60703Y82171D01*
X60690Y82269D01*
X60673Y82367D01*
X60652Y82465D01*
X60627Y82561D01*
X60599Y82656D01*
X60567Y82750D01*
X60532Y82843D01*
X60493Y82935D01*
X60450Y83025D01*
X60405Y83113D01*
X60355Y83200D01*
X60303Y83284D01*
X60247Y83367D01*
X60189Y83447D01*
X60127Y83525D01*
X60062Y83600D01*
X59994Y83673D01*
X59924Y83743D01*
X59851Y83811D01*
X59776Y83876D01*
X59698Y83938D01*
X59618Y83996D01*
X59535Y84052D01*
X59451Y84104D01*
X59364Y84154D01*
X59276Y84199D01*
X59186Y84242D01*
X59094Y84281D01*
X59001Y84316D01*
X58907Y84348D01*
X58812Y84376D01*
X58716Y84401D01*
X58618Y84422D01*
X58520Y84439D01*
X58422Y84452D01*
X58323Y84461D01*
X58223Y84467D01*
X58124Y84469D01*
X54229Y84469D01*
X54229Y89662D01*
X60720Y89662D01*
D13*
X401255Y213233D02*
X402891Y213233D01*
X401255Y213233D02*
X401177Y213235D01*
X401099Y213240D01*
X401022Y213250D01*
X400945Y213263D01*
X400869Y213279D01*
X400794Y213299D01*
X400720Y213323D01*
X400647Y213350D01*
X400575Y213381D01*
X400505Y213415D01*
X400437Y213452D01*
X400370Y213493D01*
X400305Y213537D01*
X400243Y213583D01*
X400183Y213633D01*
X400125Y213685D01*
X400070Y213740D01*
X400018Y213798D01*
X399968Y213858D01*
X399922Y213920D01*
X399878Y213985D01*
X399837Y214052D01*
X399800Y214120D01*
X399766Y214190D01*
X399735Y214262D01*
X399708Y214335D01*
X399684Y214409D01*
X399664Y214484D01*
X399648Y214560D01*
X399635Y214637D01*
X399625Y214714D01*
X399620Y214792D01*
X399618Y214870D01*
X399618Y218962D01*
X399620Y219042D01*
X399626Y219122D01*
X399636Y219202D01*
X399649Y219281D01*
X399667Y219360D01*
X399688Y219437D01*
X399714Y219513D01*
X399743Y219588D01*
X399775Y219662D01*
X399811Y219734D01*
X399851Y219804D01*
X399894Y219871D01*
X399940Y219937D01*
X399990Y220000D01*
X400042Y220061D01*
X400097Y220120D01*
X400156Y220175D01*
X400216Y220227D01*
X400280Y220277D01*
X400346Y220323D01*
X400413Y220366D01*
X400483Y220406D01*
X400555Y220442D01*
X400629Y220474D01*
X400703Y220503D01*
X400780Y220529D01*
X400857Y220550D01*
X400936Y220568D01*
X401015Y220581D01*
X401095Y220591D01*
X401175Y220597D01*
X401255Y220599D01*
X402891Y220599D01*
X405737Y218962D02*
X407783Y220599D01*
X407783Y213233D01*
X405737Y213233D02*
X409829Y213233D01*
D14*
X403860Y170180D02*
X393700Y170180D01*
D13*
X387043Y150749D02*
X387043Y143383D01*
X387043Y150749D02*
X389089Y150749D01*
X389178Y150747D01*
X389267Y150741D01*
X389356Y150731D01*
X389444Y150718D01*
X389532Y150701D01*
X389619Y150679D01*
X389704Y150654D01*
X389789Y150626D01*
X389872Y150593D01*
X389954Y150557D01*
X390034Y150518D01*
X390112Y150475D01*
X390188Y150429D01*
X390263Y150379D01*
X390335Y150326D01*
X390404Y150270D01*
X390471Y150211D01*
X390536Y150150D01*
X390597Y150085D01*
X390656Y150018D01*
X390712Y149949D01*
X390765Y149877D01*
X390815Y149802D01*
X390861Y149726D01*
X390904Y149648D01*
X390943Y149568D01*
X390979Y149486D01*
X391012Y149403D01*
X391040Y149318D01*
X391065Y149233D01*
X391087Y149146D01*
X391104Y149058D01*
X391117Y148970D01*
X391127Y148881D01*
X391133Y148792D01*
X391135Y148703D01*
X391133Y148614D01*
X391127Y148525D01*
X391117Y148436D01*
X391104Y148348D01*
X391087Y148260D01*
X391065Y148173D01*
X391040Y148088D01*
X391012Y148003D01*
X390979Y147920D01*
X390943Y147838D01*
X390904Y147758D01*
X390861Y147680D01*
X390815Y147604D01*
X390765Y147529D01*
X390712Y147457D01*
X390656Y147388D01*
X390597Y147321D01*
X390536Y147256D01*
X390471Y147195D01*
X390404Y147136D01*
X390335Y147080D01*
X390263Y147027D01*
X390188Y146977D01*
X390112Y146931D01*
X390034Y146888D01*
X389954Y146849D01*
X389872Y146813D01*
X389789Y146780D01*
X389704Y146752D01*
X389619Y146727D01*
X389532Y146705D01*
X389444Y146688D01*
X389356Y146675D01*
X389267Y146665D01*
X389178Y146659D01*
X389089Y146657D01*
X387043Y146657D01*
X389498Y146657D02*
X391135Y143383D01*
X394307Y149112D02*
X396353Y150749D01*
X396353Y143383D01*
X394307Y143383D02*
X398399Y143383D01*
D14*
X426720Y215900D02*
X436880Y215900D01*
D13*
X441653Y213233D02*
X441653Y220599D01*
X443699Y220599D01*
X443788Y220597D01*
X443877Y220591D01*
X443966Y220581D01*
X444054Y220568D01*
X444142Y220551D01*
X444229Y220529D01*
X444314Y220504D01*
X444399Y220476D01*
X444482Y220443D01*
X444564Y220407D01*
X444644Y220368D01*
X444722Y220325D01*
X444798Y220279D01*
X444873Y220229D01*
X444945Y220176D01*
X445014Y220120D01*
X445081Y220061D01*
X445146Y220000D01*
X445207Y219935D01*
X445266Y219868D01*
X445322Y219799D01*
X445375Y219727D01*
X445425Y219652D01*
X445471Y219576D01*
X445514Y219498D01*
X445553Y219418D01*
X445589Y219336D01*
X445622Y219253D01*
X445650Y219168D01*
X445675Y219083D01*
X445697Y218996D01*
X445714Y218908D01*
X445727Y218820D01*
X445737Y218731D01*
X445743Y218642D01*
X445745Y218553D01*
X445743Y218464D01*
X445737Y218375D01*
X445727Y218286D01*
X445714Y218198D01*
X445697Y218110D01*
X445675Y218023D01*
X445650Y217938D01*
X445622Y217853D01*
X445589Y217770D01*
X445553Y217688D01*
X445514Y217608D01*
X445471Y217530D01*
X445425Y217454D01*
X445375Y217379D01*
X445322Y217307D01*
X445266Y217238D01*
X445207Y217171D01*
X445146Y217106D01*
X445081Y217045D01*
X445014Y216986D01*
X444945Y216930D01*
X444873Y216877D01*
X444798Y216827D01*
X444722Y216781D01*
X444644Y216738D01*
X444564Y216699D01*
X444482Y216663D01*
X444399Y216630D01*
X444314Y216602D01*
X444229Y216577D01*
X444142Y216555D01*
X444054Y216538D01*
X443966Y216525D01*
X443877Y216515D01*
X443788Y216509D01*
X443699Y216507D01*
X441653Y216507D01*
X444108Y216507D02*
X445745Y213233D01*
X453010Y218758D02*
X453008Y218843D01*
X453002Y218928D01*
X452992Y219012D01*
X452979Y219096D01*
X452961Y219180D01*
X452940Y219262D01*
X452915Y219343D01*
X452886Y219423D01*
X452853Y219502D01*
X452817Y219579D01*
X452777Y219654D01*
X452734Y219728D01*
X452688Y219799D01*
X452638Y219868D01*
X452585Y219935D01*
X452529Y219999D01*
X452470Y220060D01*
X452409Y220119D01*
X452345Y220175D01*
X452278Y220228D01*
X452209Y220278D01*
X452138Y220324D01*
X452064Y220367D01*
X451989Y220407D01*
X451912Y220443D01*
X451833Y220476D01*
X451753Y220505D01*
X451672Y220530D01*
X451590Y220551D01*
X451506Y220569D01*
X451422Y220582D01*
X451338Y220592D01*
X451253Y220598D01*
X451168Y220600D01*
X451168Y220599D02*
X451072Y220597D01*
X450976Y220591D01*
X450881Y220581D01*
X450786Y220568D01*
X450691Y220550D01*
X450598Y220529D01*
X450505Y220504D01*
X450414Y220475D01*
X450323Y220443D01*
X450234Y220407D01*
X450147Y220367D01*
X450061Y220324D01*
X449977Y220278D01*
X449895Y220228D01*
X449815Y220174D01*
X449738Y220118D01*
X449663Y220058D01*
X449590Y219996D01*
X449520Y219930D01*
X449452Y219862D01*
X449387Y219791D01*
X449326Y219718D01*
X449267Y219642D01*
X449211Y219563D01*
X449159Y219483D01*
X449110Y219400D01*
X449064Y219316D01*
X449022Y219230D01*
X448984Y219142D01*
X448949Y219053D01*
X448917Y218962D01*
X452395Y217326D02*
X452455Y217385D01*
X452512Y217447D01*
X452567Y217511D01*
X452618Y217578D01*
X452667Y217647D01*
X452713Y217717D01*
X452756Y217790D01*
X452796Y217864D01*
X452832Y217940D01*
X452865Y218018D01*
X452895Y218097D01*
X452922Y218177D01*
X452945Y218258D01*
X452964Y218340D01*
X452980Y218422D01*
X452993Y218506D01*
X453002Y218590D01*
X453007Y218674D01*
X453009Y218758D01*
X452395Y217325D02*
X448917Y213233D01*
X453009Y213233D01*
X258111Y241173D02*
X256475Y241173D01*
X256397Y241175D01*
X256319Y241180D01*
X256242Y241190D01*
X256165Y241203D01*
X256089Y241219D01*
X256014Y241239D01*
X255940Y241263D01*
X255867Y241290D01*
X255795Y241321D01*
X255725Y241355D01*
X255657Y241392D01*
X255590Y241433D01*
X255525Y241477D01*
X255463Y241523D01*
X255403Y241573D01*
X255345Y241625D01*
X255290Y241680D01*
X255238Y241738D01*
X255188Y241798D01*
X255142Y241860D01*
X255098Y241925D01*
X255057Y241992D01*
X255020Y242060D01*
X254986Y242130D01*
X254955Y242202D01*
X254928Y242275D01*
X254904Y242349D01*
X254884Y242424D01*
X254868Y242500D01*
X254855Y242577D01*
X254845Y242654D01*
X254840Y242732D01*
X254838Y242810D01*
X254838Y246902D01*
X254840Y246982D01*
X254846Y247062D01*
X254856Y247142D01*
X254869Y247221D01*
X254887Y247300D01*
X254908Y247377D01*
X254934Y247453D01*
X254963Y247528D01*
X254995Y247602D01*
X255031Y247674D01*
X255071Y247744D01*
X255114Y247811D01*
X255160Y247877D01*
X255210Y247940D01*
X255262Y248001D01*
X255317Y248060D01*
X255376Y248115D01*
X255436Y248167D01*
X255500Y248217D01*
X255566Y248263D01*
X255633Y248306D01*
X255703Y248346D01*
X255775Y248382D01*
X255849Y248414D01*
X255923Y248443D01*
X256000Y248469D01*
X256077Y248490D01*
X256156Y248508D01*
X256235Y248521D01*
X256315Y248531D01*
X256395Y248537D01*
X256475Y248539D01*
X258111Y248539D01*
X260957Y248539D02*
X260957Y247721D01*
X260957Y248539D02*
X265049Y248539D01*
X263003Y241173D01*
X230171Y135763D02*
X228535Y135763D01*
X228457Y135765D01*
X228379Y135770D01*
X228302Y135780D01*
X228225Y135793D01*
X228149Y135809D01*
X228074Y135829D01*
X228000Y135853D01*
X227927Y135880D01*
X227855Y135911D01*
X227785Y135945D01*
X227717Y135982D01*
X227650Y136023D01*
X227585Y136067D01*
X227523Y136113D01*
X227463Y136163D01*
X227405Y136215D01*
X227350Y136270D01*
X227298Y136328D01*
X227248Y136388D01*
X227202Y136450D01*
X227158Y136515D01*
X227117Y136582D01*
X227080Y136650D01*
X227046Y136720D01*
X227015Y136792D01*
X226988Y136865D01*
X226964Y136939D01*
X226944Y137014D01*
X226928Y137090D01*
X226915Y137167D01*
X226905Y137244D01*
X226900Y137322D01*
X226898Y137400D01*
X226898Y141492D01*
X226900Y141572D01*
X226906Y141652D01*
X226916Y141732D01*
X226929Y141811D01*
X226947Y141890D01*
X226968Y141967D01*
X226994Y142043D01*
X227023Y142118D01*
X227055Y142192D01*
X227091Y142264D01*
X227131Y142334D01*
X227174Y142401D01*
X227220Y142467D01*
X227270Y142530D01*
X227322Y142591D01*
X227377Y142650D01*
X227436Y142705D01*
X227496Y142757D01*
X227560Y142807D01*
X227626Y142853D01*
X227693Y142896D01*
X227763Y142936D01*
X227835Y142972D01*
X227909Y143004D01*
X227983Y143033D01*
X228060Y143059D01*
X228137Y143080D01*
X228216Y143098D01*
X228295Y143111D01*
X228375Y143121D01*
X228455Y143127D01*
X228535Y143129D01*
X230171Y143129D01*
X233017Y139855D02*
X235472Y139855D01*
X235550Y139853D01*
X235628Y139848D01*
X235705Y139838D01*
X235782Y139825D01*
X235858Y139809D01*
X235933Y139789D01*
X236007Y139765D01*
X236080Y139738D01*
X236152Y139707D01*
X236222Y139673D01*
X236291Y139636D01*
X236357Y139595D01*
X236422Y139551D01*
X236484Y139505D01*
X236544Y139455D01*
X236602Y139403D01*
X236657Y139348D01*
X236709Y139290D01*
X236759Y139230D01*
X236805Y139168D01*
X236849Y139103D01*
X236890Y139037D01*
X236927Y138968D01*
X236961Y138898D01*
X236992Y138826D01*
X237019Y138753D01*
X237043Y138679D01*
X237063Y138604D01*
X237079Y138528D01*
X237092Y138451D01*
X237102Y138374D01*
X237107Y138296D01*
X237109Y138218D01*
X237109Y137809D01*
X237107Y137720D01*
X237101Y137631D01*
X237091Y137542D01*
X237078Y137454D01*
X237061Y137366D01*
X237039Y137279D01*
X237014Y137194D01*
X236986Y137109D01*
X236953Y137026D01*
X236917Y136944D01*
X236878Y136864D01*
X236835Y136786D01*
X236789Y136710D01*
X236739Y136635D01*
X236686Y136563D01*
X236630Y136494D01*
X236571Y136427D01*
X236510Y136362D01*
X236445Y136301D01*
X236378Y136242D01*
X236309Y136186D01*
X236237Y136133D01*
X236162Y136083D01*
X236086Y136037D01*
X236008Y135994D01*
X235928Y135955D01*
X235846Y135919D01*
X235763Y135886D01*
X235678Y135858D01*
X235593Y135833D01*
X235506Y135811D01*
X235418Y135794D01*
X235330Y135781D01*
X235241Y135771D01*
X235152Y135765D01*
X235063Y135763D01*
X234974Y135765D01*
X234885Y135771D01*
X234796Y135781D01*
X234708Y135794D01*
X234620Y135811D01*
X234533Y135833D01*
X234448Y135858D01*
X234363Y135886D01*
X234280Y135919D01*
X234198Y135955D01*
X234118Y135994D01*
X234040Y136037D01*
X233964Y136083D01*
X233889Y136133D01*
X233817Y136186D01*
X233748Y136242D01*
X233681Y136301D01*
X233616Y136362D01*
X233555Y136427D01*
X233496Y136494D01*
X233440Y136563D01*
X233387Y136635D01*
X233337Y136710D01*
X233291Y136786D01*
X233248Y136864D01*
X233209Y136944D01*
X233173Y137026D01*
X233140Y137109D01*
X233112Y137194D01*
X233087Y137279D01*
X233065Y137366D01*
X233048Y137454D01*
X233035Y137542D01*
X233025Y137631D01*
X233019Y137720D01*
X233017Y137809D01*
X233017Y139855D01*
X233019Y139969D01*
X233025Y140083D01*
X233035Y140197D01*
X233049Y140311D01*
X233067Y140424D01*
X233089Y140536D01*
X233114Y140647D01*
X233144Y140757D01*
X233177Y140867D01*
X233214Y140975D01*
X233255Y141081D01*
X233300Y141187D01*
X233348Y141290D01*
X233400Y141392D01*
X233456Y141492D01*
X233514Y141590D01*
X233577Y141686D01*
X233642Y141779D01*
X233711Y141871D01*
X233783Y141959D01*
X233858Y142046D01*
X233936Y142129D01*
X234017Y142210D01*
X234100Y142288D01*
X234187Y142363D01*
X234275Y142435D01*
X234367Y142504D01*
X234460Y142569D01*
X234556Y142631D01*
X234654Y142690D01*
X234754Y142746D01*
X234856Y142798D01*
X234959Y142846D01*
X235065Y142891D01*
X235171Y142932D01*
X235279Y142969D01*
X235389Y143002D01*
X235499Y143032D01*
X235610Y143057D01*
X235722Y143079D01*
X235835Y143097D01*
X235949Y143111D01*
X236063Y143121D01*
X236177Y143127D01*
X236291Y143129D01*
X298385Y241173D02*
X300021Y241173D01*
X298385Y241173D02*
X298307Y241175D01*
X298229Y241180D01*
X298152Y241190D01*
X298075Y241203D01*
X297999Y241219D01*
X297924Y241239D01*
X297850Y241263D01*
X297777Y241290D01*
X297705Y241321D01*
X297635Y241355D01*
X297567Y241392D01*
X297500Y241433D01*
X297435Y241477D01*
X297373Y241523D01*
X297313Y241573D01*
X297255Y241625D01*
X297200Y241680D01*
X297148Y241738D01*
X297098Y241798D01*
X297052Y241860D01*
X297008Y241925D01*
X296967Y241992D01*
X296930Y242060D01*
X296896Y242130D01*
X296865Y242202D01*
X296838Y242275D01*
X296814Y242349D01*
X296794Y242424D01*
X296778Y242500D01*
X296765Y242577D01*
X296755Y242654D01*
X296750Y242732D01*
X296748Y242810D01*
X296748Y246902D01*
X296750Y246982D01*
X296756Y247062D01*
X296766Y247142D01*
X296779Y247221D01*
X296797Y247300D01*
X296818Y247377D01*
X296844Y247453D01*
X296873Y247528D01*
X296905Y247602D01*
X296941Y247674D01*
X296981Y247744D01*
X297024Y247811D01*
X297070Y247877D01*
X297120Y247940D01*
X297172Y248001D01*
X297227Y248060D01*
X297286Y248115D01*
X297346Y248167D01*
X297410Y248217D01*
X297476Y248263D01*
X297543Y248306D01*
X297613Y248346D01*
X297685Y248382D01*
X297759Y248414D01*
X297833Y248443D01*
X297910Y248469D01*
X297987Y248490D01*
X298066Y248508D01*
X298145Y248521D01*
X298225Y248531D01*
X298305Y248537D01*
X298385Y248539D01*
X300021Y248539D01*
X305118Y248540D02*
X305203Y248538D01*
X305288Y248532D01*
X305372Y248522D01*
X305456Y248509D01*
X305540Y248491D01*
X305622Y248470D01*
X305703Y248445D01*
X305783Y248416D01*
X305862Y248383D01*
X305939Y248347D01*
X306014Y248307D01*
X306088Y248264D01*
X306159Y248218D01*
X306228Y248168D01*
X306295Y248115D01*
X306359Y248059D01*
X306420Y248000D01*
X306479Y247939D01*
X306535Y247875D01*
X306588Y247808D01*
X306638Y247739D01*
X306684Y247668D01*
X306727Y247594D01*
X306767Y247519D01*
X306803Y247442D01*
X306836Y247363D01*
X306865Y247283D01*
X306890Y247202D01*
X306911Y247120D01*
X306929Y247036D01*
X306942Y246952D01*
X306952Y246868D01*
X306958Y246783D01*
X306960Y246698D01*
X305118Y248539D02*
X305022Y248537D01*
X304926Y248531D01*
X304831Y248521D01*
X304736Y248508D01*
X304641Y248490D01*
X304548Y248469D01*
X304455Y248444D01*
X304364Y248415D01*
X304273Y248383D01*
X304184Y248347D01*
X304097Y248307D01*
X304011Y248264D01*
X303927Y248218D01*
X303845Y248168D01*
X303765Y248114D01*
X303688Y248058D01*
X303613Y247998D01*
X303540Y247936D01*
X303470Y247870D01*
X303402Y247802D01*
X303337Y247731D01*
X303276Y247658D01*
X303217Y247582D01*
X303161Y247503D01*
X303109Y247423D01*
X303060Y247340D01*
X303014Y247256D01*
X302972Y247170D01*
X302934Y247082D01*
X302899Y246993D01*
X302867Y246902D01*
X306345Y245266D02*
X306405Y245325D01*
X306462Y245387D01*
X306517Y245451D01*
X306568Y245518D01*
X306617Y245587D01*
X306663Y245657D01*
X306706Y245730D01*
X306746Y245804D01*
X306782Y245880D01*
X306815Y245958D01*
X306845Y246037D01*
X306872Y246117D01*
X306895Y246198D01*
X306914Y246280D01*
X306930Y246362D01*
X306943Y246446D01*
X306952Y246530D01*
X306957Y246614D01*
X306959Y246698D01*
X306345Y245265D02*
X302867Y241173D01*
X306959Y241173D01*
X318248Y151511D02*
X319885Y151511D01*
X318248Y151511D02*
X318170Y151513D01*
X318092Y151518D01*
X318015Y151528D01*
X317938Y151541D01*
X317862Y151557D01*
X317787Y151577D01*
X317713Y151601D01*
X317640Y151628D01*
X317568Y151659D01*
X317498Y151693D01*
X317430Y151730D01*
X317363Y151771D01*
X317298Y151815D01*
X317236Y151861D01*
X317176Y151911D01*
X317118Y151963D01*
X317063Y152018D01*
X317011Y152076D01*
X316961Y152136D01*
X316915Y152198D01*
X316871Y152263D01*
X316830Y152330D01*
X316793Y152398D01*
X316759Y152468D01*
X316728Y152540D01*
X316701Y152613D01*
X316677Y152687D01*
X316657Y152762D01*
X316641Y152838D01*
X316628Y152915D01*
X316618Y152992D01*
X316613Y153070D01*
X316611Y153148D01*
X316611Y157240D01*
X316613Y157320D01*
X316619Y157400D01*
X316629Y157480D01*
X316642Y157559D01*
X316660Y157638D01*
X316681Y157715D01*
X316707Y157791D01*
X316736Y157866D01*
X316768Y157940D01*
X316804Y158012D01*
X316844Y158082D01*
X316887Y158149D01*
X316933Y158215D01*
X316983Y158278D01*
X317035Y158339D01*
X317090Y158398D01*
X317149Y158453D01*
X317209Y158505D01*
X317273Y158555D01*
X317339Y158601D01*
X317406Y158644D01*
X317476Y158684D01*
X317548Y158720D01*
X317622Y158752D01*
X317696Y158781D01*
X317773Y158807D01*
X317850Y158828D01*
X317929Y158846D01*
X318008Y158859D01*
X318088Y158869D01*
X318168Y158875D01*
X318248Y158877D01*
X319885Y158877D01*
X324367Y158877D02*
X322730Y153148D01*
X326822Y153148D01*
X325595Y154785D02*
X325595Y151511D01*
X198421Y135763D02*
X196785Y135763D01*
X196707Y135765D01*
X196629Y135770D01*
X196552Y135780D01*
X196475Y135793D01*
X196399Y135809D01*
X196324Y135829D01*
X196250Y135853D01*
X196177Y135880D01*
X196105Y135911D01*
X196035Y135945D01*
X195967Y135982D01*
X195900Y136023D01*
X195835Y136067D01*
X195773Y136113D01*
X195713Y136163D01*
X195655Y136215D01*
X195600Y136270D01*
X195548Y136328D01*
X195498Y136388D01*
X195452Y136450D01*
X195408Y136515D01*
X195367Y136582D01*
X195330Y136650D01*
X195296Y136720D01*
X195265Y136792D01*
X195238Y136865D01*
X195214Y136939D01*
X195194Y137014D01*
X195178Y137090D01*
X195165Y137167D01*
X195155Y137244D01*
X195150Y137322D01*
X195148Y137400D01*
X195148Y141492D01*
X195150Y141572D01*
X195156Y141652D01*
X195166Y141732D01*
X195179Y141811D01*
X195197Y141890D01*
X195218Y141967D01*
X195244Y142043D01*
X195273Y142118D01*
X195305Y142192D01*
X195341Y142264D01*
X195381Y142334D01*
X195424Y142401D01*
X195470Y142467D01*
X195520Y142530D01*
X195572Y142591D01*
X195627Y142650D01*
X195686Y142705D01*
X195746Y142757D01*
X195810Y142807D01*
X195876Y142853D01*
X195943Y142896D01*
X196013Y142936D01*
X196085Y142972D01*
X196159Y143004D01*
X196233Y143033D01*
X196310Y143059D01*
X196387Y143080D01*
X196466Y143098D01*
X196545Y143111D01*
X196625Y143121D01*
X196705Y143127D01*
X196785Y143129D01*
X198421Y143129D01*
X201267Y135763D02*
X203313Y135763D01*
X203402Y135765D01*
X203491Y135771D01*
X203580Y135781D01*
X203668Y135794D01*
X203756Y135811D01*
X203843Y135833D01*
X203928Y135858D01*
X204013Y135886D01*
X204096Y135919D01*
X204178Y135955D01*
X204258Y135994D01*
X204336Y136037D01*
X204412Y136083D01*
X204487Y136133D01*
X204559Y136186D01*
X204628Y136242D01*
X204695Y136301D01*
X204760Y136362D01*
X204821Y136427D01*
X204880Y136494D01*
X204936Y136563D01*
X204989Y136635D01*
X205039Y136710D01*
X205085Y136786D01*
X205128Y136864D01*
X205167Y136944D01*
X205203Y137026D01*
X205236Y137109D01*
X205264Y137194D01*
X205289Y137279D01*
X205311Y137366D01*
X205328Y137454D01*
X205341Y137542D01*
X205351Y137631D01*
X205357Y137720D01*
X205359Y137809D01*
X205357Y137898D01*
X205351Y137987D01*
X205341Y138076D01*
X205328Y138164D01*
X205311Y138252D01*
X205289Y138339D01*
X205264Y138424D01*
X205236Y138509D01*
X205203Y138592D01*
X205167Y138674D01*
X205128Y138754D01*
X205085Y138832D01*
X205039Y138908D01*
X204989Y138983D01*
X204936Y139055D01*
X204880Y139124D01*
X204821Y139191D01*
X204760Y139256D01*
X204695Y139317D01*
X204628Y139376D01*
X204559Y139432D01*
X204487Y139485D01*
X204412Y139535D01*
X204336Y139581D01*
X204258Y139624D01*
X204178Y139663D01*
X204096Y139699D01*
X204013Y139732D01*
X203928Y139760D01*
X203843Y139785D01*
X203756Y139807D01*
X203668Y139824D01*
X203580Y139837D01*
X203491Y139847D01*
X203402Y139853D01*
X203313Y139855D01*
X203722Y143129D02*
X201267Y143129D01*
X203722Y143129D02*
X203801Y143127D01*
X203880Y143121D01*
X203959Y143112D01*
X204037Y143099D01*
X204114Y143081D01*
X204190Y143061D01*
X204265Y143036D01*
X204339Y143008D01*
X204412Y142977D01*
X204483Y142941D01*
X204552Y142903D01*
X204619Y142861D01*
X204684Y142816D01*
X204747Y142768D01*
X204808Y142717D01*
X204865Y142663D01*
X204921Y142607D01*
X204973Y142548D01*
X205023Y142486D01*
X205069Y142422D01*
X205113Y142356D01*
X205153Y142288D01*
X205189Y142218D01*
X205223Y142146D01*
X205253Y142072D01*
X205279Y141998D01*
X205302Y141922D01*
X205320Y141845D01*
X205336Y141768D01*
X205347Y141689D01*
X205355Y141611D01*
X205359Y141532D01*
X205359Y141452D01*
X205355Y141373D01*
X205347Y141295D01*
X205336Y141216D01*
X205320Y141139D01*
X205302Y141062D01*
X205279Y140986D01*
X205253Y140912D01*
X205223Y140838D01*
X205189Y140766D01*
X205153Y140696D01*
X205113Y140628D01*
X205069Y140562D01*
X205023Y140498D01*
X204973Y140436D01*
X204921Y140377D01*
X204865Y140321D01*
X204808Y140267D01*
X204747Y140216D01*
X204684Y140168D01*
X204619Y140123D01*
X204552Y140081D01*
X204483Y140043D01*
X204412Y140007D01*
X204339Y139976D01*
X204265Y139948D01*
X204190Y139923D01*
X204114Y139903D01*
X204037Y139885D01*
X203959Y139872D01*
X203880Y139863D01*
X203801Y139857D01*
X203722Y139855D01*
X202085Y139855D01*
D14*
X458550Y173300D02*
X468550Y173300D01*
X468550Y156900D02*
X458550Y156900D01*
X469500Y155650D02*
X469502Y155681D01*
X469508Y155712D01*
X469518Y155742D01*
X469531Y155770D01*
X469548Y155797D01*
X469568Y155821D01*
X469591Y155843D01*
X469616Y155861D01*
X469644Y155876D01*
X469673Y155888D01*
X469703Y155896D01*
X469734Y155900D01*
X469766Y155900D01*
X469797Y155896D01*
X469827Y155888D01*
X469856Y155876D01*
X469884Y155861D01*
X469909Y155843D01*
X469932Y155821D01*
X469952Y155797D01*
X469969Y155770D01*
X469982Y155742D01*
X469992Y155712D01*
X469998Y155681D01*
X470000Y155650D01*
X469998Y155619D01*
X469992Y155588D01*
X469982Y155558D01*
X469969Y155530D01*
X469952Y155503D01*
X469932Y155479D01*
X469909Y155457D01*
X469884Y155439D01*
X469856Y155424D01*
X469827Y155412D01*
X469797Y155404D01*
X469766Y155400D01*
X469734Y155400D01*
X469703Y155404D01*
X469673Y155412D01*
X469644Y155424D01*
X469616Y155439D01*
X469591Y155457D01*
X469568Y155479D01*
X469548Y155503D01*
X469531Y155530D01*
X469518Y155558D01*
X469508Y155588D01*
X469502Y155619D01*
X469500Y155650D01*
X455230Y176535D02*
X455230Y185425D01*
X454243Y176535D02*
X456218Y176535D01*
X456218Y185425D02*
X454243Y185425D01*
X462018Y176535D02*
X463993Y176535D01*
X462018Y176535D02*
X461932Y176537D01*
X461846Y176543D01*
X461760Y176552D01*
X461675Y176565D01*
X461590Y176582D01*
X461507Y176602D01*
X461424Y176626D01*
X461342Y176654D01*
X461262Y176685D01*
X461183Y176720D01*
X461106Y176758D01*
X461030Y176800D01*
X460956Y176844D01*
X460885Y176892D01*
X460815Y176943D01*
X460748Y176997D01*
X460683Y177054D01*
X460621Y177114D01*
X460561Y177176D01*
X460504Y177241D01*
X460450Y177308D01*
X460399Y177378D01*
X460351Y177449D01*
X460307Y177523D01*
X460265Y177599D01*
X460227Y177676D01*
X460192Y177755D01*
X460161Y177835D01*
X460133Y177917D01*
X460109Y178000D01*
X460089Y178083D01*
X460072Y178168D01*
X460059Y178253D01*
X460050Y178339D01*
X460044Y178425D01*
X460042Y178511D01*
X460042Y183449D01*
X460044Y183538D01*
X460050Y183626D01*
X460060Y183714D01*
X460074Y183802D01*
X460092Y183889D01*
X460113Y183975D01*
X460139Y184060D01*
X460168Y184143D01*
X460201Y184226D01*
X460238Y184306D01*
X460278Y184385D01*
X460322Y184462D01*
X460369Y184538D01*
X460419Y184610D01*
X460473Y184681D01*
X460530Y184749D01*
X460590Y184815D01*
X460652Y184877D01*
X460718Y184937D01*
X460786Y184994D01*
X460857Y185048D01*
X460929Y185098D01*
X461004Y185145D01*
X461082Y185189D01*
X461161Y185229D01*
X461241Y185266D01*
X461324Y185299D01*
X461407Y185328D01*
X461492Y185354D01*
X461578Y185375D01*
X461665Y185393D01*
X461753Y185407D01*
X461841Y185417D01*
X461929Y185423D01*
X462018Y185425D01*
X463993Y185425D01*
X467696Y183449D02*
X470166Y185425D01*
X470166Y176535D01*
X472635Y176535D02*
X467696Y176535D01*
X422865Y161925D02*
X420889Y161925D01*
X420803Y161927D01*
X420717Y161933D01*
X420631Y161942D01*
X420546Y161955D01*
X420461Y161972D01*
X420378Y161992D01*
X420295Y162016D01*
X420213Y162044D01*
X420133Y162075D01*
X420054Y162110D01*
X419977Y162148D01*
X419901Y162190D01*
X419827Y162234D01*
X419756Y162282D01*
X419686Y162333D01*
X419619Y162387D01*
X419554Y162444D01*
X419492Y162504D01*
X419432Y162566D01*
X419375Y162631D01*
X419321Y162698D01*
X419270Y162768D01*
X419222Y162839D01*
X419178Y162913D01*
X419136Y162989D01*
X419098Y163066D01*
X419063Y163145D01*
X419032Y163225D01*
X419004Y163307D01*
X418980Y163390D01*
X418960Y163473D01*
X418943Y163558D01*
X418930Y163643D01*
X418921Y163729D01*
X418915Y163815D01*
X418913Y163901D01*
X418914Y163901D02*
X418914Y168839D01*
X418913Y168839D02*
X418915Y168928D01*
X418921Y169016D01*
X418931Y169104D01*
X418945Y169192D01*
X418963Y169279D01*
X418984Y169365D01*
X419010Y169450D01*
X419039Y169533D01*
X419072Y169616D01*
X419109Y169696D01*
X419149Y169775D01*
X419193Y169852D01*
X419240Y169928D01*
X419290Y170000D01*
X419344Y170071D01*
X419401Y170139D01*
X419461Y170205D01*
X419523Y170267D01*
X419589Y170327D01*
X419657Y170384D01*
X419728Y170438D01*
X419800Y170488D01*
X419875Y170535D01*
X419953Y170579D01*
X420032Y170619D01*
X420112Y170656D01*
X420195Y170689D01*
X420278Y170718D01*
X420363Y170744D01*
X420449Y170765D01*
X420536Y170783D01*
X420624Y170797D01*
X420712Y170807D01*
X420800Y170813D01*
X420889Y170815D01*
X422865Y170815D01*
X426568Y161925D02*
X429531Y161925D01*
X429620Y161927D01*
X429708Y161933D01*
X429796Y161943D01*
X429884Y161957D01*
X429971Y161975D01*
X430057Y161996D01*
X430142Y162022D01*
X430225Y162051D01*
X430308Y162084D01*
X430388Y162121D01*
X430467Y162161D01*
X430544Y162205D01*
X430620Y162252D01*
X430692Y162302D01*
X430763Y162356D01*
X430831Y162413D01*
X430897Y162473D01*
X430959Y162535D01*
X431019Y162601D01*
X431076Y162669D01*
X431130Y162740D01*
X431180Y162812D01*
X431227Y162887D01*
X431271Y162965D01*
X431311Y163044D01*
X431348Y163124D01*
X431381Y163207D01*
X431410Y163290D01*
X431436Y163375D01*
X431457Y163461D01*
X431475Y163548D01*
X431489Y163636D01*
X431499Y163724D01*
X431505Y163812D01*
X431507Y163901D01*
X431506Y163901D02*
X431506Y164888D01*
X431507Y164888D02*
X431505Y164974D01*
X431499Y165060D01*
X431490Y165146D01*
X431477Y165231D01*
X431460Y165316D01*
X431440Y165399D01*
X431416Y165482D01*
X431388Y165564D01*
X431357Y165644D01*
X431322Y165723D01*
X431284Y165800D01*
X431242Y165876D01*
X431198Y165950D01*
X431150Y166021D01*
X431099Y166091D01*
X431045Y166158D01*
X430988Y166223D01*
X430928Y166285D01*
X430866Y166345D01*
X430801Y166402D01*
X430734Y166456D01*
X430664Y166507D01*
X430593Y166555D01*
X430519Y166599D01*
X430443Y166641D01*
X430366Y166679D01*
X430287Y166714D01*
X430207Y166745D01*
X430125Y166773D01*
X430042Y166797D01*
X429959Y166817D01*
X429874Y166834D01*
X429789Y166847D01*
X429703Y166856D01*
X429617Y166862D01*
X429531Y166864D01*
X426568Y166864D01*
X426568Y170815D01*
X431506Y170815D01*
D17*
X624380Y112800D02*
X624380Y112801D01*
X624380Y115800D01*
X627380Y118800D02*
X627380Y236800D01*
X624380Y239800D02*
X624380Y242800D01*
X543380Y242800D01*
X505380Y242800D02*
X488380Y242800D01*
X488380Y216800D01*
X488380Y138800D02*
X488380Y112800D01*
X505380Y112800D01*
X543380Y112800D02*
X624380Y112800D01*
X624380Y112801D02*
X624487Y112799D01*
X624594Y112793D01*
X624701Y112784D01*
X624807Y112770D01*
X624913Y112753D01*
X625018Y112732D01*
X625122Y112708D01*
X625225Y112679D01*
X625327Y112647D01*
X625428Y112612D01*
X625528Y112573D01*
X625626Y112530D01*
X625723Y112484D01*
X625818Y112434D01*
X625911Y112381D01*
X626002Y112325D01*
X626091Y112265D01*
X626178Y112203D01*
X626262Y112137D01*
X626345Y112068D01*
X626424Y111997D01*
X626501Y111922D01*
X626576Y111845D01*
X626647Y111766D01*
X626716Y111683D01*
X626782Y111599D01*
X626844Y111512D01*
X626904Y111423D01*
X626960Y111332D01*
X627013Y111239D01*
X627063Y111144D01*
X627109Y111047D01*
X627152Y110949D01*
X627191Y110849D01*
X627226Y110748D01*
X627258Y110646D01*
X627287Y110543D01*
X627311Y110439D01*
X627332Y110334D01*
X627349Y110228D01*
X627363Y110122D01*
X627372Y110015D01*
X627378Y109908D01*
X627380Y109801D01*
X627380Y109800D02*
X627380Y107800D01*
X624380Y115800D02*
X624382Y115907D01*
X624388Y116014D01*
X624397Y116121D01*
X624411Y116227D01*
X624428Y116333D01*
X624449Y116438D01*
X624473Y116542D01*
X624502Y116645D01*
X624534Y116747D01*
X624569Y116848D01*
X624608Y116948D01*
X624651Y117046D01*
X624697Y117143D01*
X624747Y117238D01*
X624800Y117331D01*
X624856Y117422D01*
X624916Y117511D01*
X624978Y117598D01*
X625044Y117682D01*
X625113Y117765D01*
X625184Y117844D01*
X625259Y117921D01*
X625336Y117996D01*
X625415Y118067D01*
X625498Y118136D01*
X625582Y118202D01*
X625669Y118264D01*
X625758Y118324D01*
X625849Y118380D01*
X625942Y118433D01*
X626037Y118483D01*
X626134Y118529D01*
X626232Y118572D01*
X626332Y118611D01*
X626433Y118646D01*
X626535Y118678D01*
X626638Y118707D01*
X626742Y118731D01*
X626847Y118752D01*
X626953Y118769D01*
X627059Y118783D01*
X627166Y118792D01*
X627273Y118798D01*
X627380Y118800D01*
X624380Y242800D02*
X624487Y242802D01*
X624594Y242808D01*
X624701Y242817D01*
X624807Y242831D01*
X624913Y242848D01*
X625018Y242869D01*
X625122Y242893D01*
X625225Y242922D01*
X625327Y242954D01*
X625428Y242989D01*
X625528Y243028D01*
X625626Y243071D01*
X625723Y243117D01*
X625818Y243167D01*
X625911Y243220D01*
X626002Y243276D01*
X626091Y243336D01*
X626178Y243398D01*
X626262Y243464D01*
X626345Y243533D01*
X626424Y243604D01*
X626501Y243679D01*
X626576Y243756D01*
X626647Y243835D01*
X626716Y243918D01*
X626782Y244002D01*
X626844Y244089D01*
X626904Y244178D01*
X626960Y244269D01*
X627013Y244362D01*
X627063Y244457D01*
X627109Y244554D01*
X627152Y244652D01*
X627191Y244752D01*
X627226Y244853D01*
X627258Y244955D01*
X627287Y245058D01*
X627311Y245162D01*
X627332Y245267D01*
X627349Y245373D01*
X627363Y245479D01*
X627372Y245586D01*
X627378Y245693D01*
X627380Y245800D01*
X624379Y239800D02*
X624381Y239693D01*
X624387Y239586D01*
X624396Y239479D01*
X624410Y239373D01*
X624427Y239267D01*
X624448Y239162D01*
X624472Y239058D01*
X624501Y238955D01*
X624533Y238853D01*
X624568Y238752D01*
X624608Y238652D01*
X624650Y238554D01*
X624697Y238457D01*
X624746Y238362D01*
X624799Y238269D01*
X624856Y238178D01*
X624915Y238089D01*
X624978Y238002D01*
X625044Y237918D01*
X625112Y237835D01*
X625184Y237756D01*
X625258Y237679D01*
X625335Y237604D01*
X625415Y237533D01*
X625497Y237464D01*
X625582Y237398D01*
X625669Y237336D01*
X625758Y237276D01*
X625849Y237220D01*
X625942Y237167D01*
X626037Y237117D01*
X626134Y237071D01*
X626232Y237028D01*
X626331Y236989D01*
X626432Y236954D01*
X626535Y236922D01*
X626638Y236893D01*
X626742Y236869D01*
X626847Y236848D01*
X626953Y236831D01*
X627059Y236817D01*
X627166Y236808D01*
X627273Y236802D01*
X627380Y236800D01*
X607380Y137800D02*
X547380Y127800D01*
X607380Y137800D02*
X607380Y147800D01*
X547380Y157800D01*
X547380Y227800D02*
X607380Y217800D01*
X607380Y207800D01*
X547380Y197800D01*
X627380Y245800D02*
X627380Y247800D01*
X488380Y208800D02*
X488380Y191800D01*
X488380Y163800D02*
X488380Y146800D01*
X488380Y171800D02*
X488380Y183800D01*
D14*
X611505Y130598D02*
X620395Y127635D01*
X620395Y133562D02*
X611505Y130598D01*
X618173Y132821D02*
X618173Y128376D01*
X620395Y137693D02*
X611505Y137693D01*
X616444Y140657D01*
X611505Y143620D01*
X620395Y143620D01*
X620395Y148724D02*
X611505Y148724D01*
X611505Y151193D01*
X611507Y151291D01*
X611513Y151389D01*
X611523Y151487D01*
X611536Y151584D01*
X611554Y151681D01*
X611575Y151777D01*
X611600Y151871D01*
X611629Y151965D01*
X611661Y152058D01*
X611698Y152149D01*
X611737Y152239D01*
X611781Y152327D01*
X611828Y152413D01*
X611878Y152498D01*
X611931Y152580D01*
X611988Y152660D01*
X612048Y152738D01*
X612111Y152813D01*
X612177Y152886D01*
X612246Y152956D01*
X612317Y153023D01*
X612391Y153088D01*
X612468Y153149D01*
X612547Y153208D01*
X612628Y153263D01*
X612711Y153315D01*
X612797Y153363D01*
X612884Y153408D01*
X612973Y153450D01*
X613063Y153488D01*
X613155Y153522D01*
X613248Y153553D01*
X613343Y153580D01*
X613438Y153603D01*
X613535Y153623D01*
X613631Y153638D01*
X613729Y153650D01*
X613827Y153658D01*
X613925Y153662D01*
X614023Y153662D01*
X614121Y153658D01*
X614219Y153650D01*
X614317Y153638D01*
X614413Y153623D01*
X614510Y153603D01*
X614605Y153580D01*
X614700Y153553D01*
X614793Y153522D01*
X614885Y153488D01*
X614975Y153450D01*
X615064Y153408D01*
X615151Y153363D01*
X615237Y153315D01*
X615320Y153263D01*
X615401Y153208D01*
X615480Y153149D01*
X615557Y153088D01*
X615631Y153023D01*
X615702Y152956D01*
X615771Y152886D01*
X615837Y152813D01*
X615900Y152738D01*
X615960Y152660D01*
X616017Y152580D01*
X616070Y152498D01*
X616120Y152413D01*
X616167Y152327D01*
X616211Y152239D01*
X616250Y152149D01*
X616287Y152058D01*
X616319Y151965D01*
X616348Y151871D01*
X616373Y151777D01*
X616394Y151681D01*
X616412Y151584D01*
X616425Y151487D01*
X616435Y151389D01*
X616441Y151291D01*
X616443Y151193D01*
X616444Y151193D02*
X616444Y148724D01*
X612493Y162266D02*
X611505Y162266D01*
X611505Y167205D01*
X620395Y164736D01*
X617926Y171411D02*
X617828Y171413D01*
X617730Y171419D01*
X617632Y171429D01*
X617535Y171442D01*
X617438Y171460D01*
X617342Y171481D01*
X617248Y171506D01*
X617154Y171535D01*
X617061Y171567D01*
X616970Y171604D01*
X616880Y171643D01*
X616792Y171687D01*
X616706Y171734D01*
X616621Y171784D01*
X616539Y171837D01*
X616459Y171894D01*
X616381Y171954D01*
X616306Y172017D01*
X616233Y172083D01*
X616163Y172152D01*
X616096Y172223D01*
X616031Y172297D01*
X615970Y172374D01*
X615911Y172453D01*
X615856Y172534D01*
X615804Y172617D01*
X615756Y172703D01*
X615711Y172790D01*
X615669Y172879D01*
X615631Y172969D01*
X615597Y173061D01*
X615566Y173154D01*
X615539Y173249D01*
X615516Y173344D01*
X615496Y173441D01*
X615481Y173537D01*
X615469Y173635D01*
X615461Y173733D01*
X615457Y173831D01*
X615457Y173929D01*
X615461Y174027D01*
X615469Y174125D01*
X615481Y174223D01*
X615496Y174319D01*
X615516Y174416D01*
X615539Y174511D01*
X615566Y174606D01*
X615597Y174699D01*
X615631Y174791D01*
X615669Y174881D01*
X615711Y174970D01*
X615756Y175057D01*
X615804Y175143D01*
X615856Y175226D01*
X615911Y175307D01*
X615970Y175386D01*
X616031Y175463D01*
X616096Y175537D01*
X616163Y175608D01*
X616233Y175677D01*
X616306Y175743D01*
X616381Y175806D01*
X616459Y175866D01*
X616539Y175923D01*
X616621Y175976D01*
X616706Y176026D01*
X616792Y176073D01*
X616880Y176117D01*
X616970Y176156D01*
X617061Y176193D01*
X617154Y176225D01*
X617248Y176254D01*
X617342Y176279D01*
X617438Y176300D01*
X617535Y176318D01*
X617632Y176331D01*
X617730Y176341D01*
X617828Y176347D01*
X617926Y176349D01*
X618024Y176347D01*
X618122Y176341D01*
X618220Y176331D01*
X618317Y176318D01*
X618414Y176300D01*
X618510Y176279D01*
X618604Y176254D01*
X618698Y176225D01*
X618791Y176193D01*
X618882Y176156D01*
X618972Y176117D01*
X619060Y176073D01*
X619146Y176026D01*
X619231Y175976D01*
X619313Y175923D01*
X619393Y175866D01*
X619471Y175806D01*
X619546Y175743D01*
X619619Y175677D01*
X619689Y175608D01*
X619756Y175537D01*
X619821Y175463D01*
X619882Y175386D01*
X619941Y175307D01*
X619996Y175226D01*
X620048Y175143D01*
X620096Y175057D01*
X620141Y174970D01*
X620183Y174881D01*
X620221Y174791D01*
X620255Y174699D01*
X620286Y174606D01*
X620313Y174511D01*
X620336Y174416D01*
X620356Y174319D01*
X620371Y174223D01*
X620383Y174125D01*
X620391Y174027D01*
X620395Y173929D01*
X620395Y173831D01*
X620391Y173733D01*
X620383Y173635D01*
X620371Y173537D01*
X620356Y173441D01*
X620336Y173344D01*
X620313Y173249D01*
X620286Y173154D01*
X620255Y173061D01*
X620221Y172969D01*
X620183Y172879D01*
X620141Y172790D01*
X620096Y172703D01*
X620048Y172617D01*
X619996Y172534D01*
X619941Y172453D01*
X619882Y172374D01*
X619821Y172297D01*
X619756Y172223D01*
X619689Y172152D01*
X619619Y172083D01*
X619546Y172017D01*
X619471Y171954D01*
X619393Y171894D01*
X619313Y171837D01*
X619231Y171784D01*
X619146Y171734D01*
X619060Y171687D01*
X618972Y171643D01*
X618882Y171604D01*
X618791Y171567D01*
X618698Y171535D01*
X618604Y171506D01*
X618510Y171481D01*
X618414Y171460D01*
X618317Y171442D01*
X618220Y171429D01*
X618122Y171419D01*
X618024Y171413D01*
X617926Y171411D01*
X613481Y171904D02*
X613394Y171906D01*
X613306Y171912D01*
X613219Y171921D01*
X613133Y171935D01*
X613047Y171952D01*
X612963Y171973D01*
X612879Y171998D01*
X612796Y172027D01*
X612715Y172059D01*
X612635Y172094D01*
X612557Y172133D01*
X612480Y172176D01*
X612406Y172222D01*
X612334Y172271D01*
X612264Y172323D01*
X612196Y172379D01*
X612131Y172437D01*
X612068Y172498D01*
X612009Y172562D01*
X611952Y172629D01*
X611898Y172697D01*
X611847Y172769D01*
X611800Y172842D01*
X611755Y172917D01*
X611714Y172995D01*
X611677Y173074D01*
X611643Y173154D01*
X611613Y173236D01*
X611586Y173319D01*
X611563Y173404D01*
X611544Y173489D01*
X611529Y173575D01*
X611517Y173662D01*
X611509Y173749D01*
X611505Y173836D01*
X611505Y173924D01*
X611509Y174011D01*
X611517Y174098D01*
X611529Y174185D01*
X611544Y174271D01*
X611563Y174356D01*
X611586Y174441D01*
X611613Y174524D01*
X611643Y174606D01*
X611677Y174686D01*
X611714Y174765D01*
X611755Y174843D01*
X611800Y174918D01*
X611847Y174991D01*
X611898Y175063D01*
X611952Y175131D01*
X612009Y175198D01*
X612068Y175262D01*
X612131Y175323D01*
X612196Y175381D01*
X612264Y175437D01*
X612334Y175489D01*
X612406Y175538D01*
X612480Y175584D01*
X612557Y175627D01*
X612635Y175666D01*
X612715Y175701D01*
X612796Y175733D01*
X612879Y175762D01*
X612963Y175787D01*
X613047Y175808D01*
X613133Y175825D01*
X613219Y175839D01*
X613306Y175848D01*
X613394Y175854D01*
X613481Y175856D01*
X613568Y175854D01*
X613656Y175848D01*
X613743Y175839D01*
X613829Y175825D01*
X613915Y175808D01*
X613999Y175787D01*
X614083Y175762D01*
X614166Y175733D01*
X614247Y175701D01*
X614327Y175666D01*
X614405Y175627D01*
X614482Y175584D01*
X614556Y175538D01*
X614628Y175489D01*
X614698Y175437D01*
X614766Y175381D01*
X614831Y175323D01*
X614894Y175262D01*
X614953Y175198D01*
X615010Y175131D01*
X615064Y175063D01*
X615115Y174991D01*
X615162Y174918D01*
X615207Y174843D01*
X615248Y174765D01*
X615285Y174686D01*
X615319Y174606D01*
X615349Y174524D01*
X615376Y174441D01*
X615399Y174356D01*
X615418Y174271D01*
X615433Y174185D01*
X615445Y174098D01*
X615453Y174011D01*
X615457Y173924D01*
X615457Y173836D01*
X615453Y173749D01*
X615445Y173662D01*
X615433Y173575D01*
X615418Y173489D01*
X615399Y173404D01*
X615376Y173319D01*
X615349Y173236D01*
X615319Y173154D01*
X615285Y173074D01*
X615248Y172995D01*
X615207Y172917D01*
X615162Y172842D01*
X615115Y172769D01*
X615064Y172697D01*
X615010Y172629D01*
X614953Y172562D01*
X614894Y172498D01*
X614831Y172437D01*
X614766Y172379D01*
X614698Y172323D01*
X614628Y172271D01*
X614556Y172222D01*
X614482Y172176D01*
X614405Y172133D01*
X614327Y172094D01*
X614247Y172059D01*
X614166Y172027D01*
X614083Y171998D01*
X613999Y171973D01*
X613915Y171952D01*
X613829Y171935D01*
X613743Y171921D01*
X613656Y171912D01*
X613568Y171906D01*
X613481Y171904D01*
X612493Y180554D02*
X611505Y180554D01*
X611505Y185493D01*
X620395Y183024D01*
X615456Y189698D02*
X615456Y192662D01*
X615458Y192748D01*
X615464Y192834D01*
X615473Y192920D01*
X615486Y193005D01*
X615503Y193090D01*
X615523Y193173D01*
X615547Y193256D01*
X615575Y193338D01*
X615606Y193418D01*
X615641Y193497D01*
X615679Y193574D01*
X615721Y193650D01*
X615765Y193724D01*
X615813Y193795D01*
X615864Y193865D01*
X615918Y193932D01*
X615975Y193997D01*
X616035Y194059D01*
X616097Y194119D01*
X616162Y194176D01*
X616229Y194230D01*
X616299Y194281D01*
X616370Y194329D01*
X616444Y194373D01*
X616520Y194415D01*
X616597Y194453D01*
X616676Y194488D01*
X616756Y194519D01*
X616838Y194547D01*
X616921Y194571D01*
X617004Y194591D01*
X617089Y194608D01*
X617174Y194621D01*
X617260Y194630D01*
X617346Y194636D01*
X617432Y194638D01*
X617432Y194637D02*
X617926Y194637D01*
X618024Y194635D01*
X618122Y194629D01*
X618220Y194619D01*
X618317Y194606D01*
X618414Y194588D01*
X618510Y194567D01*
X618604Y194542D01*
X618698Y194513D01*
X618791Y194481D01*
X618882Y194444D01*
X618972Y194405D01*
X619060Y194361D01*
X619146Y194314D01*
X619231Y194264D01*
X619313Y194211D01*
X619393Y194154D01*
X619471Y194094D01*
X619546Y194031D01*
X619619Y193965D01*
X619689Y193896D01*
X619756Y193825D01*
X619821Y193751D01*
X619882Y193674D01*
X619941Y193595D01*
X619996Y193514D01*
X620048Y193431D01*
X620096Y193345D01*
X620141Y193258D01*
X620183Y193169D01*
X620221Y193079D01*
X620255Y192987D01*
X620286Y192894D01*
X620313Y192799D01*
X620336Y192704D01*
X620356Y192607D01*
X620371Y192511D01*
X620383Y192413D01*
X620391Y192315D01*
X620395Y192217D01*
X620395Y192119D01*
X620391Y192021D01*
X620383Y191923D01*
X620371Y191825D01*
X620356Y191729D01*
X620336Y191632D01*
X620313Y191537D01*
X620286Y191442D01*
X620255Y191349D01*
X620221Y191257D01*
X620183Y191167D01*
X620141Y191078D01*
X620096Y190991D01*
X620048Y190905D01*
X619996Y190822D01*
X619941Y190741D01*
X619882Y190662D01*
X619821Y190585D01*
X619756Y190511D01*
X619689Y190440D01*
X619619Y190371D01*
X619546Y190305D01*
X619471Y190242D01*
X619393Y190182D01*
X619313Y190125D01*
X619231Y190072D01*
X619146Y190022D01*
X619060Y189975D01*
X618972Y189931D01*
X618882Y189892D01*
X618791Y189855D01*
X618698Y189823D01*
X618604Y189794D01*
X618510Y189769D01*
X618414Y189748D01*
X618317Y189730D01*
X618220Y189717D01*
X618122Y189707D01*
X618024Y189701D01*
X617926Y189699D01*
X617926Y189698D02*
X615456Y189698D01*
X615456Y189699D02*
X615332Y189701D01*
X615208Y189707D01*
X615084Y189717D01*
X614961Y189730D01*
X614838Y189748D01*
X614716Y189769D01*
X614594Y189794D01*
X614473Y189823D01*
X614354Y189856D01*
X614235Y189892D01*
X614118Y189933D01*
X614002Y189976D01*
X613887Y190024D01*
X613774Y190075D01*
X613662Y190130D01*
X613553Y190188D01*
X613445Y190249D01*
X613339Y190314D01*
X613235Y190382D01*
X613134Y190454D01*
X613034Y190528D01*
X612938Y190606D01*
X612843Y190686D01*
X612751Y190770D01*
X612662Y190856D01*
X612576Y190945D01*
X612492Y191037D01*
X612412Y191132D01*
X612334Y191228D01*
X612260Y191328D01*
X612188Y191429D01*
X612120Y191533D01*
X612055Y191639D01*
X611994Y191747D01*
X611936Y191856D01*
X611881Y191968D01*
X611830Y192081D01*
X611782Y192196D01*
X611739Y192312D01*
X611698Y192429D01*
X611662Y192548D01*
X611629Y192667D01*
X611600Y192788D01*
X611575Y192910D01*
X611554Y193032D01*
X611536Y193155D01*
X611523Y193278D01*
X611513Y193402D01*
X611507Y193526D01*
X611505Y193650D01*
X613481Y198842D02*
X611505Y201312D01*
X620395Y201312D01*
X620395Y203781D02*
X620395Y198842D01*
X615456Y207986D02*
X615456Y210950D01*
X615458Y211036D01*
X615464Y211122D01*
X615473Y211208D01*
X615486Y211293D01*
X615503Y211378D01*
X615523Y211461D01*
X615547Y211544D01*
X615575Y211626D01*
X615606Y211706D01*
X615641Y211785D01*
X615679Y211862D01*
X615721Y211938D01*
X615765Y212012D01*
X615813Y212083D01*
X615864Y212153D01*
X615918Y212220D01*
X615975Y212285D01*
X616035Y212347D01*
X616097Y212407D01*
X616162Y212464D01*
X616229Y212518D01*
X616299Y212569D01*
X616370Y212617D01*
X616444Y212661D01*
X616520Y212703D01*
X616597Y212741D01*
X616676Y212776D01*
X616756Y212807D01*
X616838Y212835D01*
X616921Y212859D01*
X617004Y212879D01*
X617089Y212896D01*
X617174Y212909D01*
X617260Y212918D01*
X617346Y212924D01*
X617432Y212926D01*
X617432Y212925D02*
X617926Y212925D01*
X618024Y212923D01*
X618122Y212917D01*
X618220Y212907D01*
X618317Y212894D01*
X618414Y212876D01*
X618510Y212855D01*
X618604Y212830D01*
X618698Y212801D01*
X618791Y212769D01*
X618882Y212732D01*
X618972Y212693D01*
X619060Y212649D01*
X619146Y212602D01*
X619231Y212552D01*
X619313Y212499D01*
X619393Y212442D01*
X619471Y212382D01*
X619546Y212319D01*
X619619Y212253D01*
X619689Y212184D01*
X619756Y212113D01*
X619821Y212039D01*
X619882Y211962D01*
X619941Y211883D01*
X619996Y211802D01*
X620048Y211719D01*
X620096Y211633D01*
X620141Y211546D01*
X620183Y211457D01*
X620221Y211367D01*
X620255Y211275D01*
X620286Y211182D01*
X620313Y211087D01*
X620336Y210992D01*
X620356Y210895D01*
X620371Y210799D01*
X620383Y210701D01*
X620391Y210603D01*
X620395Y210505D01*
X620395Y210407D01*
X620391Y210309D01*
X620383Y210211D01*
X620371Y210113D01*
X620356Y210017D01*
X620336Y209920D01*
X620313Y209825D01*
X620286Y209730D01*
X620255Y209637D01*
X620221Y209545D01*
X620183Y209455D01*
X620141Y209366D01*
X620096Y209279D01*
X620048Y209193D01*
X619996Y209110D01*
X619941Y209029D01*
X619882Y208950D01*
X619821Y208873D01*
X619756Y208799D01*
X619689Y208728D01*
X619619Y208659D01*
X619546Y208593D01*
X619471Y208530D01*
X619393Y208470D01*
X619313Y208413D01*
X619231Y208360D01*
X619146Y208310D01*
X619060Y208263D01*
X618972Y208219D01*
X618882Y208180D01*
X618791Y208143D01*
X618698Y208111D01*
X618604Y208082D01*
X618510Y208057D01*
X618414Y208036D01*
X618317Y208018D01*
X618220Y208005D01*
X618122Y207995D01*
X618024Y207989D01*
X617926Y207987D01*
X617926Y207986D02*
X615456Y207986D01*
X615456Y207987D02*
X615332Y207989D01*
X615208Y207995D01*
X615084Y208005D01*
X614961Y208018D01*
X614838Y208036D01*
X614716Y208057D01*
X614594Y208082D01*
X614473Y208111D01*
X614354Y208144D01*
X614235Y208180D01*
X614118Y208221D01*
X614002Y208264D01*
X613887Y208312D01*
X613774Y208363D01*
X613662Y208418D01*
X613553Y208476D01*
X613445Y208537D01*
X613339Y208602D01*
X613235Y208670D01*
X613134Y208742D01*
X613034Y208816D01*
X612938Y208894D01*
X612843Y208974D01*
X612751Y209058D01*
X612662Y209144D01*
X612576Y209233D01*
X612492Y209325D01*
X612412Y209420D01*
X612334Y209516D01*
X612260Y209616D01*
X612188Y209717D01*
X612120Y209821D01*
X612055Y209927D01*
X611994Y210035D01*
X611936Y210144D01*
X611881Y210256D01*
X611830Y210369D01*
X611782Y210484D01*
X611739Y210600D01*
X611698Y210717D01*
X611662Y210836D01*
X611629Y210955D01*
X611600Y211076D01*
X611575Y211198D01*
X611554Y211320D01*
X611536Y211443D01*
X611523Y211566D01*
X611513Y211690D01*
X611507Y211814D01*
X611505Y211938D01*
X616938Y217246D02*
X616938Y223173D01*
X613481Y227494D02*
X611505Y229963D01*
X620395Y229963D01*
X620395Y227494D02*
X620395Y232432D01*
X468466Y126144D02*
X462539Y117254D01*
X468466Y117254D02*
X462539Y126144D01*
X472177Y124168D02*
X474647Y126144D01*
X474647Y117254D01*
X477116Y117254D02*
X472177Y117254D01*
X176530Y189230D02*
X176530Y199390D01*
D13*
X176223Y203073D02*
X176223Y210439D01*
X178269Y210439D01*
X178358Y210437D01*
X178447Y210431D01*
X178536Y210421D01*
X178624Y210408D01*
X178712Y210391D01*
X178799Y210369D01*
X178884Y210344D01*
X178969Y210316D01*
X179052Y210283D01*
X179134Y210247D01*
X179214Y210208D01*
X179292Y210165D01*
X179368Y210119D01*
X179443Y210069D01*
X179515Y210016D01*
X179584Y209960D01*
X179651Y209901D01*
X179716Y209840D01*
X179777Y209775D01*
X179836Y209708D01*
X179892Y209639D01*
X179945Y209567D01*
X179995Y209492D01*
X180041Y209416D01*
X180084Y209338D01*
X180123Y209258D01*
X180159Y209176D01*
X180192Y209093D01*
X180220Y209008D01*
X180245Y208923D01*
X180267Y208836D01*
X180284Y208748D01*
X180297Y208660D01*
X180307Y208571D01*
X180313Y208482D01*
X180315Y208393D01*
X180313Y208304D01*
X180307Y208215D01*
X180297Y208126D01*
X180284Y208038D01*
X180267Y207950D01*
X180245Y207863D01*
X180220Y207778D01*
X180192Y207693D01*
X180159Y207610D01*
X180123Y207528D01*
X180084Y207448D01*
X180041Y207370D01*
X179995Y207294D01*
X179945Y207219D01*
X179892Y207147D01*
X179836Y207078D01*
X179777Y207011D01*
X179716Y206946D01*
X179651Y206885D01*
X179584Y206826D01*
X179515Y206770D01*
X179443Y206717D01*
X179368Y206667D01*
X179292Y206621D01*
X179214Y206578D01*
X179134Y206539D01*
X179052Y206503D01*
X178969Y206470D01*
X178884Y206442D01*
X178799Y206417D01*
X178712Y206395D01*
X178624Y206378D01*
X178536Y206365D01*
X178447Y206355D01*
X178358Y206349D01*
X178269Y206347D01*
X176223Y206347D01*
X178678Y206347D02*
X180315Y203073D01*
X183487Y203073D02*
X185533Y203073D01*
X185622Y203075D01*
X185711Y203081D01*
X185800Y203091D01*
X185888Y203104D01*
X185976Y203121D01*
X186063Y203143D01*
X186148Y203168D01*
X186233Y203196D01*
X186316Y203229D01*
X186398Y203265D01*
X186478Y203304D01*
X186556Y203347D01*
X186632Y203393D01*
X186707Y203443D01*
X186779Y203496D01*
X186848Y203552D01*
X186915Y203611D01*
X186980Y203672D01*
X187041Y203737D01*
X187100Y203804D01*
X187156Y203873D01*
X187209Y203945D01*
X187259Y204020D01*
X187305Y204096D01*
X187348Y204174D01*
X187387Y204254D01*
X187423Y204336D01*
X187456Y204419D01*
X187484Y204504D01*
X187509Y204589D01*
X187531Y204676D01*
X187548Y204764D01*
X187561Y204852D01*
X187571Y204941D01*
X187577Y205030D01*
X187579Y205119D01*
X187577Y205208D01*
X187571Y205297D01*
X187561Y205386D01*
X187548Y205474D01*
X187531Y205562D01*
X187509Y205649D01*
X187484Y205734D01*
X187456Y205819D01*
X187423Y205902D01*
X187387Y205984D01*
X187348Y206064D01*
X187305Y206142D01*
X187259Y206218D01*
X187209Y206293D01*
X187156Y206365D01*
X187100Y206434D01*
X187041Y206501D01*
X186980Y206566D01*
X186915Y206627D01*
X186848Y206686D01*
X186779Y206742D01*
X186707Y206795D01*
X186632Y206845D01*
X186556Y206891D01*
X186478Y206934D01*
X186398Y206973D01*
X186316Y207009D01*
X186233Y207042D01*
X186148Y207070D01*
X186063Y207095D01*
X185976Y207117D01*
X185888Y207134D01*
X185800Y207147D01*
X185711Y207157D01*
X185622Y207163D01*
X185533Y207165D01*
X185942Y210439D02*
X183487Y210439D01*
X185942Y210439D02*
X186021Y210437D01*
X186100Y210431D01*
X186179Y210422D01*
X186257Y210409D01*
X186334Y210391D01*
X186410Y210371D01*
X186485Y210346D01*
X186559Y210318D01*
X186632Y210287D01*
X186703Y210251D01*
X186772Y210213D01*
X186839Y210171D01*
X186904Y210126D01*
X186967Y210078D01*
X187028Y210027D01*
X187085Y209973D01*
X187141Y209917D01*
X187193Y209858D01*
X187243Y209796D01*
X187289Y209732D01*
X187333Y209666D01*
X187373Y209598D01*
X187409Y209528D01*
X187443Y209456D01*
X187473Y209382D01*
X187499Y209308D01*
X187522Y209232D01*
X187540Y209155D01*
X187556Y209078D01*
X187567Y208999D01*
X187575Y208921D01*
X187579Y208842D01*
X187579Y208762D01*
X187575Y208683D01*
X187567Y208605D01*
X187556Y208526D01*
X187540Y208449D01*
X187522Y208372D01*
X187499Y208296D01*
X187473Y208222D01*
X187443Y208148D01*
X187409Y208076D01*
X187373Y208006D01*
X187333Y207938D01*
X187289Y207872D01*
X187243Y207808D01*
X187193Y207746D01*
X187141Y207687D01*
X187085Y207631D01*
X187028Y207577D01*
X186967Y207526D01*
X186904Y207478D01*
X186839Y207433D01*
X186772Y207391D01*
X186703Y207353D01*
X186632Y207317D01*
X186559Y207286D01*
X186485Y207258D01*
X186410Y207233D01*
X186334Y207213D01*
X186257Y207195D01*
X186179Y207182D01*
X186100Y207173D01*
X186021Y207167D01*
X185942Y207165D01*
X184305Y207165D01*
D14*
X170180Y255270D02*
X170180Y265430D01*
D13*
X187071Y253693D02*
X194437Y253693D01*
X187071Y253693D02*
X187071Y255739D01*
X187073Y255828D01*
X187079Y255917D01*
X187089Y256006D01*
X187102Y256094D01*
X187119Y256182D01*
X187141Y256269D01*
X187166Y256354D01*
X187194Y256439D01*
X187227Y256522D01*
X187263Y256604D01*
X187302Y256684D01*
X187345Y256762D01*
X187391Y256838D01*
X187441Y256913D01*
X187494Y256985D01*
X187550Y257054D01*
X187609Y257121D01*
X187670Y257186D01*
X187735Y257247D01*
X187802Y257306D01*
X187871Y257362D01*
X187943Y257415D01*
X188018Y257465D01*
X188094Y257511D01*
X188172Y257554D01*
X188252Y257593D01*
X188334Y257629D01*
X188417Y257662D01*
X188502Y257690D01*
X188587Y257715D01*
X188674Y257737D01*
X188762Y257754D01*
X188850Y257767D01*
X188939Y257777D01*
X189028Y257783D01*
X189117Y257785D01*
X189206Y257783D01*
X189295Y257777D01*
X189384Y257767D01*
X189472Y257754D01*
X189560Y257737D01*
X189647Y257715D01*
X189732Y257690D01*
X189817Y257662D01*
X189900Y257629D01*
X189982Y257593D01*
X190062Y257554D01*
X190140Y257511D01*
X190216Y257465D01*
X190291Y257415D01*
X190363Y257362D01*
X190432Y257306D01*
X190499Y257247D01*
X190564Y257186D01*
X190625Y257121D01*
X190684Y257054D01*
X190740Y256985D01*
X190793Y256913D01*
X190843Y256838D01*
X190889Y256762D01*
X190932Y256684D01*
X190971Y256604D01*
X191007Y256522D01*
X191040Y256439D01*
X191068Y256354D01*
X191093Y256269D01*
X191115Y256182D01*
X191132Y256094D01*
X191145Y256006D01*
X191155Y255917D01*
X191161Y255828D01*
X191163Y255739D01*
X191163Y253693D01*
X191163Y256148D02*
X194437Y257785D01*
X192800Y260957D02*
X187071Y262594D01*
X192800Y260957D02*
X192800Y265049D01*
X191163Y263821D02*
X194437Y263821D01*
D14*
X214630Y265430D02*
X214630Y255270D01*
D13*
X214323Y249809D02*
X214323Y242443D01*
X214323Y249809D02*
X216369Y249809D01*
X216458Y249807D01*
X216547Y249801D01*
X216636Y249791D01*
X216724Y249778D01*
X216812Y249761D01*
X216899Y249739D01*
X216984Y249714D01*
X217069Y249686D01*
X217152Y249653D01*
X217234Y249617D01*
X217314Y249578D01*
X217392Y249535D01*
X217468Y249489D01*
X217543Y249439D01*
X217615Y249386D01*
X217684Y249330D01*
X217751Y249271D01*
X217816Y249210D01*
X217877Y249145D01*
X217936Y249078D01*
X217992Y249009D01*
X218045Y248937D01*
X218095Y248862D01*
X218141Y248786D01*
X218184Y248708D01*
X218223Y248628D01*
X218259Y248546D01*
X218292Y248463D01*
X218320Y248378D01*
X218345Y248293D01*
X218367Y248206D01*
X218384Y248118D01*
X218397Y248030D01*
X218407Y247941D01*
X218413Y247852D01*
X218415Y247763D01*
X218413Y247674D01*
X218407Y247585D01*
X218397Y247496D01*
X218384Y247408D01*
X218367Y247320D01*
X218345Y247233D01*
X218320Y247148D01*
X218292Y247063D01*
X218259Y246980D01*
X218223Y246898D01*
X218184Y246818D01*
X218141Y246740D01*
X218095Y246664D01*
X218045Y246589D01*
X217992Y246517D01*
X217936Y246448D01*
X217877Y246381D01*
X217816Y246316D01*
X217751Y246255D01*
X217684Y246196D01*
X217615Y246140D01*
X217543Y246087D01*
X217468Y246037D01*
X217392Y245991D01*
X217314Y245948D01*
X217234Y245909D01*
X217152Y245873D01*
X217069Y245840D01*
X216984Y245812D01*
X216899Y245787D01*
X216812Y245765D01*
X216724Y245748D01*
X216636Y245735D01*
X216547Y245725D01*
X216458Y245719D01*
X216369Y245717D01*
X214323Y245717D01*
X216778Y245717D02*
X218415Y242443D01*
X221587Y242443D02*
X224042Y242443D01*
X224120Y242445D01*
X224198Y242450D01*
X224275Y242460D01*
X224352Y242473D01*
X224428Y242489D01*
X224503Y242509D01*
X224577Y242533D01*
X224650Y242560D01*
X224722Y242591D01*
X224792Y242625D01*
X224861Y242662D01*
X224927Y242703D01*
X224992Y242747D01*
X225054Y242793D01*
X225114Y242843D01*
X225172Y242895D01*
X225227Y242950D01*
X225279Y243008D01*
X225329Y243068D01*
X225375Y243130D01*
X225419Y243195D01*
X225460Y243262D01*
X225497Y243330D01*
X225531Y243400D01*
X225562Y243472D01*
X225589Y243545D01*
X225613Y243619D01*
X225633Y243694D01*
X225649Y243770D01*
X225662Y243847D01*
X225672Y243924D01*
X225677Y244002D01*
X225679Y244080D01*
X225679Y244898D01*
X225677Y244976D01*
X225672Y245054D01*
X225662Y245131D01*
X225649Y245208D01*
X225633Y245284D01*
X225613Y245359D01*
X225589Y245433D01*
X225562Y245506D01*
X225531Y245578D01*
X225497Y245648D01*
X225460Y245717D01*
X225419Y245783D01*
X225375Y245848D01*
X225329Y245910D01*
X225279Y245970D01*
X225227Y246028D01*
X225172Y246083D01*
X225114Y246135D01*
X225054Y246185D01*
X224992Y246231D01*
X224927Y246275D01*
X224861Y246316D01*
X224792Y246353D01*
X224722Y246387D01*
X224650Y246418D01*
X224577Y246445D01*
X224503Y246469D01*
X224428Y246489D01*
X224352Y246505D01*
X224275Y246518D01*
X224198Y246528D01*
X224120Y246533D01*
X224042Y246535D01*
X221587Y246535D01*
X221587Y249809D01*
X225679Y249809D01*
D14*
X45720Y143510D02*
X27940Y143510D01*
X27940Y237490D02*
X45720Y237490D01*
D10*
X7860Y193802D02*
X7860Y182118D01*
X7860Y188609D02*
X14351Y188609D01*
X14351Y193802D02*
X14351Y182118D01*
X19671Y191206D02*
X22916Y193802D01*
X22916Y182118D01*
X19671Y182118D02*
X26162Y182118D01*
D12*
X301752Y148336D02*
X301752Y100076D01*
X304292Y110236D01*
X299212Y110236D01*
X301752Y100076D01*
X301752Y148336D02*
X254762Y148336D01*
X263652Y145796D01*
X263652Y150876D01*
X254762Y148336D01*
D14*
X289052Y139446D02*
X289054Y139569D01*
X289060Y139693D01*
X289070Y139816D01*
X289084Y139938D01*
X289102Y140060D01*
X289124Y140182D01*
X289149Y140302D01*
X289179Y140422D01*
X289213Y140541D01*
X289250Y140659D01*
X289291Y140775D01*
X289336Y140890D01*
X289385Y141003D01*
X289437Y141115D01*
X289493Y141225D01*
X289552Y141333D01*
X289615Y141439D01*
X289681Y141543D01*
X289751Y141645D01*
X289824Y141745D01*
X289900Y141842D01*
X289979Y141937D01*
X290061Y142029D01*
X290146Y142118D01*
X290234Y142205D01*
X290325Y142288D01*
X290418Y142369D01*
X290514Y142447D01*
X290613Y142521D01*
X290713Y142592D01*
X290816Y142660D01*
X290921Y142725D01*
X291029Y142786D01*
X291138Y142844D01*
X291249Y142898D01*
X291361Y142948D01*
X291476Y142995D01*
X291591Y143038D01*
X291708Y143077D01*
X291826Y143113D01*
X291946Y143144D01*
X292066Y143172D01*
X292187Y143196D01*
X292309Y143216D01*
X292431Y143232D01*
X292554Y143244D01*
X292677Y143252D01*
X292800Y143256D01*
X292924Y143256D01*
X293047Y143252D01*
X293170Y143244D01*
X293293Y143232D01*
X293415Y143216D01*
X293537Y143196D01*
X293658Y143172D01*
X293778Y143144D01*
X293898Y143113D01*
X294016Y143077D01*
X294133Y143038D01*
X294248Y142995D01*
X294363Y142948D01*
X294475Y142898D01*
X294586Y142844D01*
X294695Y142786D01*
X294803Y142725D01*
X294908Y142660D01*
X295011Y142592D01*
X295111Y142521D01*
X295210Y142447D01*
X295306Y142369D01*
X295399Y142288D01*
X295490Y142205D01*
X295578Y142118D01*
X295663Y142029D01*
X295745Y141937D01*
X295824Y141842D01*
X295900Y141745D01*
X295973Y141645D01*
X296043Y141543D01*
X296109Y141439D01*
X296172Y141333D01*
X296231Y141225D01*
X296287Y141115D01*
X296339Y141003D01*
X296388Y140890D01*
X296433Y140775D01*
X296474Y140659D01*
X296511Y140541D01*
X296545Y140422D01*
X296575Y140302D01*
X296600Y140182D01*
X296622Y140060D01*
X296640Y139938D01*
X296654Y139816D01*
X296664Y139693D01*
X296670Y139569D01*
X296672Y139446D01*
X296670Y139323D01*
X296664Y139199D01*
X296654Y139076D01*
X296640Y138954D01*
X296622Y138832D01*
X296600Y138710D01*
X296575Y138590D01*
X296545Y138470D01*
X296511Y138351D01*
X296474Y138233D01*
X296433Y138117D01*
X296388Y138002D01*
X296339Y137889D01*
X296287Y137777D01*
X296231Y137667D01*
X296172Y137559D01*
X296109Y137453D01*
X296043Y137349D01*
X295973Y137247D01*
X295900Y137147D01*
X295824Y137050D01*
X295745Y136955D01*
X295663Y136863D01*
X295578Y136774D01*
X295490Y136687D01*
X295399Y136604D01*
X295306Y136523D01*
X295210Y136445D01*
X295111Y136371D01*
X295011Y136300D01*
X294908Y136232D01*
X294803Y136167D01*
X294695Y136106D01*
X294586Y136048D01*
X294475Y135994D01*
X294363Y135944D01*
X294248Y135897D01*
X294133Y135854D01*
X294016Y135815D01*
X293898Y135779D01*
X293778Y135748D01*
X293658Y135720D01*
X293537Y135696D01*
X293415Y135676D01*
X293293Y135660D01*
X293170Y135648D01*
X293047Y135640D01*
X292924Y135636D01*
X292800Y135636D01*
X292677Y135640D01*
X292554Y135648D01*
X292431Y135660D01*
X292309Y135676D01*
X292187Y135696D01*
X292066Y135720D01*
X291946Y135748D01*
X291826Y135779D01*
X291708Y135815D01*
X291591Y135854D01*
X291476Y135897D01*
X291361Y135944D01*
X291249Y135994D01*
X291138Y136048D01*
X291029Y136106D01*
X290921Y136167D01*
X290816Y136232D01*
X290713Y136300D01*
X290613Y136371D01*
X290514Y136445D01*
X290418Y136523D01*
X290325Y136604D01*
X290234Y136687D01*
X290146Y136774D01*
X290061Y136863D01*
X289979Y136955D01*
X289900Y137050D01*
X289824Y137147D01*
X289751Y137247D01*
X289681Y137349D01*
X289615Y137453D01*
X289552Y137559D01*
X289493Y137667D01*
X289437Y137777D01*
X289385Y137889D01*
X289336Y138002D01*
X289291Y138117D01*
X289250Y138233D01*
X289213Y138351D01*
X289179Y138470D01*
X289149Y138590D01*
X289124Y138710D01*
X289102Y138832D01*
X289084Y138954D01*
X289070Y139076D01*
X289060Y139199D01*
X289054Y139323D01*
X289052Y139446D01*
D12*
X292481Y139446D02*
X292483Y139485D01*
X292489Y139523D01*
X292498Y139560D01*
X292512Y139596D01*
X292529Y139631D01*
X292549Y139664D01*
X292573Y139694D01*
X292600Y139722D01*
X292629Y139747D01*
X292660Y139769D01*
X292694Y139788D01*
X292730Y139803D01*
X292767Y139815D01*
X292804Y139823D01*
X292843Y139827D01*
X292881Y139827D01*
X292920Y139823D01*
X292957Y139815D01*
X292994Y139803D01*
X293030Y139788D01*
X293064Y139769D01*
X293095Y139747D01*
X293124Y139722D01*
X293151Y139694D01*
X293175Y139664D01*
X293195Y139631D01*
X293212Y139596D01*
X293226Y139560D01*
X293235Y139523D01*
X293241Y139485D01*
X293243Y139446D01*
X293241Y139407D01*
X293235Y139369D01*
X293226Y139332D01*
X293212Y139296D01*
X293195Y139261D01*
X293175Y139228D01*
X293151Y139198D01*
X293124Y139170D01*
X293095Y139145D01*
X293064Y139123D01*
X293030Y139104D01*
X292994Y139089D01*
X292957Y139077D01*
X292920Y139069D01*
X292881Y139065D01*
X292843Y139065D01*
X292804Y139069D01*
X292767Y139077D01*
X292730Y139089D01*
X292694Y139104D01*
X292660Y139123D01*
X292629Y139145D01*
X292600Y139170D01*
X292573Y139198D01*
X292549Y139228D01*
X292529Y139261D01*
X292512Y139296D01*
X292498Y139332D01*
X292489Y139369D01*
X292483Y139407D01*
X292481Y139446D01*
D18*
X287189Y118364D02*
X290915Y113086D01*
X294640Y118364D01*
X290915Y113086D02*
X290915Y107188D01*
X285750Y133604D02*
X279541Y133604D01*
X285750Y133604D02*
X279541Y122428D01*
X285750Y122428D01*
X270510Y138684D02*
X263059Y127508D01*
X270510Y127508D02*
X263059Y138684D01*
M02*
