M48
;GenerationSoftware,Autodesk,EAGLE,9.2.2*%
;CreationDate,2018-12-11T23:30:29Z*%
FMAT,2
ICI,OFF
METRIC,TZ,000.000
T5C0.350
T4C0.889
T3C1.000
T2C1.150
T1C2.300
%
G90
M71
T1
X52458Y24350
X52458Y11210
T2
X7620Y10160
X5080Y10160
X2540Y10160
X7620Y24765
X5080Y24765
X2540Y24765
X46990Y26035
X41910Y26035
X46990Y8890
X44450Y8890
X41910Y8890
X44450Y26035
X3810Y19050
X3810Y16510
X3810Y21590
T3
X49748Y16780
X49748Y14280
X49748Y21280
X49748Y18780
T4
X33850Y28930
X33850Y31470
X36390Y31470
X38930Y28930
X38930Y31470
X41470Y28930
X41470Y31470
X44010Y28930
X44010Y31470
X46550Y28930
X46550Y31470
X49090Y28930
X49090Y31470
X36390Y28930
X5910Y3530
X5910Y6070
X8450Y3530
X8450Y6070
X10990Y3530
X10990Y6070
X13530Y3530
X13530Y6070
X16070Y3530
X16070Y6070
X18610Y3530
X18610Y6070
X21150Y3530
X21150Y6070
X23690Y3530
X23690Y6070
X26230Y3530
X26230Y6070
X28770Y3530
X28770Y6070
X31310Y3530
X31310Y6070
X33850Y3530
X33850Y6070
X36390Y3530
X36390Y6070
X38930Y3530
X38930Y6070
X41470Y3530
X41470Y6070
X44010Y3530
X44010Y6070
X46550Y3530
X46550Y6070
X49090Y3530
X49090Y6070
X5910Y28930
X5910Y31470
X8450Y28930
X8450Y31470
X10990Y28930
X10990Y31470
X13530Y28930
X13530Y31470
X16070Y28930
X16070Y31470
X18610Y28930
X18610Y31470
X21150Y28930
X21150Y31470
X23690Y28930
X23690Y31470
X26230Y28930
X26230Y31470
X28770Y28930
X28770Y31470
X31310Y28930
X31310Y31470
T5
X8636Y15240
X8636Y19304
X44196Y17780
X21590Y12192
X24638Y12192
X21336Y18542
X15875Y19431
X25146Y18796
X33528Y16002
X33528Y17272
X32258Y19812
X32385Y26162
X28194Y26162
X39243Y24130
X31496Y15748
X17399Y17653
X19685Y26035
X28956Y20320
X24384Y26035
X30480Y17018
X20574Y16256
X24638Y16002
X28067Y24384
X24257Y18796
X45085Y16002
X37973Y19685
X37719Y16256
X18288Y17018
X39878Y18796
X39243Y20320
X43180Y23368
X33401Y19685
X23495Y26035
X18796Y26035
X30734Y18771
M30